<?xml version="1.0" encoding="UTF-8" standalone="no"?>
<!-- Created with Inkscape (http://www.inkscape.org/) -->

<svg
   xmlns:dc="http://purl.org/dc/elements/1.1/"
   xmlns:cc="http://creativecommons.org/ns#"
   xmlns:rdf="http://www.w3.org/1999/02/22-rdf-syntax-ns#"
   xmlns:svg="http://www.w3.org/2000/svg"
   xmlns="http://www.w3.org/2000/svg"
   xmlns:sodipodi="http://sodipodi.sourceforge.net/DTD/sodipodi-0.dtd"
   xmlns:inkscape="http://www.inkscape.org/namespaces/inkscape"
   width="210mm"
   height="297mm"
   viewBox="0 0 744.09448819 1052.3622047"
   id="svg6359"
   version="1.1"
   inkscape:version="0.91 r13725"
   sodipodi:docname="address.svg">
  <defs
     id="defs6361" />
  <sodipodi:namedview
     id="base"
     pagecolor="#ffffff"
     bordercolor="#666666"
     borderopacity="1.0"
     inkscape:pageopacity="0.0"
     inkscape:pageshadow="2"
     inkscape:zoom="0.35"
     inkscape:cx="-295"
     inkscape:cy="520"
     inkscape:document-units="px"
     inkscape:current-layer="layer1"
     showgrid="false"
     inkscape:window-width="1440"
     inkscape:window-height="855"
     inkscape:window-x="0"
     inkscape:window-y="0"
     inkscape:window-maximized="1" />
  <metadata
     id="metadata6364">
    <rdf:RDF>
      <cc:Work
         rdf:about="">
        <dc:format>image/svg+xml</dc:format>
        <dc:type
           rdf:resource="http://purl.org/dc/dcmitype/StillImage" />
        <dc:title></dc:title>
      </cc:Work>
    </rdf:RDF>
  </metadata>
  <g
     inkscape:label="Layer 1"
     inkscape:groupmode="layer"
     id="layer1">
    <g
       style="font-style:normal;font-variant:normal;font-weight:normal;font-stretch:normal;font-size:40px;line-height:125%;font-family:sans-serif;-inkscape-font-specification:'sans-serif, Normal';text-align:center;letter-spacing:0px;word-spacing:0px;writing-mode:lr-tb;text-anchor:middle;fill:#000000;fill-opacity:1;stroke:none;stroke-width:1px;stroke-linecap:butt;stroke-linejoin:miter;stroke-opacity:1"
       id="text6367"
       transform="matrix(0.65979381,0,0,0.65979381,63.83613,177.13942)">
      <path
         d="m 235.94031,298.43643 0,10.6836 6.32812,0 q 3.1836,0 4.70703,-1.3086 1.54297,-1.32812 1.54297,-4.04297 0,-2.73437 -1.54297,-4.02343 -1.52343,-1.3086 -4.70703,-1.3086 l -6.32812,0 z m 0,-11.99219 0,8.78907 5.83984,0 q 2.89063,0 4.29688,-1.07422 1.42578,-1.09375 1.42578,-3.32031 0,-2.20704 -1.42578,-3.30079 -1.40625,-1.09375 -4.29688,-1.09375 l -5.83984,0 z m -3.94531,-3.24218 10.07812,0 q 4.51172,0 6.95313,1.875 2.4414,1.875 2.4414,5.33203 0,2.67578 -1.25,4.25781 -1.25,1.58203 -3.67187,1.97266 2.91015,0.625 4.51172,2.61718 1.62109,1.97266 1.62109,4.94141 0,3.90625 -2.65625,6.03516 -2.65625,2.1289 -7.55859,2.1289 l -10.46875,0 0,-29.16015 z"
         id="path6380"
         inkscape:connector-curvature="0" />
      <path
         d="m 271.9364,293.84659 q -0.60547,-0.35156 -1.32812,-0.50781 -0.70313,-0.17579 -1.5625,-0.17579 -3.04688,0 -4.6875,1.99219 -1.6211,1.97266 -1.6211,5.6836 l 0,11.52343 -3.61328,0 0,-21.875 3.61328,0 0,3.39844 q 1.13282,-1.99219 2.94922,-2.94922 1.81641,-0.97656 4.41406,-0.97656 0.3711,0 0.82032,0.0586 0.44922,0.0391 0.99609,0.13672 l 0.0195,3.69141 z"
         id="path6382"
         inkscape:connector-curvature="0" />
      <path
         d="m 285.6864,301.36612 q -4.35547,0 -6.03515,0.99609 -1.67969,0.9961 -1.67969,3.39844 0,1.91406 1.25,3.04688 1.26953,1.11328 3.4375,1.11328 2.98828,0 4.78515,-2.10938 1.81641,-2.1289 1.81641,-5.64453 l 0,-0.80078 -3.57422,0 z m 7.16797,-1.48438 0,12.48047 -3.59375,0 0,-3.32031 q -1.23047,1.99219 -3.06641,2.94922 -1.83593,0.9375 -4.49218,0.9375 -3.35938,0 -5.35157,-1.875 -1.97265,-1.89453 -1.97265,-5.05859 0,-3.69141 2.46094,-5.56641 2.48046,-1.875 7.38281,-1.875 l 5.03906,0 0,-0.35156 q 0,-2.48047 -1.64062,-3.82813 -1.6211,-1.36719 -4.57032,-1.36719 -1.875,0 -3.65234,0.44922 -1.77734,0.44922 -3.41797,1.34766 l 0,-3.32031 q 1.97266,-0.76172 3.82813,-1.13282 1.85546,-0.39062 3.61328,-0.39062 4.74609,0 7.08984,2.46094 2.34375,2.46093 2.34375,7.46093 z"
         id="path6384"
         inkscape:connector-curvature="0" />
      <path
         d="m 318.53796,299.15909 0,13.20312 -3.59375,0 0,-13.08593 q 0,-3.10547 -1.21093,-4.64844 -1.21094,-1.54297 -3.63282,-1.54297 -2.91015,0 -4.58984,1.85547 -1.67969,1.85547 -1.67969,5.05859 l 0,12.36328 -3.61328,0 0,-21.875 3.61328,0 0,3.39844 q 1.28907,-1.97266 3.02735,-2.94922 1.75781,-0.97656 4.04297,-0.97656 3.76953,0 5.70312,2.34375 1.93359,2.32422 1.93359,6.85547 z"
         id="path6386"
         inkscape:connector-curvature="0" />
      <path
         d="m 340.13953,293.80753 0,-11.83594 3.59375,0 0,30.39062 -3.59375,0 0,-3.28125 q -1.13282,1.95313 -2.8711,2.91016 -1.71875,0.9375 -4.14062,0.9375 -3.96485,0 -6.46485,-3.16406 -2.48046,-3.16407 -2.48046,-8.32032 0,-5.15625 2.48046,-8.32031 2.5,-3.16406 6.46485,-3.16406 2.42187,0 4.14062,0.95703 1.73828,0.9375 2.8711,2.89063 z m -12.2461,7.63671 q 0,3.96485 1.6211,6.23047 1.64062,2.2461 4.49218,2.2461 2.85157,0 4.49219,-2.2461 1.64063,-2.26562 1.64063,-6.23047 0,-3.96484 -1.64063,-6.21093 -1.64062,-2.26563 -4.49219,-2.26563 -2.85156,0 -4.49218,2.26563 -1.6211,2.24609 -1.6211,6.21093 z"
         id="path6388"
         inkscape:connector-curvature="0" />
      <path
         d="m 359.61218,293.00674 q -2.89062,0 -4.57031,2.26563 -1.67969,2.24609 -1.67969,6.17187 0,3.92579 1.66016,6.19141 1.67969,2.24609 4.58984,2.24609 2.8711,0 4.55078,-2.26562 1.67969,-2.26563 1.67969,-6.17188 0,-3.88671 -1.67969,-6.15234 -1.67968,-2.28516 -4.55078,-2.28516 z m 0,-3.04687 q 4.6875,0 7.36328,3.04687 2.67579,3.04688 2.67579,8.4375 0,5.3711 -2.67579,8.4375 -2.67578,3.04688 -7.36328,3.04688 -4.70703,0 -7.38281,-3.04688 -2.65625,-3.0664 -2.65625,-8.4375 0,-5.39062 2.65625,-8.4375 2.67578,-3.04687 7.38281,-3.04687 z"
         id="path6390"
         inkscape:connector-curvature="0" />
      <path
         d="m 393.77234,299.15909 0,13.20312 -3.59375,0 0,-13.08593 q 0,-3.10547 -1.21094,-4.64844 -1.21094,-1.54297 -3.63281,-1.54297 -2.91016,0 -4.58984,1.85547 -1.67969,1.85547 -1.67969,5.05859 l 0,12.36328 -3.61328,0 0,-21.875 3.61328,0 0,3.39844 q 1.28906,-1.97266 3.02734,-2.94922 1.75781,-0.97656 4.04297,-0.97656 3.76953,0 5.70313,2.34375 1.93359,2.32422 1.93359,6.85547 z"
         id="path6392"
         inkscape:connector-curvature="0" />
      <path
         d="m 431.35046,284.15909 0,3.84765 q -2.24609,-1.07421 -4.23828,-1.60156 -1.99218,-0.52734 -3.84765,-0.52734 -3.22266,0 -4.98047,1.25 -1.73828,1.25 -1.73828,3.55469 0,1.93359 1.15234,2.92968 1.17188,0.97657 4.41406,1.58203 l 2.38282,0.48829 q 4.41406,0.83984 6.5039,2.96875 2.10938,2.10937 2.10938,5.66406 0,4.23828 -2.85157,6.42578 -2.83203,2.1875 -8.32031,2.1875 -2.07031,0 -4.41406,-0.46875 -2.32422,-0.46875 -4.82422,-1.38672 l 0,-4.0625 q 2.40234,1.34766 4.70703,2.03125 2.30469,0.68359 4.53125,0.68359 3.37891,0 5.21485,-1.32812 1.83593,-1.32813 1.83593,-3.78906 0,-2.14844 -1.32812,-3.35938 -1.3086,-1.21094 -4.31641,-1.8164 l -2.40234,-0.46875 q -4.41406,-0.87891 -6.38672,-2.75391 -1.97266,-1.875 -1.97266,-5.21484 0,-3.86719 2.71485,-6.09375 2.73437,-2.22657 7.51953,-2.22657 2.05078,0 4.17969,0.3711 2.1289,0.37109 4.35546,1.11328 z"
         id="path6394"
         inkscape:connector-curvature="0" />
      <path
         d="m 449.1239,301.36612 q -4.35547,0 -6.03515,0.99609 -1.67969,0.9961 -1.67969,3.39844 0,1.91406 1.25,3.04688 1.26953,1.11328 3.4375,1.11328 2.98828,0 4.78515,-2.10938 1.81641,-2.1289 1.81641,-5.64453 l 0,-0.80078 -3.57422,0 z m 7.16797,-1.48438 0,12.48047 -3.59375,0 0,-3.32031 q -1.23047,1.99219 -3.06641,2.94922 -1.83593,0.9375 -4.49218,0.9375 -3.35938,0 -5.35157,-1.875 -1.97265,-1.89453 -1.97265,-5.05859 0,-3.69141 2.46094,-5.56641 2.48046,-1.875 7.38281,-1.875 l 5.03906,0 0,-0.35156 q 0,-2.48047 -1.64062,-3.82813 -1.6211,-1.36719 -4.57032,-1.36719 -1.875,0 -3.65234,0.44922 -1.77734,0.44922 -3.41797,1.34766 l 0,-3.32031 q 1.97266,-0.76172 3.82813,-1.13282 1.85546,-0.39062 3.61328,-0.39062 4.74609,0 7.08984,2.46094 2.34375,2.46093 2.34375,7.46093 z"
         id="path6396"
         inkscape:connector-curvature="0" />
      <path
         d="m 467.34656,284.27628 0,6.21093 7.40234,0 0,2.79297 -7.40234,0 0,11.875 q 0,2.67578 0.72265,3.4375 0.74219,0.76172 2.98829,0.76172 l 3.6914,0 0,3.00781 -3.6914,0 q -4.16016,0 -5.74219,-1.54297 -1.58203,-1.5625 -1.58203,-5.66406 l 0,-11.875 -2.63672,0 0,-2.79297 2.63672,0 0,-6.21093 3.61328,0 z"
         id="path6398"
         inkscape:connector-curvature="0" />
      <path
         d="m 492.17078,293.84659 q -0.60547,-0.35156 -1.32813,-0.50781 -0.70312,-0.17579 -1.5625,-0.17579 -3.04687,0 -4.6875,1.99219 -1.62109,1.97266 -1.62109,5.6836 l 0,11.52343 -3.61328,0 0,-21.875 3.61328,0 0,3.39844 q 1.13281,-1.99219 2.94922,-2.94922 1.8164,-0.97656 4.41406,-0.97656 0.37109,0 0.82031,0.0586 0.44922,0.0391 0.9961,0.13672 l 0.0195,3.69141 z"
         id="path6400"
         inkscape:connector-curvature="0" />
      <path
         d="m 503.63562,293.00674 q -2.89062,0 -4.57031,2.26563 -1.67969,2.24609 -1.67969,6.17187 0,3.92579 1.66016,6.19141 1.67968,2.24609 4.58984,2.24609 2.87109,0 4.55078,-2.26562 1.67969,-2.26563 1.67969,-6.17188 0,-3.88671 -1.67969,-6.15234 -1.67969,-2.28516 -4.55078,-2.28516 z m 0,-3.04687 q 4.6875,0 7.36328,3.04687 2.67578,3.04688 2.67578,8.4375 0,5.3711 -2.67578,8.4375 -2.67578,3.04688 -7.36328,3.04688 -4.70703,0 -7.38281,-3.04688 -2.65625,-3.0664 -2.65625,-8.4375 0,-5.39062 2.65625,-8.4375 2.67578,-3.04687 7.38281,-3.04687 z"
         id="path6402"
         inkscape:connector-curvature="0" />
      <path
         d="m 536.6825,294.68643 q 1.34765,-2.42187 3.22265,-3.57422 1.875,-1.15234 4.41406,-1.15234 3.41797,0 5.27344,2.40234 1.85547,2.38282 1.85547,6.79688 l 0,13.20312 -3.61328,0 0,-13.08593 q 0,-3.14454 -1.11328,-4.66797 -1.11328,-1.52344 -3.39844,-1.52344 -2.79297,0 -4.41406,1.85547 -1.6211,1.85547 -1.6211,5.05859 l 0,12.36328 -3.61328,0 0,-13.08593 q 0,-3.16407 -1.11328,-4.66797 -1.11328,-1.52344 -3.4375,-1.52344 -2.7539,0 -4.375,1.875 -1.62109,1.85547 -1.62109,5.03906 l 0,12.36328 -3.61328,0 0,-21.875 3.61328,0 0,3.39844 q 1.23047,-2.01172 2.94922,-2.96875 1.71875,-0.95703 4.08203,-0.95703 2.38281,0 4.04297,1.21094 1.67968,1.21093 2.48047,3.51562 z"
         id="path6404"
         inkscape:connector-curvature="0" />
      <path
         d="m 226.70203,336.63956 -9.96094,15.5664 9.96094,0 0,-15.5664 z m -1.03516,-3.4375 4.96094,0 0,19.0039 4.16015,0 0,3.28125 -4.16015,0 0,6.875 -3.92578,0 0,-6.875 -13.16407,0 0,-3.80859 12.12891,-18.47656 z"
         id="path6406"
         inkscape:connector-curvature="0" />
      <path
         d="m 249.76843,335.79971 q -3.04687,0 -4.58984,3.00782 -1.52344,2.98828 -1.52344,9.0039 0,5.9961 1.52344,9.00391 1.54297,2.98828 4.58984,2.98828 3.06641,0 4.58985,-2.98828 1.54297,-3.00781 1.54297,-9.00391 0,-6.01562 -1.54297,-9.0039 -1.52344,-3.00782 -4.58985,-3.00782 z m 0,-3.125 q 4.90235,0 7.48047,3.88672 2.59766,3.86719 2.59766,11.25 0,7.36328 -2.59766,11.25 -2.57812,3.86719 -7.48047,3.86719 -4.90234,0 -7.5,-3.86719 -2.57812,-3.88672 -2.57812,-11.25 0,-7.38281 2.57812,-11.25 2.59766,-3.88672 7.5,-3.88672 z"
         id="path6408"
         inkscape:connector-curvature="0" />
      <path
         d="m 277.63953,336.63956 -9.96094,15.5664 9.96094,0 0,-15.5664 z m -1.03516,-3.4375 4.96094,0 0,19.0039 4.16015,0 0,3.28125 -4.16015,0 0,6.875 -3.92578,0 0,-6.875 -13.16407,0 0,-3.80859 12.12891,-18.47656 z"
         id="path6410"
         inkscape:connector-curvature="0" />
      <path
         d="m 322.13171,334.15909 0,3.84765 q -2.24609,-1.07421 -4.23828,-1.60156 -1.99218,-0.52734 -3.84765,-0.52734 -3.22266,0 -4.98047,1.25 -1.73828,1.25 -1.73828,3.55469 0,1.93359 1.15234,2.92968 1.17188,0.97657 4.41406,1.58203 l 2.38282,0.48829 q 4.41406,0.83984 6.5039,2.96875 2.10938,2.10937 2.10938,5.66406 0,4.23828 -2.85157,6.42578 -2.83203,2.1875 -8.32031,2.1875 -2.07031,0 -4.41406,-0.46875 -2.32422,-0.46875 -4.82422,-1.38672 l 0,-4.0625 q 2.40234,1.34766 4.70703,2.03125 2.30469,0.68359 4.53125,0.68359 3.37891,0 5.21485,-1.32812 1.83593,-1.32813 1.83593,-3.78906 0,-2.14844 -1.32812,-3.35938 -1.3086,-1.21094 -4.31641,-1.8164 l -2.40234,-0.46875 q -4.41406,-0.87891 -6.38672,-2.75391 -1.97266,-1.875 -1.97266,-5.21484 0,-3.86719 2.71485,-6.09375 2.73437,-2.22657 7.51953,-2.22657 2.05078,0 4.17969,0.3711 2.1289,0.37109 4.35546,1.11328 z"
         id="path6412"
         inkscape:connector-curvature="0" />
      <path
         d="m 338.44031,343.00674 q -2.89063,0 -4.57031,2.26563 -1.67969,2.24609 -1.67969,6.17187 0,3.92579 1.66015,6.19141 1.67969,2.24609 4.58985,2.24609 2.87109,0 4.55078,-2.26562 1.67969,-2.26563 1.67969,-6.17188 0,-3.88671 -1.67969,-6.15234 -1.67969,-2.28516 -4.55078,-2.28516 z m 0,-3.04687 q 4.6875,0 7.36328,3.04687 2.67578,3.04688 2.67578,8.4375 0,5.3711 -2.67578,8.4375 -2.67578,3.04688 -7.36328,3.04688 -4.70703,0 -7.38281,-3.04688 -2.65625,-3.0664 -2.65625,-8.4375 0,-5.39062 2.65625,-8.4375 2.67578,-3.04687 7.38281,-3.04687 z"
         id="path6414"
         inkscape:connector-curvature="0" />
      <path
         d="m 365.49109,331.97159 0,2.98828 -3.4375,0 q -1.93359,0 -2.69531,0.78125 -0.74219,0.78125 -0.74219,2.8125 l 0,1.93359 5.91797,0 0,2.79297 -5.91797,0 0,19.08203 -3.61328,0 0,-19.08203 -3.4375,0 0,-2.79297 3.4375,0 0,-1.52343 q 0,-3.65235 1.69922,-5.3125 1.69922,-1.67969 5.39062,-1.67969 l 3.39844,0 z"
         id="path6416"
         inkscape:connector-curvature="0" />
      <path
         d="m 371.44812,334.27628 0,6.21093 7.40234,0 0,2.79297 -7.40234,0 0,11.875 q 0,2.67578 0.72266,3.4375 0.74218,0.76172 2.98828,0.76172 l 3.6914,0 0,3.00781 -3.6914,0 q -4.16016,0 -5.74219,-1.54297 -1.58203,-1.5625 -1.58203,-5.66406 l 0,-11.875 -2.63672,0 0,-2.79297 2.63672,0 0,-6.21093 3.61328,0 z"
         id="path6418"
         inkscape:connector-curvature="0" />
      <path
         d="m 418.36218,335.44815 0,4.16016 q -1.99218,-1.85547 -4.25781,-2.77344 -2.24609,-0.91797 -4.78516,-0.91797 -5,0 -7.65625,3.06641 -2.65625,3.04687 -2.65625,8.82812 0,5.76172 2.65625,8.82813 2.65625,3.04687 7.65625,3.04687 2.53907,0 4.78516,-0.91797 2.26563,-0.91797 4.25781,-2.77343 l 0,4.12109 q -2.07031,1.40625 -4.39453,2.10937 -2.30469,0.70313 -4.88281,0.70313 -6.62109,0 -10.42969,-4.04297 -3.80859,-4.0625 -3.80859,-11.07422 0,-7.03125 3.80859,-11.07422 3.8086,-4.0625 10.42969,-4.0625 2.61719,0 4.92187,0.70313 2.32422,0.68359 4.35547,2.07031 z"
         id="path6420"
         inkscape:connector-curvature="0" />
      <path
         d="m 424.33875,331.97159 3.59375,0 0,30.39062 -3.59375,0 0,-30.39062 z"
         id="path6422"
         inkscape:connector-curvature="0" />
      <path
         d="m 443.90906,343.00674 q -2.89063,0 -4.57031,2.26563 -1.67969,2.24609 -1.67969,6.17187 0,3.92579 1.66015,6.19141 1.67969,2.24609 4.58985,2.24609 2.87109,0 4.55078,-2.26562 1.67969,-2.26563 1.67969,-6.17188 0,-3.88671 -1.67969,-6.15234 -1.67969,-2.28516 -4.55078,-2.28516 z m 0,-3.04687 q 4.6875,0 7.36328,3.04687 2.67578,3.04688 2.67578,8.4375 0,5.3711 -2.67578,8.4375 -2.67578,3.04688 -7.36328,3.04688 -4.70703,0 -7.38281,-3.04688 -2.65625,-3.0664 -2.65625,-8.4375 0,-5.39062 2.65625,-8.4375 2.67578,-3.04687 7.38281,-3.04687 z"
         id="path6424"
         inkscape:connector-curvature="0" />
      <path
         d="m 459.51453,353.7294 0,-13.24219 3.59375,0 0,13.10547 q 0,3.10547 1.21093,4.66797 1.21094,1.54297 3.63282,1.54297 2.91015,0 4.58984,-1.85547 1.69922,-1.85547 1.69922,-5.05859 l 0,-12.40235 3.59375,0 0,21.875 -3.59375,0 0,-3.35937 q -1.30859,1.99219 -3.04688,2.96875 -1.71875,0.95703 -4.0039,0.95703 -3.76953,0 -5.72266,-2.34375 -1.95312,-2.34375 -1.95312,-6.85547 z"
         id="path6426"
         inkscape:connector-curvature="0" />
      <path
         d="m 499.67078,343.80753 0,-11.83594 3.59375,0 0,30.39062 -3.59375,0 0,-3.28125 q -1.13282,1.95313 -2.8711,2.91016 -1.71875,0.9375 -4.14062,0.9375 -3.96485,0 -6.46485,-3.16406 -2.48046,-3.16407 -2.48046,-8.32032 0,-5.15625 2.48046,-8.32031 2.5,-3.16406 6.46485,-3.16406 2.42187,0 4.14062,0.95703 1.73828,0.9375 2.8711,2.89063 z m -12.2461,7.63671 q 0,3.96485 1.6211,6.23047 1.64062,2.2461 4.49218,2.2461 2.85157,0 4.49219,-2.2461 1.64063,-2.26562 1.64063,-6.23047 0,-3.96484 -1.64063,-6.21093 -1.64062,-2.26563 -4.49219,-2.26563 -2.85156,0 -4.49218,2.26563 -1.6211,2.24609 -1.6211,6.21093 z"
         id="path6428"
         inkscape:connector-curvature="0" />
      <path
         d="m 545.39343,335.44815 0,4.16016 q -1.99218,-1.85547 -4.25781,-2.77344 -2.24609,-0.91797 -4.78516,-0.91797 -5,0 -7.65625,3.06641 -2.65625,3.04687 -2.65625,8.82812 0,5.76172 2.65625,8.82813 2.65625,3.04687 7.65625,3.04687 2.53907,0 4.78516,-0.91797 2.26563,-0.91797 4.25781,-2.77343 l 0,4.12109 q -2.07031,1.40625 -4.39453,2.10937 -2.30469,0.70313 -4.88281,0.70313 -6.62109,0 -10.42969,-4.04297 -3.80859,-4.0625 -3.80859,-11.07422 0,-7.03125 3.80859,-11.07422 3.8086,-4.0625 10.42969,-4.0625 2.61719,0 4.92187,0.70313 2.32422,0.68359 4.35547,2.07031 z"
         id="path6430"
         inkscape:connector-curvature="0" />
      <path
         d="m 548.79187,340.48721 3.80859,0 6.83594,18.35938 6.83594,-18.35938 3.80859,0 -8.20312,21.875 -4.88281,0 -8.20313,-21.875 z"
         id="path6432"
         inkscape:connector-curvature="0" />
      <path
         d="m 233.45984,387.08878 -5.35156,14.51171 10.72265,0 -5.37109,-14.51171 z m -2.22656,-3.88672 4.47265,0 11.11328,29.16015 -4.10156,0 -2.65625,-7.48047 -13.14453,0 -2.65625,7.48047 -4.16016,0 11.13282,-29.16015 z"
         id="path6434"
         inkscape:connector-curvature="0" />
      <path
         d="m 250.53015,403.7294 0,-13.24219 3.59375,0 0,13.10547 q 0,3.10547 1.21094,4.66797 1.21094,1.54297 3.63281,1.54297 2.91016,0 4.58985,-1.85547 1.69921,-1.85547 1.69921,-5.05859 l 0,-12.40235 3.59375,0 0,21.875 -3.59375,0 0,-3.35937 q -1.30859,1.99219 -3.04687,2.96875 -1.71875,0.95703 -4.00391,0.95703 -3.76953,0 -5.72265,-2.34375 -1.95313,-2.34375 -1.95313,-6.85547 z"
         id="path6436"
         inkscape:connector-curvature="0" />
      <path
         d="m 290.23718,391.13174 0,3.39844 q -1.52343,-0.78125 -3.16406,-1.17187 -1.64062,-0.39063 -3.39844,-0.39063 -2.67578,0 -4.02343,0.82031 -1.32813,0.82032 -1.32813,2.46094 0,1.25 0.95703,1.97266 0.95703,0.70312 3.84766,1.34765 l 1.23047,0.27344 q 3.82812,0.82031 5.42968,2.32422 1.6211,1.48438 1.6211,4.16016 0,3.04687 -2.42188,4.82422 -2.40234,1.77734 -6.62109,1.77734 -1.75781,0 -3.67188,-0.35156 -1.89453,-0.33203 -4.0039,-1.01563 l 0,-3.71094 q 1.99219,1.03516 3.92578,1.5625 1.93359,0.50782 3.82812,0.50782 2.53907,0 3.90625,-0.85938 1.36719,-0.8789 1.36719,-2.46094 0,-1.46484 -0.99609,-2.24609 -0.97656,-0.78125 -4.31641,-1.50391 l -1.25,-0.29296 q -3.33984,-0.70313 -4.82422,-2.14844 -1.48437,-1.46485 -1.48437,-4.00391 0,-3.08594 2.1875,-4.76562 2.1875,-1.67969 6.21094,-1.67969 1.99218,0 3.75,0.29297 1.75781,0.29297 3.24218,0.8789 z"
         id="path6438"
         inkscape:connector-curvature="0" />
      <path
         d="m 300.70593,384.27628 0,6.21093 7.40235,0 0,2.79297 -7.40235,0 0,11.875 q 0,2.67578 0.72266,3.4375 0.74219,0.76172 2.98828,0.76172 l 3.69141,0 0,3.00781 -3.69141,0 q -4.16016,0 -5.74219,-1.54297 -1.58203,-1.5625 -1.58203,-5.66406 l 0,-11.875 -2.63672,0 0,-2.79297 2.63672,0 0,-6.21093 3.61328,0 z"
         id="path6440"
         inkscape:connector-curvature="0" />
      <path
         d="m 312.85437,390.48721 3.59375,0 0,21.875 -3.59375,0 0,-21.875 z m 0,-8.51562 3.59375,0 0,4.55078 -3.59375,0 0,-4.55078 z"
         id="path6442"
         inkscape:connector-curvature="0" />
      <path
         d="m 342.13171,399.15909 0,13.20312 -3.59375,0 0,-13.08593 q 0,-3.10547 -1.21093,-4.64844 -1.21094,-1.54297 -3.63282,-1.54297 -2.91015,0 -4.58984,1.85547 -1.67969,1.85547 -1.67969,5.05859 l 0,12.36328 -3.61328,0 0,-21.875 3.61328,0 0,3.39844 q 1.28907,-1.97266 3.02735,-2.94922 1.75781,-0.97656 4.04297,-0.97656 3.76953,0 5.70312,2.34375 1.93359,2.32422 1.93359,6.85547 z"
         id="path6444"
         inkscape:connector-curvature="0" />
      <path
         d="m 350.25671,407.40128 4.1211,0 0,3.35937 -3.20313,6.25 -2.51953,0 1.60156,-6.25 0,-3.35937 z"
         id="path6446"
         inkscape:connector-curvature="0" />
      <path
         d="m 370.92078,383.20206 24.66797,0 0,3.32031 -10.35157,0 0,25.83984 -3.96484,0 0,-25.83984 -10.35156,0 0,-3.32031 z"
         id="path6448"
         inkscape:connector-curvature="0" />
      <path
         d="m 398.08875,383.20206 4.23828,0 7.24609,10.83984 7.28516,-10.83984 4.23828,0 -9.375,14.0039 10,15.15625 -4.23828,0 -8.20313,-12.40234 -8.26172,12.40234 -4.25781,0 10.41016,-15.5664 -9.08203,-13.59375 z"
         id="path6450"
         inkscape:connector-curvature="0" />
      <path
         d="m 439.00671,383.20206 18.75,0 0,1.67968 -10.58593,27.48047 -4.1211,0 9.96094,-25.83984 -14.00391,0 0,-3.32031 z"
         id="path6452"
         inkscape:connector-curvature="0" />
      <path
         d="m 473.90906,398.51456 q -2.8125,0 -4.4336,1.5039 -1.60156,1.50391 -1.60156,4.14063 0,2.63672 1.60156,4.14062 1.6211,1.50391 4.4336,1.50391 2.8125,0 4.43359,-1.50391 1.6211,-1.52343 1.6211,-4.14062 0,-2.63672 -1.6211,-4.14063 -1.60156,-1.5039 -4.43359,-1.5039 z m -3.94531,-1.67969 q -2.53907,-0.625 -3.96485,-2.36328 -1.40625,-1.73828 -1.40625,-4.23828 0,-3.4961 2.48047,-5.52735 2.5,-2.03125 6.83594,-2.03125 4.35547,0 6.83594,2.03125 2.48046,2.03125 2.48046,5.52735 0,2.5 -1.42578,4.23828 -1.40625,1.73828 -3.92578,2.36328 2.85156,0.66406 4.4336,2.59766 1.60156,1.93359 1.60156,4.72656 0,4.23828 -2.59766,6.5039 -2.57812,2.26563 -7.40234,2.26563 -4.82422,0 -7.42188,-2.26563 -2.57812,-2.26562 -2.57812,-6.5039 0,-2.79297 1.60156,-4.72656 1.60156,-1.9336 4.45313,-2.59766 z m -1.44532,-6.23047 q 0,2.26563 1.40625,3.53516 1.42578,1.26953 3.98438,1.26953 2.53906,0 3.96484,-1.26953 1.44531,-1.26953 1.44531,-3.53516 0,-2.26562 -1.44531,-3.53516 -1.42578,-1.26953 -3.96484,-1.26953 -2.5586,0 -3.98438,1.26953 -1.40625,1.26954 -1.40625,3.53516 z"
         id="path6454"
         inkscape:connector-curvature="0" />
      <path
         d="m 489.94421,383.20206 18.75,0 0,1.67968 -10.58593,27.48047 -4.1211,0 9.96094,-25.83984 -14.00391,0 0,-3.32031 z"
         id="path6456"
         inkscape:connector-curvature="0" />
      <path
         d="m 517.09265,409.0419 6.44531,0 0,-22.24609 -7.01171,1.40625 0,-3.59375 6.97265,-1.40625 3.94531,0 0,25.83984 6.44532,0 0,3.32031 -16.79688,0 0,-3.32031 z"
         id="path6458"
         inkscape:connector-curvature="0" />
      <path
         d="m 540.88171,383.20206 18.75,0 0,1.67968 -10.58593,27.48047 -4.1211,0 9.96094,-25.83984 -14.00391,0 0,-3.32031 z"
         id="path6460"
         inkscape:connector-curvature="0" />
      <path
         d="m 217.40515,437.28409 0,10.8789 10.87891,0 0,3.32032 -10.87891,0 0,10.8789 -3.28125,0 0,-10.8789 -10.8789,0 0,-3.32032 10.8789,0 0,-10.8789 3.28125,0 z"
         id="path6462"
         inkscape:connector-curvature="0" />
      <path
         d="m 237.48328,459.0419 6.44531,0 0,-22.24609 -7.01172,1.40625 0,-3.59375 6.97266,-1.40625 3.94531,0 0,25.83984 6.44531,0 0,3.32031 -16.79687,0 0,-3.32031 z"
         id="path6464"
         inkscape:connector-curvature="0" />
      <path
         d="m 283.12781,432.01065 q -2.61719,4.49219 -3.88672,8.88672 -1.26953,4.39453 -1.26953,8.90625 0,4.51172 1.26953,8.94531 1.28906,4.41406 3.88672,8.88672 l -3.125,0 q -2.92969,-4.58984 -4.39453,-9.02344 -1.44532,-4.43359 -1.44532,-8.80859 0,-4.35547 1.44532,-8.76953 1.44531,-4.41406 4.39453,-9.02344 l 3.125,0 z"
         id="path6466"
         inkscape:connector-curvature="0" />
      <path
         d="m 290.66687,433.20206 15.48828,0 0,3.32031 -11.875,0 0,7.14844 q 0.85938,-0.29297 1.71875,-0.42969 0.85938,-0.15625 1.71875,-0.15625 4.88281,0 7.73438,2.67578 2.85156,2.67578 2.85156,7.24609 0,4.70704 -2.92969,7.32422 -2.92969,2.59766 -8.26172,2.59766 -1.83593,0 -3.75,-0.3125 -1.89453,-0.3125 -3.92578,-0.9375 l 0,-3.96484 q 1.75781,0.95703 3.63281,1.42578 1.875,0.46875 3.96485,0.46875 3.3789,0 5.35156,-1.77735 1.97266,-1.77734 1.97266,-4.82422 0,-3.04687 -1.97266,-4.82421 -1.97266,-1.77735 -5.35156,-1.77735 -1.58203,0 -3.16406,0.35156 -1.5625,0.35157 -3.20313,1.09375 l 0,-14.64843 z"
         id="path6468"
         inkscape:connector-curvature="0" />
      <path
         d="m 316.78015,459.0419 6.44531,0 0,-22.24609 -7.01171,1.40625 0,-3.59375 6.97265,-1.40625 3.94531,0 0,25.83984 6.44532,0 0,3.32031 -16.79688,0 0,-3.32031 z"
         id="path6470"
         inkscape:connector-curvature="0" />
      <path
         d="m 344.96375,459.0419 13.76953,0 0,3.32031 -18.51563,0 0,-3.32031 q 2.2461,-2.32422 6.11328,-6.23047 3.88672,-3.92578 4.88282,-5.05859 1.89453,-2.12891 2.63671,-3.59375 0.76172,-1.48438 0.76172,-2.91016 0,-2.32422 -1.64062,-3.78906 -1.6211,-1.46484 -4.23828,-1.46484 -1.85547,0 -3.92578,0.64453 -2.05079,0.64453 -4.39454,1.95312 l 0,-3.98437 q 2.38282,-0.95703 4.45313,-1.44532 2.07031,-0.48828 3.78906,-0.48828 4.53125,0 7.22656,2.26563 2.69532,2.26562 2.69532,6.05469 0,1.79687 -0.6836,3.41796 -0.66406,1.60157 -2.4414,3.78907 -0.48828,0.5664 -3.10547,3.28125 -2.61719,2.69531 -7.38281,7.55859 z"
         id="path6472"
         inkscape:connector-curvature="0" />
      <path
         d="m 365.95984,432.01065 3.125,0 q 2.92969,4.60938 4.375,9.02344 1.46484,4.41406 1.46484,8.76953 0,4.375 -1.46484,8.80859 -1.44531,4.4336 -4.375,9.02344 l -3.125,0 q 2.59766,-4.47266 3.86719,-8.88672 1.28906,-4.43359 1.28906,-8.94531 0,-4.51172 -1.28906,-8.90625 -1.26953,-4.39453 -3.86719,-8.88672 z"
         id="path6474"
         inkscape:connector-curvature="0" />
      <path
         d="m 406.23328,436.63956 -9.96094,15.5664 9.96094,0 0,-15.5664 z m -1.03516,-3.4375 4.96094,0 0,19.0039 4.16015,0 0,3.28125 -4.16015,0 0,6.875 -3.92578,0 0,-6.875 -13.16407,0 0,-3.80859 12.12891,-18.47656 z"
         id="path6476"
         inkscape:connector-curvature="0" />
      <path
         d="m 429.78796,446.20987 q -2.65625,0 -4.21875,1.81641 -1.54296,1.8164 -1.54296,4.98046 0,3.14454 1.54296,4.98047 1.5625,1.81641 4.21875,1.81641 2.65625,0 4.19922,-1.81641 1.5625,-1.83593 1.5625,-4.98047 0,-3.16406 -1.5625,-4.98046 -1.54297,-1.81641 -4.19922,-1.81641 z m 7.83204,-12.36328 0,3.59375 q -1.48438,-0.70313 -3.00782,-1.07422 -1.5039,-0.37109 -2.98828,-0.37109 -3.90625,0 -5.97656,2.63671 -2.05078,2.63672 -2.34375,7.96875 1.15234,-1.69921 2.89062,-2.59765 1.73829,-0.91797 3.82813,-0.91797 4.39453,0 6.93359,2.67578 2.5586,2.65625 2.5586,7.24609 0,4.49219 -2.65625,7.20704 -2.65625,2.71484 -7.07032,2.71484 -5.05859,0 -7.73437,-3.86719 -2.67578,-3.88672 -2.67578,-11.25 0,-6.91406 3.28125,-11.01562 3.28125,-4.1211 8.80859,-4.1211 1.48438,0 2.98828,0.29297 1.52344,0.29297 3.16407,0.87891 z"
         id="path6478"
         inkscape:connector-curvature="0" />
      <path
         d="m 455.25671,446.20987 q -2.65625,0 -4.21875,1.81641 -1.54296,1.8164 -1.54296,4.98046 0,3.14454 1.54296,4.98047 1.5625,1.81641 4.21875,1.81641 2.65625,0 4.19922,-1.81641 1.5625,-1.83593 1.5625,-4.98047 0,-3.16406 -1.5625,-4.98046 -1.54297,-1.81641 -4.19922,-1.81641 z m 7.83204,-12.36328 0,3.59375 q -1.48438,-0.70313 -3.00782,-1.07422 -1.5039,-0.37109 -2.98828,-0.37109 -3.90625,0 -5.97656,2.63671 -2.05078,2.63672 -2.34375,7.96875 1.15234,-1.69921 2.89062,-2.59765 1.73829,-0.91797 3.82813,-0.91797 4.39453,0 6.93359,2.67578 2.5586,2.65625 2.5586,7.24609 0,4.49219 -2.65625,7.20704 -2.65625,2.71484 -7.07032,2.71484 -5.05859,0 -7.73437,-3.86719 -2.67578,-3.88672 -2.67578,-11.25 0,-6.91406 3.28125,-11.01562 3.28125,-4.1211 8.80859,-4.1211 1.48438,0 2.98828,0.29297 1.52344,0.29297 3.16407,0.87891 z"
         id="path6480"
         inkscape:connector-curvature="0" />
      <path
         d="m 469.47546,449.80362 10.52735,0 0,3.20312 -10.52735,0 0,-3.20312 z"
         id="path6482"
         inkscape:connector-curvature="0" />
      <path
         d="m 485.25671,433.20206 18.75,0 0,1.67968 -10.58593,27.48047 -4.1211,0 9.96094,-25.83984 -14.00391,0 0,-3.32031 z"
         id="path6484"
         inkscape:connector-curvature="0" />
      <path
         d="m 515.12,459.0419 13.76953,0 0,3.32031 -18.51563,0 0,-3.32031 q 2.2461,-2.32422 6.11328,-6.23047 3.88672,-3.92578 4.88282,-5.05859 1.89453,-2.12891 2.63671,-3.59375 0.76172,-1.48438 0.76172,-2.91016 0,-2.32422 -1.64062,-3.78906 -1.6211,-1.46484 -4.23828,-1.46484 -1.85547,0 -3.92578,0.64453 -2.05079,0.64453 -4.39454,1.95312 l 0,-3.98437 q 2.38282,-0.95703 4.45313,-1.44532 2.07031,-0.48828 3.78906,-0.48828 4.53125,0 7.22656,2.26563 2.69532,2.26562 2.69532,6.05469 0,1.79687 -0.6836,3.41796 -0.66406,1.60157 -2.4414,3.78907 -0.48828,0.5664 -3.10547,3.28125 -2.61719,2.69531 -7.38281,7.55859 z"
         id="path6486"
         inkscape:connector-curvature="0" />
      <path
         d="m 540.58875,459.0419 13.76953,0 0,3.32031 -18.51563,0 0,-3.32031 q 2.2461,-2.32422 6.11328,-6.23047 3.88672,-3.92578 4.88282,-5.05859 1.89453,-2.12891 2.63671,-3.59375 0.76172,-1.48438 0.76172,-2.91016 0,-2.32422 -1.64062,-3.78906 -1.6211,-1.46484 -4.23828,-1.46484 -1.85547,0 -3.92578,0.64453 -2.05079,0.64453 -4.39454,1.95312 l 0,-3.98437 q 2.38282,-0.95703 4.45313,-1.44532 2.07031,-0.48828 3.78906,-0.48828 4.53125,0 7.22656,2.26563 2.69532,2.26562 2.69532,6.05469 0,1.79687 -0.6836,3.41796 -0.66406,1.60157 -2.4414,3.78907 -0.48828,0.5664 -3.10547,3.28125 -2.61719,2.69531 -7.38281,7.55859 z"
         id="path6488"
         inkscape:connector-curvature="0" />
      <path
         d="m 561.66296,433.20206 18.75,0 0,1.67968 -10.58593,27.48047 -4.1211,0 9.96094,-25.83984 -14.00391,0 0,-3.32031 z"
         id="path6490"
         inkscape:connector-curvature="0" />
      <path
         d="m 203.47937,501.44424 q 0,-3.96484 -1.64062,-6.21093 -1.6211,-2.26563 -4.47266,-2.26563 -2.85156,0 -4.49219,2.26563 -1.62109,2.24609 -1.62109,6.21093 0,3.96485 1.62109,6.23047 1.64063,2.2461 4.49219,2.2461 2.85156,0 4.47266,-2.2461 1.64062,-2.26562 1.64062,-6.23047 z m -12.22656,-7.63671 q 1.13281,-1.95313 2.85156,-2.89063 1.73828,-0.95703 4.14063,-0.95703 3.98437,0 6.46484,3.16406 2.5,3.16406 2.5,8.32031 0,5.15625 -2.5,8.32032 -2.48047,3.16406 -6.46484,3.16406 -2.40235,0 -4.14063,-0.9375 -1.71875,-0.95703 -2.85156,-2.91016 l 0,3.28125 -3.61328,0 0,-30.39062 3.61328,0 0,11.83594 z"
         id="path6492"
         inkscape:connector-curvature="0" />
      <path
         d="m 227.11218,491.13174 0,3.39844 q -1.52343,-0.78125 -3.16406,-1.17187 -1.64062,-0.39063 -3.39844,-0.39063 -2.67578,0 -4.02343,0.82031 -1.32813,0.82032 -1.32813,2.46094 0,1.25 0.95703,1.97266 0.95703,0.70312 3.84766,1.34765 l 1.23047,0.27344 q 3.82812,0.82031 5.42968,2.32422 1.6211,1.48438 1.6211,4.16016 0,3.04687 -2.42188,4.82422 -2.40234,1.77734 -6.62109,1.77734 -1.75781,0 -3.67188,-0.35156 -1.89453,-0.33203 -4.0039,-1.01563 l 0,-3.71094 q 1.99219,1.03516 3.92578,1.5625 1.93359,0.50782 3.82812,0.50782 2.53907,0 3.90625,-0.85938 1.36719,-0.8789 1.36719,-2.46094 0,-1.46484 -0.99609,-2.24609 -0.97656,-0.78125 -4.31641,-1.50391 l -1.25,-0.29296 q -3.33984,-0.70313 -4.82422,-2.14844 -1.48437,-1.46485 -1.48437,-4.00391 0,-3.08594 2.1875,-4.76562 2.1875,-1.67969 6.21094,-1.67969 1.99218,0 3.75,0.29297 1.75781,0.29297 3.24218,0.8789 z"
         id="path6494"
         inkscape:connector-curvature="0" />
      <path
         d="m 243.96765,501.36612 q -4.35547,0 -6.03515,0.99609 -1.67969,0.9961 -1.67969,3.39844 0,1.91406 1.25,3.04688 1.26953,1.11328 3.4375,1.11328 2.98828,0 4.78515,-2.10938 1.81641,-2.1289 1.81641,-5.64453 l 0,-0.80078 -3.57422,0 z m 7.16797,-1.48438 0,12.48047 -3.59375,0 0,-3.32031 q -1.23047,1.99219 -3.06641,2.94922 -1.83593,0.9375 -4.49218,0.9375 -3.35938,0 -5.35157,-1.875 -1.97265,-1.89453 -1.97265,-5.05859 0,-3.69141 2.46094,-5.56641 2.48046,-1.875 7.38281,-1.875 l 5.03906,0 0,-0.35156 q 0,-2.48047 -1.64062,-3.82813 -1.6211,-1.36719 -4.57032,-1.36719 -1.875,0 -3.65234,0.44922 -1.77734,0.44922 -3.41797,1.34766 l 0,-3.32031 q 1.97266,-0.76172 3.82813,-1.13282 1.85546,-0.39062 3.61328,-0.39062 4.74609,0 7.08984,2.46094 2.34375,2.46093 2.34375,7.46093 z"
         id="path6496"
         inkscape:connector-curvature="0" />
      <path
         d="m 262.19031,484.27628 0,6.21093 7.40234,0 0,2.79297 -7.40234,0 0,11.875 q 0,2.67578 0.72265,3.4375 0.74219,0.76172 2.98829,0.76172 l 3.6914,0 0,3.00781 -3.6914,0 q -4.16016,0 -5.74219,-1.54297 -1.58203,-1.5625 -1.58203,-5.66406 l 0,-11.875 -2.63672,0 0,-2.79297 2.63672,0 0,-6.21093 3.61328,0 z"
         id="path6498"
         inkscape:connector-curvature="0" />
      <path
         d="m 287.01453,493.84659 q -0.60547,-0.35156 -1.32813,-0.50781 -0.70312,-0.17579 -1.5625,-0.17579 -3.04687,0 -4.6875,1.99219 -1.62109,1.97266 -1.62109,5.6836 l 0,11.52343 -3.61328,0 0,-21.875 3.61328,0 0,3.39844 q 1.13281,-1.99219 2.94922,-2.94922 1.8164,-0.97656 4.41406,-0.97656 0.37109,0 0.82031,0.0586 0.44922,0.0391 0.9961,0.13672 l 0.0195,3.69141 z"
         id="path6500"
         inkscape:connector-curvature="0" />
      <path
         d="m 298.47937,493.00674 q -2.89062,0 -4.57031,2.26563 -1.67969,2.24609 -1.67969,6.17187 0,3.92579 1.66016,6.19141 1.67968,2.24609 4.58984,2.24609 2.87109,0 4.55078,-2.26562 1.67969,-2.26563 1.67969,-6.17188 0,-3.88671 -1.67969,-6.15234 -1.67969,-2.28516 -4.55078,-2.28516 z m 0,-3.04687 q 4.6875,0 7.36328,3.04687 2.67578,3.04688 2.67578,8.4375 0,5.3711 -2.67578,8.4375 -2.67578,3.04688 -7.36328,3.04688 -4.70703,0 -7.38281,-3.04688 -2.65625,-3.0664 -2.65625,-8.4375 0,-5.39062 2.65625,-8.4375 2.67578,-3.04687 7.38281,-3.04687 z"
         id="path6502"
         inkscape:connector-curvature="0" />
      <path
         d="m 331.52625,494.68643 q 1.34765,-2.42187 3.22265,-3.57422 1.875,-1.15234 4.41406,-1.15234 3.41797,0 5.27344,2.40234 1.85547,2.38282 1.85547,6.79688 l 0,13.20312 -3.61328,0 0,-13.08593 q 0,-3.14454 -1.11328,-4.66797 -1.11328,-1.52344 -3.39844,-1.52344 -2.79297,0 -4.41406,1.85547 -1.6211,1.85547 -1.6211,5.05859 l 0,12.36328 -3.61328,0 0,-13.08593 q 0,-3.16407 -1.11328,-4.66797 -1.11328,-1.52344 -3.4375,-1.52344 -2.7539,0 -4.375,1.875 -1.62109,1.85547 -1.62109,5.03906 l 0,12.36328 -3.61328,0 0,-21.875 3.61328,0 0,3.39844 q 1.23047,-2.01172 2.94922,-2.96875 1.71875,-0.95703 4.08203,-0.95703 2.38281,0 4.04297,1.21094 1.67968,1.21093 2.48047,3.51562 z"
         id="path6504"
         inkscape:connector-curvature="0" />
      <path
         d="m 364.51453,501.87393 q 0,2.79297 1.38672,4.39453 1.38671,1.58203 3.80859,1.58203 2.40234,0 3.76953,-1.60156 1.38672,-1.60156 1.38672,-4.375 0,-2.73437 -1.40625,-4.33594 -1.40625,-1.62109 -3.78906,-1.62109 -2.36328,0 -3.76953,1.60156 -1.38672,1.60157 -1.38672,4.35547 z m 10.64453,5.83985 q -1.17188,1.5039 -2.69531,2.22656 -1.50391,0.70312 -3.51563,0.70312 -3.35937,0 -5.46875,-2.42187 -2.08984,-2.44141 -2.08984,-6.34766 0,-3.90625 2.10937,-6.34765 2.10938,-2.44141 5.44922,-2.44141 2.01172,0 3.53516,0.74219 1.52343,0.72265 2.67578,2.20703 l 0,-2.5586 2.79297,0 0,14.375 q 2.85156,-0.42968 4.45312,-2.59765 1.6211,-2.1875 1.6211,-5.64453 0,-2.08985 -0.625,-3.92578 -0.60547,-1.83594 -1.85547,-3.39844 -2.03125,-2.5586 -4.96094,-3.90625 -2.91016,-1.36719 -6.34766,-1.36719 -2.40234,0 -4.60937,0.64453 -2.20703,0.625 -4.08203,1.875 -3.06641,1.99219 -4.80469,5.23438 -1.71875,3.22265 -1.71875,6.99218 0,3.10547 1.11328,5.82032 1.13281,2.71484 3.26172,4.78515 2.05078,2.03125 4.74609,3.08594 2.69532,1.07422 5.76172,1.07422 2.51953,0 4.94141,-0.85938 2.4414,-0.83984 4.47265,-2.42187 l 1.75782,2.16797 q -2.44141,1.89453 -5.33203,2.89062 -2.8711,1.01563 -5.83985,1.01563 -3.61328,0 -6.8164,-1.28906 -3.20313,-1.26954 -5.70313,-3.71094 -2.5,-2.44141 -3.80859,-5.64453 -1.3086,-3.22266 -1.3086,-6.91407 0,-3.55468 1.32813,-6.77734 1.32812,-3.22266 3.78906,-5.66406 2.51953,-2.48047 5.82031,-3.78906 3.30078,-1.32813 6.99219,-1.32813 4.14063,0 7.67578,1.69922 3.55469,1.69922 5.95703,4.82422 1.46485,1.91406 2.22657,4.16015 0.78125,2.2461 0.78125,4.64844 0,5.13672 -3.10547,8.10547 -3.10547,2.96875 -8.57422,3.08594 l 0,-3.00781 z"
         id="path6506"
         inkscape:connector-curvature="0" />
      <path
         d="m 407.8739,501.17081 q 0,-3.90625 -1.62109,-6.05469 -1.60156,-2.14844 -4.51172,-2.14844 -2.89063,0 -4.51172,2.14844 -1.60156,2.14844 -1.60156,6.05469 0,3.88672 1.60156,6.03515 1.62109,2.14844 4.51172,2.14844 2.91016,0 4.51172,-2.14844 1.62109,-2.14843 1.62109,-6.03515 z m 3.59375,8.47656 q 0,5.58594 -2.48047,8.30078 -2.48047,2.73438 -7.59765,2.73438 -1.89453,0 -3.57422,-0.29297 -1.67969,-0.27344 -3.26172,-0.85938 l 0,-3.49609 q 1.58203,0.85937 3.125,1.26953 1.54297,0.41016 3.14453,0.41016 3.53516,0 5.29297,-1.85547 1.75781,-1.83594 1.75781,-5.56641 l 0,-1.77734 q -1.11328,1.93359 -2.85156,2.89062 -1.73828,0.95703 -4.16016,0.95703 -4.02343,0 -6.48437,-3.0664 -2.46094,-3.06641 -2.46094,-8.125 0,-5.07813 2.46094,-8.14453 2.46094,-3.06641 6.48437,-3.06641 2.42188,0 4.16016,0.95703 1.73828,0.95703 2.85156,2.89063 l 0,-3.32032 3.59375,0 0,19.16016 z"
         id="path6508"
         inkscape:connector-curvature="0" />
      <path
         d="m 435.90125,494.68643 q 1.34765,-2.42187 3.22265,-3.57422 1.875,-1.15234 4.41406,-1.15234 3.41797,0 5.27344,2.40234 1.85547,2.38282 1.85547,6.79688 l 0,13.20312 -3.61328,0 0,-13.08593 q 0,-3.14454 -1.11328,-4.66797 -1.11328,-1.52344 -3.39844,-1.52344 -2.79297,0 -4.41406,1.85547 -1.6211,1.85547 -1.6211,5.05859 l 0,12.36328 -3.61328,0 0,-13.08593 q 0,-3.16407 -1.11328,-4.66797 -1.11328,-1.52344 -3.4375,-1.52344 -2.7539,0 -4.375,1.875 -1.62109,1.85547 -1.62109,5.03906 l 0,12.36328 -3.61328,0 0,-21.875 3.61328,0 0,3.39844 q 1.23047,-2.01172 2.94922,-2.96875 1.71875,-0.95703 4.08203,-0.95703 2.38281,0 4.04297,1.21094 1.67968,1.21093 2.48047,3.51562 z"
         id="path6510"
         inkscape:connector-curvature="0" />
      <path
         d="m 467.71765,501.36612 q -4.35547,0 -6.03515,0.99609 -1.67969,0.9961 -1.67969,3.39844 0,1.91406 1.25,3.04688 1.26953,1.11328 3.4375,1.11328 2.98828,0 4.78515,-2.10938 1.81641,-2.1289 1.81641,-5.64453 l 0,-0.80078 -3.57422,0 z m 7.16797,-1.48438 0,12.48047 -3.59375,0 0,-3.32031 q -1.23047,1.99219 -3.06641,2.94922 -1.83593,0.9375 -4.49218,0.9375 -3.35938,0 -5.35157,-1.875 -1.97265,-1.89453 -1.97265,-5.05859 0,-3.69141 2.46094,-5.56641 2.48046,-1.875 7.38281,-1.875 l 5.03906,0 0,-0.35156 q 0,-2.48047 -1.64062,-3.82813 -1.6211,-1.36719 -4.57032,-1.36719 -1.875,0 -3.65234,0.44922 -1.77734,0.44922 -3.41797,1.34766 l 0,-3.32031 q 1.97266,-0.76172 3.82813,-1.13282 1.85546,-0.39062 3.61328,-0.39062 4.74609,0 7.08984,2.46094 2.34375,2.46093 2.34375,7.46093 z"
         id="path6512"
         inkscape:connector-curvature="0" />
      <path
         d="m 482.38562,490.48721 3.59375,0 0,21.875 -3.59375,0 0,-21.875 z m 0,-8.51562 3.59375,0 0,4.55078 -3.59375,0 0,-4.55078 z"
         id="path6514"
         inkscape:connector-curvature="0" />
      <path
         d="m 493.47937,481.97159 3.59375,0 0,30.39062 -3.59375,0 0,-30.39062 z"
         id="path6516"
         inkscape:connector-curvature="0" />
      <path
         d="m 505.08093,507.40128 4.1211,0 0,4.96093 -4.1211,0 0,-4.96093 z"
         id="path6518"
         inkscape:connector-curvature="0" />
      <path
         d="m 533.04968,491.32706 0,3.35937 q -1.52343,-0.83984 -3.0664,-1.25 -1.52344,-0.42969 -3.08594,-0.42969 -3.49609,0 -5.42969,2.22657 -1.93359,2.20703 -1.93359,6.21093 0,4.00391 1.93359,6.23047 1.9336,2.20703 5.42969,2.20703 1.5625,0 3.08594,-0.41015 1.54297,-0.42969 3.0664,-1.26953 l 0,3.32031 q -1.5039,0.70312 -3.125,1.05469 -1.60156,0.35156 -3.41797,0.35156 -4.9414,0 -7.85156,-3.10547 -2.91015,-3.10547 -2.91015,-8.37891 0,-5.35156 2.92968,-8.41796 2.94922,-3.06641 8.06641,-3.06641 1.66016,0 3.24219,0.35156 1.58203,0.33203 3.0664,1.01563 z"
         id="path6520"
         inkscape:connector-curvature="0" />
      <path
         d="m 547.73718,493.00674 q -2.89062,0 -4.57031,2.26563 -1.67969,2.24609 -1.67969,6.17187 0,3.92579 1.66016,6.19141 1.67969,2.24609 4.58984,2.24609 2.8711,0 4.55078,-2.26562 1.67969,-2.26563 1.67969,-6.17188 0,-3.88671 -1.67969,-6.15234 -1.67968,-2.28516 -4.55078,-2.28516 z m 0,-3.04687 q 4.6875,0 7.36328,3.04687 2.67579,3.04688 2.67579,8.4375 0,5.3711 -2.67579,8.4375 -2.67578,3.04688 -7.36328,3.04688 -4.70703,0 -7.38281,-3.04688 -2.65625,-3.0664 -2.65625,-8.4375 0,-5.39062 2.65625,-8.4375 2.67578,-3.04687 7.38281,-3.04687 z"
         id="path6522"
         inkscape:connector-curvature="0" />
      <path
         d="m 580.745,494.68643 q 1.34765,-2.42187 3.22265,-3.57422 1.875,-1.15234 4.41406,-1.15234 3.41797,0 5.27344,2.40234 1.85547,2.38282 1.85547,6.79688 l 0,13.20312 -3.61328,0 0,-13.08593 q 0,-3.14454 -1.11328,-4.66797 -1.11328,-1.52344 -3.39844,-1.52344 -2.79297,0 -4.41406,1.85547 -1.6211,1.85547 -1.6211,5.05859 l 0,12.36328 -3.61328,0 0,-13.08593 q 0,-3.16407 -1.11328,-4.66797 -1.11328,-1.52344 -3.4375,-1.52344 -2.7539,0 -4.375,1.875 -1.62109,1.85547 -1.62109,5.03906 l 0,12.36328 -3.61328,0 0,-21.875 3.61328,0 0,3.39844 q 1.23047,-2.01172 2.94922,-2.96875 1.71875,-0.95703 4.08203,-0.95703 2.38281,0 4.04297,1.21094 1.67968,1.21093 2.48047,3.51562 z"
         id="path6524"
         inkscape:connector-curvature="0" />
    </g>
  </g>
</svg>
