<?xml version="1.0" encoding="UTF-8" standalone="no"?>
<!-- Created with Inkscape (http://www.inkscape.org/) -->

<svg
   xmlns:dc="http://purl.org/dc/elements/1.1/"
   xmlns:cc="http://creativecommons.org/ns#"
   xmlns:rdf="http://www.w3.org/1999/02/22-rdf-syntax-ns#"
   xmlns:svg="http://www.w3.org/2000/svg"
   xmlns="http://www.w3.org/2000/svg"
   xmlns:sodipodi="http://sodipodi.sourceforge.net/DTD/sodipodi-0.dtd"
   xmlns:inkscape="http://www.inkscape.org/namespaces/inkscape"
   width="210mm"
   height="297mm"
   viewBox="0 0 744.09448819 1052.3622047"
   id="svg6359"
   version="1.1"
   inkscape:version="0.91 r13725"
   sodipodi:docname="address.svg">
  <defs
     id="defs6361" />
  <sodipodi:namedview
     id="base"
     pagecolor="#ffffff"
     bordercolor="#666666"
     borderopacity="1.0"
     inkscape:pageopacity="0.0"
     inkscape:pageshadow="2"
     inkscape:zoom="1.0970024"
     inkscape:cx="115.31648"
     inkscape:cy="638.22491"
     inkscape:document-units="px"
     inkscape:current-layer="text4215"
     showgrid="false"
     inkscape:window-width="1440"
     inkscape:window-height="851"
     inkscape:window-x="0"
     inkscape:window-y="0"
     inkscape:window-maximized="1" />
  <metadata
     id="metadata6364">
    <rdf:RDF>
      <cc:Work
         rdf:about="">
        <dc:format>image/svg+xml</dc:format>
        <dc:type
           rdf:resource="http://purl.org/dc/dcmitype/StillImage" />
        <dc:title />
      </cc:Work>
    </rdf:RDF>
  </metadata>
  <g
     inkscape:label="Layer 1"
     inkscape:groupmode="layer"
     id="layer1">
    <g
       style="font-style:normal;font-variant:normal;font-weight:normal;font-stretch:normal;font-size:40px;line-height:125%;font-family:sans-serif;-inkscape-font-specification:'sans-serif, Normal';text-align:center;letter-spacing:0px;word-spacing:0px;writing-mode:lr-tb;text-anchor:middle;fill:#000000;fill-opacity:1;stroke:none;stroke-width:1px;stroke-linecap:butt;stroke-linejoin:miter;stroke-opacity:1"
       id="text6367"
       transform="matrix(0.65979381,0,0,0.65979381,63.83613,177.13942)">
      <g
         style="font-style:normal;font-variant:normal;font-weight:normal;font-stretch:normal;font-size:38.54805374px;line-height:125%;font-family:Geneva;-inkscape-font-specification:'Geneva, Normal';text-align:center;letter-spacing:0px;word-spacing:0px;writing-mode:lr-tb;text-anchor:middle;fill:#000000;fill-opacity:1;stroke:none;stroke-width:1px;stroke-linecap:butt;stroke-linejoin:miter;stroke-opacity:1"
         id="text4207">
        <g
           style="font-style:normal;font-variant:normal;font-weight:normal;font-stretch:normal;font-size:60.625px;line-height:125%;font-family:'Gill Sans';-inkscape-font-specification:'Gill Sans, Normal';text-align:center;letter-spacing:0px;word-spacing:0px;writing-mode:lr-tb;text-anchor:middle;fill:#000000;fill-opacity:1;stroke:none;stroke-width:1px;stroke-linecap:butt;stroke-linejoin:miter;stroke-opacity:1"
           id="text4215">
          <g
             style="font-style:normal;font-variant:normal;font-weight:normal;font-stretch:normal;font-size:45.46875px;line-height:125%;font-family:'Gill Sans';-inkscape-font-specification:'Gill Sans, Normal';text-align:center;letter-spacing:0px;word-spacing:0px;writing-mode:lr-tb;text-anchor:middle;fill:#000000;fill-opacity:1;stroke:none;stroke-width:1px;stroke-linecap:butt;stroke-linejoin:miter;stroke-opacity:1"
             id="text4191">
            <path
               d="m 96.948151,236.3781 0,-30.97115 10.456929,0 q 6.32743,0 10.01289,1.90933 3.68545,1.88713 5.8612,5.57259 2.17576,3.68546 2.17576,8.03696 0,3.10821 -1.19889,5.95001 -1.19888,2.8418 -3.41903,4.99535 -2.26456,2.22015 -5.26177,3.35243 -1.75392,0.68825 -3.21922,0.93246 -1.4653,0.22202 -5.59479,0.22202 l -9.813079,0 z m 9.990689,-27.01927 -5.55038,0 0,23.06739 5.68359,0 q 3.33023,0 5.17296,-0.44403 1.84273,-0.46623 3.06381,-1.15448 1.24329,-0.71045 2.26456,-1.73172 3.28583,-3.33023 3.28583,-8.41438 0,-4.99535 -3.37464,-8.14796 -1.24328,-1.17669 -2.864,-1.93154 -1.59851,-0.75485 -3.04161,-0.99907 -1.4431,-0.24421 -4.64012,-0.24421 z"
               style=""
               id="path4299" />
            <path
               d="m 134.77957,215.99709 0,4.68452 0.22202,-0.35522 q 2.9306,-4.72893 5.8612,-4.72893 2.28676,0 4.77333,2.30896 l -2.13134,3.55224 q -2.10915,-1.99813 -3.90747,-1.99813 -1.95374,0 -3.39684,1.86492 -1.4209,1.86493 -1.4209,4.41811 l 0,10.67894 -4.06288,0 0,-20.42541 4.06288,0 z"
               style=""
               id="path4301" />
            <path
               d="m 146.03575,231.47156 q 1.13228,0 1.93154,0.77705 0.79925,0.77706 0.79925,1.90933 0,1.11008 -0.79925,1.86493 -0.77706,0.75486 -1.93154,0.75486 -1.13228,0 -1.90933,-0.75486 -0.77705,-0.75485 -0.77705,-1.86493 0,-1.13227 0.77705,-1.90933 0.77705,-0.77705 1.90933,-0.77705 z"
               style=""
               id="path4303" />
            <path
               d="m 180.51474,205.22934 3.13042,0 13.87596,31.19316 -4.55132,0 -4.12948,-9.19144 -13.18772,0 -3.90747,9.19144 -4.55131,0 13.32092,-31.19316 z m 6.50505,18.04985 -4.99535,-11.23398 -4.64012,11.23398 9.63547,0 z"
               style=""
               id="path4305" />
            <path
               d="m 214.06126,205.40695 4.06289,0 0,31.01555 -8.6364,0 q -4.52912,0 -7.2377,-2.864 -2.68639,-2.864 -2.68639,-7.68173 0,-4.50691 2.8196,-7.41531 2.84179,-2.90841 7.2377,-2.90841 2.04254,0 4.4403,0.86586 l 0,-11.01196 z m 0,27.55211 0,-12.9435 q -1.88713,-0.95466 -3.81866,-0.95466 -3.01941,0 -4.81773,1.97593 -1.77613,1.97594 -1.77613,5.32837 0,3.15262 1.55411,4.86214 0.93246,1.02127 1.97594,1.3765 1.04347,0.35522 3.75206,0.35522 l 3.13041,0 z"
               style=""
               id="path4307" />
            <path
               d="m 236.44041,224.14505 0,8.6808 q 0,1.04347 0.71045,1.04347 0.73265,0 2.28676,-1.08787 l 0,2.46437 q -1.37649,0.88806 -2.22015,1.19888 -0.82146,0.33303 -1.73172,0.33303 -2.59758,0 -3.06381,-2.04255 -2.57538,1.99814 -5.48378,1.99814 -2.13135,0 -3.55225,-1.39869 -1.4209,-1.4209 -1.4209,-3.55225 0,-1.93153 1.3765,-3.44124 1.39869,-1.53191 3.95187,-2.41997 l 5.17296,-1.77612 0,-1.08788 q 0,-3.68545 -3.68546,-3.68545 -3.30803,0 -6.43844,3.41904 l 0,-4.41811 q 2.35336,-2.77519 6.77147,-2.77519 3.30803,0 5.30616,1.73172 0.66605,0.55504 1.19889,1.4875 0.53283,0.91026 0.66604,1.84273 0.15541,0.91026 0.15541,3.48564 z m -3.97407,8.23677 0,-6.06102 -2.70859,1.04347 q -2.06474,0.82146 -2.9306,1.66512 -0.84366,0.82146 -0.84366,2.06474 0,1.26549 0.79926,2.06474 0.82145,0.79926 2.10914,0.79926 1.93154,0 3.57445,-1.57631 z"
               style=""
               id="path4309" />
            <path
               d="m 259.79643,221.59187 0,14.83063 -4.06288,0 0,-11.36719 q 0,-3.39683 -0.91026,-4.72892 -0.91027,-1.3543 -3.17482,-1.3543 -1.26549,0 -2.33116,0.57724 -1.04348,0.57724 -2.39777,2.04254 l 0,14.83063 -4.04068,0 0,-20.42541 4.04068,0 0,2.68638 q 3.08601,-3.08601 6.03882,-3.08601 3.88527,0 6.01662,3.68545 3.24142,-3.72986 6.77146,-3.72986 2.97501,0 4.88434,2.17576 1.93154,2.17575 1.93154,6.63826 l 0,12.05543 -4.04068,0 0,-12.09984 q 0,-2.55317 -1.04348,-3.90747 -1.04347,-1.35429 -2.9972,-1.35429 -2.50878,0 -4.68453,2.53097 z"
               style=""
               id="path4311" />
            <path
               d="m 325.02455,205.40695 4.41811,0 -12.54387,31.14876 -0.95467,0 -10.1461,-25.22095 -10.23491,25.22095 -0.95467,0 -12.49946,-31.14876 4.46251,0 8.54759,21.38008 8.59199,-21.38008 4.2183,0 8.6364,21.38008 8.45878,-21.38008 z"
               style=""
               id="path4313" />
            <path
               d="m 328.6212,231.47156 q 1.13228,0 1.93153,0.77705 0.79926,0.77706 0.79926,1.90933 0,1.11008 -0.79926,1.86493 -0.77705,0.75486 -1.93153,0.75486 -1.13228,0 -1.90933,-0.75486 -0.77706,-0.75485 -0.77706,-1.86493 0,-1.13227 0.77706,-1.90933 0.77705,-0.77705 1.90933,-0.77705 z"
               style=""
               id="path4315" />
            <path
               d="m 369.56084,205.40695 5.37277,0 -11.45599,14.60861 0,16.40694 -4.55132,0 0,-16.40694 -11.45599,-14.60861 5.37277,0 8.30337,10.70114 8.41439,-10.70114 z"
               style=""
               id="path4317" />
            <path
               d="m 377.86421,205.40695 4.04068,0 0,31.01555 -4.04068,0 0,-31.01555 z"
               style=""
               id="path4319" />
            <path
               d="m 389.89745,207.40509 q 0.99906,0 1.70951,0.68825 0.71045,0.68825 0.71045,1.68731 0,0.97687 -0.71045,1.68732 -0.71045,0.71045 -1.70951,0.71045 -0.93247,0 -1.64292,-0.71045 -0.71045,-0.73265 -0.71045,-1.68732 0,-0.93246 0.71045,-1.64291 0.71045,-0.73265 1.64292,-0.73265 z m -1.99814,8.592 4.04068,0 0,20.42541 -4.04068,0 0,-20.42541 z"
               style=""
               id="path4321" />
            <path
               d="m 394.89279,219.23851 7.59293,-7.45972 0,4.2183 6.46065,0 0,3.64105 -6.46065,0 0,10.01289 q 0,3.50784 2.9084,3.50784 2.17575,0 4.59572,-1.4653 l 0,3.77426 q -2.33116,1.3099 -5.08415,1.3099 -2.7752,0 -4.61792,-1.62072 -0.57724,-0.48843 -0.95467,-1.08787 -0.37743,-0.62165 -0.64385,-1.59851 -0.24421,-0.99907 -0.24421,-3.77426 l 0,-9.05823 -3.55225,0 0,-0.39963 z"
               style=""
               id="path4323" />
            <path
               d="m 425.77513,224.14505 0,8.6808 q 0,1.04347 0.71045,1.04347 0.73265,0 2.28676,-1.08787 l 0,2.46437 q -1.3765,0.88806 -2.22015,1.19888 -0.82146,0.33303 -1.73172,0.33303 -2.59758,0 -3.06382,-2.04255 -2.57538,1.99814 -5.48378,1.99814 -2.13134,0 -3.55224,-1.39869 -1.4209,-1.4209 -1.4209,-3.55225 0,-1.93153 1.37649,-3.44124 1.3987,-1.53191 3.95188,-2.41997 l 5.17296,-1.77612 0,-1.08788 q 0,-3.68545 -3.68546,-3.68545 -3.30803,0 -6.43845,3.41904 l 0,-4.41811 q 2.35337,-2.77519 6.77147,-2.77519 3.30803,0 5.30617,1.73172 0.66605,0.55504 1.19888,1.4875 0.53284,0.91026 0.66605,1.84273 0.15541,0.91026 0.15541,3.48564 z m -3.97407,8.23677 0,-6.06102 -2.70859,1.04347 q -2.06474,0.82146 -2.9306,1.66512 -0.84366,0.82146 -0.84366,2.06474 0,1.26549 0.79925,2.06474 0.82146,0.79926 2.10915,0.79926 1.93153,0 3.57445,-1.57631 z"
               style=""
               id="path4325" />
            <path
               d="m 432.48,205.40695 4.04068,0 0,31.01555 -4.04068,0 0,-31.01555 z"
               style=""
               id="path4327" />
            <path
               d="m 452.19496,215.95268 q 4.66232,0 7.74834,3.01941 3.08601,2.99721 3.08601,7.54852 0,4.41811 -3.13041,7.34871 -3.13042,2.90841 -7.88155,2.90841 -4.59572,0 -7.68173,-2.95281 -3.08602,-2.97501 -3.08602,-7.41531 0,-4.48471 3.10822,-7.45972 3.13042,-2.99721 7.83714,-2.99721 z m -0.22201,3.64105 q -2.90841,0 -4.77333,1.90934 -1.86493,1.90933 -1.86493,4.86213 0,2.93061 1.90933,4.79554 1.90933,1.84272 4.90654,1.84272 2.975,0 4.86214,-1.86493 1.90933,-1.88713 1.90933,-4.81773 0,-2.9084 -1.97594,-4.81773 -1.97594,-1.90934 -4.97314,-1.90934 z"
               style=""
               id="path4329" />
            <path
               d="m 88.111938,288.97354 11.811219,0 0,4.2849 -19.62616,0 0,-0.31082 1.864929,-2.19796 q 4.373703,-5.41717 6.949082,-9.19143 2.59758,-3.77426 3.374633,-5.7058 0.799256,-1.93153 0.799256,-3.81866 0,-2.61978 -1.487503,-4.19609 -1.487503,-1.59851 -3.951874,-1.59851 -1.864929,0 -3.685455,1.11007 -1.798325,1.08788 -3.241425,3.08602 l 0,-5.63919 q 3.618851,-2.95281 7.459717,-2.95281 4.062881,0 6.682663,2.70859 2.641983,2.70859 2.641983,6.88248 0,1.86493 -0.666046,3.99627 -0.643845,2.10915 -2.30896,4.88434 -1.665116,2.75299 -5.661392,7.52632 l -0.954667,1.13228 z"
               style=""
               id="path4331" />
            <path
               d="m 113.02206,261.84326 q 4.2627,0 7.03789,4.48471 2.7974,4.46251 2.7974,11.34499 0,7.06009 -2.7974,11.47819 -2.77519,4.41811 -7.2155,4.41811 -4.50691,0 -7.2377,-4.3293 -2.73079,-4.3293 -2.73079,-11.4782 0,-7.06008 2.8196,-11.47819 2.81959,-4.44031 7.3265,-4.44031 z m 0.0444,4.21829 -0.22202,0 q -2.55317,0 -4.06288,3.15262 -1.4875,3.13042 -1.4875,8.50319 0,5.50598 1.4653,8.6364 1.4653,3.13042 4.04068,3.13042 2.57538,0 4.06288,-3.13042 1.4875,-3.13042 1.4875,-8.50319 0,-5.39497 -1.4431,-8.59199 -1.4209,-3.19703 -3.84086,-3.19703 z"
               style=""
               id="path4333" />
            <path
               d="m 126.43179,262.24289 20.07019,0 -14.05357,31.37077 -3.95187,-1.66511 11.36718,-25.46517 -13.43193,0 0,-4.24049 z"
               style=""
               id="path4335" />
            <path
               d="m 170.65726,280.24834 -3.37464,-2.04254 q -3.17482,-1.93154 -4.52911,-3.79647 -1.33209,-1.88713 -1.33209,-4.3293 0,-3.66325 2.53097,-5.95001 2.55318,-2.28676 6.61606,-2.28676 3.88527,0 7.12669,2.17575 l 0,5.03975 q -3.35243,-3.21922 -7.2155,-3.21922 -2.17575,0 -3.57444,1.02127 -1.3987,0.99907 -1.3987,2.57538 0,1.39869 1.02127,2.61978 1.02127,1.22108 3.30803,2.55318 l 3.39684,1.99813 q 5.68359,3.37464 5.68359,8.6142 0,3.72986 -2.50877,6.06102 -2.48658,2.33116 -6.48285,2.33116 -4.59572,0 -8.36998,-2.81959 l 0,-5.63919 q 3.59665,4.55131 8.32557,4.55131 2.08695,0 3.46344,-1.15448 1.3987,-1.17668 1.3987,-2.9306 0,-2.8418 -4.08508,-5.37277 z"
               style=""
               id="path4337" />
            <path
               d="m 200.69594,283.40096 -14.3644,0 q 0.15541,2.9306 1.95374,4.66232 1.82052,1.73172 4.68452,1.73172 3.99628,0 7.37091,-2.48657 l 0,3.95187 q -1.86493,1.24329 -3.70765,1.77612 -1.82053,0.53284 -4.2849,0.53284 -3.37463,0 -5.46158,-1.3987 -2.08694,-1.39869 -3.35243,-3.75206 -1.24329,-2.37556 -1.24329,-5.48378 0,-4.66232 2.64199,-7.57072 2.64198,-2.9306 6.86027,-2.9306 4.06288,0 6.48285,2.84179 2.41997,2.8418 2.41997,7.61513 l 0,0.51064 z m -14.27559,-2.41997 10.27931,0 q -0.15541,-2.41997 -1.4431,-3.72986 -1.28769,-1.30989 -3.46344,-1.30989 -2.17575,0 -3.57445,1.30989 -1.37649,1.30989 -1.79832,3.72986 z"
               style=""
               id="path4339" />
            <path
               d="m 202.18344,276.07445 7.59293,-7.45972 0,4.21829 6.46064,0 0,3.64106 -6.46064,0 0,10.01289 q 0,3.50784 2.9084,3.50784 2.17575,0 4.59572,-1.4653 l 0,3.77426 q -2.33116,1.30989 -5.08416,1.30989 -2.77519,0 -4.61792,-1.62071 -0.57724,-0.48843 -0.95466,-1.08787 -0.37743,-0.62165 -0.64385,-1.59852 -0.24421,-0.99906 -0.24421,-3.77426 l 0,-9.05822 -3.55225,0 0,-0.39963 z"
               style=""
               id="path4341" />
            <path
               d="m 217.36929,276.07445 7.59293,-7.45972 0,4.21829 6.46065,0 0,3.64106 -6.46065,0 0,10.01289 q 0,3.50784 2.9084,3.50784 2.17575,0 4.59572,-1.4653 l 0,3.77426 q -2.33116,1.30989 -5.08415,1.30989 -2.7752,0 -4.61792,-1.62071 -0.57724,-0.48843 -0.95467,-1.08787 -0.37743,-0.62165 -0.64384,-1.59852 -0.24422,-0.99906 -0.24422,-3.77426 l 0,-9.05822 -3.55225,0 0,-0.39963 z"
               style=""
               id="path4343" />
            <path
               d="m 235.50795,262.24289 4.04068,0 0,31.01555 -4.04068,0 0,-31.01555 z"
               style=""
               id="path4345" />
            <path
               d="m 262.86024,283.40096 -14.36439,0 q 0.15541,2.9306 1.95373,4.66232 1.82053,1.73172 4.68453,1.73172 3.99628,0 7.37091,-2.48657 l 0,3.95187 q -1.86493,1.24329 -3.70766,1.77612 -1.82052,0.53284 -4.28489,0.53284 -3.37464,0 -5.46158,-1.3987 -2.08695,-1.39869 -3.35243,-3.75206 -1.24329,-2.37556 -1.24329,-5.48378 0,-4.66232 2.64198,-7.57072 2.64199,-2.9306 6.86028,-2.9306 4.06288,0 6.48285,2.84179 2.41996,2.8418 2.41996,7.61513 l 0,0.51064 z m -14.27558,-2.41997 10.27931,0 q -0.15541,-2.41997 -1.4431,-3.72986 -1.28769,-1.30989 -3.46344,-1.30989 -2.17575,0 -3.57445,1.30989 -1.3765,1.30989 -1.79832,3.72986 z"
               style=""
               id="path4347" />
            <path
               d="m 271.54105,272.83302 0,4.68453 0.22201,-0.35523 q 2.9306,-4.72892 5.86121,-4.72892 2.28676,0 4.77333,2.30896 l -2.13135,3.55224 q -2.10915,-1.99814 -3.90747,-1.99814 -1.95374,0 -3.39684,1.86493 -1.42089,1.86493 -1.42089,4.41811 l 0,10.67894 -4.06289,0 0,-20.42542 4.06289,0 z"
               style=""
               id="path4349" />
            <path
               d="m 284.24033,291.79314 0,-4.3515 q 1.70951,1.19888 3.48564,1.95373 1.79832,0.73265 3.01941,0.73265 1.26548,0 2.17575,-0.62164 0.91026,-0.62164 0.91026,-1.4875 0,-0.88807 -0.59944,-1.46531 -0.57724,-0.59944 -2.53098,-1.70951 -3.90747,-2.17576 -5.12855,-3.70766 -1.19888,-1.55411 -1.19888,-3.37464 0,-2.35336 1.82052,-3.84086 1.84273,-1.4875 4.72893,-1.4875 2.99721,0 6.14982,1.68731 l 0,3.99628 q -3.59664,-2.17575 -5.8834,-2.17575 -1.17668,0 -1.90933,0.51063 -0.71045,0.48844 -0.71045,1.30989 0,0.71045 0.64384,1.3543 0.66605,0.64384 2.30896,1.55411 l 1.4431,0.82145 q 5.10635,2.8862 5.10635,6.39405 0,2.50877 -1.97593,4.12948 -1.95374,1.59851 -5.03975,1.59851 -1.82053,0 -3.24143,-0.37742 -1.42089,-0.39963 -3.57444,-1.4431 z"
               style=""
               id="path4351" />
            <path
               d="m 342.54156,286.06514 0,4.88434 q -4.88433,2.66418 -11.27838,2.66418 -5.19516,0 -8.81401,-2.08694 -3.61885,-2.08695 -5.72799,-5.7502 -2.10915,-3.66325 -2.10915,-7.92595 0,-6.77147 4.81773,-11.38939 4.83994,-4.61792 11.92223,-4.61792 4.88434,0 10.85655,2.55318 l 0,4.77333 q -5.43937,-3.10822 -10.63453,-3.10822 -5.32837,0 -8.85842,3.37464 -3.50784,3.35243 -3.50784,8.41438 0,5.10635 3.46344,8.39218 3.46344,3.28583 8.85841,3.28583 5.63919,0 11.01196,-3.46344 z"
               style=""
               id="path4353" />
            <path
               d="m 351.82181,272.83302 0,4.68453 0.22201,-0.35523 q 2.93061,-4.72892 5.86121,-4.72892 2.28676,0 4.77333,2.30896 l -2.13135,3.55224 q -2.10914,-1.99814 -3.90747,-1.99814 -1.95373,0 -3.39683,1.86493 -1.4209,1.86493 -1.4209,4.41811 l 0,10.67894 -4.06288,0 0,-20.42542 4.06288,0 z"
               style=""
               id="path4355" />
            <path
               d="m 382.0381,283.40096 -14.36439,0 q 0.15541,2.9306 1.95373,4.66232 1.82053,1.73172 4.68453,1.73172 3.99627,0 7.37091,-2.48657 l 0,3.95187 q -1.86493,1.24329 -3.70766,1.77612 -1.82053,0.53284 -4.2849,0.53284 -3.37463,0 -5.46158,-1.3987 -2.08694,-1.39869 -3.35243,-3.75206 -1.24328,-2.37556 -1.24328,-5.48378 0,-4.66232 2.64198,-7.57072 2.64198,-2.9306 6.86027,-2.9306 4.06289,0 6.48285,2.84179 2.41997,2.8418 2.41997,7.61513 l 0,0.51064 z m -14.27559,-2.41997 10.27931,0 q -0.15541,-2.41997 -1.4431,-3.72986 -1.28768,-1.30989 -3.46344,-1.30989 -2.17575,0 -3.57444,1.30989 -1.3765,1.30989 -1.79833,3.72986 z"
               style=""
               id="path4357" />
            <path
               d="m 403.79561,283.40096 -14.3644,0 q 0.15541,2.9306 1.95374,4.66232 1.82052,1.73172 4.68452,1.73172 3.99628,0 7.37091,-2.48657 l 0,3.95187 q -1.86493,1.24329 -3.70765,1.77612 -1.82053,0.53284 -4.2849,0.53284 -3.37463,0 -5.46158,-1.3987 -2.08694,-1.39869 -3.35243,-3.75206 -1.24329,-2.37556 -1.24329,-5.48378 0,-4.66232 2.64199,-7.57072 2.64198,-2.9306 6.86027,-2.9306 4.06288,0 6.48285,2.84179 2.41997,2.8418 2.41997,7.61513 l 0,0.51064 z m -14.27559,-2.41997 10.27931,0 q -0.15541,-2.41997 -1.4431,-3.72986 -1.28769,-1.30989 -3.46344,-1.30989 -2.17575,0 -3.57445,1.30989 -1.37649,1.30989 -1.79832,3.72986 z"
               style=""
               id="path4359" />
            <path
               d="m 421.42363,272.83302 4.81773,0 -8.7252,10.0129 10.50133,10.41252 -5.41718,0 -10.23491,-10.41252 9.05823,-10.0129 z m -13.27652,-10.59013 4.04068,0 0,31.01555 -4.04068,0 0,-31.01555 z"
               style=""
               id="path4361" />
            <path
               d="m 434.83336,262.19849 25.90919,0 0,3.95187 -10.81215,0 0,27.10808 -4.4625,0 0,-27.10808 -10.63454,0 0,-3.95187 z"
               style=""
               id="path4363" />
            <path
               d="m 463.09592,272.83302 0,4.68453 0.22201,-0.35523 q 2.93061,-4.72892 5.86121,-4.72892 2.28676,0 4.77333,2.30896 l -2.13135,3.55224 q -2.10914,-1.99814 -3.90747,-1.99814 -1.95373,0 -3.39683,1.86493 -1.4209,1.86493 -1.4209,4.41811 l 0,10.67894 -4.06288,0 0,-20.42542 4.06288,0 z"
               style=""
               id="path4365" />
            <path
               d="m 474.3521,288.3075 q 1.13227,0 1.93153,0.77705 0.79926,0.77705 0.79926,1.90933 0,1.11008 -0.79926,1.86493 -0.77705,0.75485 -1.93153,0.75485 -1.13228,0 -1.90934,-0.75485 -0.77705,-0.75485 -0.77705,-1.86493 0,-1.13228 0.77705,-1.90933 0.77706,-0.77705 1.90934,-0.77705 z"
               style=""
               id="path4367" />
            <path
               d="m 168.90334,319.07883 4.4181,0 -12.54387,31.14875 -0.95466,0 -10.14611,-25.22094 -10.23491,25.22094 -0.95466,0 -12.49947,-31.14875 4.46251,0 8.54759,21.38008 8.592,-21.38008 4.21829,0 8.6364,21.38008 8.45879,-21.38008 z"
               style=""
               id="path4369" />
            <path
               d="m 186.35374,337.81693 0,8.6808 q 0,1.04347 0.71045,1.04347 0.73265,0 2.28676,-1.08788 l 0,2.46437 q -1.37649,0.88807 -2.22015,1.19889 -0.82146,0.33302 -1.73172,0.33302 -2.59758,0 -3.06381,-2.04254 -2.57538,1.99814 -5.48378,1.99814 -2.13135,0 -3.55225,-1.3987 -1.4209,-1.4209 -1.4209,-3.55225 0,-1.93153 1.3765,-3.44123 1.39869,-1.53191 3.95187,-2.41997 l 5.17296,-1.77612 0,-1.08788 q 0,-3.68546 -3.68546,-3.68546 -3.30803,0 -6.43844,3.41904 l 0,-4.4181 q 2.35336,-2.7752 6.77147,-2.7752 3.30803,0 5.30616,1.73172 0.66605,0.55504 1.19889,1.48751 0.53283,0.91026 0.66604,1.84272 0.15541,0.91027 0.15541,3.48565 z m -3.97407,8.23677 0,-6.06102 -2.70859,1.04347 q -2.06474,0.82145 -2.9306,1.66511 -0.84366,0.82146 -0.84366,2.06475 0,1.26548 0.79926,2.06474 0.82145,0.79925 2.10914,0.79925 1.93154,0 3.57445,-1.5763 z"
               style=""
               id="path4371" />
            <path
               d="m 208.28886,345.32104 0,3.99628 q -3.04161,1.13228 -5.95001,1.13228 -4.79553,0 -7.65953,-2.8418 -2.8418,-2.84179 -2.8418,-7.61512 0,-4.81774 2.7752,-7.77054 2.77519,-2.95281 7.3043,-2.95281 1.57631,0 2.8196,0.31082 1.26549,0.28862 3.10821,1.11008 l 0,4.3071 q -3.06381,-1.95374 -5.68359,-1.95374 -2.73079,0 -4.48471,1.93154 -1.75392,1.90933 -1.75392,4.88434 0,3.13041 1.88713,4.97314 1.90933,1.84273 5.12855,1.84273 2.33116,0 5.35057,-1.3543 z"
               style=""
               id="path4373" />
            <path
               d="m 222.63106,329.62456 q 4.66232,0 7.74833,3.01941 3.08602,2.9972 3.08602,7.54852 0,4.41811 -3.13042,7.34871 -3.13042,2.9084 -7.88154,2.9084 -4.59572,0 -7.68174,-2.9528 -3.08601,-2.97501 -3.08601,-7.41532 0,-4.48471 3.10821,-7.45971 3.13042,-2.99721 7.83715,-2.99721 z m -0.22202,3.64105 q -2.9084,0 -4.77333,1.90933 -1.86493,1.90933 -1.86493,4.86214 0,2.9306 1.90933,4.79553 1.90934,1.84273 4.90654,1.84273 2.97501,0 4.86214,-1.86493 1.90933,-1.88713 1.90933,-4.81773 0,-2.90841 -1.97593,-4.81774 -1.97594,-1.90933 -4.97315,-1.90933 z"
               style=""
               id="path4375" />
            <path
               d="m 235.92978,355.46715 0,-0.82146 q 0.99907,-0.95467 1.3987,-1.93153 0.39962,-0.95467 0.46623,-2.61978 -2.35336,-0.68825 -2.35336,-2.90841 0,-1.19888 0.79925,-2.06474 0.82146,-0.88806 1.93153,-0.88806 1.3543,0 2.22016,1.19888 0.86586,1.19889 0.86586,3.06381 0,2.46438 -1.4209,4.3293 -1.4209,1.86493 -3.90747,2.64199 z"
               style=""
               id="path4377" />
            <path
               d="m 246.83073,319.03442 25.9092,0 0,3.95188 -10.81215,0 0,27.10808 -4.46251,0 0,-27.10808 -10.63454,0 0,-3.95188 z"
               style=""
               id="path4379" />
            <path
               d="m 299.44838,319.07883 5.37277,0 -12.36625,14.96383 13.23211,16.05172 -5.37277,0 -10.54573,-12.83249 -10.67894,12.83249 -5.41718,0 13.36533,-16.05172 -12.41066,-14.96383 5.41718,0 9.72427,11.83342 9.67987,-11.83342 z"
               style=""
               id="path4381" />
            <path
               d="m 320.65085,319.07883 20.07019,0 -14.05357,31.37077 -3.95188,-1.66512 11.36719,-25.46516 -13.43193,0 0,-4.24049 z"
               style=""
               id="path4383" />
            <path
               d="m 355.12984,318.99002 0.44403,-0.31082 2.68638,3.39683 q -3.55224,2.28676 -5.90561,4.99535 -2.33116,2.70859 -3.59664,6.37184 2.46437,-1.26549 4.90654,-1.26549 3.66325,0 6.17202,2.59758 2.50878,2.59758 2.50878,6.37185 0,3.88526 -2.73079,6.59385 -2.73079,2.70859 -6.63826,2.70859 -4.37371,0 -7.08229,-3.06381 -2.68639,-3.08602 -2.68639,-8.05916 0,-3.72986 1.3765,-7.41531 1.39869,-3.70766 3.99627,-6.92688 2.61978,-3.24143 6.54946,-5.99442 z m -7.32651,19.04892 q -0.17761,1.04347 -0.17761,2.33116 0,2.61978 1.5097,4.3071 1.53191,1.68732 3.90747,1.68732 2.13135,0 3.50785,-1.4431 1.39869,-1.4431 1.39869,-3.64106 0,-2.24235 -1.4875,-3.61885 -1.4653,-1.39869 -3.88527,-1.39869 -1.24329,0 -2.26456,0.37742 -0.99907,0.37743 -2.50877,1.3987 z"
               style=""
               id="path4385" />
            <path
               d="m 366.1196,319.07883 20.07019,0 -14.05357,31.37077 -3.95188,-1.66512 11.36719,-25.46516 -13.43193,0 0,-4.24049 z"
               style=""
               id="path4387" />
            <path
               d="m 395.82526,319.07883 4.4403,0 0,31.01555 -4.4403,0 0,-31.01555 z"
               style=""
               id="path4389" />
            <path
               d="m 418.73724,345.80948 11.81122,0 0,4.2849 -19.62616,0 0,-0.31083 1.86493,-2.19795 q 4.3737,-5.41717 6.94908,-9.19143 2.59758,-3.77427 3.37464,-5.7058 0.79925,-1.93153 0.79925,-3.81866 0,-2.61979 -1.4875,-4.1961 -1.4875,-1.59851 -3.95187,-1.59851 -1.86493,0 -3.68546,1.11008 -1.79832,1.08788 -3.24142,3.08601 l 0,-5.63919 q 3.61885,-2.9528 7.45971,-2.9528 4.06288,0 6.68267,2.70859 2.64198,2.70858 2.64198,6.88247 0,1.86493 -0.66605,3.99628 -0.64384,2.10915 -2.30896,4.88434 -1.66511,2.75299 -5.66139,7.52632 l -0.95467,1.13228 z"
               style=""
               id="path4391" />
          </g>
        </g>
      </g>
    </g>
  </g>
</svg>
