<?xml version="1.0" encoding="UTF-8" ?>
<!DOCTYPE svg PUBLIC "-//W3C//DTD SVG 1.1//EN" "http://www.w3.org/Graphics/SVG/1.1/DTD/svg11.dtd">
<svg width="383pt" height="131pt" viewBox="0 0 383 131" version="1.1" xmlns="http://www.w3.org/2000/svg">
<path fill="#ffffff" d=" M 0.00 0.00 L 27.30 0.00 C 18.42 0.66 9.49 0.44 0.60 0.81 C 6.72 5.11 14.11 6.98 20.56 10.70 C 29.57 15.90 38.11 22.17 44.81 30.19 C 46.52 32.44 49.19 34.50 48.74 37.63 L 50.09 36.19 C 49.95 37.32 49.76 38.45 49.62 39.59 C 50.97 40.47 52.60 41.22 53.09 42.91 C 55.11 47.69 56.72 52.83 56.74 58.07 C 56.28 64.44 54.59 70.68 52.30 76.62 C 67.93 73.09 84.06 74.62 99.94 74.64 C 111.00 75.41 122.20 76.65 132.82 80.02 C 132.33 81.13 131.72 82.19 131.22 83.30 L 132.98 81.41 C 133.56 81.36 134.71 81.24 135.28 81.18 L 135.99 81.11 C 146.47 83.65 156.10 89.01 164.96 95.05 C 176.92 103.64 187.36 116.02 189.56 131.00 L 0.00 131.00 L 0.00 0.00 Z" />
<path fill="#191a15" d=" M 27.30 0.00 L 124.88 0.00 L 122.76 0.01 L 125.08 1.50 C 127.84 7.98 127.72 15.77 132.52 21.31 C 135.39 24.76 140.03 25.39 144.05 26.69 C 144.42 26.04 144.16 24.01 145.28 24.27 C 145.45 25.30 145.46 26.35 145.56 27.38 C 155.30 29.65 165.24 31.61 175.29 30.48 C 176.37 26.98 177.22 23.41 178.07 19.85 C 179.11 15.85 179.45 11.72 180.06 7.64 C 180.58 11.30 180.90 14.98 181.52 18.63 C 186.95 18.50 192.39 18.50 197.82 18.58 C 198.47 14.34 198.65 10.04 199.31 5.80 C 200.16 14.21 200.80 22.95 204.86 30.54 C 215.05 31.44 225.30 29.51 235.12 26.90 C 239.51 25.27 244.79 24.44 247.63 20.31 C 251.53 14.85 251.94 7.93 253.94 1.70 C 271.00 0.35 288.13 1.07 305.19 0.00 L 381.49 0.00 C 378.08 2.68 373.72 3.47 369.88 5.32 C 355.92 11.47 342.52 19.94 333.08 32.13 C 329.02 37.67 325.05 43.59 323.65 50.43 C 321.69 59.20 323.84 68.23 326.82 76.51 C 310.70 73.69 294.28 74.05 278.00 74.65 C 261.82 76.27 245.38 78.72 230.56 85.76 C 217.40 91.87 204.87 100.58 196.96 112.99 C 193.28 118.38 191.04 124.63 189.72 131.00 L 189.56 131.00 C 187.36 116.02 176.92 103.64 164.96 95.05 C 156.10 89.01 146.47 83.65 135.99 81.11 L 135.28 81.18 C 134.71 81.24 133.56 81.36 132.98 81.41 L 131.22 83.30 C 131.72 82.19 132.33 81.13 132.82 80.02 C 122.20 76.65 111.00 75.41 99.94 74.64 C 84.06 74.62 67.93 73.09 52.30 76.62 C 54.59 70.68 56.28 64.44 56.74 58.07 C 56.72 52.83 55.11 47.69 53.09 42.91 C 52.60 41.22 50.97 40.47 49.62 39.59 C 49.76 38.45 49.95 37.32 50.09 36.19 L 48.74 37.63 C 49.19 34.50 46.52 32.44 44.81 30.19 C 38.11 22.17 29.57 15.90 20.56 10.70 C 14.11 6.98 6.72 5.11 0.60 0.81 C 9.49 0.44 18.42 0.66 27.30 0.00 Z" />
<path fill="#ffffff" d=" M 124.88 0.00 L 305.19 0.00 C 288.13 1.07 271.00 0.35 253.94 1.70 C 251.94 7.93 251.53 14.85 247.63 20.31 C 244.79 24.44 239.51 25.27 235.12 26.90 C 225.30 29.51 215.05 31.44 204.86 30.54 C 200.80 22.95 200.16 14.21 199.31 5.80 C 198.65 10.04 198.47 14.34 197.82 18.58 C 192.39 18.50 186.95 18.50 181.52 18.63 C 180.90 14.98 180.58 11.30 180.06 7.64 C 179.45 11.72 179.11 15.85 178.07 19.85 C 177.22 23.41 176.37 26.98 175.29 30.48 C 165.24 31.61 155.30 29.65 145.56 27.38 C 145.46 26.35 145.45 25.30 145.28 24.27 C 144.16 24.01 144.42 26.04 144.05 26.69 C 140.03 25.39 135.39 24.76 132.52 21.31 C 127.72 15.77 127.84 7.98 125.08 1.50 L 122.76 0.01 L 124.88 0.00 Z" />
<path fill="#ffffff" d=" M 381.49 0.00 L 383.00 0.00 L 383.00 131.00 L 189.72 131.00 C 191.04 124.63 193.28 118.38 196.96 112.99 C 204.87 100.58 217.40 91.87 230.56 85.76 C 245.38 78.72 261.82 76.27 278.00 74.65 C 294.28 74.05 310.70 73.69 326.82 76.51 C 323.84 68.23 321.69 59.20 323.65 50.43 C 325.05 43.59 329.02 37.67 333.08 32.13 C 342.52 19.94 355.92 11.47 369.88 5.32 C 373.72 3.47 378.08 2.68 381.49 0.00 Z" />
</svg>
