<?xml version="1.0" encoding="UTF-8" standalone="no"?>
<!-- Created with Inkscape (http://www.inkscape.org/) -->

<svg
   xmlns:dc="http://purl.org/dc/elements/1.1/"
   xmlns:cc="http://creativecommons.org/ns#"
   xmlns:rdf="http://www.w3.org/1999/02/22-rdf-syntax-ns#"
   xmlns:svg="http://www.w3.org/2000/svg"
   xmlns="http://www.w3.org/2000/svg"
   xmlns:sodipodi="http://sodipodi.sourceforge.net/DTD/sodipodi-0.dtd"
   xmlns:inkscape="http://www.inkscape.org/namespaces/inkscape"
   width="210mm"
   height="297mm"
   viewBox="0 0 744.09448819 1052.3622047"
   id="svg4144"
   version="1.1"
   inkscape:version="0.91 r13725"
   sodipodi:docname="batarang.svg">
  <defs
     id="defs4146" />
  <sodipodi:namedview
     id="base"
     pagecolor="#ffffff"
     bordercolor="#666666"
     borderopacity="1.0"
     inkscape:pageopacity="0.0"
     inkscape:pageshadow="2"
     inkscape:zoom="2.8"
     inkscape:cx="365.78971"
     inkscape:cy="351.82261"
     inkscape:document-units="px"
     inkscape:current-layer="layer1"
     showgrid="false"
     inkscape:window-width="1440"
     inkscape:window-height="851"
     inkscape:window-x="80"
     inkscape:window-y="210"
     inkscape:window-maximized="0" />
  <metadata
     id="metadata4149">
    <rdf:RDF>
      <cc:Work
         rdf:about="">
        <dc:format>image/svg+xml</dc:format>
        <dc:type
           rdf:resource="http://purl.org/dc/dcmitype/StillImage" />
        <dc:title></dc:title>
      </cc:Work>
    </rdf:RDF>
  </metadata>
  <g
     inkscape:label="Layer 1"
     inkscape:groupmode="layer"
     id="layer1">
    <path
       style="fill:#000000"
       d="m 380.35716,734.71714 c 0,-1.17979 -1.53973,-5.34229 -3.42163,-9.25 -10.00465,-20.7744 -35.92921,-36.86004 -67.90675,-42.13468 -12.9382,-2.13414 -42.99074,-2.99385 -54.55199,-1.56057 -5.15921,0.6396 -9.54518,0.9981 -9.74661,0.79668 -0.20142,-0.20143 0.3837,-2.80526 1.30029,-5.7863 0.91658,-2.98103 1.69005,-8.57719 1.71882,-12.43591 0.045,-6.03727 -0.44481,-8.05975 -3.51176,-14.5 -4.42991,-9.30233 -11.13284,-17.21196 -20.93776,-24.70709 -7.31635,-5.59281 -11.80507,-8.14597 -24.44261,-13.90283 l -6,-2.73322 11.5,-0.90957 c 6.51298,-0.51513 33.29398,-0.60254 61.75664,-0.20156 l 50.25665,0.70802 1.56842,5.63105 c 2.98375,10.71246 3.47003,11.78838 6.68713,14.7957 5.07428,4.7434 24.91255,9.75596 36.22998,9.15427 l 5.99881,-0.31892 1.67116,-6 c 0.91914,-3.3 1.70717,-7.4625 1.75119,-9.25 0.044,-1.7875 0.50151,-6.82143 1.01666,-6.82143 0.51515,0 1.07765,5.03393 1.25,6.82143 l 0.31336,3.25 8.15082,0.28884 8.15082,0.28884 0.76694,-5.28884 0.76694,-5.28884 1.20635,7.5 c 0.66349,4.125 1.91503,9.1875 2.78121,11.25 1.54582,3.68084 1.6752,3.75 7.01543,3.75 10.49283,0 31.54357,-5.11703 35.77298,-8.69572 1.9538,-1.6532 4.24521,-6.88154 6.32162,-14.42414 l 1.54709,-5.61985 5.2599,-0.74945 c 8.82092,-1.25684 122.67374,-1.45237 119.7599,-0.20568 -10.47455,4.48157 -21.50233,9.95472 -26.50281,13.15349 -12.50107,7.99684 -24.92287,22.6599 -28.07824,33.1444 -1.85061,6.14909 -1.79993,14.13801 0.13709,21.61323 0.85583,3.30273 1.32801,6.23301 1.04929,6.51172 -0.27871,0.27872 -3.56643,0.0566 -7.30604,-0.49356 -9.59074,-1.41101 -34.18349,-1.52558 -45.36226,-0.21133 -18.13765,2.13237 -31.57821,5.67704 -43.56329,11.48893 -14.68988,7.12351 -24.59038,15.03792 -31.23018,24.96526 -2.82199,4.21922 -5.84068,10.11288 -6.70819,13.09701 -1.67439,5.75971 -2.43537,6.78481 -2.43537,3.28062 z"
       id="path4757"
       inkscape:connector-curvature="0"
       sodipodi:nodetypes="sssscssssscsscssscscsscccccssssscssssscssssss" />
  </g>
</svg>
