<?xml version="1.0" encoding="UTF-8" standalone="no"?>
<!-- Created with Inkscape (http://www.inkscape.org/) -->

<svg
   xmlns:dc="http://purl.org/dc/elements/1.1/"
   xmlns:cc="http://creativecommons.org/ns#"
   xmlns:rdf="http://www.w3.org/1999/02/22-rdf-syntax-ns#"
   xmlns:svg="http://www.w3.org/2000/svg"
   xmlns="http://www.w3.org/2000/svg"
   xmlns:sodipodi="http://sodipodi.sourceforge.net/DTD/sodipodi-0.dtd"
   xmlns:inkscape="http://www.inkscape.org/namespaces/inkscape"
   width="210mm"
   height="297mm"
   viewBox="0 0 744.09448819 1052.3622047"
   id="svg4230"
   version="1.1"
   inkscape:version="0.91 r13725"
   sodipodi:docname="boysnames.svg">
  <defs
     id="defs4232" />
  <sodipodi:namedview
     id="base"
     pagecolor="#ffffff"
     bordercolor="#666666"
     borderopacity="1.0"
     inkscape:pageopacity="0.0"
     inkscape:pageshadow="2"
     inkscape:zoom="1.979899"
     inkscape:cx="232.96745"
     inkscape:cy="678.54716"
     inkscape:document-units="px"
     inkscape:current-layer="layer1"
     showgrid="false"
     inkscape:window-width="1440"
     inkscape:window-height="851"
     inkscape:window-x="0"
     inkscape:window-y="0"
     inkscape:window-maximized="1" />
  <metadata
     id="metadata4235">
    <rdf:RDF>
      <cc:Work
         rdf:about="">
        <dc:format>image/svg+xml</dc:format>
        <dc:type
           rdf:resource="http://purl.org/dc/dcmitype/StillImage" />
        <dc:title />
      </cc:Work>
    </rdf:RDF>
  </metadata>
  <g
     inkscape:label="Layer 1"
     inkscape:groupmode="layer"
     id="layer1">
    <g
       style="font-style:normal;font-variant:normal;font-weight:normal;font-stretch:normal;font-size:16.8216114px;line-height:125%;font-family:Geneva;-inkscape-font-specification:'Geneva, Normal';text-align:center;letter-spacing:0px;word-spacing:0px;writing-mode:lr-tb;text-anchor:middle;fill:#000000;fill-opacity:1;stroke:none;stroke-width:1px;stroke-linecap:butt;stroke-linejoin:miter;stroke-opacity:1"
       id="text4778">
      <path
         d="m 273.93346,269.45047 q 1.51132,0.36962 2.18484,1.24848 0.68174,0.87065 0.68174,1.97128 0,0.91172 -0.46818,1.71666 -0.46818,0.80494 -1.33062,1.28955 -0.86243,0.47639 -2.98156,0.47639 l -3.81936,0 0,-12.74763 3.38403,0 q 2.31626,0 3.10477,0.33677 0.79673,0.32854 1.1992,0.97742 0.40247,0.64888 0.40247,1.4374 0,0.87886 -0.50925,1.74951 -0.50925,0.86244 -1.84808,1.54417 z m -4.07398,-0.50103 1.59345,0 q 1.23205,0 1.83987,-0.32855 0.61602,-0.32855 0.97742,-0.93636 0.36962,-0.61603 0.36962,-1.26491 0,-0.71459 -0.57496,-1.22383 -0.56674,-0.50925 -2.05342,-0.50925 l -2.15198,0 0,4.2629 z m 0,5.93027 2.3409,0 q 1.65916,0 2.26697,-0.61602 0.61603,-0.62424 0.61603,-1.47025 0,-0.68174 -0.39426,-1.25669 -0.39425,-0.57496 -1.17455,-0.93636 -0.77209,-0.36962 -2.42304,-0.36962 l -1.23205,0 0,4.64894 z"
         style=""
         id="path5325" />
      <path
         d="m 284.90694,273.79551 1.52774,0 0,0.0821 q 0,0.60782 -0.48461,1.24027 -0.4846,0.63245 -1.28133,0.961 -0.79673,0.32855 -1.83165,0.32855 -2.09449,0 -3.23619,-1.35526 -1.13349,-1.35526 -1.13349,-3.4251 0,-2.11913 1.1992,-3.50724 1.20741,-1.39633 3.10477,-1.39633 1.04314,0 1.88915,0.45175 0.846,0.45175 1.33883,1.41276 0.49282,0.95278 0.49282,2.66123 l 0,0.50924 -6.51345,0 q 0,1.47025 0.78851,2.42304 0.79673,0.95279 2.20127,0.95279 1.01028,0 1.47025,-0.38605 0.46818,-0.39425 0.46818,-0.87065 l 0,-0.0821 z m -4.82965,-3.18691 4.95285,0 0,-0.1807 q 0,-0.64067 -0.31212,-1.24027 -0.3039,-0.60781 -0.84601,-0.89529 -0.5421,-0.29569 -1.2649,-0.29569 -0.85423,0 -1.57703,0.68995 -0.7228,0.68173 -0.95279,1.922 z"
         style=""
         id="path5327" />
      <path
         d="m 290.09798,276.15283 -1.52774,0 0,-9.17468 1.52774,0 0,1.58524 q 0.48461,-0.74744 0.93636,-1.10884 0.45996,-0.3614 0.95279,-0.54211 0.50103,-0.18891 1.10884,-0.18891 0.86244,0 1.54417,0.35319 0.68995,0.35319 1.06778,1.04314 0.37783,0.68173 0.37783,2.19305 l 0,5.83992 -1.52774,0 0,-5.18283 q 0,-1.23205 -0.16428,-1.7413 -0.16427,-0.51746 -0.64066,-0.80494 -0.4764,-0.29569 -1.03493,-0.29569 -0.67352,0 -1.28133,0.39426 -0.60781,0.39425 -0.97743,1.10063 -0.3614,0.70637 -0.3614,2.02056 l 0,4.50931 z"
         style=""
         id="path5329" />
      <path
         d="m 299.03446,266.97815 1.53596,0 0,9.17468 q 0,1.38811 -0.33676,2.06985 -0.32855,0.68173 -1.06778,1.0842 -0.73923,0.41069 -1.60167,0.41069 -0.61602,0 -1.33061,-0.13963 l 0,-1.21563 0.32854,0.0329 q 0.45176,0.0493 0.72281,0.0493 0.77208,0 1.25669,-0.39426 0.49282,-0.38604 0.49282,-1.89736 l 0,-9.17468 z m 0,-2.1027 0,-1.47025 1.53596,0 0,1.47025 -1.53596,0 z"
         style=""
         id="path5331" />
      <path
         d="m 308.71839,276.15283 q -0.2382,-0.73923 -0.2382,-1.27312 -1.00207,0.99386 -1.71666,1.26491 -0.70638,0.26284 -1.35526,0.26284 -1.09242,0 -1.88093,-0.66531 -0.7803,-0.67352 -0.7803,-1.84808 0,-1.33062 1.10063,-2.05342 1.10885,-0.7228 3.81115,-1.24848 l 0.82137,-0.15606 0,-1.03492 q 0,-0.84601 -0.56675,-1.18277 -0.56674,-0.34497 -1.36347,-0.34497 -0.95278,0 -1.48667,0.41889 -0.53389,0.4189 -0.53389,0.97743 l 0,0.13142 -1.65916,0 0,-0.12321 q 0,-0.60781 0.50924,-1.25669 0.51747,-0.64888 1.36348,-0.97743 0.85422,-0.32854 1.8645,-0.32854 1.00207,0 1.82344,0.31212 0.82136,0.31212 1.19919,0.84601 0.37783,0.52567 0.37783,1.98771 l 0,3.56473 q 0,0.58317 0.0246,1.23205 0.0329,0.64067 0.2957,1.49489 l -1.60988,0 z m -0.2382,-4.63251 -0.45997,0.11499 q -2.32447,0.56674 -2.97335,1.07599 -0.64888,0.50925 -0.64888,1.21563 0,0.3614 0.18892,0.67352 0.19712,0.31212 0.57495,0.4846 0.37783,0.17249 0.74745,0.17249 0.64066,0 1.25669,-0.36961 0.62424,-0.37783 0.96921,-1.00207 0.34498,-0.62424 0.34498,-1.45382 l 0,-0.91172 z"
         style=""
         id="path5333" />
      <path
         d="m 313.88479,276.15283 -1.52774,0 0,-9.17468 1.52774,0 0,1.65917 q 0.46818,-0.82958 0.88708,-1.19099 0.42711,-0.3614 0.92814,-0.5421 0.50104,-0.1807 1.06778,-0.1807 0.56675,0 1.08421,0.1807 0.51746,0.17249 0.89529,0.52568 0.37783,0.35318 0.74744,1.20741 0.46818,-0.79673 0.91994,-1.16635 0.45996,-0.37782 0.93635,-0.55853 0.48461,-0.18891 1.02671,-0.18891 0.7803,0 1.41276,0.36962 0.63245,0.3614 0.96921,1.03492 0.34497,0.67352 0.34497,2.29162 l 0,5.73314 -1.53595,0 0,-5.10069 q 0,-1.6181 -0.19713,-2.04521 -0.18892,-0.42711 -0.53389,-0.64888 -0.33676,-0.22998 -0.82137,-0.22998 -0.68173,0 -1.25669,0.42711 -0.57496,0.4189 -0.91993,1.13349 -0.34498,0.71459 -0.34498,2.00414 l 0,4.46002 -1.52774,0 0,-5.10069 q 0,-1.6181 -0.1807,-2.04521 -0.17249,-0.42711 -0.55853,-0.65709 -0.38604,-0.22998 -0.82958,-0.22998 -0.62424,0 -1.23205,0.44353 -0.5996,0.43533 -0.94458,1.16635 -0.33676,0.7228 -0.33676,1.96307 l 0,4.46002 z"
         style=""
         id="path5335" />
      <path
         d="m 327.4045,266.97815 1.52775,0 0,9.17468 -1.52775,0 0,-9.17468 z m 0,-2.03699 0,-1.53596 1.52775,0 0,1.53596 -1.52775,0 z"
         style=""
         id="path5337" />
      <path
         d="m 332.90767,276.15283 -1.52775,0 0,-9.17468 1.52775,0 0,1.58524 q 0.48461,-0.74744 0.93636,-1.10884 0.45996,-0.3614 0.95278,-0.54211 0.50104,-0.18891 1.10885,-0.18891 0.86244,0 1.54417,0.35319 0.68995,0.35319 1.06778,1.04314 0.37783,0.68173 0.37783,2.19305 l 0,5.83992 -1.52774,0 0,-5.18283 q 0,-1.23205 -0.16428,-1.7413 -0.16427,-0.51746 -0.64067,-0.80494 -0.47639,-0.29569 -1.03492,-0.29569 -0.67352,0 -1.28133,0.39426 -0.60781,0.39425 -0.97743,1.10063 -0.3614,0.70637 -0.3614,2.02056 l 0,4.50931 z"
         style=""
         id="path5339" />
      <path
         d="m 346.50952,273.28626 1.65916,0 0,0.0821 q 0,1.05956 0.74745,1.47846 0.74744,0.41068 1.98771,0.41068 1.0842,0 1.81522,-0.63245 0.73923,-0.63246 0.73923,-1.66738 0,-0.83779 -0.63245,-1.37168 -0.63246,-0.52568 -1.922,-1.05135 l -0.66531,-0.27105 q -1.35526,-0.55853 -2.02878,-1.10064 -0.66531,-0.55031 -0.99385,-1.21562 -0.32855,-0.66531 -0.32855,-1.48668 0,-1.4456 1.01849,-2.43946 1.02671,-0.99385 3.20334,-0.99385 1.99592,0 2.80908,0.73923 0.81315,0.73923 0.81315,1.72487 l 0,0.0821 -1.65916,0 0,-0.0821 q 0,-0.31212 -0.25463,-0.61603 -0.24641,-0.3039 -0.74744,-0.43532 -0.50104,-0.13963 -1.10063,-0.13963 -1.22384,0 -1.81523,0.61602 -0.58317,0.60781 -0.58317,1.38811 0,0.52568 0.27927,0.99386 0.27926,0.45996 0.76387,0.76387 0.49282,0.30391 1.65095,0.81315 l 0.7803,0.33676 q 1.87272,0.81316 2.50517,1.70845 0.62424,0.89529 0.62424,1.93021 0,0.961 -0.50925,1.86451 -0.50925,0.89529 -1.41275,1.36347 -0.90351,0.45996 -2.40661,0.45996 -1.42918,0 -2.39018,-0.34497 -0.95279,-0.33676 -1.45382,-1.11706 -0.49282,-0.7803 -0.49282,-1.70844 l 0,-0.0821 z"
         style=""
         id="path5341" />
      <path
         d="m 362.66582,276.15283 q -0.23819,-0.73923 -0.23819,-1.27312 -1.00207,0.99386 -1.71666,1.26491 -0.70638,0.26284 -1.35526,0.26284 -1.09242,0 -1.88093,-0.66531 -0.7803,-0.67352 -0.7803,-1.84808 0,-1.33062 1.10063,-2.05342 1.10885,-0.7228 3.81115,-1.24848 l 0.82137,-0.15606 0,-1.03492 q 0,-0.84601 -0.56675,-1.18277 -0.56674,-0.34497 -1.36347,-0.34497 -0.95278,0 -1.48667,0.41889 -0.53389,0.4189 -0.53389,0.97743 l 0,0.13142 -1.65917,0 0,-0.12321 q 0,-0.60781 0.50925,-1.25669 0.51746,-0.64888 1.36347,-0.97743 0.85423,-0.32854 1.86451,-0.32854 1.00207,0 1.82343,0.31212 0.82137,0.31212 1.1992,0.84601 0.37783,0.52567 0.37783,1.98771 l 0,3.56473 q 0,0.58317 0.0246,1.23205 0.0329,0.64067 0.29569,1.49489 l -1.60988,0 z m -0.23819,-4.63251 -0.45997,0.11499 q -2.32447,0.56674 -2.97335,1.07599 -0.64888,0.50925 -0.64888,1.21563 0,0.3614 0.18891,0.67352 0.19713,0.31212 0.57496,0.4846 0.37783,0.17249 0.74744,0.17249 0.64067,0 1.2567,-0.36961 0.62424,-0.37783 0.96921,-1.00207 0.34498,-0.62424 0.34498,-1.45382 l 0,-0.91172 z"
         style=""
         id="path5343" />
      <path
         d="m 371.91442,274.85507 0,1.28133 q -1.11706,0.27106 -1.70844,0.27106 -0.85422,0 -1.54417,-0.34498 -0.68174,-0.34497 -1.04314,-1.00207 -0.35319,-0.65709 -0.35319,-2.09448 l 0,-4.71466 -1.59345,0 0,-1.27312 1.59345,0 0,-2.16841 1.52775,0 0,2.16841 2.67765,0 0,1.27312 -2.67765,0 0,4.27933 q 0,1.21562 0.18891,1.69202 0.18891,0.46818 0.59138,0.68995 0.41069,0.22177 0.97743,0.22177 0.45175,0 1.36347,-0.27927 z"
         style=""
         id="path5345" />
      <path
         d="m 375.29024,276.15283 -1.52774,0 0,-9.17468 1.52774,0 0,1.6181 q 0.37783,-0.69816 0.82137,-1.08421 0.45175,-0.38604 0.95278,-0.58317 0.50925,-0.20534 1.03493,-0.20534 0.47639,0 0.82137,0.13963 l 0,1.58524 q -0.54211,-0.26284 -1.14992,-0.26284 -0.86244,0 -1.67559,0.75566 -0.80494,0.75566 -0.80494,2.67766 l 0,4.53395 z"
         style=""
         id="path5347" />
      <path
         d="m 384.16101,276.40746 q -1.79879,0 -3.07191,-1.21563 -1.26491,-1.22384 -1.26491,-3.63044 0,-2.3984 1.26491,-3.61402 1.27312,-1.22384 3.07191,-1.22384 1.79058,0 3.05549,1.22384 1.27312,1.21562 1.27312,3.61402 0,2.4066 -1.27312,3.63044 -1.26491,1.21563 -3.05549,1.21563 z m 0,-1.27312 q 1.23205,0 1.9795,-0.97743 0.75566,-0.98564 0.75566,-2.59552 0,-1.60167 -0.75566,-2.5791 -0.74745,-0.98564 -1.9795,-0.98564 -1.24026,0 -1.99592,0.98564 -0.74745,0.97743 -0.74745,2.5791 0,1.60988 0.74745,2.59552 0.75566,0.97743 1.99592,0.97743 z"
         style=""
         id="path5349" />
      <path
         d="m 391.98043,276.15283 -1.52774,0 0,-9.17468 1.52774,0 0,1.65917 q 0.46818,-0.82958 0.88708,-1.19099 0.42711,-0.3614 0.92815,-0.5421 0.50103,-0.1807 1.06777,-0.1807 0.56675,0 1.08421,0.1807 0.51746,0.17249 0.89529,0.52568 0.37783,0.35318 0.74745,1.20741 0.46817,-0.79673 0.91993,-1.16635 0.45996,-0.37782 0.93636,-0.55853 0.4846,-0.18891 1.02671,-0.18891 0.7803,0 1.41275,0.36962 0.63245,0.3614 0.96921,1.03492 0.34498,0.67352 0.34498,2.29162 l 0,5.73314 -1.53596,0 0,-5.10069 q 0,-1.6181 -0.19713,-2.04521 -0.18891,-0.42711 -0.53389,-0.64888 -0.33676,-0.22998 -0.82137,-0.22998 -0.68173,0 -1.25669,0.42711 -0.57496,0.4189 -0.91993,1.13349 -0.34497,0.71459 -0.34497,2.00414 l 0,4.46002 -1.52775,0 0,-5.10069 q 0,-1.6181 -0.1807,-2.04521 -0.17249,-0.42711 -0.55853,-0.65709 -0.38604,-0.22998 -0.82958,-0.22998 -0.62424,0 -1.23205,0.44353 -0.5996,0.43533 -0.94458,1.16635 -0.33676,0.7228 -0.33676,1.96307 l 0,4.46002 z"
         style=""
         id="path5351" />
      <path
         d="m 287.36283,297.56589 q -2.07806,0 -3.36761,-1.81522 -1.28134,-1.82344 -1.28134,-4.94464 0,-3.12119 1.28134,-4.93642 1.28955,-1.81522 3.36761,-1.81522 2.08627,0 3.3676,1.81522 1.28955,1.81523 1.28955,4.93642 0,3.1212 -1.28955,4.94464 -1.28133,1.81522 -3.3676,1.81522 z m 0,-1.28133 q 1.61809,0 2.34089,-1.65917 0.72281,-1.66737 0.72281,-3.81936 0,-2.14377 -0.72281,-3.81114 -0.7228,-1.66738 -2.34089,-1.66738 -1.60988,0 -2.33269,1.66738 -0.7228,1.66737 -0.7228,3.81114 0,2.15199 0.7228,3.81936 0.72281,1.65917 2.33269,1.65917 z"
         style=""
         id="path5353" />
      <path
         d="m 296.21717,290.80603 0,-1.27312 0.95279,0 q 1.11706,0 1.74951,-0.35319 0.63245,-0.35318 1.00207,-0.87886 0.36961,-0.53389 0.36961,-1.19098 0,-0.82958 -0.60781,-1.30598 -0.60781,-0.47639 -1.60988,-0.47639 -0.57496,0 -1.07599,0.14785 -0.50103,0.14784 -0.77209,0.50103 -0.26283,0.35319 -0.26283,0.73923 l 0,0.0821 -1.46204,0 0,-0.0821 q 0,-1.00207 0.84601,-1.83165 0.84601,-0.82958 2.80908,-0.82958 1.8645,0 2.80086,0.79673 0.93636,0.79672 0.93636,2.05342 0,0.68994 -0.27105,1.28954 -0.27105,0.59139 -0.80494,1.05957 -0.52568,0.46818 -1.51953,0.75566 1.55238,0.44353 2.32447,1.3224 0.77209,0.87065 0.77209,2.17662 0,1.53596 -1.08421,2.80087 -1.07599,1.25669 -3.26904,1.25669 -1.91379,0 -2.79265,-0.81315 -0.87887,-0.82137 -0.87887,-1.84808 l 0,-0.0821 1.52775,0 0,0.0821 q 0,0.68995 0.64066,1.03492 0.64888,0.34498 1.65917,0.34498 0.78851,0 1.38811,-0.28748 0.5996,-0.2957 0.91172,-0.95279 0.31212,-0.65709 0.31212,-1.42918 0,-1.19098 -0.94458,-1.99592 -0.93636,-0.81316 -2.87478,-0.81316 l -0.77209,0 z"
         style=""
         id="path5355" />
      <path
         d="m 306.01609,297.56589 -1.46204,0 6.85021,-13.5115 1.42918,0 -6.81735,13.5115 z"
         style=""
         id="path5357" />
      <path
         d="m 314.69794,297.17985 0,-1.32241 q 0,-1.03492 0.64067,-2.25054 0.64067,-1.22384 2.15198,-2.39018 l 0.86244,-0.66531 q 1.72487,-1.33062 2.19305,-1.98771 0.45997,-0.6571 0.45997,-1.37169 0,-0.73101 -0.61603,-1.29776 -0.61602,-0.56674 -1.77415,-0.56674 -1.05135,0 -1.5606,0.41068 -0.50925,0.40247 -0.50925,0.91172 l 0,0.0821 -1.52774,0 0,-0.0821 q 0,-0.67352 0.45175,-1.27312 0.45997,-0.5996 1.23205,-0.961 0.7803,-0.3614 1.96307,-0.3614 2.1602,0 3.08013,0.91993 0.91993,0.91172 0.91993,2.19305 0,0.68174 -0.28748,1.37169 -0.28748,0.68995 -1.1417,1.4456 -0.84601,0.74745 -1.3799,1.11706 l -0.62424,0.42712 q -2.94049,2.02056 -2.94049,3.93435 l 0,0.31212 6.62844,0 0,1.40454 -8.2219,0 z"
         style=""
         id="path5359" />
      <path
         d="m 330.04109,297.56589 q -2.07806,0 -3.3676,-1.81522 -1.28134,-1.82344 -1.28134,-4.94464 0,-3.12119 1.28134,-4.93642 1.28954,-1.81522 3.3676,-1.81522 2.08628,0 3.36761,1.81522 1.28955,1.81523 1.28955,4.93642 0,3.1212 -1.28955,4.94464 -1.28133,1.81522 -3.36761,1.81522 z m 0,-1.28133 q 1.6181,0 2.3409,-1.65917 0.72281,-1.66737 0.72281,-3.81936 0,-2.14377 -0.72281,-3.81114 -0.7228,-1.66738 -2.3409,-1.66738 -1.60988,0 -2.33268,1.66738 -0.7228,1.66737 -0.7228,3.81114 0,2.15199 0.7228,3.81936 0.7228,1.65917 2.33268,1.65917 z"
         style=""
         id="path5361" />
      <path
         d="m 337.4909,297.56589 -1.46204,0 6.85021,-13.5115 1.42918,0 -6.81735,13.5115 z"
         style=""
         id="path5363" />
      <path
         d="m 346.17276,297.17985 0,-1.32241 q 0,-1.03492 0.64066,-2.25054 0.64067,-1.22384 2.15199,-2.39018 l 0.86243,-0.66531 q 1.72487,-1.33062 2.19305,-1.98771 0.45997,-0.6571 0.45997,-1.37169 0,-0.73101 -0.61603,-1.29776 -0.61602,-0.56674 -1.77415,-0.56674 -1.05135,0 -1.5606,0.41068 -0.50925,0.40247 -0.50925,0.91172 l 0,0.0821 -1.52774,0 0,-0.0821 q 0,-0.67352 0.45175,-1.27312 0.45997,-0.5996 1.23205,-0.961 0.7803,-0.3614 1.96307,-0.3614 2.1602,0 3.08013,0.91993 0.91993,0.91172 0.91993,2.19305 0,0.68174 -0.28748,1.37169 -0.28747,0.68995 -1.1417,1.4456 -0.84601,0.74745 -1.37989,1.11706 l -0.62424,0.42712 q -2.9405,2.02056 -2.9405,3.93435 l 0,0.31212 6.62844,0 0,1.40454 -8.22189,0 z"
         style=""
         id="path5365" />
      <path
         d="m 361.5159,297.56589 q -2.07806,0 -3.36761,-1.81522 -1.28133,-1.82344 -1.28133,-4.94464 0,-3.12119 1.28133,-4.93642 1.28955,-1.81522 3.36761,-1.81522 2.08628,0 3.36761,1.81522 1.28955,1.81523 1.28955,4.93642 0,3.1212 -1.28955,4.94464 -1.28133,1.81522 -3.36761,1.81522 z m 0,-1.28133 q 1.6181,0 2.3409,-1.65917 0.7228,-1.66737 0.7228,-3.81936 0,-2.14377 -0.7228,-3.81114 -0.7228,-1.66738 -2.3409,-1.66738 -1.60988,0 -2.33268,1.66738 -0.72281,1.66737 -0.72281,3.81114 0,2.15199 0.72281,3.81936 0.7228,1.65917 2.33268,1.65917 z"
         style=""
         id="path5367" />
      <path
         d="m 372.71936,297.56589 q -2.07806,0 -3.3676,-1.81522 -1.28134,-1.82344 -1.28134,-4.94464 0,-3.12119 1.28134,-4.93642 1.28954,-1.81522 3.3676,-1.81522 2.08628,0 3.36761,1.81522 1.28955,1.81523 1.28955,4.93642 0,3.1212 -1.28955,4.94464 -1.28133,1.81522 -3.36761,1.81522 z m 0,-1.28133 q 1.6181,0 2.3409,-1.65917 0.7228,-1.66737 0.7228,-3.81936 0,-2.14377 -0.7228,-3.81114 -0.7228,-1.66738 -2.3409,-1.66738 -1.60988,0 -2.33268,1.66738 -0.7228,1.66737 -0.7228,3.81114 0,2.15199 0.7228,3.81936 0.7228,1.65917 2.33268,1.65917 z"
         style=""
         id="path5369" />
      <path
         d="m 386.51012,290.38714 q -0.55853,0.73101 -1.10884,1.10063 -0.5421,0.3614 -1.08421,0.5421 -0.5421,0.1807 -1.16634,0.1807 -1.65095,0 -2.63659,-1.17455 -0.98564,-1.17456 -0.98564,-2.83372 0,-1.17456 0.50925,-2.11913 0.51746,-0.95279 1.42918,-1.48668 0.91993,-0.5421 2.00413,-0.5421 1.2567,0 2.35733,0.74744 1.10885,0.73924 1.67559,2.23412 0.56674,1.48668 0.56674,3.68795 0,3.12941 -1.28133,4.9857 -1.28133,1.85629 -3.67151,1.85629 -1.62631,0 -2.44768,-0.71459 -0.82137,-0.71459 -0.82137,-1.62631 l 0,-0.0821 1.52775,0 0,0.0821 q 0,0.38604 0.42711,0.73102 0.42711,0.33676 1.28954,0.33676 1.0185,0 1.77416,-0.60781 0.76387,-0.60782 1.20741,-1.98771 0.44354,-1.38811 0.44354,-2.85836 l -0.008,-0.45175 z m -3.04727,-5.05963 q -0.99385,0 -1.66738,0.83779 -0.67352,0.82959 -0.67352,2.07807 0,1.24847 0.70638,1.97128 0.71459,0.7228 1.73308,0.7228 1.11706,0 1.82344,-0.82958 0.70638,-0.82958 0.70638,-1.97128 0,-0.74745 -0.34498,-1.42918 -0.34497,-0.68174 -0.961,-1.02671 -0.60781,-0.35319 -1.3224,-0.35319 z"
         style=""
         id="path5371" />
    </g>
  </g>
</svg>
