<?xml version="1.0" encoding="UTF-8" standalone="no"?>
<!-- Created with Inkscape (http://www.inkscape.org/) -->

<svg
   xmlns:dc="http://purl.org/dc/elements/1.1/"
   xmlns:cc="http://creativecommons.org/ns#"
   xmlns:rdf="http://www.w3.org/1999/02/22-rdf-syntax-ns#"
   xmlns:svg="http://www.w3.org/2000/svg"
   xmlns="http://www.w3.org/2000/svg"
   xmlns:sodipodi="http://sodipodi.sourceforge.net/DTD/sodipodi-0.dtd"
   xmlns:inkscape="http://www.inkscape.org/namespaces/inkscape"
   width="210mm"
   height="297mm"
   viewBox="0 0 744.09448819 1052.3622047"
   id="svg2"
   version="1.1"
   inkscape:version="0.91 r13725"
   sodipodi:docname="breadoflife.svg">
  <defs
     id="defs4" />
  <sodipodi:namedview
     id="base"
     pagecolor="#ffffff"
     bordercolor="#666666"
     borderopacity="1.0"
     inkscape:pageopacity="0.0"
     inkscape:pageshadow="2"
     inkscape:zoom="1.7035156"
     inkscape:cx="236.16946"
     inkscape:cy="520"
     inkscape:document-units="px"
     inkscape:current-layer="text4136"
     showgrid="false"
     inkscape:window-width="3440"
     inkscape:window-height="1391"
     inkscape:window-x="0"
     inkscape:window-y="1"
     inkscape:window-maximized="1" />
  <metadata
     id="metadata7">
    <rdf:RDF>
      <cc:Work
         rdf:about="">
        <dc:format>image/svg+xml</dc:format>
        <dc:type
           rdf:resource="http://purl.org/dc/dcmitype/StillImage" />
      </cc:Work>
    </rdf:RDF>
  </metadata>
  <g
     inkscape:label="Layer 1"
     inkscape:groupmode="layer"
     id="layer1">
    <g
       style="font-style:normal;font-weight:normal;font-size:40px;line-height:125%;font-family:sans-serif;letter-spacing:0px;word-spacing:0px;fill:#000000;fill-opacity:1;stroke:none;stroke-width:1px;stroke-linecap:butt;stroke-linejoin:miter;stroke-opacity:1"
       id="text4136">
      <path
         d="m 312.79219,425.39939 -10.84,0 0,1.2 c 3.32,0.24 3.64,0.52 3.64,3.96 l 0,13.68 c 0,3.36 -0.04,5.76 -0.4,7.8 -0.48,2.36 -1.68,4.2 -3.96,5.28 l 0.56,1.2 c 1.04,-0.36 2.48,-1.08 3.84,-2.36 2.84,-2.56 3.64,-5.48 3.64,-10.68 l 0,-14.92 c 0,-3.44 0.32,-3.72 3.52,-3.96 l 0,-1.2 z"
         style="font-style:normal;font-variant:normal;font-weight:normal;font-stretch:normal;font-size:40px;line-height:125%;font-family:'Adobe Hebrew';-inkscape-font-specification:'Adobe Hebrew, Normal';text-align:center;writing-mode:lr-tb;text-anchor:middle"
         id="path4219" />
      <path
         d="m 328.52657,447.43939 c -1.48,1.36 -3.04,2 -4.68,2 -2.88,0 -6,-2.24 -6.08,-7.64 4.84,-0.16 9.92,-0.56 10.64,-0.68 0.76,-0.16 0.92,-0.48 0.96,-1.28 0,-3.24 -2.76,-6.28 -6.2,-6.28 l -0.04,0 c -2.12,0 -4.36,1.16 -6.04,3.04 -1.68,1.84 -2.68,4.32 -2.68,7.08 0,4.6 2.96,8.64 8,8.64 1.28,0 4.16,-0.72 6.76,-4 l -0.64,-0.88 z m -6.36,-12.32 c 2.2,0 3.56,1.96 3.56,4.08 -0.04,0.6 -0.28,0.8 -1,0.8 -2.28,0.08 -4.52,0.12 -6.72,0.12 0.56,-3.36 2.36,-5 4.12,-5 l 0.04,0 z"
         style="font-style:normal;font-variant:normal;font-weight:normal;font-stretch:normal;font-size:40px;line-height:125%;font-family:'Adobe Hebrew';-inkscape-font-specification:'Adobe Hebrew, Normal';text-align:center;writing-mode:lr-tb;text-anchor:middle"
         id="path4221" />
      <path
         d="m 343.46844,438.63939 c -0.08,-0.96 -0.52,-3.44 -0.88,-4.32 -0.88,-0.4 -1.96,-0.76 -3.72,-0.76 -3.8,0 -6.24,2.44 -6.24,5.32 0,3.16 2.72,4.56 5.16,5.64 2.08,1 3.2,1.92 3.2,3.68 0,1.64 -1.4,2.76 -2.84,2.76 -2.48,0 -4.32,-2.36 -5.04,-5.08 l -1.12,0.16 c 0.04,1.52 0.4,4.36 0.68,4.96 0.72,0.56 2.64,1.32 4.76,1.32 3.28,0 6.76,-1.92 6.76,-5.64 0,-2.88 -2.08,-4.36 -5.2,-5.6 -1.8,-0.72 -3.4,-1.72 -3.4,-3.44 0,-1.6 1.04,-2.72 2.6,-2.72 2,0 3.4,1.6 4.2,4 l 1.08,-0.28 z"
         style="font-style:normal;font-variant:normal;font-weight:normal;font-stretch:normal;font-size:40px;line-height:125%;font-family:'Adobe Hebrew';-inkscape-font-specification:'Adobe Hebrew, Normal';text-align:center;writing-mode:lr-tb;text-anchor:middle"
         id="path4223" />
      <path
         d="m 366.51219,449.79939 -1.12,-0.08 c -1.52,-0.08 -1.88,-0.36 -1.88,-2.44 l 0,-13.52 c -0.6,0.16 -1.64,0.32 -2.8,0.44 -1.2,0.16 -2.6,0.28 -3.76,0.32 l 0,0.96 1.44,0.24 c 1.32,0.24 1.72,0.44 1.72,2.64 l 0,9.48 c -1.36,1.28 -2.88,1.88 -4.32,1.88 -1.84,0 -3.52,-1 -3.52,-4.52 l 0,-5.48 c 0,-2.72 0,-4.64 0.12,-5.96 -0.76,0.16 -1.88,0.32 -3,0.44 -1.16,0.2 -2.2,0.28 -3.08,0.32 l 0,0.96 1.16,0.28 c 1,0.2 1.36,0.44 1.36,2.6 l 0,7.88 c 0,4.4 2.32,6.08 5.12,6.08 1.12,0 2,-0.36 3.16,-1.04 1.2,-0.64 2.04,-1.4 3,-2.08 l 0,2.88 0.28,0.24 c 0.8,-0.2 1.84,-0.52 2.96,-0.8 1.12,-0.28 2.28,-0.52 3.16,-0.64 l 0,-1.08 z"
         style="font-style:normal;font-variant:normal;font-weight:normal;font-stretch:normal;font-size:40px;line-height:125%;font-family:'Adobe Hebrew';-inkscape-font-specification:'Adobe Hebrew, Normal';text-align:center;writing-mode:lr-tb;text-anchor:middle"
         id="path4225" />
      <path
         d="m 380.03094,438.63939 c -0.08,-0.96 -0.52,-3.44 -0.88,-4.32 -0.88,-0.4 -1.96,-0.76 -3.72,-0.76 -3.8,0 -6.24,2.44 -6.24,5.32 0,3.16 2.72,4.56 5.16,5.64 2.08,1 3.2,1.92 3.2,3.68 0,1.64 -1.4,2.76 -2.84,2.76 -2.48,0 -4.32,-2.36 -5.04,-5.08 l -1.12,0.16 c 0.04,1.52 0.4,4.36 0.68,4.96 0.72,0.56 2.64,1.32 4.76,1.32 3.28,0 6.76,-1.92 6.76,-5.64 0,-2.88 -2.08,-4.36 -5.2,-5.6 -1.8,-0.72 -3.4,-1.72 -3.4,-3.44 0,-1.6 1.04,-2.72 2.6,-2.72 2,0 3.4,1.6 4.2,4 l 1.08,-0.28 z"
         style="font-style:normal;font-variant:normal;font-weight:normal;font-stretch:normal;font-size:40px;line-height:125%;font-family:'Adobe Hebrew';-inkscape-font-specification:'Adobe Hebrew, Normal';text-align:center;writing-mode:lr-tb;text-anchor:middle"
         id="path4227" />
      <path
         d="m 404.48407,438.63939 c -0.08,-0.96 -0.52,-3.44 -0.88,-4.32 -0.88,-0.4 -1.96,-0.76 -3.72,-0.76 -3.8,0 -6.24,2.44 -6.24,5.32 0,3.16 2.72,4.56 5.16,5.64 2.08,1 3.2,1.92 3.2,3.68 0,1.64 -1.4,2.76 -2.84,2.76 -2.48,0 -4.32,-2.36 -5.04,-5.08 l -1.12,0.16 c 0.04,1.52 0.4,4.36 0.68,4.96 0.72,0.56 2.64,1.32 4.76,1.32 3.28,0 6.76,-1.92 6.76,-5.64 0,-2.88 -2.08,-4.36 -5.2,-5.6 -1.8,-0.72 -3.4,-1.72 -3.4,-3.44 0,-1.6 1.04,-2.72 2.6,-2.72 2,0 3.4,1.6 4.2,4 l 1.08,-0.28 z"
         style="font-style:normal;font-variant:normal;font-weight:normal;font-stretch:normal;font-size:40px;line-height:125%;font-family:'Adobe Hebrew';-inkscape-font-specification:'Adobe Hebrew, Normal';text-align:center;writing-mode:lr-tb;text-anchor:middle"
         id="path4229" />
      <path
         d="m 424.43844,450.19939 -0.44,-1.04 c -0.4,0.2 -0.96,0.4 -1.44,0.4 -0.72,0 -1.48,-0.56 -1.48,-2.44 l 0,-7.4 c 0,-2.16 -0.4,-3.84 -1.84,-5.04 -0.96,-0.76 -2.16,-1.12 -3.44,-1.12 -2.28,0.48 -5,2.04 -6.2,2.88 -0.8,0.6 -1.28,1.08 -1.28,1.64 0,0.96 1.04,1.8 1.8,1.8 0.68,0 1.08,-0.32 1.28,-1 0.36,-1.24 0.72,-2.16 1.2,-2.72 0.44,-0.44 1.08,-0.72 1.8,-0.72 2.04,0 3.4,1.6 3.4,4.52 l 0,0.72 c -0.92,0.72 -3.84,1.84 -6.36,2.64 -2.28,0.76 -3.32,2.04 -3.32,4 0,2.56 2,5 4.96,5 1.24,0 3.2,-1.48 4.8,-2.56 0.16,0.64 0.44,1.24 1,1.76 0.44,0.44 1.32,0.8 1.96,0.8 l 3.6,-2.12 z m -6.64,-1.76 c -0.76,0.72 -2.16,1.36 -3.16,1.36 -1.2,0 -2.84,-0.96 -2.84,-3.08 0,-1.48 0.88,-2.28 2.48,-3 0.84,-0.4 2.64,-1.16 3.52,-1.64 l 0,6.36 z"
         style="font-style:normal;font-variant:normal;font-weight:normal;font-stretch:normal;font-size:40px;line-height:125%;font-family:'Adobe Hebrew';-inkscape-font-specification:'Adobe Hebrew, Normal';text-align:center;writing-mode:lr-tb;text-anchor:middle"
         id="path4231" />
      <path
         d="m 429.89282,430.11939 c 1.24,0 2.16,-1 2.16,-2.16 0,-1.24 -0.92,-2.2 -2.12,-2.2 -1.16,0 -2.2,0.96 -2.2,2.2 0,1.16 1.04,2.16 2.16,2.16 z m 4.88,21.72 0,-1.08 c -2.64,-0.24 -2.92,-0.52 -2.92,-3.28 l 0,-14 c -1.8,0.72 -3.84,1.28 -5.92,1.6 l 0,1 c 2.36,0.36 2.52,0.56 2.52,3.08 l 0,8.32 c 0,2.8 -0.32,3.04 -2.88,3.28 l 0,1.08 9.2,0 z"
         style="font-style:normal;font-variant:normal;font-weight:normal;font-stretch:normal;font-size:40px;line-height:125%;font-family:'Adobe Hebrew';-inkscape-font-specification:'Adobe Hebrew, Normal';text-align:center;writing-mode:lr-tb;text-anchor:middle"
         id="path4233" />
      <path
         d="m 456.74657,449.71939 -1.28,-0.12 c -1.56,-0.12 -1.84,-0.36 -1.84,-2.52 l 0,-24.16 c -1.56,0.52 -4.36,1.12 -6.56,1.4 l 0,1 c 2.88,0.24 3.12,0.36 3.12,3 l 0,5.68 c -0.96,-0.32 -2.08,-0.44 -2.68,-0.44 -5.6,0 -10.56,4.44 -10.56,10.08 0,5.72 4.32,8.68 7.64,8.68 0.48,0 1.56,-0.24 3.16,-1.16 l 2.44,-1.48 0,2.64 c 2.48,-0.84 5.68,-1.36 6.56,-1.52 l 0,-1.08 z m -6.56,-1.32 c -0.96,0.68 -2.36,1.32 -3.76,1.32 -2.6,0 -5.6,-2.32 -5.6,-7.16 0,-5.92 3.4,-7.4 5.24,-7.4 1.48,0 3.16,0.64 4.12,2.08 l 0,11.16 z"
         style="font-style:normal;font-variant:normal;font-weight:normal;font-stretch:normal;font-size:40px;line-height:125%;font-family:'Adobe Hebrew';-inkscape-font-specification:'Adobe Hebrew, Normal';text-align:center;writing-mode:lr-tb;text-anchor:middle"
         id="path4235" />
      <path
         d="m 199.64438,472.95939 -3.28,1.16 c 0.16,0.52 0.8,4.8 1.24,8.68 l 1.2,-0.52 c 0.36,-2.56 1,-8.12 1.08,-9.12 l -0.24,-0.2 z m 6.24,0 -3.28,1.16 c 0.2,0.52 0.76,4.8 1.24,8.68 l 1.2,-0.52 c 0.36,-2.48 1,-8.08 1.08,-9.12 l -0.24,-0.2 z"
         style="font-style:normal;font-variant:normal;font-weight:normal;font-stretch:normal;font-size:40px;line-height:125%;font-family:'Adobe Hebrew';-inkscape-font-specification:'Adobe Hebrew, Normal';text-align:center;writing-mode:lr-tb;text-anchor:middle"
         id="path4237" />
      <path
         d="m 220.52563,501.83939 0,-1.16 c -3.36,-0.28 -3.68,-0.48 -3.68,-3.96 l 0,-16.16 c 0,-3.48 0.32,-3.72 3.68,-3.96 l 0,-1.2 -11.04,0 0,1.2 c 3.36,0.24 3.68,0.48 3.68,3.96 l 0,16.16 c 0,3.44 -0.32,3.68 -3.68,3.96 l 0,1.16 11.04,0 z"
         style="font-style:normal;font-variant:normal;font-weight:normal;font-stretch:normal;font-size:40px;line-height:125%;font-family:'Adobe Hebrew';-inkscape-font-specification:'Adobe Hebrew, Normal';text-align:center;writing-mode:lr-tb;text-anchor:middle"
         id="path4239" />
      <path
         d="m 249.39938,500.19939 -0.44,-1.04 c -0.4,0.2 -0.96,0.4 -1.44,0.4 -0.72,0 -1.48,-0.56 -1.48,-2.44 l 0,-7.4 c 0,-2.16 -0.4,-3.84 -1.84,-5.04 -0.96,-0.76 -2.16,-1.12 -3.44,-1.12 -2.28,0.48 -5,2.04 -6.2,2.88 -0.8,0.6 -1.28,1.08 -1.28,1.64 0,0.96 1.04,1.8 1.8,1.8 0.68,0 1.08,-0.32 1.28,-1 0.36,-1.24 0.72,-2.16 1.2,-2.72 0.44,-0.44 1.08,-0.72 1.8,-0.72 2.04,0 3.4,1.6 3.4,4.52 l 0,0.72 c -0.92,0.72 -3.84,1.84 -6.36,2.64 -2.28,0.76 -3.32,2.04 -3.32,4 0,2.56 2,5 4.96,5 1.24,0 3.2,-1.48 4.8,-2.56 0.16,0.64 0.44,1.24 1,1.76 0.44,0.44 1.32,0.8 1.96,0.8 l 3.6,-2.12 z m -6.64,-1.76 c -0.76,0.72 -2.16,1.36 -3.16,1.36 -1.2,0 -2.84,-0.96 -2.84,-3.08 0,-1.48 0.88,-2.28 2.48,-3 0.84,-0.4 2.64,-1.16 3.52,-1.64 l 0,6.36 z"
         style="font-style:normal;font-variant:normal;font-weight:normal;font-stretch:normal;font-size:40px;line-height:125%;font-family:'Adobe Hebrew';-inkscape-font-specification:'Adobe Hebrew, Normal';text-align:center;writing-mode:lr-tb;text-anchor:middle"
         id="path4241" />
      <path
         d="m 282.05375,501.83939 0,-1.04 c -2.36,-0.28 -2.64,-0.44 -2.64,-3.16 l 0,-7.76 c 0,-4.04 -2.08,-6.32 -5.24,-6.32 -1.16,0 -2.24,0.52 -3.12,1.12 -1,0.6 -2.16,1.36 -3.36,2.24 -0.8,-2.08 -2.6,-3.36 -4.6,-3.36 -1.24,0 -2.24,0.48 -3.32,1.16 -1.24,0.76 -2.12,1.44 -2.96,2.04 l 0,-3.32 c -1.92,0.84 -4.08,1.36 -5.88,1.68 l 0,0.96 c 2.32,0.36 2.48,0.56 2.48,3.16 l 0,8.36 c 0,2.68 -0.4,2.96 -3.04,3.2 l 0,1.04 8.76,0 0,-1.04 c -1.96,-0.24 -2.32,-0.52 -2.32,-3.16 l 0,-9.52 c 1.2,-1 2.8,-2.08 4.36,-2.08 2.4,0 3.56,1.64 3.56,4.68 l 0,6.92 c 0,2.64 -0.4,2.92 -2.88,3.16 l 0,1.04 8.88,0 0,-1.04 c -2.24,-0.24 -2.6,-0.52 -2.6,-3.12 l 0,-7.8 c 0,-0.8 -0.04,-1.28 -0.12,-1.76 1.52,-1.28 3.04,-2.04 4.44,-2.04 2.44,0 3.56,1.72 3.56,4.68 l 0,6.68 c 0,2.88 -0.48,3.12 -2.8,3.36 l 0,1.04 8.84,0 z"
         style="font-style:normal;font-variant:normal;font-weight:normal;font-stretch:normal;font-size:40px;line-height:125%;font-family:'Adobe Hebrew';-inkscape-font-specification:'Adobe Hebrew, Normal';text-align:center;writing-mode:lr-tb;text-anchor:middle"
         id="path4243" />
      <path
         d="m 304.66063,500.31939 -0.4,-1.04 c -0.56,0.28 -1.48,0.64 -2.44,0.64 -1.08,0 -2.44,-0.56 -2.44,-3.84 l 0,-10.36 4.32,0 c 0.52,-0.32 0.64,-1.2 0.24,-1.68 l -4.56,0 0,-5.6 -0.6,-0.12 -2.84,2.8 0,2.92 -1.8,0 -1.16,1.24 0.16,0.44 2.8,0 0,11.72 c 0,3.32 1.52,4.88 4.16,4.88 0.36,0 1,-0.16 1.72,-0.52 l 2.84,-1.48 z"
         style="font-style:normal;font-variant:normal;font-weight:normal;font-stretch:normal;font-size:40px;line-height:125%;font-family:'Adobe Hebrew';-inkscape-font-specification:'Adobe Hebrew, Normal';text-align:center;writing-mode:lr-tb;text-anchor:middle"
         id="path4245" />
      <path
         d="m 326.35125,501.83939 0,-1.08 c -2.4,-0.2 -2.68,-0.48 -2.68,-3.16 l 0,-7 c 0,-4.96 -2.36,-7.04 -5.68,-7.04 -2.2,0 -4.4,1.52 -5.84,2.96 l 0,-13.6 c -1.68,0.52 -4.24,1.12 -6.2,1.4 l 0,0.96 c 2.64,0.24 2.76,0.4 2.76,2.96 l 0,19.36 c 0,2.68 -0.36,2.96 -2.8,3.16 l 0,1.08 8.84,0 0,-1.08 c -2.4,-0.2 -2.6,-0.56 -2.6,-3.16 l 0,-9.6 c 1.12,-1.32 2.68,-2.04 4.12,-2.04 2.64,0 4,1.64 4,4.96 l 0,6.68 c 0,2.64 -0.36,2.96 -2.68,3.16 l 0,1.08 8.76,0 z"
         style="font-style:normal;font-variant:normal;font-weight:normal;font-stretch:normal;font-size:40px;line-height:125%;font-family:'Adobe Hebrew';-inkscape-font-specification:'Adobe Hebrew, Normal';text-align:center;writing-mode:lr-tb;text-anchor:middle"
         id="path4247" />
      <path
         d="m 342.70625,497.43939 c -1.48,1.36 -3.04,2 -4.68,2 -2.88,0 -6,-2.24 -6.08,-7.64 4.84,-0.16 9.92,-0.56 10.64,-0.68 0.76,-0.16 0.92,-0.48 0.96,-1.28 0,-3.24 -2.76,-6.28 -6.2,-6.28 l -0.04,0 c -2.12,0 -4.36,1.16 -6.04,3.04 -1.68,1.84 -2.68,4.32 -2.68,7.08 0,4.6 2.96,8.64 8,8.64 1.28,0 4.16,-0.72 6.76,-4 l -0.64,-0.88 z m -6.36,-12.32 c 2.2,0 3.56,1.96 3.56,4.08 -0.04,0.6 -0.28,0.8 -1,0.8 -2.28,0.08 -4.52,0.12 -6.72,0.12 0.56,-3.36 2.36,-5 4.12,-5 l 0.04,0 z"
         style="font-style:normal;font-variant:normal;font-weight:normal;font-stretch:normal;font-size:40px;line-height:125%;font-family:'Adobe Hebrew';-inkscape-font-specification:'Adobe Hebrew, Normal';text-align:center;writing-mode:lr-tb;text-anchor:middle"
         id="path4249" />
      <path
         d="m 360.30125,485.39939 0,-12.48 c -1.52,0.56 -4.16,1.2 -6.08,1.4 l 0,0.96 c 2.6,0.24 2.68,0.52 2.68,3.04 l 0,22.56 c 2.32,1.04 4.44,1.44 6.12,1.44 5.56,0 10.4,-4.2 10.4,-10.2 0,-4.76 -3.68,-8.56 -8.16,-8.56 -0.48,0 -1.04,0.16 -1.76,0.44 l -3.2,1.4 z m 0,1.2 c 0.8,-0.4 2,-0.72 3.08,-0.72 3.36,0 6.2,2.64 6.2,7.32 0,4.76 -2.12,7.56 -5.44,7.56 -2.08,0 -3.28,-1.44 -3.6,-2.24 -0.16,-0.36 -0.24,-0.84 -0.24,-1.44 l 0,-10.48 z"
         style="font-style:normal;font-variant:normal;font-weight:normal;font-stretch:normal;font-size:40px;line-height:125%;font-family:'Adobe Hebrew';-inkscape-font-specification:'Adobe Hebrew, Normal';text-align:center;writing-mode:lr-tb;text-anchor:middle"
         id="path4251" />
      <path
         d="m 381.97,487.95939 0,-4.48 c -2,0.84 -3.92,1.32 -5.92,1.64 l 0,0.92 c 2.28,0.32 2.52,0.48 2.52,3.12 l 0,8.44 c 0,2.68 -0.32,2.96 -2.88,3.16 l 0,1.08 9.68,0 0,-1.08 c -3.2,-0.2 -3.4,-0.48 -3.4,-3.2 l 0,-7.32 c 0.88,-2.24 2.2,-3.44 3.2,-3.44 0.68,0 1.12,0.28 1.8,0.88 0.24,0.24 0.6,0.28 1.08,0.08 0.8,-0.36 1.4,-1.24 1.4,-2.12 0,-0.96 -1,-2.08 -2.44,-2.08 -1.92,0 -3.68,2.24 -4.92,4.4 l -0.12,0 z"
         style="font-style:normal;font-variant:normal;font-weight:normal;font-stretch:normal;font-size:40px;line-height:125%;font-family:'Adobe Hebrew';-inkscape-font-specification:'Adobe Hebrew, Normal';text-align:center;writing-mode:lr-tb;text-anchor:middle"
         id="path4253" />
      <path
         d="m 404.89375,497.43939 c -1.48,1.36 -3.04,2 -4.68,2 -2.88,0 -6,-2.24 -6.08,-7.64 4.84,-0.16 9.92,-0.56 10.64,-0.68 0.76,-0.16 0.92,-0.48 0.96,-1.28 0,-3.24 -2.76,-6.28 -6.2,-6.28 l -0.04,0 c -2.12,0 -4.36,1.16 -6.04,3.04 -1.68,1.84 -2.68,4.32 -2.68,7.08 0,4.6 2.96,8.64 8,8.64 1.28,0 4.16,-0.72 6.76,-4 l -0.64,-0.88 z m -6.36,-12.32 c 2.2,0 3.56,1.96 3.56,4.08 -0.04,0.6 -0.28,0.8 -1,0.8 -2.28,0.08 -4.52,0.12 -6.72,0.12 0.56,-3.36 2.36,-5 4.12,-5 l 0.04,0 z"
         style="font-style:normal;font-variant:normal;font-weight:normal;font-stretch:normal;font-size:40px;line-height:125%;font-family:'Adobe Hebrew';-inkscape-font-specification:'Adobe Hebrew, Normal';text-align:center;writing-mode:lr-tb;text-anchor:middle"
         id="path4255" />
      <path
         d="m 424.79,500.19939 -0.44,-1.04 c -0.4,0.2 -0.96,0.4 -1.44,0.4 -0.72,0 -1.48,-0.56 -1.48,-2.44 l 0,-7.4 c 0,-2.16 -0.4,-3.84 -1.84,-5.04 -0.96,-0.76 -2.16,-1.12 -3.44,-1.12 -2.28,0.48 -5,2.04 -6.2,2.88 -0.8,0.6 -1.28,1.08 -1.28,1.64 0,0.96 1.04,1.8 1.8,1.8 0.68,0 1.08,-0.32 1.28,-1 0.36,-1.24 0.72,-2.16 1.2,-2.72 0.44,-0.44 1.08,-0.72 1.8,-0.72 2.04,0 3.4,1.6 3.4,4.52 l 0,0.72 c -0.92,0.72 -3.84,1.84 -6.36,2.64 -2.28,0.76 -3.32,2.04 -3.32,4 0,2.56 2,5 4.96,5 1.24,0 3.2,-1.48 4.8,-2.56 0.16,0.64 0.44,1.24 1,1.76 0.44,0.44 1.32,0.8 1.96,0.8 l 3.6,-2.12 z m -6.64,-1.76 c -0.76,0.72 -2.16,1.36 -3.16,1.36 -1.2,0 -2.84,-0.96 -2.84,-3.08 0,-1.48 0.88,-2.28 2.48,-3 0.84,-0.4 2.64,-1.16 3.52,-1.64 l 0,6.36 z"
         style="font-style:normal;font-variant:normal;font-weight:normal;font-stretch:normal;font-size:40px;line-height:125%;font-family:'Adobe Hebrew';-inkscape-font-specification:'Adobe Hebrew, Normal';text-align:center;writing-mode:lr-tb;text-anchor:middle"
         id="path4257" />
      <path
         d="m 446.395,499.71939 -1.28,-0.12 c -1.56,-0.12 -1.84,-0.36 -1.84,-2.52 l 0,-24.16 c -1.56,0.52 -4.36,1.12 -6.56,1.4 l 0,1 c 2.88,0.24 3.12,0.36 3.12,3 l 0,5.68 c -0.96,-0.32 -2.08,-0.44 -2.68,-0.44 -5.6,0 -10.56,4.44 -10.56,10.08 0,5.72 4.32,8.68 7.64,8.68 0.48,0 1.56,-0.24 3.16,-1.16 l 2.44,-1.48 0,2.64 c 2.48,-0.84 5.68,-1.36 6.56,-1.52 l 0,-1.08 z m -6.56,-1.32 c -0.96,0.68 -2.36,1.32 -3.76,1.32 -2.6,0 -5.6,-2.32 -5.6,-7.16 0,-5.92 3.4,-7.4 5.24,-7.4 1.48,0 3.16,0.64 4.12,2.08 l 0,11.16 z"
         style="font-style:normal;font-variant:normal;font-weight:normal;font-stretch:normal;font-size:40px;line-height:125%;font-family:'Adobe Hebrew';-inkscape-font-specification:'Adobe Hebrew, Normal';text-align:center;writing-mode:lr-tb;text-anchor:middle"
         id="path4259" />
      <path
         d="m 466.80688,483.55939 c -3.8,0 -9.08,3.08 -9.08,9.8 0,4.52 3.32,8.96 9.08,8.96 4.08,0 8.96,-3.12 8.96,-9.64 0,-5 -3.8,-9.12 -8.92,-9.12 l -0.04,0 z m -0.44,1.4 c 3.48,0 5.4,3.76 5.4,8.6 0,5.64 -2.08,7.4 -4.52,7.4 -3.32,0 -5.52,-3.84 -5.52,-8.96 0,-4.56 2.2,-7.04 4.6,-7.04 l 0.04,0 z"
         style="font-style:normal;font-variant:normal;font-weight:normal;font-stretch:normal;font-size:40px;line-height:125%;font-family:'Adobe Hebrew';-inkscape-font-specification:'Adobe Hebrew, Normal';text-align:center;writing-mode:lr-tb;text-anchor:middle"
         id="path4261" />
      <path
         d="m 478.95375,484.03939 -1.16,1.24 0.2,0.44 2.88,0 0,11.88 c 0,2.68 -0.32,2.92 -2.92,3.16 l 0,1.08 9.84,0 0,-1.04 c -3.2,-0.28 -3.52,-0.48 -3.52,-3.48 l 0,-11.6 4.4,0 c 0.52,-0.28 0.68,-1.28 0.48,-1.68 l -4.88,0 0,-1.6 c -0.04,-3.44 0.36,-5.36 0.84,-6.12 0.44,-0.72 1.08,-1.2 2.16,-1.2 1.28,0 2.52,0.76 3.32,1.56 0.36,0.4 0.72,0.4 1.16,0.12 0.4,-0.32 0.68,-0.72 0.8,-1.04 0.2,-0.48 0.16,-1 -0.24,-1.48 -0.64,-0.76 -1.84,-1.32 -3.24,-1.36 -1.64,0.2 -3.12,0.92 -4.56,2.16 -2.24,1.92 -2.92,3.92 -3.2,4.8 -0.28,0.88 -0.44,2.04 -0.44,3.28 l 0,0.88 -1.92,0 z"
         style="font-style:normal;font-variant:normal;font-weight:normal;font-stretch:normal;font-size:40px;line-height:125%;font-family:'Adobe Hebrew';-inkscape-font-specification:'Adobe Hebrew, Normal';text-align:center;writing-mode:lr-tb;text-anchor:middle"
         id="path4263" />
      <path
         d="m 508.3925,501.83939 0,-1.08 c -2.64,-0.2 -2.96,-0.48 -2.96,-3.24 l 0,-24.6 c -1.48,0.52 -4.08,1.16 -6.24,1.4 l 0,1 c 2.56,0.24 2.8,0.32 2.8,3.08 l 0,19.12 c 0,2.72 -0.36,3 -2.92,3.24 l 0,1.08 9.32,0 z"
         style="font-style:normal;font-variant:normal;font-weight:normal;font-stretch:normal;font-size:40px;line-height:125%;font-family:'Adobe Hebrew';-inkscape-font-specification:'Adobe Hebrew, Normal';text-align:center;writing-mode:lr-tb;text-anchor:middle"
         id="path4265" />
      <path
         d="m 514.54125,480.11939 c 1.24,0 2.16,-1 2.16,-2.16 0,-1.24 -0.92,-2.2 -2.12,-2.2 -1.16,0 -2.2,0.96 -2.2,2.2 0,1.16 1.04,2.16 2.16,2.16 z m 4.88,21.72 0,-1.08 c -2.64,-0.24 -2.92,-0.52 -2.92,-3.28 l 0,-14 c -1.8,0.72 -3.84,1.28 -5.92,1.6 l 0,1 c 2.36,0.36 2.52,0.56 2.52,3.08 l 0,8.32 c 0,2.8 -0.32,3.04 -2.88,3.28 l 0,1.08 9.2,0 z"
         style="font-style:normal;font-variant:normal;font-weight:normal;font-stretch:normal;font-size:40px;line-height:125%;font-family:'Adobe Hebrew';-inkscape-font-specification:'Adobe Hebrew, Normal';text-align:center;writing-mode:lr-tb;text-anchor:middle"
         id="path4267" />
      <path
         d="m 522.235,484.03939 -1.16,1.24 0.2,0.44 2.88,0 0,11.88 c 0,2.68 -0.32,2.92 -2.92,3.16 l 0,1.08 9.84,0 0,-1.04 c -3.2,-0.28 -3.52,-0.48 -3.52,-3.48 l 0,-11.6 4.4,0 c 0.52,-0.28 0.68,-1.28 0.48,-1.68 l -4.88,0 0,-1.6 c -0.04,-3.44 0.36,-5.36 0.84,-6.12 0.44,-0.72 1.08,-1.2 2.16,-1.2 1.28,0 2.52,0.76 3.32,1.56 0.36,0.4 0.72,0.4 1.16,0.12 0.4,-0.32 0.68,-0.72 0.8,-1.04 0.2,-0.48 0.16,-1 -0.24,-1.48 -0.64,-0.76 -1.84,-1.32 -3.24,-1.36 -1.64,0.2 -3.12,0.92 -4.56,2.16 -2.24,1.92 -2.92,3.92 -3.2,4.8 -0.28,0.88 -0.44,2.04 -0.44,3.28 l 0,0.88 -1.92,0 z"
         style="font-style:normal;font-variant:normal;font-weight:normal;font-stretch:normal;font-size:40px;line-height:125%;font-family:'Adobe Hebrew';-inkscape-font-specification:'Adobe Hebrew, Normal';text-align:center;writing-mode:lr-tb;text-anchor:middle"
         id="path4269" />
      <path
         d="m 547.55,497.43939 c -1.48,1.36 -3.04,2 -4.68,2 -2.88,0 -6,-2.24 -6.08,-7.64 4.84,-0.16 9.92,-0.56 10.64,-0.68 0.76,-0.16 0.92,-0.48 0.96,-1.28 0,-3.24 -2.76,-6.28 -6.2,-6.28 l -0.04,0 c -2.12,0 -4.36,1.16 -6.04,3.04 -1.68,1.84 -2.68,4.32 -2.68,7.08 0,4.6 2.96,8.64 8,8.64 1.28,0 4.16,-0.72 6.76,-4 l -0.64,-0.88 z m -6.36,-12.32 c 2.2,0 3.56,1.96 3.56,4.08 -0.04,0.6 -0.28,0.8 -1,0.8 -2.28,0.08 -4.52,0.12 -6.72,0.12 0.56,-3.36 2.36,-5 4.12,-5 l 0.04,0 z"
         style="font-style:normal;font-variant:normal;font-weight:normal;font-stretch:normal;font-size:40px;line-height:125%;font-family:'Adobe Hebrew';-inkscape-font-specification:'Adobe Hebrew, Normal';text-align:center;writing-mode:lr-tb;text-anchor:middle"
         id="path4271" />
      <path
         d="m 554.33188,472.95939 -3.28,1.16 c 0.16,0.52 0.8,4.8 1.24,8.68 l 1.2,-0.52 c 0.36,-2.56 1,-8.12 1.08,-9.12 l -0.24,-0.2 z m 6.24,0 -3.28,1.16 c 0.2,0.52 0.76,4.8 1.24,8.68 l 1.2,-0.52 c 0.36,-2.48 1,-8.08 1.08,-9.12 l -0.24,-0.2 z"
         style="font-style:normal;font-variant:normal;font-weight:normal;font-stretch:normal;font-size:40px;line-height:125%;font-family:'Adobe Hebrew';-inkscape-font-specification:'Adobe Hebrew, Normal';text-align:center;writing-mode:lr-tb;text-anchor:middle"
         id="path4273" />
    </g>
  </g>
</svg>
