<?xml version="1.0" encoding="UTF-8" standalone="no"?>
<!-- Generator: Adobe Illustrator 16.0.0, SVG Export Plug-In . SVG Version: 6.00 Build 0)  -->

<svg
   xmlns:dc="http://purl.org/dc/elements/1.1/"
   xmlns:cc="http://creativecommons.org/ns#"
   xmlns:rdf="http://www.w3.org/1999/02/22-rdf-syntax-ns#"
   xmlns:svg="http://www.w3.org/2000/svg"
   xmlns="http://www.w3.org/2000/svg"
   xmlns:xlink="http://www.w3.org/1999/xlink"
   xmlns:sodipodi="http://sodipodi.sourceforge.net/DTD/sodipodi-0.dtd"
   xmlns:inkscape="http://www.inkscape.org/namespaces/inkscape"
   version="1.1"
   id="Logo"
   x="0px"
   y="0px"
   width="612px"
   height="792px"
   viewBox="0 0 612 792"
   enable-background="new 0 0 612 792"
   xml:space="preserve"
   inkscape:version="0.91 r13725"
   sodipodi:docname="CarrotPantsText.svg"><metadata
     id="metadata4453"><rdf:RDF><cc:Work
         rdf:about=""><dc:format>image/svg+xml</dc:format><dc:type
           rdf:resource="http://purl.org/dc/dcmitype/StillImage" /></cc:Work></rdf:RDF></metadata><defs
     id="defs4451" /><sodipodi:namedview
     pagecolor="#ffffff"
     bordercolor="#666666"
     borderopacity="1"
     objecttolerance="10"
     gridtolerance="10"
     guidetolerance="10"
     inkscape:pageopacity="0"
     inkscape:pageshadow="2"
     inkscape:window-width="1440"
     inkscape:window-height="851"
     id="namedview4449"
     showgrid="false"
     inkscape:zoom="1.0315744"
     inkscape:cx="168.43186"
     inkscape:cy="204.23205"
     inkscape:window-x="1"
     inkscape:window-y="1"
     inkscape:window-maximized="0"
     inkscape:current-layer="text4447" /><g
     id="Flag_1"><defs
       id="defs4421"><path
         id="SVGID_9_"
         d="M136.333,405.333L115,246.666c0,0-1-7.666,0.667-11.333s21-15,50.667-21s67.667-7.667,108,3.333    s72,27.333,77,30.333S363,252.666,365,264.333s6.667,50,6.667,50s3.666,10-8.667,10s-95.667,0-95.667,0s41.667,9,62.667,16.667    s36.668,15.667,41.334,18.333s7.334,5.667,9,16.667S389,436.666,389,436.666s2,9.999-6,7.666s-58.666-20.333-123.667-20.333    c-65,0-106,0-106,0S145,424.332,142,421.332S137.333,412.999,136.333,405.333z" /></defs><clipPath
       id="SVGID_10_"><use
         xlink:href="#SVGID_9_"
         overflow="visible"
         id="use4425" /></clipPath></g><g
     transform="matrix(1 0 0 1 60.1016 610.5166)"
     style="font-size:119.65070343px;font-family:TrashHand;fill:#ca4916"
     id="text4447"><path
       d="m 36.134512,-72.149374 q 0,3.230569 -4.307425,4.068124 -5.623583,1.076856 -6.939741,2.512665 -13.400878,14.118783 -13.400878,36.493464 0,10.529262 3.350219,19.8620168 2.751966,7.6576451 3.948473,10.05065912 2.991268,5.86288448 7.298693,8.37554928 1.794761,0.8375548 3.589521,1.5554588 1.914412,1.076857 1.914412,2.991268 0,1.914411 -1.316158,3.46987 -1.196507,1.555459 -2.632316,1.196507 Q 26.083853,18.186907 22.853284,16.870749 17.110051,13.520529 10.409611,2.6323155 8.7345014,-0.1196507 6.9397408,-2.9912676 5.264631,-5.9825352 4.427076,-8.6148506 3.8288225,-10.529262 2.3930141,-24.049791 q -0.4786028,-4.187775 -0.4786028,-8.136248 0,-21.178175 12.3240227,-36.014862 7.179042,-8.614851 14.956338,-8.614851 3.350219,0 6.102186,2.034062 0.837554,0.598254 0.837554,2.632316 z"
       style="font-size:119.65070343px;font-family:TrashHand;fill:#ca4916"
       id="path4508" /><path
       d="m 77.505613,-5.7432338 q 0.717905,1.9144113 0.717905,3.3502197 0,2.3930141 -2.034062,4.1877747 -2.034062,1.7947605 -2.751966,1.6751098 -5.862885,-1.0768563 -7.418344,-9.4524056 -1.67511,-9.0934538 -3.948473,-15.1956398 -4.068124,0.358953 -8.136248,0.717905 -4.666378,0.598253 -7.298693,2.871617 -1.316158,3.709171 -3.46987,13.161577 Q 41.1318,4.3074253 39.217388,8.8541521 38.260183,11.007865 35.149264,10.050659 31.200791,8.7345014 30.96149,6.461138 30.602538,1.9144113 33.593805,-5.7432338 q 3.589521,-8.7345012 3.948474,-12.4436732 0.11965,-1.076856 -1.55546,-2.393014 -1.675109,-1.316158 -1.675109,-2.034062 0,-0.598253 0.478602,-1.196507 0.598254,-0.717904 2.512665,-1.076856 2.034062,-0.478603 2.273363,-1.316158 2.153713,-5.982535 6.820091,-22.255031 3.948473,-14.118783 7.059391,-21.656777 0.717904,-1.67511 2.991268,-1.67511 1.675109,0 2.991267,1.076856 3.35022,2.871617 4.307426,8.614851 0.717904,4.905679 1.316157,9.811358 5.982535,28.237566 12.443673,46.5441232 z M 60.036611,-28.596518 q -0.358952,-4.427076 -1.555459,-9.931009 -1.196507,-4.786028 -2.273364,-9.572056 -3.589521,9.931009 -6.221836,19.862017 1.914411,-0.358952 10.050659,-0.358952 z"
       style="font-size:119.65070343px;font-family:TrashHand;fill:#ca4916"
       id="path4510" /><path
       d="m 130.68848,0.83755492 q 0.35895,0.47860278 0.35895,1.07685638 0,2.7519661 -5.74323,4.1877746 Q 118.96271,1.196507 109.51031,-8.9738028 98.981045,-20.34062 93.836065,-24.767696 q -0.358952,3.110919 -1.316158,16.2724961 -0.598253,9.9310083 -2.153713,15.7938928 -0.239301,0 -1.555459,0.5982535 -1.196507,0.5982535 -2.034062,0.3589521 -5.264631,-1.196507 -5.264631,-7.29869287 0,-1.79476055 0.478603,-4.78602813 0.478603,-3.4698704 0.598254,-4.3074253 0.478603,-6.9397412 0.598253,-16.5117972 l 0,-13.041927 q 0,-16.272495 1.794761,-27.400011 1.196507,-7.418343 13.999132,-6.82009 6.461135,0.239302 11.247165,6.461138 4.42708,5.743234 4.42708,12.443673 0,5.623583 -4.18778,11.247167 -3.58952,5.025329 -8.85415,7.896946 -2.153712,1.196507 -2.153712,2.632315 0,1.55546 2.512662,3.709172 1.91441,1.555459 3.82883,3.110919 0.11965,0.11965 13.16157,11.96507 8.2559,7.4183435 11.72577,13.28122792 z M 105.44218,-52.885611 q 0.35896,-2.153713 0.2393,-3.828822 -0.35895,-2.512665 -2.15371,-4.546727 -1.67511,-2.034062 -5.50393,-2.034062 -2.871617,0 -3.589522,1.79476 -0.598253,2.991268 -0.598253,6.820091 0,1.555459 0.358952,8.016597 0.239301,4.905679 0,8.016597 9.931013,-7.418344 11.247163,-14.238434 z"
       style="font-size:119.65070343px;font-family:TrashHand;fill:#ca4916"
       id="path4512" /><path
       d="m 173.45426,0.83755492 q 0.35895,0.47860278 0.35895,1.07685638 0,2.7519661 -5.74323,4.1877746 -6.34149,-4.9056789 -15.7939,-15.0759887 -10.52926,-11.3668172 -15.67424,-15.7938932 -0.35895,3.110919 -1.31616,16.2724961 -0.59825,9.9310083 -2.15371,15.7938928 -0.2393,0 -1.55546,0.5982535 -1.1965,0.5982535 -2.03406,0.3589521 -5.26463,-1.196507 -5.26463,-7.29869287 0,-1.79476055 0.4786,-4.78602813 0.47861,-3.4698704 0.59826,-4.3074253 0.4786,-6.9397412 0.59825,-16.5117972 l 0,-13.041927 q 0,-16.272495 1.79476,-27.400011 1.19651,-7.418343 13.99913,-6.82009 6.46114,0.239302 11.24717,6.461138 4.42707,5.743234 4.42707,12.443673 0,5.623583 -4.18777,11.247167 -3.58952,5.025329 -8.85415,7.896946 -2.15371,1.196507 -2.15371,2.632315 0,1.55546 2.51266,3.709172 1.91441,1.555459 3.82882,3.110919 0.11965,0.11965 13.16158,11.96507 8.2559,7.4183435 11.72577,13.28122792 z M 148.20796,-52.885611 q 0.35895,-2.153713 0.2393,-3.828822 -0.35895,-2.512665 -2.15371,-4.546727 -1.67511,-2.034062 -5.50393,-2.034062 -2.87162,0 -3.58952,1.79476 -0.59826,2.991268 -0.59826,6.820091 0,1.555459 0.35895,8.016597 0.23931,4.905679 0,8.016597 9.93101,-7.418344 11.24717,-14.238434 z"
       style="font-size:119.65070343px;font-family:TrashHand;fill:#ca4916"
       id="path4514" /><path
       d="m 208.0838,-25.844552 q -7.05939,15.9135436 -19.98167,18.9048112 -1.55546,0.3589521 -3.11092,0.3589521 -6.82009,0 -13.75983,-7.4183433 -4.66638,-5.02533 -4.66638,-13.041927 0,-8.854152 5.26463,-19.024462 2.27337,-4.307425 5.50394,-7.418343 3.70917,-3.709172 7.05939,-3.709172 1.91441,0 3.58952,1.435808 1.67511,1.435809 8.9738,3.828823 5.74323,1.914411 8.13625,6.461138 4.18777,8.016597 4.18777,13.759831 0,3.230569 -1.1965,5.862884 z m -9.57206,-7.418344 q -0.83755,-8.734501 -4.66638,-10.409611 -0.59825,-0.239301 -1.07685,-0.239301 -1.43581,0 -3.58952,2.393014 -2.39302,2.751966 -3.70918,3.230569 -0.83755,0.358952 -2.39301,-0.717904 -1.55546,-1.076857 -2.03406,-1.076857 -0.35895,0 -0.59826,0.239302 -4.18777,3.589521 -4.18777,11.127515 0,5.14498 2.39301,8.734502 3.35022,4.905678 5.62359,4.905678 5.26463,0 10.17031,-6.580788 4.66637,-6.221837 4.06812,-11.606119 z"
       style="font-size:119.65070343px;font-family:TrashHand;fill:#ca4916"
       id="path4516" /><path
       d="m 273.74399,-74.542388 q -1.07686,4.307425 -4.06813,5.025329 -7.77729,1.914412 -27.04106,5.02533 -2.39301,29.793025 -2.39301,49.655042 0,7.5379941 0.2393,14.836687 0.11965,2.2733634 -0.2393,3.4698704 -0.59825,1.9144113 -2.39301,1.7947606 -3.46987,-0.1196508 -5.74324,-2.9912676 -2.27336,-2.75196621 -2.51266,-6.2218366 -0.2393,-4.427076 -0.2393,-9.3327548 0,-7.896947 1.07685,-25.006997 1.07686,-16.392146 0.95721,-25.006997 -3.23057,-0.239302 -8.9738,0.598253 -6.58079,0.957206 -9.09346,0.957206 -5.86288,0 -9.57205,-3.110918 -1.43581,-3.110919 -1.43581,-3.230569 0,-0.837555 0.83755,-1.794761 3.82882,-1.316158 15.67424,-2.393014 10.40962,-1.076856 15.5546,-3.828822 4.18777,1.316157 9.57205,1.316157 5.38428,0 10.28996,-1.316157 1.43581,-0.119651 7.2987,-1.67511 4.30742,-1.076857 7.17904,-0.717904 2.15371,0 1.79476,1.79476 3.23057,0 3.23057,2.153713 z"
       style="font-size:119.65070343px;font-family:TrashHand;fill:#ca4916"
       id="path4518" /><path
       d="m 321.85478,-41.399143 q -4.54672,9.811357 -7.77729,13.041926 -5.02533,5.02533 -5.50393,5.503933 -3.46987,2.751966 -6.93974,3.350219 -0.47861,2.393014 -0.47861,5.623583 0,2.273364 0.35895,6.9397412 0.35896,4.5467267 0.35896,6.70043939 0,8.13624781 -3.82883,12.20437141 0,0 -3.35022,-1.79476 -2.03406,-1.0768565 -2.27336,-2.6323157 -1.19651,-7.77729571 -1.19651,-17.349352 0,-6.3414873 0.71791,-18.9048113 0.7179,-12.563324 0.7179,-19.024462 0,-9.332755 -1.07685,-17.11005 -0.95721,0.358952 -1.79476,-1.196507 -0.83756,-1.555459 -1.43581,-1.794761 0.59825,-3.828822 2.03406,-3.828822 1.79476,-0.598254 7.41834,0.239301 15.55459,2.512665 23.45154,13.64018 2.51267,3.589521 2.51267,8.136248 0,3.948473 -1.91442,8.255899 z m -7.77729,-9.213105 q 0.59825,-4.786028 -4.06813,-7.537994 -0.2393,0 -8.61485,-3.46987 1.31616,22.015729 0.83756,30.869881 10.64891,-10.050659 11.84542,-19.862017 z"
       style="font-size:119.65070343px;font-family:TrashHand;fill:#ca4916"
       id="path4520" /><path
       d="m 372.42591,-5.7432338 q 0.7179,1.9144113 0.7179,3.3502197 0,2.3930141 -2.03406,4.1877747 -2.03406,1.7947605 -2.75197,1.6751098 -5.86288,-1.0768563 -7.41834,-9.4524056 -1.67511,-9.0934538 -3.94847,-15.1956398 -4.06813,0.358953 -8.13625,0.717905 -4.66638,0.598253 -7.29869,2.871617 -1.31616,3.709171 -3.46987,13.161577 -2.03407,8.7345013 -3.94848,13.2812281 -0.9572,2.1537129 -4.06812,1.1965069 -3.94847,-1.3161576 -4.18778,-3.589521 -0.35895,-4.5467267 2.63232,-12.2043718 3.58952,-8.7345012 3.94847,-12.4436732 0.11965,-1.076856 -1.55546,-2.393014 -1.67511,-1.316158 -1.67511,-2.034062 0,-0.598253 0.47861,-1.196507 0.59825,-0.717904 2.51266,-1.076856 2.03406,-0.478603 2.27336,-1.316158 2.15372,-5.982535 6.82009,-22.255031 3.94848,-14.118783 7.0594,-21.656777 0.7179,-1.67511 2.99126,-1.67511 1.67511,0 2.99127,1.076856 3.35022,2.871617 4.30743,8.614851 0.7179,4.905679 1.31615,9.811358 5.98254,28.237566 12.44368,46.5441232 z M 354.9569,-28.596518 q -0.35895,-4.427076 -1.55545,-9.931009 -1.19651,-4.786028 -2.27337,-9.572056 -3.58952,9.931009 -6.22183,19.862017 1.91441,-0.358952 10.05065,-0.358952 z"
       style="font-size:119.65070343px;font-family:TrashHand;fill:#ca4916"
       id="path4522" /><path
       d="m 427.52319,-72.508326 q -1.67511,16.033194 -3.23057,32.186039 -2.03406,19.144112 -2.03406,31.9467378 0,4.1877746 0.2393,8.2558985 0.11965,1.9144113 -1.43581,3.3502197 -1.43581,1.4358084 -3.35022,1.4358084 -3.70917,0 -6.22184,-5.02532951 -7.65764,-14.95633789 -19.02446,-46.90307589 -0.2393,-0.717904 -0.59825,-0.717904 -0.83756,0 -1.07686,1.67511 -2.03406,17.11005 -2.03406,36.014862 0,9.093453 0.4786,18.5458585 0.11965,3.4698705 -2.03406,4.7860285 -0.83755,0.837555 -1.79476,0.837555 -0.83755,0 -2.15371,-0.717905 -1.79476,-0.837555 -2.27337,-1.076856 -1.55545,-0.478603 -1.91441,-2.8716168 -0.11965,-1.9144113 -0.2393,-3.9484732 -0.35895,-6.7004394 -0.35895,-13.9991324 0,-12.6829746 1.43581,-31.7074366 2.27336,-28.95547 2.51266,-32.066388 0.11965,-2.632316 4.42708,-2.632316 2.03406,-0.239301 5.98253,2.991268 3.82883,7.298693 9.45241,23.690839 5.38428,15.674242 9.81136,23.81049 1.79476,-15.913543 5.62358,-48.099583 0.35895,-2.393014 3.46987,-2.393014 1.07686,0 2.51267,0.358952 1.91441,0.478603 2.27336,0.598254 1.19651,0.478603 1.55546,1.67511 z"
       style="font-size:119.65070343px;font-family:TrashHand;fill:#ca4916"
       id="path4524" /><path
       d="m 494.11627,-74.542388 q -1.07685,4.307425 -4.06812,5.025329 -7.7773,1.914412 -27.04106,5.02533 -2.39302,29.793025 -2.39302,49.655042 0,7.5379941 0.23931,14.836687 0.11965,2.2733634 -0.23931,3.4698704 -0.59825,1.9144113 -2.39301,1.7947606 -3.46987,-0.1196508 -5.74323,-2.9912676 -2.27337,-2.75196621 -2.51267,-6.2218366 -0.2393,-4.427076 -0.2393,-9.3327548 0,-7.896947 1.07686,-25.006997 1.07685,-16.392146 0.9572,-25.006997 -3.23057,-0.239302 -8.9738,0.598253 -6.58079,0.957206 -9.09345,0.957206 -5.86289,0 -9.57206,-3.110918 -1.43581,-3.110919 -1.43581,-3.230569 0,-0.837555 0.83756,-1.794761 3.82882,-1.316158 15.67424,-2.393014 10.40961,-1.076856 15.55459,-3.828822 4.18777,1.316157 9.57206,1.316157 5.38428,0 10.28996,-1.316157 1.43581,-0.119651 7.29869,-1.67511 4.30742,-1.076857 7.17904,-0.717904 2.15371,0 1.79476,1.79476 3.23057,0 3.23057,2.153713 z"
       style="font-size:119.65070343px;font-family:TrashHand;fill:#ca4916"
       id="path4526" /><path
       d="m 503.69956,-72.388676 q 0,2.393014 -3.46987,4.187775 -0.95721,0.478603 -2.03406,0.119651 -1.67511,-0.478603 -1.79476,-0.478603 -0.71791,0 -1.43581,0.717904 -6.46114,6.461138 -6.46114,15.793893 0,3.46987 1.07686,6.461138 0.4786,1.316158 9.09345,18.545859 5.74323,11.486468 5.74323,19.5030647 0,6.58078867 -3.23057,12.6829745 -1.07685,2.034062 -5.38428,5.2646308 -3.46987,2.512665 -6.22183,2.512665 -1.07686,0 -2.03407,-0.358952 -3.58952,-1.555459 -3.58952,-3.9484734 0,-1.4358084 1.79476,-3.4698704 0.47861,-0.5982535 2.27337,-0.7179042 1.79476,-0.1196507 2.39301,-1.4358084 2.51267,-5.264631 2.51267,-10.7685633 0,-7.7772953 -7.7773,-22.4943323 -7.65765,-14.836687 -7.65765,-23.690839 0,-7.298693 2.87162,-13.041927 3.23057,-6.580789 9.21311,-9.452405 2.75196,-1.316158 5.38428,-1.316158 5.02533,0 7.53799,2.751966 1.19651,1.316158 1.19651,2.632315 z"
       style="font-size:119.65070343px;font-family:TrashHand;fill:#ca4916"
       id="path4528" /></g></svg>