<?xml version="1.0" encoding="UTF-8" standalone="no"?>
<!-- Generator: Adobe Illustrator 19.0.0, SVG Export Plug-In . SVG Version: 6.00 Build 0)  -->

<svg
   xmlns:dc="http://purl.org/dc/elements/1.1/"
   xmlns:cc="http://creativecommons.org/ns#"
   xmlns:rdf="http://www.w3.org/1999/02/22-rdf-syntax-ns#"
   xmlns:svg="http://www.w3.org/2000/svg"
   xmlns="http://www.w3.org/2000/svg"
   xmlns:sodipodi="http://sodipodi.sourceforge.net/DTD/sodipodi-0.dtd"
   xmlns:inkscape="http://www.inkscape.org/namespaces/inkscape"
   version="1.1"
   id="Layer_1"
   x="0px"
   y="0px"
   viewBox="0 0 612 792"
   style="enable-background:new 0 0 612 792;"
   xml:space="preserve"
   inkscape:version="0.91 r13725"
   sodipodi:docname="heart.svg"><metadata
     id="metadata9"><rdf:RDF><cc:Work
         rdf:about=""><dc:format>image/svg+xml</dc:format><dc:type
           rdf:resource="http://purl.org/dc/dcmitype/StillImage" /></cc:Work></rdf:RDF></metadata><defs
     id="defs7" /><sodipodi:namedview
     pagecolor="#ffffff"
     bordercolor="#666666"
     borderopacity="1"
     objecttolerance="10"
     gridtolerance="10"
     guidetolerance="10"
     inkscape:pageopacity="0"
     inkscape:pageshadow="2"
     inkscape:window-width="1986"
     inkscape:window-height="1273"
     id="namedview5"
     showgrid="false"
     inkscape:zoom="32.675691"
     inkscape:cx="306.10892"
     inkscape:cy="396.0455"
     inkscape:window-x="0"
     inkscape:window-y="0"
     inkscape:window-maximized="0"
     inkscape:current-layer="Layer_1" /><path
     style="fill:#000000"
     d="m 306.46012,412.59029 c -0.61536,-0.33023 -2.49038,-1.52861 -3.683,-2.35391 -6.54246,-4.52741 -10.66727,-8.79653 -13.00894,-13.46408 -1.62423,-3.23751 -2.13683,-6.35787 -1.52767,-9.29952 0.76963,-3.71664 3.49091,-6.76784 7.11492,-7.97753 2.7832,-0.92902 5.52685,-0.75436 8.18106,0.52082 0.89195,0.42852 1.27362,0.71606 2.2225,1.67439 l 1.14563,1.15702 1.14673,-1.15756 c 0.94921,-0.95818 1.33202,-1.24657 2.2225,-1.67439 2.48968,-1.19612 5.29698,-1.42651 7.83395,-0.64292 4.63046,1.4302 7.6474,5.50949 7.68888,10.39637 0.0614,7.23255 -5.93098,14.96148 -17.02131,21.954 -1.60805,1.01389 -1.86367,1.10965 -2.31525,0.86731 z"
     id="path4137"
     inkscape:connector-curvature="0" /></svg>