<?xml version="1.0" encoding="UTF-8" standalone="no"?>
<!-- Created with Inkscape (http://www.inkscape.org/) -->

<svg
   xmlns:dc="http://purl.org/dc/elements/1.1/"
   xmlns:cc="http://creativecommons.org/ns#"
   xmlns:rdf="http://www.w3.org/1999/02/22-rdf-syntax-ns#"
   xmlns:svg="http://www.w3.org/2000/svg"
   xmlns="http://www.w3.org/2000/svg"
   xmlns:sodipodi="http://sodipodi.sourceforge.net/DTD/sodipodi-0.dtd"
   xmlns:inkscape="http://www.inkscape.org/namespaces/inkscape"
   width="210mm"
   height="297mm"
   viewBox="0 0 744.09448819 1052.3622047"
   id="svg4706"
   version="1.1"
   inkscape:version="0.91 r13725"
   sodipodi:docname="jack.svg">
  <defs
     id="defs4708" />
  <sodipodi:namedview
     id="base"
     pagecolor="#ffffff"
     bordercolor="#666666"
     borderopacity="1.0"
     inkscape:pageopacity="0.0"
     inkscape:pageshadow="2"
     inkscape:zoom="0.35"
     inkscape:cx="-42.142857"
     inkscape:cy="520"
     inkscape:document-units="px"
     inkscape:current-layer="layer1"
     showgrid="false"
     inkscape:window-width="1440"
     inkscape:window-height="851"
     inkscape:window-x="0"
     inkscape:window-y="0"
     inkscape:window-maximized="1" />
  <metadata
     id="metadata4711">
    <rdf:RDF>
      <cc:Work
         rdf:about="">
        <dc:format>image/svg+xml</dc:format>
        <dc:type
           rdf:resource="http://purl.org/dc/dcmitype/StillImage" />
        <dc:title></dc:title>
      </cc:Work>
    </rdf:RDF>
  </metadata>
  <g
     inkscape:label="Layer 1"
     inkscape:groupmode="layer"
     id="layer1">
    <g
       style="font-style:normal;font-variant:normal;font-weight:normal;font-stretch:normal;font-size:21.76665115px;line-height:125%;font-family:Geneva;-inkscape-font-specification:'Geneva, Normal';text-align:center;letter-spacing:0px;word-spacing:0px;writing-mode:lr-tb;text-anchor:middle;fill:#000000;fill-opacity:1;stroke:none;stroke-width:1px;stroke-linecap:butt;stroke-linejoin:miter;stroke-opacity:1"
       id="text4806">
      <path
         d="m 151.78973,267.13659 2.1469,0 0,0.10628 q 0,0.45701 0.24445,0.81837 0.24445,0.36136 0.75461,0.54204 0.52078,0.18068 1.14785,0.18068 0.65895,0 1.22225,-0.29759 0.57392,-0.30822 0.829,-0.93528 0.25508,-0.6377 0.25508,-2.7846 l 0,-11.31909 2.13628,0 0,11.3616 q 0,2.69958 -0.58456,3.69863 -0.57392,0.98843 -1.42418,1.45607 -0.85026,0.47827 -2.31696,0.47827 -2.41261,0 -3.41167,-0.99905 -0.99905,-0.99906 -0.99905,-2.20005 l 0,-0.10628 z"
         style=""
         id="path5265" />
      <path
         d="m 170.97372,269.94244 q -0.30822,-0.95654 -0.30822,-1.64737 -1.29665,1.28601 -2.22131,1.63675 -0.91403,0.3401 -1.75366,0.3401 -1.41355,0 -2.43387,-0.86089 -1.00968,-0.87151 -1.00968,-2.39135 0,-1.72178 1.42419,-2.65707 1.43481,-0.93528 4.9315,-1.61549 l 1.06283,-0.20194 0,-1.33916 q 0,-1.09471 -0.73335,-1.53046 -0.73335,-0.44639 -1.76429,-0.44639 -1.23288,0 -1.92371,0.54204 -0.69084,0.54204 -0.69084,1.26476 l 0,0.17005 -2.14691,0 0,-0.15942 q 0,-0.78649 0.65896,-1.62612 0.66957,-0.83963 1.76428,-1.26476 1.10534,-0.42513 2.41262,-0.42513 1.29664,0 2.35947,0.40387 1.06282,0.40387 1.55172,1.09471 0.4889,0.68021 0.4889,2.57204 l 0,4.61266 q 0,0.7546 0.0319,1.59423 0.0425,0.82901 0.38261,1.93434 l -2.08313,0 z m -0.30822,-5.99433 -0.59518,0.1488 q -3.0078,0.73335 -3.84743,1.3923 -0.83963,0.65895 -0.83963,1.57298 0,0.46764 0.24445,0.87152 0.25508,0.40387 0.74398,0.62706 0.48889,0.22319 0.96717,0.22319 0.829,0 1.62612,-0.47827 0.80774,-0.4889 1.25413,-1.29664 0.44639,-0.80775 0.44639,-1.8812 l 0,-1.17974 z"
         style=""
         id="path5267" />
      <path
         d="m 183.10055,266.89214 1.98748,0 0,0.10628 q 0,0.79712 -0.60581,1.60486 -0.59518,0.80775 -1.57298,1.24351 -0.96717,0.42513 -2.33822,0.42513 -2.62517,0 -4.04936,-1.65801 -1.41356,-1.66863 -1.41356,-4.61266 0,-2.93339 1.41356,-4.5914 1.42419,-1.66863 4.04936,-1.66863 1.37105,0 2.33822,0.43575 0.9778,0.42513 1.57298,1.17974 0.60581,0.74398 0.60581,1.65801 l 0,0.10628 -1.98748,0 0,-0.10628 q 0.0319,-0.64833 -0.57393,-1.13723 -0.59518,-0.4889 -1.84931,-0.4889 -1.48796,0 -2.49764,1.09471 -1.00969,1.09471 -1.00969,3.51795 0,2.43387 1.00969,3.52858 1.00968,1.09471 2.49764,1.09471 1.25413,0 1.83868,-0.4889 0.58456,-0.4889 0.58456,-1.13722 l 0,-0.10628 z"
         style=""
         id="path5269" />
      <path
         d="m 189.60504,269.94244 -2.06188,0 0,-17.15399 2.06188,0 0,10.93647 5.27161,-5.65423 2.28507,0 -5.14407,5.51606 5.33538,6.35569 -2.47638,0 -5.27161,-6.21752 0,6.21752 z"
         style=""
         id="path5271" />
      <path
         d="m 206.14259,266.23319 2.14691,0 0,0.10628 q 0,1.37104 0.96717,1.91308 0.96717,0.53141 2.57203,0.53141 1.40293,0 2.34884,-0.81837 0.95655,-0.81838 0.95655,-2.15753 0,-1.08409 -0.81838,-1.77492 -0.81837,-0.68021 -2.48701,-1.36042 l -0.86089,-0.35073 q -1.75366,-0.72272 -2.62517,-1.42418 -0.86089,-0.7121 -1.28602,-1.57299 -0.42513,-0.86088 -0.42513,-1.92371 0,-1.87057 1.3179,-3.15659 1.32853,-1.28602 4.14502,-1.28602 2.58266,0 3.63486,0.95655 1.0522,0.95654 1.0522,2.23193 l 0,0.10628 -2.14691,0 0,-0.10628 q 0,-0.40387 -0.32948,-0.79712 -0.31884,-0.39325 -0.96717,-0.5633 -0.64832,-0.18068 -1.42418,-0.18068 -1.58361,0 -2.34885,0.79712 -0.7546,0.78649 -0.7546,1.79617 0,0.68021 0.36136,1.28602 0.36136,0.59518 0.98843,0.98843 0.63769,0.39325 2.13627,1.0522 l 1.00969,0.43575 q 2.42324,1.0522 3.24161,2.21068 0.80775,1.15848 0.80775,2.49764 0,1.2435 -0.65895,2.41261 -0.65895,1.15848 -1.82806,1.76429 -1.16911,0.59518 -3.11408,0.59518 -1.84931,0 -3.09282,-0.44638 -1.23287,-0.43576 -1.8812,-1.44545 -0.63769,-1.00968 -0.63769,-2.21067 l 0,-0.10628 z"
         style=""
         id="path5273" />
      <path
         d="m 227.04835,269.94244 q -0.30822,-0.95654 -0.30822,-1.64737 -1.29664,1.28601 -2.2213,1.63675 -0.91403,0.3401 -1.75366,0.3401 -1.41356,0 -2.43387,-0.86089 -1.00968,-0.87151 -1.00968,-2.39135 0,-1.72178 1.42418,-2.65707 1.43482,-0.93528 4.93151,-1.61549 l 1.06282,-0.20194 0,-1.33916 q 0,-1.09471 -0.73335,-1.53046 -0.73334,-0.44639 -1.76428,-0.44639 -1.23288,0 -1.92372,0.54204 -0.69083,0.54204 -0.69083,1.26476 l 0,0.17005 -2.14691,0 0,-0.15942 q 0,-0.78649 0.65895,-1.62612 0.66958,-0.83963 1.76429,-1.26476 1.10534,-0.42513 2.41261,-0.42513 1.29665,0 2.35947,0.40387 1.06283,0.40387 1.55173,1.09471 0.4889,0.68021 0.4889,2.57204 l 0,4.61266 q 0,0.7546 0.0319,1.59423 0.0425,0.82901 0.38262,1.93434 l -2.08314,0 z m -0.30822,-5.99433 -0.59518,0.1488 q -3.00779,0.73335 -3.84742,1.3923 -0.83964,0.65895 -0.83964,1.57298 0,0.46764 0.24445,0.87152 0.25508,0.40387 0.74398,0.62706 0.4889,0.22319 0.96717,0.22319 0.82901,0 1.62612,-0.47827 0.80775,-0.4889 1.25414,-1.29664 0.44638,-0.80775 0.44638,-1.8812 l 0,-1.17974 z"
         style=""
         id="path5275" />
      <path
         d="m 239.01576,268.26318 0,1.65801 q -1.44544,0.35073 -2.21068,0.35073 -1.10534,0 -1.99811,-0.44639 -0.88214,-0.44638 -1.34979,-1.29664 -0.45701,-0.85026 -0.45701,-2.71021 l 0,-6.10061 -2.06188,0 0,-1.64738 2.06188,0 0,-2.80586 1.97685,0 0,2.80586 3.46481,0 0,1.64738 -3.46481,0 0,5.53732 q 0,1.57298 0.24445,2.18942 0.24445,0.60581 0.76524,0.89277 0.53141,0.28696 1.26476,0.28696 0.58455,0 1.76429,-0.36136 z"
         style=""
         id="path5277" />
      <path
         d="m 243.38397,269.94244 -1.97685,0 0,-11.87175 1.97685,0 0,2.09377 q 0.4889,-0.90341 1.06282,-1.40293 0.58456,-0.49953 1.23288,-0.75461 0.65895,-0.2657 1.33916,-0.2657 0.61644,0 1.06282,0.18068 l 0,2.05125 q -0.70146,-0.34011 -1.48795,-0.34011 -1.11597,0 -2.16816,0.9778 -1.04157,0.9778 -1.04157,3.46481 l 0,5.86679 z"
         style=""
         id="path5279" />
      <path
         d="m 254.86248,270.27192 q -2.32759,0 -3.97497,-1.57298 -1.63675,-1.58361 -1.63675,-4.69769 0,-3.10344 1.63675,-4.67643 1.64738,-1.5836 3.97497,-1.5836 2.31695,0 3.9537,1.5836 1.64738,1.57299 1.64738,4.67643 0,3.11408 -1.64738,4.69769 -1.63675,1.57298 -3.9537,1.57298 z m 0,-1.64738 q 1.59423,0 2.5614,-1.26476 0.9778,-1.27539 0.9778,-3.35853 0,-2.0725 -0.9778,-3.33727 -0.96717,-1.27539 -2.5614,-1.27539 -1.60487,0 -2.58267,1.27539 -0.96717,1.26477 -0.96717,3.33727 0,2.08314 0.96717,3.35853 0.9778,1.26476 2.58267,1.26476 z"
         style=""
         id="path5281" />
      <path
         d="m 264.98057,269.94244 -1.97686,0 0,-11.87175 1.97686,0 0,2.14691 q 0.60581,-1.07346 1.14785,-1.5411 0.55266,-0.46764 1.20099,-0.70146 0.64832,-0.23382 1.38167,-0.23382 0.73335,0 1.40293,0.23382 0.66958,0.22319 1.15848,0.6802 0.4889,0.45702 0.96717,1.56236 0.60581,-1.03094 1.19036,-1.50921 0.59518,-0.4889 1.21162,-0.72272 0.62707,-0.24445 1.32853,-0.24445 1.00969,0 1.82806,0.47827 0.81838,0.46764 1.25414,1.33916 0.44638,0.87151 0.44638,2.96528 l 0,7.41851 -1.98748,0 0,-6.60014 q 0,-2.09376 -0.25508,-2.64643 -0.24445,-0.55267 -0.69083,-0.83963 -0.43576,-0.29759 -1.06283,-0.29759 -0.88214,0 -1.62612,0.55266 -0.74398,0.54205 -1.19037,1.4667 -0.44638,0.92466 -0.44638,2.5933 l 0,5.77113 -1.97686,0 0,-6.60014 q 0,-2.09376 -0.23382,-2.64643 -0.22319,-0.55267 -0.72272,-0.85026 -0.49953,-0.29759 -1.07345,-0.29759 -0.80775,0 -1.59424,0.57392 -0.77586,0.5633 -1.22225,1.50921 -0.43575,0.93529 -0.43575,2.54016 l 0,5.77113 z"
         style=""
         id="path5283" />
      <path
         d="m 152.98009,297.15076 0,-14.44379 -3.33727,1.32853 0,-1.83869 3.33727,-1.54109 1.97686,0 0,16.49504 -1.97686,0 z"
         style=""
         id="path5285" />
      <path
         d="m 168.16786,297.65029 q -2.68895,0 -4.35758,-2.34885 -1.65801,-2.35947 -1.65801,-6.3982 0,-4.03874 1.65801,-6.38758 1.66863,-2.34884 4.35758,-2.34884 2.69957,0 4.35758,2.34884 1.66864,2.34884 1.66864,6.38758 0,4.03873 -1.66864,6.3982 -1.65801,2.34885 -4.35758,2.34885 z m 0,-1.65801 q 2.09376,0 3.02905,-2.14691 0.93529,-2.15753 0.93529,-4.94213 0,-2.77398 -0.93529,-4.93151 -0.93529,-2.15753 -3.02905,-2.15753 -2.08314,0 -3.01842,2.15753 -0.93529,2.15753 -0.93529,4.93151 0,2.7846 0.93529,4.94213 0.93528,2.14691 3.01842,2.14691 z"
         style=""
         id="path5287" />
      <path
         d="m 177.80768,297.65029 -1.89183,0 8.86396,-17.48347 1.84932,0 -8.82145,17.48347 z"
         style=""
         id="path5289" />
      <path
         d="m 191.3587,288.90324 0,-1.64738 1.23287,0 q 1.44545,0 2.26382,-0.45702 0.81838,-0.45701 1.29665,-1.13722 0.47827,-0.69083 0.47827,-1.54109 0,-1.07346 -0.78649,-1.6899 -0.78649,-0.61643 -2.08314,-0.61643 -0.74398,0 -1.3923,0.1913 -0.64832,0.19131 -0.99905,0.64833 -0.34011,0.45701 -0.34011,0.95654 l 0,0.10628 -1.89183,0 0,-0.10628 q 0,-1.29665 1.09471,-2.3701 1.09471,-1.07345 3.63486,-1.07345 2.41262,0 3.62424,1.03094 1.21162,1.03094 1.21162,2.65706 0,0.89277 -0.35074,1.66863 -0.35073,0.76524 -1.04156,1.37105 -0.68021,0.60581 -1.96623,0.9778 2.00874,0.57392 3.00779,1.71115 0.99906,1.12659 0.99906,2.81648 0,1.98748 -1.40293,3.62423 -1.3923,1.62613 -4.23004,1.62613 -2.47638,0 -3.61361,-1.0522 -1.13722,-1.06283 -1.13722,-2.39136 l 0,-0.10628 1.97686,0 0,0.10628 q 0,0.89278 0.829,1.33916 0.83963,0.44639 2.14691,0.44639 1.02031,0 1.79617,-0.37199 0.77586,-0.38262 1.17973,-1.23288 0.40388,-0.85026 0.40388,-1.84931 0,-1.5411 -1.22225,-2.58267 -1.21162,-1.05219 -3.71989,-1.05219 l -0.99905,0 z"
         style=""
         id="path5291" />
      <path
         d="m 208.89531,297.65029 q -2.68895,0 -4.35759,-2.34885 -1.658,-2.35947 -1.658,-6.3982 0,-4.03874 1.658,-6.38758 1.66864,-2.34884 4.35759,-2.34884 2.69957,0 4.35758,2.34884 1.66863,2.34884 1.66863,6.38758 0,4.03873 -1.66863,6.3982 -1.65801,2.34885 -4.35758,2.34885 z m 0,-1.65801 q 2.09376,0 3.02905,-2.14691 0.93528,-2.15753 0.93528,-4.94213 0,-2.77398 -0.93528,-4.93151 -0.93529,-2.15753 -3.02905,-2.15753 -2.08314,0 -3.01843,2.15753 -0.93528,2.15753 -0.93528,4.93151 0,2.7846 0.93528,4.94213 0.93529,2.14691 3.01843,2.14691 z"
         style=""
         id="path5293" />
      <path
         d="m 218.53513,297.65029 -1.89183,0 8.86396,-17.48347 1.84931,0 -8.82144,17.48347 z"
         style=""
         id="path5295" />
      <path
         d="m 229.76919,297.15076 0,-1.71115 q 0,-1.33916 0.829,-2.91214 0.829,-1.58361 2.7846,-3.09282 l 1.11597,-0.86089 q 2.23193,-1.72177 2.83774,-2.57203 0.59518,-0.85026 0.59518,-1.77492 0,-0.94592 -0.79712,-1.67926 -0.79712,-0.73335 -2.2957,-0.73335 -1.36041,0 -2.01937,0.53141 -0.65895,0.52078 -0.65895,1.17973 l 0,0.10629 -1.97685,0 0,-0.10629 q 0,-0.87151 0.58455,-1.64737 0.59518,-0.77587 1.59424,-1.24351 1.00968,-0.46764 2.54015,-0.46764 2.79523,0 3.98559,1.19036 1.19037,1.17974 1.19037,2.83774 0,0.88215 -0.37199,1.77492 -0.37199,0.89277 -1.47733,1.87057 -1.09471,0.96717 -1.78554,1.44544 l -0.80775,0.55267 q -3.80491,2.61455 -3.80491,5.09093 l 0,0.40388 8.57699,0 0,1.81743 -10.63887,0 z"
         style=""
         id="path5297" />
      <path
         d="m 249.62275,297.65029 q -2.68895,0 -4.35758,-2.34885 -1.65801,-2.35947 -1.65801,-6.3982 0,-4.03874 1.65801,-6.38758 1.66863,-2.34884 4.35758,-2.34884 2.69957,0 4.35758,2.34884 1.66864,2.34884 1.66864,6.38758 0,4.03873 -1.66864,6.3982 -1.65801,2.34885 -4.35758,2.34885 z m 0,-1.65801 q 2.09376,0 3.02905,-2.14691 0.93529,-2.15753 0.93529,-4.94213 0,-2.77398 -0.93529,-4.93151 -0.93529,-2.15753 -3.02905,-2.15753 -2.08314,0 -3.01842,2.15753 -0.93529,2.15753 -0.93529,4.93151 0,2.7846 0.93529,4.94213 0.93528,2.14691 3.01842,2.14691 z"
         style=""
         id="path5299" />
      <path
         d="m 263.42885,297.15076 0,-14.44379 -3.33727,1.32853 0,-1.83869 3.33727,-1.54109 1.97685,0 0,16.49504 -1.97685,0 z"
         style=""
         id="path5301" />
      <path
         d="m 278.61661,297.65029 q -2.68895,0 -4.35758,-2.34885 -1.65801,-2.35947 -1.65801,-6.3982 0,-4.03874 1.65801,-6.38758 1.66863,-2.34884 4.35758,-2.34884 2.69957,0 4.35758,2.34884 1.66863,2.34884 1.66863,6.38758 0,4.03873 -1.66863,6.3982 -1.65801,2.34885 -4.35758,2.34885 z m 0,-1.65801 q 2.09376,0 3.02905,-2.14691 0.93528,-2.15753 0.93528,-4.94213 0,-2.77398 -0.93528,-4.93151 -0.93529,-2.15753 -3.02905,-2.15753 -2.08314,0 -3.01842,2.15753 -0.93529,2.15753 -0.93529,4.93151 0,2.7846 0.93529,4.94213 0.93528,2.14691 3.01842,2.14691 z"
         style=""
         id="path5303" />
    </g>
  </g>
</svg>
