<?xml version="1.0" encoding="UTF-8" standalone="no"?>
<!-- Created with Inkscape (http://www.inkscape.org/) -->

<svg
   xmlns:osb="http://www.openswatchbook.org/uri/2009/osb"
   xmlns:dc="http://purl.org/dc/elements/1.1/"
   xmlns:cc="http://creativecommons.org/ns#"
   xmlns:rdf="http://www.w3.org/1999/02/22-rdf-syntax-ns#"
   xmlns:svg="http://www.w3.org/2000/svg"
   xmlns="http://www.w3.org/2000/svg"
   xmlns:sodipodi="http://sodipodi.sourceforge.net/DTD/sodipodi-0.dtd"
   xmlns:inkscape="http://www.inkscape.org/namespaces/inkscape"
   width="210mm"
   height="297mm"
   viewBox="0 0 744.09448819 1052.3622047"
   id="svg4377"
   version="1.1"
   inkscape:version="0.91 r13725"
   sodipodi:docname="NativeScript.svg">
  <defs
     id="defs4379">
    <linearGradient
       id="linearGradient4982"
       osb:paint="solid">
      <stop
         style="stop-color:#878787;stop-opacity:1;"
         offset="0"
         id="stop4984" />
    </linearGradient>
  </defs>
  <sodipodi:namedview
     id="base"
     pagecolor="#ffffff"
     bordercolor="#666666"
     borderopacity="1.0"
     inkscape:pageopacity="0.0"
     inkscape:pageshadow="2"
     inkscape:zoom="0.43190086"
     inkscape:cx="-375.81389"
     inkscape:cy="332.09035"
     inkscape:document-units="px"
     inkscape:current-layer="g5010"
     showgrid="false"
     inkscape:window-width="1440"
     inkscape:window-height="851"
     inkscape:window-x="0"
     inkscape:window-y="0"
     inkscape:window-maximized="1" />
  <metadata
     id="metadata4382">
    <rdf:RDF>
      <cc:Work
         rdf:about="">
        <dc:format>image/svg+xml</dc:format>
        <dc:type
           rdf:resource="http://purl.org/dc/dcmitype/StillImage" />
        <dc:title></dc:title>
      </cc:Work>
    </rdf:RDF>
  </metadata>
  <g
     inkscape:label="Layer 1"
     inkscape:groupmode="layer"
     id="layer1">
    <g
       id="g5010"
       transform="translate(-473.27495,220.3236)">
      <path
         style="fill:#858585"
         d="m 802.144,470.59301 -0.5,-0.16013 0.5,-0.0404 c 0.27499,-0.0222 -0.175,-0.15441 -1,-0.29371 -5.01032,-0.84599 -9.00163,-2.7975 -12.48224,-6.10306 -3.81438,-3.62256 -6.18736,-8.20169 -6.99729,-13.50266 -0.15127,-0.99 -0.2956,-1.53 -0.32075,-1.2 -0.0425,0.55788 -0.0574,0.54384 -0.2112,-0.2 -0.21613,-1.04494 -0.21613,-48.75507 0,-49.8 l 0.16548,-0.8 0.0445,0.7 c 0.0267,0.42003 0.1539,-0.0599 0.31805,-1.2 0.73551,-5.10837 2.92601,-9.49159 6.55894,-13.12452 3.61834,-3.61834 8.03665,-5.82638 13.12452,-6.55894 1.14007,-0.16414 1.62003,-0.29135 1.2,-0.31805 l -0.7,-0.0445 0.8,-0.16548 c 1.04493,-0.21613 48.75505,-0.21613 49.8,0 l 0.8,0.16548 -0.7,0.0446 c -0.40943,0.0262 0.1302,0.16416 1.3,0.33252 5.20536,0.74921 9.76427,3.09765 13.42101,6.9136 3.37358,3.52046 5.32968,7.49143 6.1847,12.55521 0.1393,0.825 0.27148,1.275 0.29372,1 l 0.0404,-0.5 0.16012,0.5 c 0.20436,0.63814 0.20436,50.09686 0,50.9 l -0.15268,0.6 -0.04,-0.6 c -0.022,-0.33 -0.20064,0.3 -0.39696,1.4 -1.76062,9.865 -9.04534,17.14972 -18.91034,18.91034 -1.1,0.19631 -1.73,0.37495 -1.4,0.39697 l 0.6,0.04 -0.6,0.15267 c -0.80314,0.20437 -50.26186,0.20437 -50.9,0 z m 10.16,-15.04 c 0.18324,-0.18324 0.23999,-4.65887 0.23999,-18.92493 l 0,-18.68494 15.01977,18.77494 c 8.26086,10.32621 15.12336,18.84106 15.25,18.92187 0.12663,0.0808 2.16883,0.14831 4.53822,0.15 4.55057,0.003 5.7523,-0.16041 7.41799,-1.0102 1.0782,-0.55005 2.48759,-1.868 3.0817,-2.88179 1.19633,-2.04136 1.1705,-1.79633 1.2859,-12.20495 l 0.10642,-9.6 0.56368,-1.14788 c 1.03548,-2.10871 3.124,-3.70387 5.40376,-4.12731 1.22854,-0.22818 1.57938,-0.54338 1.04434,-0.93828 -0.21352,-0.15759 -0.66352,-0.2866 -1,-0.28668 -0.93976,-2e-4 -2.996,-1.07354 -4.02162,-2.09916 -0.50714,-0.50715 -1.1624,-1.43477 -1.45612,-2.06139 l -0.53404,-1.1393 -0.10478,-9.6 c -0.10288,-9.4264 -0.11308,-9.6208 -0.56452,-10.75042 -0.89552,-2.24085 -2.91438,-4.15712 -5.15662,-4.89461 -1.24324,-0.40892 -9.77953,-0.62668 -10.45228,-0.26664 l -0.4218,0.22575 0,18.71789 0,18.71789 -15.01813,-18.77493 c -8.25998,-10.32621 -15.16747,-18.8361 -15.35,-18.91087 -0.53257,-0.21816 -7.80903,-0.18097 -9.21464,0.0471 -3.11973,0.50619 -5.4457,2.45807 -6.54081,5.48884 -0.32312,0.89426 -0.3727,2.01519 -0.46887,10.6 l -0.10754,9.6 -0.68543,1.26419 c -1.12193,2.06925 -3.03897,3.47408 -5.20885,3.81709 -1.85652,0.29348 -1.80274,1.0277 0.0943,1.28772 2.05383,0.28151 4.29688,2.0244 5.26591,4.09171 l 0.53404,1.13929 0.11147,9.5 c 0.12329,10.50735 0.11989,10.47827 1.46118,12.49839 1.18522,1.78506 3.1103,3.08206 5.18129,3.4908 1.39778,0.27588 9.42513,0.25174 9.70605,-0.0292 z"
         id="path5012"
         inkscape:connector-curvature="0" />
    </g>
  </g>
</svg>
