<?xml version="1.0" encoding="UTF-8" standalone="no"?>
<svg
   xmlns:dc="http://purl.org/dc/elements/1.1/"
   xmlns:cc="http://creativecommons.org/ns#"
   xmlns:rdf="http://www.w3.org/1999/02/22-rdf-syntax-ns#"
   xmlns:svg="http://www.w3.org/2000/svg"
   xmlns="http://www.w3.org/2000/svg"
   xmlns:sodipodi="http://sodipodi.sourceforge.net/DTD/sodipodi-0.dtd"
   xmlns:inkscape="http://www.inkscape.org/namespaces/inkscape"
   width="183pt"
   height="179pt"
   viewBox="0 0 183 179"
   version="1.1"
   id="svg2"
   inkscape:version="0.91 r13725"
   sodipodi:docname="sailorbear.svg">
  <metadata
     id="metadata132">
    <rdf:RDF>
      <cc:Work
         rdf:about="">
        <dc:format>image/svg+xml</dc:format>
        <dc:type
           rdf:resource="http://purl.org/dc/dcmitype/StillImage" />
      </cc:Work>
    </rdf:RDF>
  </metadata>
  <defs
     id="defs130" />
  <sodipodi:namedview
     pagecolor="#ffffff"
     bordercolor="#666666"
     borderopacity="1"
     objecttolerance="10"
     gridtolerance="10"
     guidetolerance="10"
     inkscape:pageopacity="0"
     inkscape:pageshadow="2"
     inkscape:window-width="1245"
     inkscape:window-height="813"
     id="namedview128"
     showgrid="false"
     inkscape:zoom="1.0547486"
     inkscape:cx="-26.89089"
     inkscape:cy="98.799804"
     inkscape:window-x="0"
     inkscape:window-y="0"
     inkscape:window-maximized="0"
     inkscape:current-layer="svg2" />
  <path
     d=" M 72.10 0.00 L 77.19 0.00 C 78.59 3.14 78.47 6.63 78.88 9.97 C 79.29 14.22 80.26 18.39 81.26 22.53 C 84.16 24.73 86.98 27.12 90.37 28.58 C 90.09 28.98 89.53 29.78 89.26 30.18 C 90.00 30.32 91.49 30.62 92.24 30.76 C 92.42 31.44 92.80 32.79 92.98 33.47 C 98.99 32.83 104.84 35.22 110.84 34.10 C 110.35 34.64 109.38 35.73 108.90 36.28 C 111.57 37.04 114.34 36.99 117.08 36.86 C 120.33 39.42 124.68 38.75 128.49 39.68 C 132.95 40.84 136.87 37.73 141.12 36.97 C 144.15 36.52 147.19 35.99 150.00 34.69 L 150.08 36.03 C 155.28 35.11 160.74 35.23 165.62 37.44 C 162.43 37.91 159.22 38.22 156.06 38.81 C 156.23 38.19 156.58 36.94 156.75 36.32 C 153.93 37.07 151.28 38.27 148.59 39.37 C 145.56 40.64 142.25 39.78 139.10 39.77 C 136.24 41.01 133.60 43.22 130.27 42.43 C 126.82 45.10 123.08 47.44 119.14 49.32 C 120.27 47.74 121.51 46.25 122.77 44.78 C 122.57 43.69 122.38 42.60 122.20 41.51 C 120.82 41.90 119.43 42.29 118.05 42.68 C 118.15 42.12 118.35 41.02 118.45 40.46 C 116.05 40.15 113.65 39.88 111.26 39.50 C 109.79 40.36 108.31 41.22 106.80 42.01 C 107.58 41.04 108.39 40.08 109.20 39.12 C 107.61 38.96 106.03 38.81 104.45 38.60 C 102.54 39.06 100.65 39.59 98.79 40.21 L 100.91 37.79 C 99.79 38.16 97.53 38.90 96.40 39.28 C 97.39 38.15 98.39 37.03 99.37 35.90 C 97.76 36.42 96.17 36.95 94.56 37.46 C 94.85 36.83 95.44 35.55 95.73 34.92 C 94.77 35.71 93.81 36.50 92.84 37.28 C 93.01 37.67 93.36 38.45 93.54 38.84 C 92.51 39.51 91.48 40.17 90.46 40.84 C 90.54 40.38 90.71 39.47 90.79 39.01 L 88.76 39.19 C 89.45 38.16 90.15 37.14 90.81 36.09 C 87.67 37.72 85.97 41.03 83.39 43.31 L 85.03 39.66 C 83.88 40.62 82.74 41.59 81.61 42.56 C 81.96 40.93 80.68 40.13 79.83 39.13 C 81.19 37.93 82.34 36.53 83.44 35.09 C 79.29 28.52 78.82 20.64 77.85 13.15 C 77.38 10.75 77.42 7.90 75.24 6.32 C 75.32 5.98 75.48 5.31 75.56 4.98 C 74.39 6.11 73.22 7.25 72.06 8.39 C 72.69 8.36 73.96 8.31 74.60 8.29 C 71.69 10.73 68.86 13.39 65.31 14.89 L 69.80 10.31 C 67.66 11.30 65.53 12.43 64.05 14.31 C 63.47 13.92 62.90 13.54 62.33 13.15 C 65.07 11.76 68.11 10.60 70.12 8.16 C 67.99 4.67 63.45 4.47 59.97 3.15 C 54.51 1.07 49.22 4.37 44.03 5.72 C 38.57 6.89 35.52 12.23 30.56 14.41 C 24.31 17.05 17.37 19.60 13.20 25.27 C 10.78 29.97 8.34 35.17 9.28 40.61 C 12.48 39.56 15.52 38.04 18.79 37.21 C 18.58 37.63 18.16 38.47 17.95 38.90 C 19.40 38.86 20.93 38.55 22.53 37.97 C 21.75 37.41 20.96 36.87 20.19 36.29 C 21.27 35.87 22.34 35.45 23.42 35.04 C 23.18 35.70 22.69 37.03 22.45 37.69 C 23.91 36.66 25.36 35.63 26.81 34.58 C 27.41 35.00 28.01 35.43 28.62 35.86 C 23.63 37.83 18.89 40.39 13.82 42.18 C 14.91 40.98 16.58 40.25 17.37 38.84 C 13.46 39.95 9.96 42.24 6.39 44.15 C 7.41 44.12 9.45 44.06 10.47 44.03 C 8.99 44.85 7.48 45.64 5.98 46.43 C 14.74 49.42 20.29 57.17 26.26 63.74 C 30.01 63.65 33.78 63.83 37.49 63.21 C 38.06 64.97 38.67 66.72 39.33 68.45 C 37.65 67.47 35.98 66.51 34.30 65.54 C 31.62 65.88 28.94 66.18 26.26 66.60 C 25.89 69.34 23.74 70.81 21.45 71.91 C 21.76 72.52 22.07 73.13 22.38 73.74 L 20.34 74.62 C 22.07 76.82 24.65 77.19 27.17 76.08 C 26.59 75.31 25.44 73.77 24.86 73.00 C 28.48 73.59 30.04 77.28 32.18 79.79 C 32.99 80.61 33.81 81.43 34.63 82.24 C 34.58 88.29 38.57 93.03 40.84 98.32 C 41.47 99.84 42.71 100.96 44.11 101.79 C 34.29 106.28 23.32 107.31 13.15 110.78 C 11.11 111.72 9.37 113.69 8.94 115.92 C 9.67 118.23 10.76 120.40 11.48 122.72 C 10.59 121.86 9.72 121.00 8.85 120.13 C 5.91 124.87 4.44 132.44 10.06 135.87 C 13.88 135.65 17.42 134.10 20.97 132.80 C 23.78 133.28 26.46 134.29 29.20 135.06 C 33.03 135.72 36.99 136.08 40.57 137.69 C 43.46 139.71 46.26 141.94 49.49 143.42 C 51.98 144.35 54.58 143.30 56.79 142.15 C 62.25 142.98 66.10 147.60 68.83 152.06 C 67.00 154.33 64.71 156.14 62.12 157.46 C 62.08 156.84 62.01 155.59 61.97 154.97 L 64.06 156.12 C 63.98 154.94 63.82 152.57 63.74 151.39 C 60.24 148.07 55.11 148.05 50.57 148.04 C 47.52 143.96 42.58 141.76 38.82 138.37 C 27.94 134.91 16.31 136.34 5.32 138.33 C 3.41 140.11 2.87 142.79 2.40 145.24 C 3.08 144.90 4.46 144.22 5.14 143.88 C 4.94 144.51 4.54 145.77 4.34 146.40 C 7.26 147.12 5.82 150.25 5.68 152.20 C 5.41 151.26 4.87 149.38 4.60 148.44 C 4.06 148.75 2.97 149.35 2.43 149.65 C 1.61 148.35 0.80 147.04 0.00 145.73 L 0.00 142.90 L 0.86 143.96 C 1.00 143.11 1.27 141.41 1.41 140.56 C 1.98 139.67 2.54 138.77 3.09 137.88 C 4.50 137.29 5.90 136.71 7.31 136.12 C 5.74 133.31 4.09 130.34 4.23 127.00 C 3.85 123.26 7.14 120.57 7.33 116.93 C 7.82 114.43 7.75 110.80 10.71 109.84 C 14.86 108.67 19.09 107.75 23.05 105.97 C 17.48 98.60 18.53 88.64 21.69 80.50 C 20.02 79.31 18.55 77.88 17.37 76.20 C 17.81 75.63 18.71 74.49 19.16 73.92 C 18.40 74.03 16.88 74.26 16.12 74.37 C 17.92 72.60 19.75 70.86 21.49 69.03 C 21.94 68.85 22.83 68.48 23.28 68.29 C 23.27 66.83 23.35 65.35 24.56 64.34 C 17.43 56.94 10.14 48.95 0.00 45.82 L 0.00 41.12 L 0.01 42.04 C 2.37 39.72 5.07 37.79 7.39 35.45 C 9.18 31.50 9.78 27.01 12.32 23.40 C 14.38 19.90 17.89 17.68 21.43 15.92 C 21.33 15.21 21.11 13.79 21.00 13.08 C 25.47 8.10 31.35 4.64 37.63 2.43 C 39.62 2.96 41.77 3.90 43.76 2.78 C 50.63 -0.01 58.42 0.17 65.33 2.73 C 68.08 3.92 70.58 1.55 73.09 0.72 L 70.19 3.85 C 71.59 3.27 74.39 2.11 75.79 1.53 C 74.56 1.02 73.33 0.51 72.10 0.00 Z"
     id="path6"
     fill="#231f20"
     style="fill:none;stroke:#000000;stroke-opacity:1" />
  <path
     d=" M 32.11 7.16 C 34.36 5.51 37.09 4.28 39.94 5.07 C 37.81 7.58 34.98 9.32 32.44 11.38 C 29.71 13.60 26.36 15.29 22.73 14.96 C 24.60 11.10 28.82 9.53 32.11 7.16 Z"
     id="path10"
     fill="#ffffff"
     style="fill:none;stroke:#000000;stroke-opacity:1" />
  <path
     d=" M 28.64 32.13 C 40.53 27.29 51.08 19.72 62.36 13.67 L 62.50 14.85 C 58.99 16.44 55.86 18.70 52.51 20.57 L 53.73 21.42 L 52.28 20.98 C 44.94 24.98 38.12 30.05 30.06 32.63 C 31.06 32.67 33.07 32.75 34.07 32.79 C 32.16 33.74 30.25 34.69 28.33 35.62 C 28.72 35.04 29.51 33.89 29.91 33.31 C 29.48 32.92 29.06 32.52 28.64 32.13 Z"
     id="path12"
     fill="#231f20"
     style="fill:none;stroke:#000000;stroke-opacity:1" />
  <path
     d=" M 53.73 21.42 C 56.67 19.41 59.48 17.15 63.00 16.13 C 59.17 19.85 54.25 22.08 49.78 24.93 C 50.89 23.55 52.27 22.43 53.73 21.42 Z"
     id="path14"
     fill="#231f20"
     style="fill:none;stroke:#000000;stroke-opacity:1" />
  <path
     d=" M 82.40 27.51 C 83.31 26.11 85.46 27.81 84.45 29.07 C 83.51 30.59 81.40 28.80 82.40 27.51 Z"
     id="path16"
     fill="#ffffff"
     style="fill:none;stroke:#000000;stroke-opacity:1" />
  <path
     d=" M 84.36 30.28 C 85.58 29.32 86.32 29.50 86.57 30.81 C 85.34 31.76 84.60 31.58 84.36 30.28 Z"
     id="path18"
     fill="#ffffff"
     style="fill:none;stroke:#000000;stroke-opacity:1" />
  <path
     d=" M 84.50 33.95 C 85.30 30.68 89.67 33.09 91.89 33.48 C 91.52 33.98 91.15 34.48 90.78 34.99 C 89.71 32.42 86.53 34.35 84.50 33.95 Z"
     id="path20"
     fill="#ffffff"
     style="fill:none;stroke:#000000;stroke-opacity:1" />
  <path
     d=" M 27.37 33.37 C 27.65 33.65 27.65 33.65 27.37 33.37 Z"
     id="path22"
     fill="#231f20"
     style="fill:none;stroke:#000000;stroke-opacity:1" />
  <path
     d=" M 72.22 43.49 C 74.65 40.15 76.50 36.44 78.85 33.05 C 79.06 37.19 76.04 40.42 75.07 44.28 C 76.65 42.92 77.96 41.16 79.91 40.28 C 79.18 42.26 78.19 44.14 77.09 45.94 C 75.04 45.36 73.73 47.22 72.20 48.18 C 68.43 51.06 63.65 52.79 60.97 56.93 C 60.22 56.94 58.73 56.95 57.99 56.96 C 54.20 59.59 50.36 62.10 47.08 65.38 C 47.16 64.63 47.32 63.13 47.39 62.39 C 45.92 63.90 44.52 65.49 43.05 67.01 L 43.86 64.02 L 43.12 63.68 L 42.93 64.86 C 41.33 64.66 39.80 65.02 38.30 65.51 C 38.21 64.88 38.05 63.60 37.96 62.97 C 42.94 63.07 47.80 61.45 52.12 59.07 C 59.62 54.13 67.68 50.09 74.95 44.81 C 74.04 44.37 73.13 43.92 72.22 43.49 Z"
     id="path24"
     fill="#231f20"
     style="fill:none;stroke:#000000;stroke-opacity:1" />
  <path
     d=" M 13.68 46.14 C 22.93 42.20 32.15 38.12 41.05 33.42 C 44.36 33.70 47.52 35.37 48.63 38.67 C 48.01 39.69 47.39 40.71 46.78 41.73 C 50.62 40.89 52.58 44.04 53.99 47.01 C 53.18 49.13 52.94 51.59 51.55 53.43 C 44.47 58.03 36.22 60.45 28.04 62.29 C 26.86 60.78 25.66 59.29 24.45 57.81 C 25.10 57.59 26.41 57.16 27.07 56.95 C 24.24 54.10 22.34 48.13 17.30 49.81 C 16.06 48.62 14.85 47.40 13.68 46.14 Z"
     id="path26"
     fill="#231f20"
     style="fill:none;stroke:#000000;stroke-opacity:1" />
  <path
     d=" M 85.57 36.11 C 88.09 34.94 87.50 38.55 85.44 38.44 C 83.24 39.27 84.06 36.26 85.57 36.11 Z"
     id="path28"
     fill="#ffffff"
     style="fill:none;stroke:#000000;stroke-opacity:1" />
  <path
     d=" M 1.00 43.46 C 2.04 40.51 4.64 38.68 7.36 37.41 C 6.01 39.87 3.12 41.05 2.23 43.84 C 1.93 43.74 1.31 43.55 1.00 43.46 Z"
     id="path30"
     fill="#ffffff"
     style="fill:none;stroke:#000000;stroke-opacity:1" />
  <path
     d=" M 159.81 39.54 C 162.68 39.31 165.55 39.02 168.34 38.26 C 168.09 38.76 167.60 39.75 167.35 40.25 C 169.31 40.53 172.00 40.05 172.39 42.68 C 175.90 44.92 178.04 48.51 180.54 51.71 C 179.40 55.67 178.87 61.52 182.54 64.33 C 181.96 64.21 180.81 63.96 180.23 63.84 C 181.19 65.47 182.11 67.12 183.00 68.80 L 183.00 79.10 L 182.03 77.55 C 181.81 79.42 181.65 81.30 181.55 83.19 C 181.16 82.60 180.40 81.42 180.01 80.82 C 179.79 82.98 179.58 85.14 179.28 87.30 C 178.69 87.32 177.50 87.36 176.90 87.38 C 174.82 92.05 169.61 93.71 166.51 97.51 C 163.63 98.96 160.90 100.87 157.63 101.35 C 158.09 100.37 158.56 99.40 159.03 98.42 C 162.60 99.65 162.66 93.31 166.20 95.38 C 167.30 93.47 168.36 91.54 169.39 89.59 C 170.00 89.72 171.23 89.98 171.84 90.11 C 173.69 88.17 175.29 86.01 176.47 83.60 C 177.11 83.61 178.39 83.64 179.03 83.65 C 179.11 81.08 177.60 77.41 180.83 76.15 C 180.91 72.14 180.41 68.09 179.05 64.31 C 179.54 63.88 180.04 63.46 180.53 63.03 C 179.93 62.80 178.73 62.34 178.13 62.11 C 178.49 58.43 178.07 54.64 176.94 51.12 C 176.15 48.80 173.48 48.39 171.53 47.44 C 172.31 47.24 173.86 46.85 174.63 46.65 C 170.37 43.04 164.97 41.39 159.81 39.54 Z"
     id="path32"
     fill="#231f20"
     style="fill:none;stroke:#000000;stroke-opacity:1" />
  <path
     d=" M 25.93 46.38 C 30.60 43.55 35.75 41.35 40.92 39.65 C 41.41 40.27 42.38 41.50 42.87 42.12 C 37.88 44.13 33.07 46.61 27.92 48.23 C 27.42 47.76 26.42 46.84 25.93 46.38 Z"
     id="path34"
     fill="#ffffff"
     style="fill:none;stroke:#000000;stroke-opacity:1" />
  <path
     d=" M 119.98 43.34 C 123.00 41.40 120.44 46.50 119.98 43.34 Z"
     id="path36"
     fill="#231f20"
     style="fill:none;stroke:#000000;stroke-opacity:1" />
  <path
     d=" M 152.20 46.10 C 153.42 46.78 154.76 47.32 155.74 48.35 C 156.81 49.90 157.05 51.98 158.70 53.10 C 158.37 51.50 157.92 49.93 157.52 48.35 C 160.07 49.53 161.85 51.84 164.37 53.04 L 164.18 51.02 C 167.21 52.12 171.05 52.78 172.41 56.16 C 170.71 55.37 169.06 54.46 167.31 53.80 C 169.62 57.22 176.29 57.80 175.09 63.06 C 173.81 61.47 172.46 59.92 171.00 58.50 C 171.28 59.66 171.83 61.97 172.10 63.12 L 170.94 61.35 C 170.35 62.13 169.77 62.92 169.21 63.72 C 168.65 62.13 167.92 60.59 166.96 59.20 C 166.80 61.53 167.31 64.16 165.51 66.00 C 166.50 62.48 164.66 59.45 162.35 56.96 C 161.99 58.81 161.63 60.66 161.26 62.52 C 161.99 61.99 163.46 60.93 164.19 60.40 C 164.14 62.48 163.73 64.53 162.45 66.20 C 162.51 65.03 162.63 62.69 162.70 61.52 C 160.94 62.62 160.59 64.80 159.59 66.46 C 158.97 66.41 157.72 66.31 157.10 66.26 C 156.60 68.50 156.28 70.81 155.29 72.91 C 156.06 72.67 157.59 72.20 158.36 71.97 C 157.13 75.11 154.22 76.28 151.25 77.12 C 151.12 77.87 150.86 79.37 150.72 80.12 C 152.41 79.09 154.10 78.07 155.85 77.14 C 155.86 78.99 154.35 80.10 153.32 81.38 C 152.46 81.33 150.75 81.22 149.90 81.16 C 149.47 83.02 150.83 83.92 152.23 84.73 C 149.59 84.70 146.95 84.77 144.33 85.10 C 144.58 84.46 145.07 83.18 145.32 82.54 C 146.24 81.96 147.16 81.38 148.03 80.72 C 145.69 80.68 142.94 82.15 141.17 79.95 L 142.84 78.77 C 141.51 77.86 140.21 76.93 138.97 75.91 C 140.41 75.29 141.87 74.71 143.34 74.16 C 141.83 73.43 140.16 73.18 138.50 73.03 C 138.93 72.31 139.79 70.87 140.22 70.16 C 138.40 70.80 136.61 71.51 134.75 72.03 C 136.21 70.02 139.03 69.99 140.94 68.57 C 138.67 68.37 136.91 66.90 135.01 65.84 C 134.37 65.19 133.72 64.57 133.04 63.97 C 131.91 64.45 130.83 65.00 129.72 65.50 C 130.55 64.09 131.69 62.91 132.83 61.74 C 131.34 61.75 129.94 62.10 128.62 62.80 C 129.48 61.86 130.32 60.89 131.15 59.92 C 130.08 59.75 127.94 59.42 126.87 59.26 C 128.46 56.94 131.36 59.63 133.56 58.31 C 134.32 60.21 135.85 61.56 137.39 62.83 C 139.53 62.29 141.51 61.33 143.36 60.12 C 142.14 59.71 140.92 59.31 139.70 58.93 C 139.69 59.45 139.67 60.49 139.66 61.01 C 138.57 60.74 136.40 60.20 135.31 59.93 C 136.04 59.42 136.78 58.93 137.53 58.45 C 136.27 57.14 134.82 55.80 134.86 53.81 C 136.87 55.33 138.73 57.04 140.87 58.38 C 140.60 57.51 140.07 55.76 139.80 54.89 C 141.07 55.28 142.36 55.65 143.65 55.99 C 143.19 55.06 142.74 54.12 142.31 53.17 C 144.10 51.09 146.58 55.14 147.80 52.56 C 148.54 53.37 149.29 54.18 150.05 54.99 C 150.16 54.21 150.38 52.65 150.49 51.87 C 151.68 52.62 152.90 53.36 154.12 54.10 C 154.24 53.71 154.48 52.92 154.60 52.53 C 156.88 50.02 153.51 47.94 152.20 46.10 Z"
     id="path40"
     fill="#231f20"
     style="fill:none;stroke:#000000;stroke-opacity:1" />
  <path
     d=" M 31.59 52.29 C 35.46 50.49 39.26 48.55 43.15 46.79 C 44.61 45.55 47.35 46.98 47.00 48.88 C 42.57 51.46 37.88 53.82 32.73 54.47 C 32.44 53.92 31.87 52.83 31.59 52.29 Z"
     id="path42"
     fill="#ffffff"
     style="fill:none;stroke:#000000;stroke-opacity:1" />
  <path
     d=" M 95.87 51.42 C 96.78 49.75 98.15 48.47 99.89 47.69 C 99.54 48.36 98.83 49.70 98.48 50.36 C 99.35 50.27 101.11 50.09 101.98 50.00 C 102.04 51.43 102.98 52.22 104.22 52.73 C 104.66 54.55 105.43 56.24 106.70 57.63 C 105.88 57.42 105.06 57.22 104.24 57.02 C 103.89 55.57 103.52 54.12 103.19 52.67 C 100.73 52.38 98.29 51.89 95.87 51.42 Z"
     id="path44"
     fill="#231f20"
     style="fill:none;stroke:#000000;stroke-opacity:1" />
  <path
     d=" M 81.05 56.78 C 81.24 51.35 87.66 50.28 91.94 49.65 C 93.32 49.98 94.52 49.34 95.69 48.67 C 95.10 50.03 94.77 51.55 93.83 52.73 C 91.40 53.17 88.93 53.27 86.48 53.47 C 84.72 54.65 82.87 55.68 81.05 56.78 Z"
     id="path46"
     fill="#231f20"
     style="fill:none;stroke:#000000;stroke-opacity:1" />
  <path
     d=" M 79.71 54.23 C 79.80 54.65 79.97 55.50 80.06 55.92 C 78.08 59.16 75.32 61.75 72.25 63.94 C 72.20 63.65 72.10 63.07 72.05 62.78 C 72.46 62.67 73.28 62.45 73.69 62.34 C 75.32 59.36 77.77 56.99 79.71 54.23 Z"
     id="path48"
     fill="#231f20"
     style="fill:none;stroke:#000000;stroke-opacity:1" />
  <path
     d=" M 144.36 54.34 C 144.64 54.61 144.64 54.61 144.36 54.34 Z"
     id="path50"
     fill="#ffffff"
     style="fill:none;stroke:#000000;stroke-opacity:1" />
  <path
     d=" M 165.53 55.13 C 166.85 54.31 168.38 56.50 167.76 57.68 C 166.51 58.20 164.88 56.32 165.53 55.13 Z"
     id="path52"
     fill="#ffffff"
     style="fill:none;stroke:#000000;stroke-opacity:1" />
  <path
     d=" M 169.33 60.75 C 169.71 60.99 169.71 60.99 169.33 60.75 Z"
     id="path54"
     fill="#ffffff"
     style="fill:none;stroke:#000000;stroke-opacity:1" />
  <path
     d=" M 151.31 69.35 C 150.77 66.09 153.21 63.33 155.75 61.66 C 154.56 64.38 153.24 67.08 151.31 69.35 Z"
     id="path56"
     fill="#ffffff"
     style="fill:none;stroke:#000000;stroke-opacity:1" />
  <path
     d=" M 87.96 62.03 C 90.01 62.82 91.92 63.92 93.78 65.08 C 93.27 64.29 92.27 62.70 91.77 61.90 C 93.77 62.85 95.70 63.95 97.69 64.93 C 99.17 66.30 100.52 67.81 101.22 69.74 C 96.21 66.72 91.00 69.91 85.73 69.72 C 85.55 70.77 85.36 71.81 85.17 72.85 C 91.60 77.18 96.51 84.03 97.93 91.69 C 98.31 91.96 99.07 92.50 99.45 92.77 L 97.81 93.24 L 97.95 93.96 L 100.19 93.57 C 99.60 94.18 98.42 95.39 97.82 95.99 C 98.46 95.95 99.75 95.86 100.39 95.81 L 98.06 98.15 L 101.18 97.28 C 101.18 98.84 101.16 100.60 99.54 101.37 C 95.69 103.54 93.34 107.80 88.93 109.06 C 82.78 111.08 76.13 110.23 69.81 109.69 C 65.05 109.38 62.16 104.89 57.91 103.34 C 56.12 102.95 54.26 102.67 52.77 101.52 C 53.31 101.73 54.38 102.14 54.92 102.35 C 57.00 99.84 58.04 96.66 60.17 94.19 C 62.04 91.87 65.18 90.24 65.00 86.82 C 65.37 86.74 66.13 86.58 66.50 86.50 C 68.59 83.61 70.90 80.89 73.54 78.49 C 74.71 77.68 74.80 76.21 75.17 74.96 C 75.76 74.87 76.95 74.68 77.54 74.59 C 78.62 72.97 80.15 71.74 82.17 71.62 C 81.81 71.10 81.10 70.05 80.74 69.53 C 81.36 69.60 82.60 69.73 83.22 69.80 C 83.34 68.56 83.67 67.39 84.21 66.30 C 85.78 65.98 87.38 65.90 89.01 66.05 C 88.44 65.55 87.32 64.57 86.76 64.08 C 87.73 64.37 89.69 64.96 90.67 65.26 L 87.96 62.03 Z"
     id="path58"
     fill="#231f20"
     style="fill:none;stroke:#000000;stroke-opacity:1" />
  <path
     d=" M 153.11 72.57 C 152.69 68.60 155.04 65.22 157.10 62.08 C 157.58 62.86 158.54 64.44 159.03 65.22 C 154.39 65.84 155.75 71.75 152.74 74.25 C 151.64 73.70 150.56 73.10 149.49 72.50 C 150.42 69.59 152.00 71.22 153.11 72.57 Z"
     id="path60"
     fill="#ffffff"
     style="fill:none;stroke:#000000;stroke-opacity:1" />
  <path
     d=" M 175.38 64.64 C 176.81 67.15 177.21 70.02 176.93 72.87 C 176.14 73.13 175.36 73.38 174.58 73.64 C 175.18 70.67 175.31 67.65 175.38 64.64 Z"
     id="path62"
     fill="#231f20"
     style="fill:none;stroke:#000000;stroke-opacity:1" />
  <path
     d=" M 39.37 67.26 C 39.88 66.68 40.39 66.11 40.91 65.54 C 41.93 67.10 43.06 68.63 43.27 70.56 C 43.71 70.63 44.60 70.79 45.05 70.87 C 45.20 71.29 45.49 72.14 45.64 72.56 C 44.53 72.24 43.42 71.93 42.31 71.62 C 41.35 70.16 40.34 68.71 39.37 67.26 Z"
     id="path64"
     fill="#231f20"
     style="fill:none;stroke:#000000;stroke-opacity:1" />
  <path
     d=" M 158.82 74.77 C 158.50 73.43 159.06 72.92 160.48 73.23 C 160.77 74.58 160.22 75.09 158.82 74.77 Z"
     id="path66"
     fill="#231f20"
     style="fill:none;stroke:#000000;stroke-opacity:1" />
  <path
     d=" M 80.31 73.77 C 86.52 76.18 92.13 81.11 94.30 87.53 C 95.20 91.34 95.38 95.29 95.75 99.18 C 92.82 94.40 88.54 89.52 82.48 89.32 C 83.57 93.96 85.23 98.70 84.13 103.52 C 81.22 99.63 80.89 94.06 76.67 90.96 C 70.07 93.12 68.00 100.41 67.15 106.56 C 63.95 105.12 59.12 103.23 59.39 99.05 C 62.77 96.48 65.30 93.06 67.75 89.64 C 68.10 88.45 68.47 87.26 68.90 86.09 C 73.34 83.32 75.40 77.27 80.93 75.93 C 80.77 75.39 80.47 74.31 80.31 73.77 Z"
     id="path68"
     fill="#ffffff"
     style="fill:none;stroke:#000000;stroke-opacity:1" />
  <path
     d=" M 46.41 75.05 C 47.99 74.51 48.52 75.08 48.02 76.76 C 46.46 77.28 45.92 76.71 46.41 75.05 Z"
     id="path70"
     fill="#231f20"
     style="fill:none;stroke:#000000;stroke-opacity:1" />
  <path
     d=" M 158.94 84.64 C 161.05 82.28 162.22 79.17 164.48 77.01 C 164.32 79.80 162.96 82.26 161.36 84.47 C 160.75 84.51 159.55 84.59 158.94 84.64 Z"
     id="path72"
     fill="#231f20"
     style="fill:none;stroke:#000000;stroke-opacity:1" />
  <path
     d=" M 25.09 106.03 C 18.70 97.82 19.42 84.66 26.56 77.09 C 28.24 78.35 29.94 79.59 31.45 81.06 C 31.47 82.84 32.33 84.35 33.47 85.66 C 32.51 86.85 30.31 88.05 31.77 89.78 C 33.69 92.75 34.71 96.13 34.41 99.69 C 32.34 97.40 30.52 94.85 27.99 93.02 C 25.05 96.72 25.25 101.58 25.09 106.03 Z"
     id="path74"
     fill="#ffffff"
     style="fill:none;stroke:#000000;stroke-opacity:1" />
  <path
     d=" M 51.43 83.57 C 51.70 81.58 53.55 80.86 54.87 79.72 C 55.05 80.14 55.40 80.99 55.57 81.41 C 55.05 81.60 54.02 81.98 53.50 82.17 C 54.26 84.80 51.36 85.53 49.83 86.81 C 49.32 85.22 48.76 83.65 47.97 82.18 C 48.36 81.91 49.16 81.39 49.55 81.13 C 50.17 81.95 50.79 82.76 51.43 83.57 Z"
     id="path76"
     fill="#231f20"
     style="fill:none;stroke:#000000;stroke-opacity:1" />
  <path
     d=" M 42.25 81.02 L 42.60 81.01 C 42.19 85.21 44.85 88.61 47.03 91.91 C 49.60 92.11 53.07 93.04 54.02 89.75 C 54.13 90.62 54.33 92.36 54.44 93.23 C 53.94 92.98 52.93 92.48 52.43 92.23 C 52.31 95.39 48.99 95.85 46.65 96.60 C 44.50 93.53 44.07 89.62 42.24 86.36 C 42.22 84.58 42.25 82.80 42.25 81.02 Z"
     id="path78"
     fill="#231f20"
     style="fill:none;stroke:#000000;stroke-opacity:1" />
  <path
     d=" M 146.59 86.68 C 148.97 85.54 152.46 85.02 154.05 87.65 C 151.54 87.59 149.03 87.32 146.59 86.68 Z"
     id="path80"
     fill="#231f20"
     style="fill:none;stroke:#000000;stroke-opacity:1" />
  <path
     d=" M 104.12 87.29 C 106.42 87.05 108.35 88.20 110.23 89.35 C 109.93 89.67 109.33 90.29 109.03 90.61 C 110.89 91.71 110.28 93.86 110.25 95.63 L 111.89 95.39 C 110.93 96.54 109.89 97.67 109.50 99.17 C 108.85 97.99 108.17 96.82 107.49 95.66 C 108.08 95.63 109.27 95.56 109.86 95.53 L 109.61 93.77 L 107.71 93.70 C 108.34 93.52 109.60 93.15 110.23 92.97 C 107.52 91.87 105.96 89.39 104.12 87.29 Z"
     id="path82"
     fill="#231f20"
     style="fill:none;stroke:#000000;stroke-opacity:1" />
  <path
     d=" M 154.73 100.07 C 155.68 98.69 156.61 97.29 157.61 95.95 C 157.46 98.27 157.14 101.16 154.22 101.51 C 155.54 102.23 156.85 102.98 157.98 103.99 C 155.88 104.69 153.69 105.05 151.54 105.57 C 153.82 106.32 156.24 106.00 158.51 105.39 C 159.04 105.70 160.10 106.32 160.62 106.64 C 159.61 107.75 158.59 109.01 156.91 108.15 L 157.05 108.57 C 158.72 109.10 160.12 110.15 161.46 111.23 C 161.60 111.88 161.87 113.17 162.01 113.82 C 162.87 114.96 163.76 116.09 164.70 117.18 C 164.07 117.63 162.81 118.53 162.19 118.98 C 165.49 122.82 162.16 127.78 163.08 132.18 C 162.35 133.59 161.95 135.08 162.53 136.65 L 161.53 137.01 C 160.62 136.42 159.59 136.20 158.47 136.37 C 159.35 136.93 160.24 137.50 161.13 138.07 L 159.23 138.84 C 160.18 139.96 162.21 142.49 159.24 141.96 C 156.57 139.47 154.02 136.86 150.94 134.87 C 153.59 134.82 155.23 137.21 157.37 138.37 C 156.68 137.12 155.29 134.62 154.60 133.37 C 155.58 133.90 157.53 134.97 158.50 135.51 C 157.34 133.50 155.63 131.86 154.62 129.76 C 156.96 130.45 157.72 134.44 160.51 133.21 C 159.39 130.18 156.68 128.29 154.78 125.81 C 156.60 126.28 158.03 127.52 159.57 128.52 C 159.16 127.58 158.33 125.69 157.91 124.75 C 158.79 125.11 160.55 125.82 161.42 126.18 C 160.46 123.71 157.63 122.82 156.63 120.38 C 158.30 120.28 159.96 120.16 161.63 120.02 C 160.70 118.33 158.69 118.57 157.09 118.31 C 157.92 117.01 158.70 115.69 159.49 114.37 L 157.69 113.64 L 157.51 112.54 C 158.29 112.60 159.85 112.72 160.63 112.79 C 161.99 111.25 158.79 111.68 158.00 111.13 C 155.45 110.98 155.44 107.72 153.20 106.88 C 152.77 107.23 151.91 107.94 151.48 108.29 C 153.02 109.85 154.38 111.56 155.79 113.23 C 154.69 113.97 153.57 114.70 152.44 115.40 C 152.95 116.16 153.96 117.69 154.47 118.45 C 152.83 117.45 151.06 116.67 149.56 115.47 C 148.80 113.99 149.36 112.19 149.13 110.59 C 149.65 110.63 150.69 110.70 151.21 110.74 C 150.41 110.23 149.62 109.72 148.82 109.22 C 148.55 108.53 148.01 107.13 147.74 106.44 C 148.05 105.40 149.11 104.41 148.72 103.27 C 147.47 102.80 146.42 104.05 145.30 104.39 C 145.68 103.65 146.44 102.18 146.82 101.45 C 148.52 102.37 150.39 102.59 152.20 101.73 C 151.93 101.12 151.39 99.90 151.12 99.29 C 152.53 100.67 153.86 100.23 153.47 98.15 C 153.79 98.63 154.41 99.59 154.73 100.07 Z"
     id="path84"
     fill="#231f20"
     style="fill:none;stroke:#000000;stroke-opacity:1" />
  <path
     d=" M 144.58 103.05 C 144.06 101.78 140.99 100.00 143.18 98.89 L 144.39 100.10 C 144.85 100.20 145.76 100.39 146.22 100.49 C 145.67 101.34 145.12 102.19 144.58 103.05 Z"
     id="path86"
     fill="#231f20"
     style="fill:none;stroke:#000000;stroke-opacity:1" />
  <path
     d=" M 99.81 105.17 C 101.22 104.48 102.59 103.75 103.96 102.98 C 102.70 104.38 101.53 105.86 100.40 107.36 C 101.06 108.14 101.71 108.93 102.35 109.73 C 99.77 111.09 97.06 112.26 94.91 114.28 C 95.18 113.58 95.73 112.18 96.00 111.49 L 95.09 110.88 C 95.76 111.08 97.10 111.48 97.77 111.68 C 97.87 111.03 98.06 109.74 98.15 109.09 L 100.12 108.57 C 99.60 108.22 98.56 107.52 98.04 107.17 C 98.59 107.17 99.68 107.17 100.23 107.16 C 100.13 106.67 99.92 105.67 99.81 105.17 Z"
     id="path88"
     fill="#231f20"
     style="fill:none;stroke:#000000;stroke-opacity:1" />
  <path
     d=" M 118.81 104.66 C 120.54 104.64 122.70 104.00 123.74 105.90 C 121.88 106.39 120.20 105.85 118.81 104.66 Z"
     id="path90"
     fill="#231f20"
     style="fill:none;stroke:#000000;stroke-opacity:1" />
  <path
     d=" M 120.70 106.88 C 122.95 106.73 125.31 106.48 127.34 107.67 C 126.07 107.97 124.79 108.26 123.51 108.52 C 125.07 109.03 126.98 109.31 127.41 111.24 L 125.27 110.06 L 125.38 112.73 C 126.05 112.79 127.39 112.92 128.06 112.98 C 128.85 114.49 131.75 116.25 128.94 117.55 C 129.77 119.09 131.82 120.92 129.43 122.21 C 130.47 123.39 131.26 124.76 131.52 126.33 C 130.61 126.19 128.78 125.92 127.86 125.79 L 129.40 128.16 L 128.01 129.09 C 126.73 127.31 125.43 125.53 124.19 123.72 C 125.25 123.75 127.37 123.79 128.43 123.82 C 126.88 122.30 124.57 120.95 125.63 118.43 C 126.98 119.15 128.34 119.84 129.72 120.51 C 128.58 118.90 126.93 117.81 125.31 116.76 C 125.73 114.74 123.90 113.63 122.75 112.32 L 124.50 112.84 L 124.64 110.41 C 123.19 109.39 121.91 108.16 120.70 106.88 Z"
     id="path92"
     fill="#231f20"
     style="fill:none;stroke:#000000;stroke-opacity:1" />
  <path
     d=" M 60.91 109.13 C 62.89 110.84 64.70 112.73 66.56 114.57 L 68.07 114.19 C 69.39 115.40 70.35 116.89 70.60 118.72 C 68.63 118.01 66.54 117.36 64.89 116.03 C 63.21 113.96 62.16 111.46 60.91 109.13 Z"
     id="path94"
     fill="#231f20"
     style="fill:none;stroke:#000000;stroke-opacity:1" />
  <path
     d=" M 32.11 115.10 C 29.21 114.17 26.21 113.30 23.75 111.44 C 25.15 112.52 26.85 112.74 28.55 112.70 C 32.29 114.30 36.41 114.89 40.39 113.82 C 41.00 117.34 40.06 121.03 38.15 124.01 C 36.79 125.89 34.26 125.40 32.28 125.47 C 32.58 124.00 32.88 122.54 33.16 121.07 C 32.55 120.58 31.32 119.60 30.70 119.11 C 30.91 120.85 30.91 122.59 30.71 124.33 C 29.74 123.40 29.22 122.23 29.15 120.83 C 26.96 124.62 23.19 127.05 19.50 129.19 L 20.09 127.57 C 17.81 126.00 18.49 123.14 18.79 120.86 C 17.24 119.67 15.30 117.10 13.39 119.18 C 13.26 119.97 12.99 121.54 12.85 122.33 C 12.18 120.74 11.57 119.12 10.93 117.52 C 11.45 115.83 11.61 113.81 13.39 112.90 C 16.13 113.33 19.12 113.49 21.40 115.26 C 22.47 115.37 23.53 115.43 24.60 115.44 C 27.88 116.04 31.21 117.34 34.59 116.69 C 34.75 116.14 35.07 115.03 35.23 114.47 C 34.45 114.63 32.89 114.95 32.11 115.10 Z"
     id="path96"
     fill="#231f20"
     style="fill:none;stroke:#000000;stroke-opacity:1" />
  <path
     d=" M 53.38 115.30 C 55.01 114.80 55.53 115.36 54.93 116.98 C 53.29 117.47 52.78 116.92 53.38 115.30 Z"
     id="path98"
     fill="#231f20"
     style="fill:none;stroke:#000000;stroke-opacity:1" />
  <path
     d=" M 71.92 116.96 C 74.46 117.79 76.25 120.53 79.07 120.40 L 78.95 121.03 C 76.17 120.59 72.54 120.51 71.92 116.96 Z"
     id="path100"
     fill="#231f20"
     style="fill:none;stroke:#000000;stroke-opacity:1" />
  <path
     d=" M 150.13 117.65 C 152.66 119.09 154.39 121.44 155.91 123.86 C 153.72 123.38 151.84 122.19 150.12 120.81 C 150.12 120.02 150.13 118.44 150.13 117.65 Z"
     id="path102"
     fill="#231f20"
     style="fill:none;stroke:#000000;stroke-opacity:1" />
  <path
     d=" M 48.57 119.69 C 48.82 119.69 49.32 119.70 49.58 119.70 C 51.60 118.75 52.00 120.44 52.23 122.12 C 50.28 122.41 48.32 122.66 46.36 122.85 C 46.32 122.36 46.25 121.39 46.22 120.90 C 46.81 120.60 47.98 120.00 48.57 119.69 Z"
     id="path104"
     fill="#231f20"
     style="fill:none;stroke:#000000;stroke-opacity:1" />
  <path
     d=" M 16.21 120.41 C 17.53 120.71 17.80 121.46 17.02 122.67 C 15.68 122.38 15.41 121.63 16.21 120.41 Z"
     id="path106"
     fill="#231f20"
     style="fill:none;stroke:#000000;stroke-opacity:1" />
  <path
     d=" M 149.65 122.26 C 151.39 123.09 152.89 124.29 154.08 125.82 C 152.28 127.44 151.84 129.76 151.41 132.03 C 150.82 129.95 150.08 127.91 148.94 126.07 C 149.57 126.00 150.82 125.87 151.45 125.80 C 150.85 124.61 150.25 123.43 149.65 122.26 Z"
     id="path108"
     fill="#231f20"
     style="fill:none;stroke:#000000;stroke-opacity:1" />
  <path
     d=" M 122.39 128.37 C 123.27 127.84 124.10 127.24 124.89 126.59 C 125.81 127.77 126.71 128.98 127.59 130.20 C 127.04 130.03 125.94 129.71 125.40 129.55 C 129.48 133.76 121.86 132.84 121.56 136.49 C 118.77 137.11 116.38 139.57 113.43 139.23 C 114.60 138.37 115.83 137.58 116.85 136.52 L 117.07 138.03 C 117.54 137.14 118.00 136.25 118.44 135.35 L 119.01 137.07 C 119.82 135.49 120.62 133.92 121.48 132.38 L 122.96 133.27 C 122.93 132.34 122.87 130.48 122.84 129.55 C 122.73 129.25 122.50 128.66 122.39 128.37 Z"
     id="path110"
     fill="#231f20"
     style="fill:none;stroke:#000000;stroke-opacity:1" />
  <path
     d=" M 151.01 138.29 C 154.02 139.71 156.50 141.97 159.33 143.70 C 158.29 144.82 156.91 145.44 155.50 145.93 C 155.70 146.72 156.10 148.29 156.30 149.08 C 155.91 150.37 155.55 151.67 155.22 152.98 C 154.13 153.54 153.04 154.11 151.94 154.67 C 149.92 156.09 148.60 157.93 149.49 160.61 C 148.60 159.35 147.58 158.22 146.41 157.24 C 147.66 155.19 149.70 153.54 150.08 151.05 C 151.01 152.10 151.97 153.11 152.98 154.09 C 154.21 151.09 151.56 149.19 149.98 147.12 C 151.02 147.61 153.12 148.59 154.17 149.08 C 153.39 147.60 152.58 146.13 151.78 144.66 C 152.40 144.73 153.62 144.87 154.23 144.93 C 153.47 144.15 151.93 142.58 151.17 141.79 C 152.11 142.03 153.99 142.51 154.93 142.75 C 153.58 141.30 152.16 139.91 151.01 138.29 Z"
     id="path112"
     fill="#231f20"
     style="fill:none;stroke:#000000;stroke-opacity:1" />
  <path
     d=" M 140.60 144.78 C 140.25 144.46 139.57 143.83 139.23 143.52 C 139.68 143.66 140.58 143.95 141.04 144.10 C 140.70 146.76 139.94 149.36 139.86 152.06 C 139.95 154.86 137.88 156.90 136.60 159.18 C 136.18 158.94 135.34 158.46 134.92 158.22 C 136.21 161.12 133.59 162.53 131.17 161.54 C 131.23 162.16 131.37 163.40 131.43 164.02 C 128.70 163.75 126.06 164.16 124.78 166.87 C 123.04 167.38 121.29 167.83 119.53 168.23 L 119.75 166.65 C 118.45 166.81 117.14 166.95 115.84 167.09 C 115.45 167.74 115.07 168.39 114.68 169.04 C 114.59 167.78 114.51 166.52 114.44 165.26 C 114.98 165.31 116.06 165.42 116.60 165.48 C 117.82 162.73 118.98 165.65 119.93 166.70 C 120.50 164.32 121.91 161.30 124.79 163.48 C 124.47 162.64 123.84 160.97 123.52 160.13 C 124.67 160.73 126.66 163.74 126.34 159.91 C 126.70 160.60 127.06 161.29 127.43 161.98 C 128.00 161.58 129.15 160.78 129.73 160.38 C 129.60 159.74 129.35 158.47 129.22 157.83 C 130.46 158.58 131.65 159.40 132.86 160.20 C 132.91 158.77 132.94 157.34 132.96 155.92 C 133.65 156.52 135.04 157.72 135.73 158.32 C 135.43 157.29 134.84 155.23 134.54 154.20 C 135.14 154.40 136.33 154.80 136.92 155.00 C 136.68 153.20 136.48 151.39 136.31 149.58 C 137.05 150.10 138.52 151.13 139.26 151.64 C 138.85 150.30 138.41 148.98 137.93 147.66 C 138.85 146.73 139.76 145.79 140.60 144.78 Z"
     id="path114"
     fill="#231f20"
     style="fill:none;stroke:#000000;stroke-opacity:1" />
  <path
     d=" M 10.78 148.84 C 11.39 147.77 12.00 146.70 12.62 145.64 C 12.52 146.37 12.31 147.83 12.21 148.56 C 14.57 148.49 16.90 148.23 19.23 147.90 C 18.88 149.01 18.54 150.12 18.19 151.24 C 19.59 148.90 21.28 144.82 24.45 147.80 C 22.70 150.13 19.22 151.00 18.57 154.10 C 19.35 153.47 20.90 152.22 21.68 151.59 C 21.49 152.63 21.11 154.69 20.92 155.73 C 21.78 155.04 22.64 154.35 23.50 153.65 C 24.01 154.55 25.05 156.36 25.57 157.26 C 25.50 156.27 25.37 154.30 25.30 153.31 C 26.15 153.04 27.00 152.77 27.85 152.50 C 27.36 152.76 26.37 153.28 25.87 153.54 C 27.38 154.84 27.82 156.45 27.21 158.36 L 29.05 156.77 C 29.05 157.87 29.05 160.08 29.05 161.18 C 29.60 160.14 30.16 159.10 30.71 158.06 C 31.38 158.90 32.73 160.57 33.41 161.41 C 33.23 159.77 33.06 158.14 32.92 156.51 C 33.96 158.98 35.14 161.40 36.32 163.82 C 36.88 162.37 37.46 160.92 38.08 159.50 C 39.15 161.67 40.49 163.69 42.16 165.45 C 42.21 163.34 42.24 161.22 42.26 159.11 C 43.34 161.13 43.97 163.35 44.65 165.53 C 45.00 163.86 45.34 162.20 45.70 160.53 C 46.51 162.53 47.22 164.58 47.94 166.62 C 49.24 166.76 50.54 166.92 51.84 167.09 C 51.89 166.53 51.98 165.42 52.03 164.86 C 52.57 165.27 53.66 166.07 54.20 166.47 C 53.91 165.41 53.32 163.30 53.03 162.24 C 54.19 163.77 55.22 165.40 56.22 167.04 C 55.79 168.04 55.36 169.05 54.94 170.05 C 56.41 170.98 57.93 171.83 59.52 172.55 C 59.48 173.14 59.40 174.33 59.36 174.93 C 60.06 174.33 60.76 173.73 61.46 173.14 C 62.67 174.28 63.89 175.42 65.14 176.52 C 64.84 174.99 64.52 173.48 64.17 171.96 C 61.89 170.94 59.77 169.09 57.10 169.46 C 57.00 167.53 56.87 165.61 56.74 163.69 C 57.29 164.78 57.83 165.87 58.38 166.97 C 58.75 166.86 59.49 166.63 59.87 166.51 C 60.61 167.62 61.35 168.73 62.12 169.83 C 64.95 170.75 65.85 173.69 67.29 175.97 C 67.29 174.29 67.30 172.62 67.31 170.95 C 68.47 172.79 69.53 174.69 70.49 176.65 C 72.10 177.10 73.70 177.57 75.31 178.05 C 75.21 176.10 75.09 174.14 74.99 172.19 C 75.97 173.46 76.93 174.75 77.90 176.02 C 78.36 175.18 79.26 173.50 79.72 172.66 C 79.73 173.72 79.74 174.79 79.75 175.85 C 80.94 175.70 82.13 175.56 83.32 175.43 C 83.58 175.11 84.10 174.46 84.36 174.14 C 85.49 175.30 86.64 176.44 87.85 177.52 C 87.67 175.71 87.41 173.91 87.16 172.12 C 88.88 173.89 90.48 175.78 92.07 177.67 C 92.07 175.33 91.99 172.99 91.88 170.65 C 93.32 172.44 94.52 174.42 95.71 176.39 C 96.33 175.36 96.95 174.34 97.59 173.32 C 98.39 174.39 99.20 175.47 100.01 176.55 C 101.08 175.63 102.15 174.70 103.22 173.78 C 103.59 174.07 104.34 174.66 104.71 174.96 C 105.91 174.54 107.13 174.29 108.40 174.20 C 108.61 173.91 109.03 173.32 109.24 173.02 C 109.62 173.29 110.39 173.82 110.77 174.09 C 111.41 173.08 112.05 172.07 112.70 171.07 C 112.86 172.05 113.18 174.01 113.34 174.99 C 114.70 173.88 116.08 172.79 117.49 171.74 C 117.50 172.48 117.54 173.94 117.55 174.67 C 119.27 174.00 121.04 173.46 122.80 172.90 C 123.15 173.22 123.85 173.84 124.20 174.15 C 124.40 172.36 124.56 170.57 124.74 168.78 C 125.16 170.81 125.40 172.85 125.68 174.91 C 126.36 173.27 127.02 171.63 127.66 169.97 C 127.71 171.25 127.77 172.53 127.83 173.81 C 129.27 172.14 130.64 170.34 132.65 169.31 C 133.74 168.35 134.82 167.37 135.92 166.42 C 135.89 169.37 135.22 172.77 132.46 174.39 C 126.87 177.44 120.26 176.74 114.13 177.13 C 106.63 177.70 99.12 178.18 91.64 179.00 L 69.39 179.00 C 65.51 177.81 61.36 177.74 57.55 176.39 C 56.27 174.94 55.80 172.97 54.59 171.47 C 52.36 170.44 49.85 170.24 47.60 169.26 C 41.37 166.25 34.45 165.23 28.08 162.56 C 27.62 161.71 27.16 160.86 26.69 160.01 C 23.71 159.55 21.05 158.04 19.00 155.84 C 18.61 155.64 17.82 155.24 17.42 155.04 C 14.69 152.07 10.45 152.29 6.80 151.47 C 6.82 150.78 6.87 149.41 6.89 148.72 C 7.54 148.61 8.86 148.38 9.51 148.26 C 9.83 148.41 10.47 148.70 10.78 148.84 Z"
     id="path116"
     fill="#231f20"
     style="fill:none;stroke:#000000;stroke-opacity:1" />
  <path
     d=" M 23.18 150.50 C 24.24 149.01 25.46 147.65 26.99 146.65 C 28.72 147.37 30.49 148.01 32.25 148.63 C 29.32 149.64 26.25 150.12 23.18 150.50 Z"
     id="path118"
     fill="#231f20"
     style="fill:none;stroke:#000000;stroke-opacity:1" />
  <path
     d=" M 52.07 159.10 C 55.44 159.02 50.74 162.11 52.07 159.10 Z"
     id="path120"
     fill="#231f20"
     style="fill:none;stroke:#000000;stroke-opacity:1" />
  <path
     d=" M 146.24 158.00 C 146.65 159.27 147.76 160.52 147.08 161.94 C 145.45 163.78 143.67 165.59 143.21 168.12 C 141.19 169.06 139.15 169.94 137.00 170.49 C 137.46 168.52 137.87 166.52 138.03 164.50 C 138.81 164.76 140.37 165.30 141.15 165.57 C 142.22 163.88 142.97 162.02 143.63 160.13 C 143.95 160.51 144.59 161.25 144.91 161.62 C 145.24 160.72 145.90 158.90 146.24 158.00 Z"
     id="path122"
     fill="#231f20"
     style="fill:none;stroke:#000000;stroke-opacity:1" />
  <path
     d=" M 77.58 164.20 C 77.81 164.51 78.26 165.11 78.48 165.42 C 81.17 161.46 82.61 169.43 78.84 169.03 C 78.80 168.31 78.72 166.85 78.68 166.12 C 77.64 166.98 76.59 167.83 75.53 168.67 C 77.63 168.65 79.60 169.87 79.14 172.24 C 77.71 173.52 76.26 171.82 74.85 171.47 C 74.48 171.56 73.75 171.75 73.38 171.85 C 70.89 171.14 68.11 170.53 68.89 166.97 C 68.34 167.96 67.80 168.96 67.26 169.97 L 67.11 168.55 C 66.31 168.68 64.69 168.93 63.89 169.06 C 63.16 168.00 62.45 166.92 61.77 165.83 L 63.20 166.32 L 64.18 167.66 C 64.77 166.73 65.35 165.79 65.94 164.86 C 66.20 165.48 66.73 166.71 66.99 167.33 C 68.21 165.88 69.84 166.63 70.60 168.19 C 72.48 168.17 74.91 169.75 76.00 167.17 C 74.53 166.79 72.98 166.53 71.78 165.53 C 73.70 165.08 76.14 165.94 77.58 164.20 Z"
     id="path124"
     fill="#231f20"
     style="fill:none;stroke:#000000;stroke-opacity:1" />
  <path
     d=" M 80.57 171.25 C 81.98 170.87 82.47 171.37 82.06 172.74 C 80.67 173.12 80.18 172.62 80.57 171.25 Z"
     id="path126"
     fill="#231f20"
     style="fill:none;stroke:#000000;stroke-opacity:1" />
</svg>
