<?xml version="1.0" encoding="UTF-8" standalone="no"?>
<!-- Created with Inkscape (http://www.inkscape.org/) -->

<svg
   xmlns:dc="http://purl.org/dc/elements/1.1/"
   xmlns:cc="http://creativecommons.org/ns#"
   xmlns:rdf="http://www.w3.org/1999/02/22-rdf-syntax-ns#"
   xmlns:svg="http://www.w3.org/2000/svg"
   xmlns="http://www.w3.org/2000/svg"
   xmlns:sodipodi="http://sodipodi.sourceforge.net/DTD/sodipodi-0.dtd"
   xmlns:inkscape="http://www.inkscape.org/namespaces/inkscape"
   width="210mm"
   height="297mm"
   viewBox="0 0 744.09448819 1052.3622047"
   id="svg5929"
   version="1.1"
   inkscape:version="0.91 r13725"
   sodipodi:docname="shanasty.svg">
  <defs
     id="defs5931" />
  <sodipodi:namedview
     id="base"
     pagecolor="#ffffff"
     bordercolor="#666666"
     borderopacity="1.0"
     inkscape:pageopacity="0.0"
     inkscape:pageshadow="2"
     inkscape:zoom="1.979899"
     inkscape:cx="185.57738"
     inkscape:cy="626.2448"
     inkscape:document-units="px"
     inkscape:current-layer="layer1"
     showgrid="false"
     inkscape:window-width="1440"
     inkscape:window-height="851"
     inkscape:window-x="0"
     inkscape:window-y="0"
     inkscape:window-maximized="1" />
  <metadata
     id="metadata5934">
    <rdf:RDF>
      <cc:Work
         rdf:about="">
        <dc:format>image/svg+xml</dc:format>
        <dc:type
           rdf:resource="http://purl.org/dc/dcmitype/StillImage" />
        <dc:title></dc:title>
      </cc:Work>
    </rdf:RDF>
  </metadata>
  <g
     inkscape:label="Layer 1"
     inkscape:groupmode="layer"
     id="layer1">
    <g
       style="font-style:normal;font-variant:normal;font-weight:100;font-stretch:normal;font-size:37.95716476px;line-height:125%;font-family:Skia;-inkscape-font-specification:'Skia, Thin';text-align:center;letter-spacing:0px;word-spacing:0px;writing-mode:lr-tb;text-anchor:middle;fill:#000000;fill-opacity:1;stroke:none;stroke-width:1px;stroke-linecap:butt;stroke-linejoin:miter;stroke-opacity:1"
       id="text6477">
      <path
         d="m 118.93487,412.52516 q 0,1.90898 -0.90815,3.35461 -0.88962,1.4271 -2.40939,2.31672 -1.39004,0.81549 -3.18781,1.24177 -1.79778,0.40774 -3.98476,0.40774 -1.18617,0 -2.465,-0.0741 -1.26029,-0.0741 -1.46416,-0.0927 l -0.14827,-2.66886 q 0.25947,0.0371 1.44563,0.14827 1.18616,0.0927 2.7986,0.0927 0.98229,0 2.53913,-0.25947 1.55683,-0.25948 2.39085,-0.66722 1.0935,-0.53748 1.66804,-1.29736 0.59308,-0.75989 0.59308,-1.92751 0,-1.24177 -0.59308,-2.09432 -0.57454,-0.87109 -1.92751,-1.66804 -0.87109,-0.51895 -2.26112,-1.16763 -1.39003,-0.64868 -2.50206,-1.33443 -1.89044,-1.14909 -2.70593,-2.50206 -0.79695,-1.3715 -0.79695,-3.03954 0,-1.7051 0.72282,-2.94687 0.74135,-1.26029 1.90897,-2.14991 1.18617,-0.88963 2.89127,-1.33444 1.72364,-0.44481 3.81796,-0.44481 1.14909,0 2.31672,0.0741 1.18616,0.0556 1.35297,0.0741 l 0.25947,2.6874 q -0.1668,-0.0185 -1.35297,-0.12974 -1.18616,-0.1112 -2.92833,-0.1112 -1.03789,0 -2.14992,0.24094 -1.09349,0.22241 -1.92751,0.70428 -0.74135,0.42628 -1.2603,1.18616 -0.51894,0.75989 -0.51894,1.77925 0,0.90815 0.53748,1.76071 0.55601,0.83402 2.05724,1.72364 0.75989,0.46334 2.00165,1.07495 1.2603,0.59309 2.46499,1.29737 1.85338,1.09349 2.78007,2.52059 0.94522,1.40857 0.94522,3.22488 z"
         style=""
         id="path6520" />
      <path
         d="m 140.10044,419.51239 -2.92834,0 q 0.0185,-0.55601 0.0371,-3.33608 0.0371,-2.7986 0.0371,-3.68822 0,-0.96376 -0.0185,-2.83567 0,-1.89044 -0.0185,-2.76153 -0.0556,-2.13138 -0.81549,-3.05807 -0.75988,-0.92669 -2.63179,-0.92669 -1.05643,0 -2.70593,0.64868 -1.64951,0.63015 -3.48435,1.72364 l 0.0741,14.23394 -2.92833,0 q 0.0185,-0.72282 0.0371,-5.8196 0.0371,-5.11533 0.0371,-8.41434 0,-2.14991 -0.0185,-5.41186 0,-3.28048 -0.0556,-7.52471 l 2.92833,0 -0.0741,10.54572 0.0185,0.0185 q 2.65033,-1.4827 4.3369,-2.05725 1.68658,-0.57455 2.89127,-0.57455 2.37233,0 3.79943,1.50124 1.44563,1.4827 1.44563,4.07743 0,2.33526 -0.0371,4.04036 -0.0185,1.68658 -0.0185,2.743 0,1.68657 0.0371,3.87356 0.0371,2.18698 0.0556,3.00247 z"
         style=""
         id="path6522" />
      <path
         d="m 159.6165,408.94814 q 0,4.59638 -0.0185,7.48764 -0.0185,2.89127 -0.0185,3.11368 -0.18533,0.0185 -1.72364,0.12973 -1.5383,0.12974 -3.96623,0.12974 -1.51976,0 -3.05807,-0.27801 -1.5383,-0.278 -2.65033,-0.79695 -1.4827,-0.68575 -2.40939,-1.87191 -0.90815,-1.18616 -0.90815,-2.8542 0,-1.76071 1.07496,-3.03954 1.09349,-1.29736 3.021,-2.09431 1.2047,-0.50042 3.20634,-0.88963 2.02019,-0.40774 4.59638,-0.61161 -0.1112,-1.44563 -0.72282,-2.37232 -0.61161,-0.92669 -1.79777,-1.40857 -0.81549,-0.33361 -1.81631,-0.46334 -1.00083,-0.14827 -2.33526,-0.14827 -0.83402,0 -1.4271,0.0371 -0.57455,0.0371 -1.57537,0.0927 l 0.29654,-2.46499 q 0.27801,-0.0185 1.09349,-0.0556 0.83402,-0.0556 2.26112,-0.0556 2.18699,0 3.8921,0.46334 1.72364,0.44481 2.8542,1.46417 1.05642,0.96376 1.5939,2.39086 0.53748,1.40856 0.53748,4.09596 z m -2.83567,4.46664 q 0,-0.63015 0,-1.59391 0,-0.96375 -0.0185,-2.22405 -0.81549,0.0371 -2.8542,0.33361 -2.03872,0.27801 -3.42875,0.81549 -1.03789,0.38921 -1.85338,1.16762 -0.79695,0.77842 -0.79695,1.92752 0,1.26029 0.68575,2.03871 0.68575,0.75989 1.87191,1.16763 0.90816,0.31507 2.00165,0.46334 1.11203,0.12974 2.33525,0.12974 0.37068,0 0.90816,-0.0185 0.53748,-0.0185 1.13056,-0.0371 0,-0.12974 0,-1.22323 0.0185,-1.09349 0.0185,-2.94687 z"
         style=""
         id="path6524" />
      <path
         d="m 168.21617,393.15737 -0.33361,9.21128 -2.13138,0 -0.29654,-9.21128 2.76153,0 z"
         style=""
         id="path6526" />
      <path
         d="m 189.54854,419.51239 -2.92833,0 q 0.0185,-0.51895 0.0371,-3.42875 0.0371,-2.9098 0.0371,-3.59555 0,-0.96376 -0.0185,-2.83567 0,-1.89044 -0.0185,-2.76153 -0.0556,-2.13138 -0.81549,-3.05807 -0.75988,-0.92669 -2.6318,-0.92669 -1.13056,0 -2.79859,0.66722 -1.66804,0.66721 -3.37315,1.7051 0,0.20387 -0.0185,2.20552 -0.0185,2.00165 -0.0185,3.65116 0,2.14991 0.0371,5.18945 0.0556,3.03954 0.0556,3.18781 l -2.92834,0 q 0,-0.12974 0.0371,-2.26112 0.0371,-2.14992 0.0371,-6.37562 0,-1.94604 -0.0185,-4.55931 0,-2.61326 -0.0556,-5.56013 l 2.89127,0 -0.0185,2.13139 0.0185,0.0371 q 2.59473,-1.4827 4.31837,-2.05724 1.74218,-0.59309 2.89127,-0.59309 2.37232,0 3.79942,1.50124 1.44564,1.4827 1.44564,4.07743 0,2.33526 -0.0371,4.04036 -0.0185,1.68658 -0.0185,2.743 0,1.68657 0.0371,4.2257 0.0556,2.52059 0.0556,2.65033 z"
         style=""
         id="path6528" />
      <path
         d="m 209.06461,408.94814 q 0,4.59638 -0.0185,7.48764 -0.0185,2.89127 -0.0185,3.11368 -0.18534,0.0185 -1.72364,0.12973 -1.53831,0.12974 -3.96623,0.12974 -1.51977,0 -3.05807,-0.27801 -1.53831,-0.278 -2.65033,-0.79695 -1.4827,-0.68575 -2.40939,-1.87191 -0.90816,-1.18616 -0.90816,-2.8542 0,-1.76071 1.07496,-3.03954 1.09349,-1.29736 3.02101,-2.09431 1.20469,-0.50042 3.20634,-0.88963 2.02018,-0.40774 4.59637,-0.61161 -0.1112,-1.44563 -0.72281,-2.37232 -0.61162,-0.92669 -1.79778,-1.40857 -0.81548,-0.33361 -1.81631,-0.46334 -1.00082,-0.14827 -2.33525,-0.14827 -0.83402,0 -1.4271,0.0371 -0.57455,0.0371 -1.57537,0.0927 l 0.29654,-2.46499 q 0.278,-0.0185 1.09349,-0.0556 0.83402,-0.0556 2.26112,-0.0556 2.18698,0 3.89209,0.46334 1.72364,0.44481 2.8542,1.46417 1.05643,0.96376 1.59391,2.39086 0.53748,1.40856 0.53748,4.09596 z m -2.83567,4.46664 q 0,-0.63015 0,-1.59391 0,-0.96375 -0.0185,-2.22405 -0.81548,0.0371 -2.8542,0.33361 -2.03871,0.27801 -3.42874,0.81549 -1.0379,0.38921 -1.85338,1.16762 -0.79695,0.77842 -0.79695,1.92752 0,1.26029 0.68575,2.03871 0.68575,0.75989 1.87191,1.16763 0.90815,0.31507 2.00164,0.46334 1.11203,0.12974 2.33526,0.12974 0.37068,0 0.90815,-0.0185 0.53748,-0.0185 1.13056,-0.0371 0,-0.12974 0,-1.22323 0.0185,-1.09349 0.0185,-2.94687 z"
         style=""
         id="path6530" />
      <path
         d="m 225.87474,414.08199 q 0,1.3715 -0.66722,2.44646 -0.66722,1.07496 -1.74217,1.74218 -1.13056,0.70428 -2.6874,1.07496 -1.5383,0.35214 -3.41021,0.35214 -0.90816,0 -1.89045,-0.0927 -0.96376,-0.0741 -1.09349,-0.0927 l -0.1112,-2.42792 q 0.1668,0.0185 1.27883,0.1112 1.13056,0.0741 2.24258,0.0741 0.64868,0 1.66804,-0.1112 1.01936,-0.1112 1.68657,-0.40774 0.92669,-0.40774 1.3715,-1.00083 0.44481,-0.59308 0.44481,-1.4271 0,-0.75988 -0.3892,-1.22322 -0.38921,-0.48188 -1.07496,-0.92669 -0.74135,-0.50042 -2.03872,-1.05643 -1.27883,-0.57455 -2.14992,-1.09349 -1.24176,-0.75989 -1.90897,-1.79778 -0.64869,-1.03789 -0.64869,-2.40939 0,-1.3715 0.74135,-2.46499 0.75989,-1.09349 2.02019,-1.76071 1.09349,-0.59308 2.40939,-0.77842 1.33443,-0.20387 2.57619,-0.20387 1.13056,0 1.85338,0.0371 0.72281,0.0371 0.83402,0.0371 l 0.20387,2.46499 q -0.12974,0 -1.1491,-0.0741 -1.00082,-0.0741 -2.20551,-0.0741 -0.85256,0 -1.63098,0.14827 -0.75988,0.14827 -1.29736,0.42628 -0.79695,0.40774 -1.14909,0.98229 -0.33361,0.57454 -0.33361,1.11202 0,0.74135 0.48188,1.27883 0.48187,0.53748 1.13056,0.90816 0.75988,0.44481 2.07578,1.05642 1.3159,0.61162 1.90898,0.98229 1.29736,0.81549 1.96458,1.81631 0.68575,1.00083 0.68575,2.37232 z"
         style=""
         id="path6532" />
      <path
         d="m 241.29483,417.2142 -0.3336,2.35379 q -0.12974,0.0185 -0.64869,0.0371 -0.50041,0.0185 -0.87108,0.0185 -3.79943,0 -5.74547,-1.57537 -1.94605,-1.5939 -1.94605,-4.87438 0,-2.05725 0.0185,-4.41104 0.0371,-2.35379 0.0371,-5.83814 l -3.11367,0 0,-2.16845 3.28048,0 0,-4.3925 2.68739,0 0,4.3925 6.63509,0 0,2.16845 -6.63509,0 q 0,0.38921 -0.0371,2.31673 -0.0185,1.92751 -0.0185,2.8542 0,0.77842 0,1.90898 0,1.13056 0,2.68739 0,2.40939 1.29737,3.48435 1.29736,1.05643 4.00329,1.05643 0.33361,0 0.79695,0 0.46335,-0.0185 0.59308,-0.0185 z"
         style=""
         id="path6534" />
      <path
         d="m 261.86731,401.5161 q -3.61408,7.96952 -7.61738,16.93987 -3.98476,8.95181 -4.24423,9.52635 l -2.55766,-0.94522 3.83649,-7.95099 q -0.14827,-0.37067 -2.33526,-5.41186 -2.16845,-5.04118 -5.30065,-12.04695 l 2.78006,-1.20469 q 2.03872,5.15238 4.15157,10.19357 2.11285,5.02265 2.22405,5.28212 l 0.0371,0 q 0.1112,-0.18533 2.11285,-4.92998 2.00164,-4.74464 4.37397,-10.47158 l 2.53912,1.01936 z"
         style=""
         id="path6536" />
    </g>
  </g>
</svg>
