<?xml version="1.0" encoding="UTF-8" standalone="no"?>
<svg
   xmlns:dc="http://purl.org/dc/elements/1.1/"
   xmlns:cc="http://creativecommons.org/ns#"
   xmlns:rdf="http://www.w3.org/1999/02/22-rdf-syntax-ns#"
   xmlns:svg="http://www.w3.org/2000/svg"
   xmlns="http://www.w3.org/2000/svg"
   xmlns:sodipodi="http://sodipodi.sourceforge.net/DTD/sodipodi-0.dtd"
   xmlns:inkscape="http://www.inkscape.org/namespaces/inkscape"
   width="512pt"
   height="512pt"
   viewBox="0 0 512 512"
   version="1.1"
   id="svg2"
   inkscape:version="0.91 r13725"
   sodipodi:docname="superman-shield-black.svg">
  <metadata
     id="metadata34">
    <rdf:RDF>
      <cc:Work
         rdf:about="">
        <dc:format>image/svg+xml</dc:format>
        <dc:type
           rdf:resource="http://purl.org/dc/dcmitype/StillImage" />
      </cc:Work>
    </rdf:RDF>
  </metadata>
  <defs
     id="defs32" />
  <sodipodi:namedview
     pagecolor="#ffffff"
     bordercolor="#666666"
     borderopacity="1"
     objecttolerance="10"
     gridtolerance="10"
     guidetolerance="10"
     inkscape:pageopacity="0"
     inkscape:pageshadow="2"
     inkscape:window-width="968"
     inkscape:window-height="653"
     id="namedview30"
     showgrid="false"
     inkscape:zoom="1.0429825"
     inkscape:cx="328.64964"
     inkscape:cy="330.3745"
     inkscape:window-x="0"
     inkscape:window-y="0"
     inkscape:window-maximized="0"
     inkscape:current-layer="svg2" />
  <path
     style="color:#000000;font-style:normal;font-variant:normal;font-weight:normal;font-stretch:normal;font-size:medium;line-height:normal;font-family:sans-serif;text-indent:0;text-align:start;text-decoration:none;text-decoration-line:none;text-decoration-style:solid;text-decoration-color:#000000;letter-spacing:normal;word-spacing:normal;text-transform:none;direction:ltr;block-progression:tb;writing-mode:lr-tb;baseline-shift:baseline;text-anchor:start;white-space:normal;clip-rule:nonzero;display:inline;overflow:visible;visibility:visible;opacity:1;isolation:auto;mix-blend-mode:normal;color-interpolation:sRGB;color-interpolation-filters:linearRGB;solid-color:#000000;solid-opacity:1;fill-opacity:1;fill-rule:nonzero;stroke:none;stroke-width:1;stroke-linecap:butt;stroke-linejoin:miter;stroke-miterlimit:4;stroke-dasharray:none;stroke-dashoffset:0;stroke-opacity:1;color-rendering:auto;image-rendering:auto;shape-rendering:auto;text-rendering:auto;enable-background:accumulate"
     d="m -0.5,-0.5 0,0.5 0,512.5 513,0 0,-513 -513,0 z m 1,1 511,0 0,511 -511,0 0,-511 z"
     id="path4"
     inkscape:connector-curvature="0" />
  <path
     style="color:#000000;font-style:normal;font-variant:normal;font-weight:normal;font-stretch:normal;font-size:medium;line-height:normal;font-family:sans-serif;text-indent:0;text-align:start;text-decoration:none;text-decoration-line:none;text-decoration-style:solid;text-decoration-color:#000000;letter-spacing:normal;word-spacing:normal;text-transform:none;direction:ltr;block-progression:tb;writing-mode:lr-tb;baseline-shift:baseline;text-anchor:start;white-space:normal;clip-rule:nonzero;display:inline;overflow:visible;visibility:visible;opacity:1;isolation:auto;mix-blend-mode:normal;color-interpolation:sRGB;color-interpolation-filters:linearRGB;solid-color:#000000;solid-opacity:1;fill-opacity:1;fill-rule:nonzero;stroke:none;stroke-width:1;stroke-linecap:butt;stroke-linejoin:miter;stroke-miterlimit:4;stroke-dasharray:none;stroke-dashoffset:0;stroke-opacity:1;color-rendering:auto;image-rendering:auto;shape-rendering:auto;text-rendering:auto;enable-background:accumulate"
     d="m 380.00781,95.259766 c -25.94857,-0.05 -51.89955,-0.1097 -77.86133,0.07031 l -0.008,0 -0.008,0 c -14.69117,0.54967 -29.39629,0.710144 -44.11719,0.910156 l -0.006,0 -0.006,0 c -43.81663,1.519883 -87.66772,2.939966 -131.52539,3.080078 -1.45553,-0.01679 -2.60571,0.663463 -3.55273,1.499998 -0.94703,0.83654 -1.73561,1.83679 -2.53516,2.58399 l -0.006,0.006 -0.006,0.006 c -20.490341,20.52034 -40.948626,41.0701 -61.705075,61.30664 -0.933182,0.88236 -1.852497,1.9618 -2.429687,3.19922 -0.578201,1.23957 -0.801632,2.66046 -0.292969,4.10351 l 0.0098,0.0312 0.01367,0.0273 c 1.201333,2.40267 3.143499,4.26232 4.705078,6.22657 l 0.0039,0.004 0.0039,0.004 c 22.051307,26.62158 44.260033,53.10117 66.177733,79.81836 l 0,0.002 c 39.93841,48.51593 77.18825,99.17399 117.09961,147.75781 l 0.004,0.004 0.004,0.004 c 2.58749,3.02203 4.87817,6.66354 8.50782,8.88281 l 0.0625,0.0371 0.0684,0.0176 c 3.65682,0.99347 7.56552,-0.33163 10.0957,-3.05078 3.4484,-3.68032 6.40089,-7.74536 9.65234,-11.50391 l 0.004,-0.004 0.004,-0.006 C 332.47503,327.43759 392.6543,254.65893 452.91406,181.94922 l 0.008,-0.008 0.006,-0.008 c 2.21297,-2.90571 6.1057,-5.20705 7.00196,-9.3789 l 0,-0.004 0,-0.004 c 0.60655,-3.08066 -0.7733,-5.49994 -2.64258,-7.51172 -1.86928,-2.01179 -4.24113,-3.71264 -5.8125,-5.4961 l -0.0117,-0.0137 -0.0137,-0.0137 C 430.89902,139.40153 410.17224,119.48436 389.75781,99.25 l -0.006,-0.0059 c -2.54139,-2.590017 -6.14267,-3.993723 -9.74023,-3.984375 l -0.004,0 z m 0.002,1 0.002,0 c 3.33839,-0.0096 6.69388,1.304192 9.03125,3.689453 l 0.002,0.0039 0.004,0.002 c 20.42367,20.243632 41.15334,40.163602 61.70117,60.271482 1.68712,1.906 4.04189,3.59305 5.80469,5.49024 1.76981,1.90474 2.92598,3.92555 2.39453,6.63281 -2.7e-4,0.001 2.7e-4,0.003 0,0.004 -0.78736,3.64335 -4.43112,5.84066 -6.81641,8.97265 -60.25608,72.70529 -120.43299,145.48117 -180.53906,218.31641 -3.28524,3.79869 -6.23037,7.84817 -9.61914,11.46484 l 0,0.002 c -2.27492,2.44482 -5.79349,3.62927 -9.03906,2.77539 -3.32932,-2.06473 -5.56768,-5.54815 -8.19922,-8.62305 l -0.006,-0.008 C 204.84417,356.70003 167.59624,306.04352 127.63672,257.50195 105.71648,230.78166 83.507586,204.30534 61.460938,177.68945 l -0.0059,-0.008 c -1.609398,-2.02305 -3.46898,-3.83494 -4.568359,-6.01562 -0.398823,-1.15674 -0.233582,-2.26042 0.261719,-3.32227 0.499299,-1.07042 1.33971,-2.07361 2.214843,-2.90039 l 0.0039,-0.002 0.002,-0.004 c 20.759595,-20.23961 41.217379,-40.78698 61.703129,-61.30273 l 0.002,-0.002 c 0.87962,-0.82243 1.6594,-1.80961 2.51172,-2.5625 0.85297,-0.75346 1.73444,-1.2632 2.8789,-1.25 l 0.004,0 0.002,0 c 43.87647,-0.14002 87.73912,-1.560176 131.55664,-3.080076 14.71454,-0.199925 29.42267,-0.360237 44.12696,-0.910156 25.95692,-0.179979 51.90534,-0.120313 77.85547,-0.07031 z"
     id="path6"
     inkscape:connector-curvature="0" />
  <path
     style="color:#000000;font-style:normal;font-variant:normal;font-weight:normal;font-stretch:normal;font-size:medium;line-height:normal;font-family:sans-serif;text-indent:0;text-align:start;text-decoration:none;text-decoration-line:none;text-decoration-style:solid;text-decoration-color:#000000;letter-spacing:normal;word-spacing:normal;text-transform:none;direction:ltr;block-progression:tb;writing-mode:lr-tb;baseline-shift:baseline;text-anchor:start;white-space:normal;clip-rule:nonzero;display:inline;overflow:visible;visibility:visible;opacity:1;isolation:auto;mix-blend-mode:normal;color-interpolation:sRGB;color-interpolation-filters:linearRGB;solid-color:#000000;solid-opacity:1;fill-opacity:1;fill-rule:nonzero;stroke:none;stroke-width:1;stroke-linecap:butt;stroke-linejoin:miter;stroke-miterlimit:4;stroke-dasharray:none;stroke-dashoffset:0;stroke-opacity:1;color-rendering:auto;image-rendering:auto;shape-rendering:auto;text-rendering:auto;enable-background:accumulate"
     d="m 128.98633,105.34961 -0.20508,0.002 -0.14648,0.14649 c -20.89603,21.04599 -42.154747,41.74643 -63.048832,62.81054 l -0.326172,0.32813 0.300781,0.34961 c 27.374198,31.84325 53.891793,64.40978 80.683593,96.75195 l 0.002,0.002 c 36.23592,43.53711 73.6362,86.01888 110.3125,129.14454 l 0.10743,0.125 0.1621,0.0371 c 0.23355,0.0539 0.74284,0.19365 1.0293,0.25976 l 0.30078,0.0703 0.19532,-0.23633 c 61.61075,-74.0609 122.97132,-148.35195 184.46093,-222.52148 l 0.28321,-0.3418 -0.30469,-0.32226 C 423.02614,151.16841 403.53552,130.09976 383.91406,109.1582 l -0.008,-0.01 -0.008,-0.008 c -0.44387,-0.42923 -0.94367,-0.96181 -1.55664,-1.36718 -0.61297,-0.40538 -1.38224,-0.67953 -2.24219,-0.50391 l 0.10156,-0.01 C 343.13065,107.10976 306.0528,107.08996 268.98633,106.75 l -0.002,0 c -8.00646,-0.10014 -15.99361,0.20906 -23.9336,-0.42773 l -0.0176,-0.002 -0.0176,0 c -38.66715,-0.45996 -77.34007,-1.25077 -116.02929,-0.9707 z m 0.21094,1 c 38.60305,-0.27571 77.20151,0.51147 115.80664,0.9707 8.00826,0.63964 16.00883,0.33004 23.9707,0.42969 37.07288,0.34003 74.15382,0.35977 111.22266,0.50977 l 0.0527,0 0.0508,-0.01 c 0.56005,-0.11438 1.0107,0.0403 1.49024,0.35742 0.47743,0.31574 0.94215,0.79703 1.40625,1.2461 0.002,0.002 0.004,0.004 0.006,0.006 19.51142,20.82426 38.89817,41.77822 58.56055,62.46093 -61.32916,73.97684 -122.52899,148.07161 -183.97656,221.9375 -0.1951,-0.0501 -0.38074,-0.097 -0.57227,-0.14453 -36.64946,-43.09124 -74.01025,-85.53109 -110.19922,-129.01172 l -0.002,-0.002 C 120.32479,232.88165 93.895138,200.43335 66.617188,168.68945 87.350987,147.79434 108.44767,127.24482 129.19727,106.34961 Z"
     id="path8"
     inkscape:connector-curvature="0" />
  <path
     style="color:#000000;font-style:normal;font-variant:normal;font-weight:normal;font-stretch:normal;font-size:medium;line-height:normal;font-family:sans-serif;text-indent:0;text-align:start;text-decoration:none;text-decoration-line:none;text-decoration-style:solid;text-decoration-color:#000000;letter-spacing:normal;word-spacing:normal;text-transform:none;direction:ltr;block-progression:tb;writing-mode:lr-tb;baseline-shift:baseline;text-anchor:start;white-space:normal;clip-rule:nonzero;display:inline;overflow:visible;visibility:visible;opacity:1;isolation:auto;mix-blend-mode:normal;color-interpolation:sRGB;color-interpolation-filters:linearRGB;solid-color:#000000;solid-opacity:1;fill-opacity:1;fill-rule:nonzero;stroke:none;stroke-width:1;stroke-linecap:butt;stroke-linejoin:miter;stroke-miterlimit:4;stroke-dasharray:none;stroke-dashoffset:0;stroke-opacity:1;color-rendering:auto;image-rendering:auto;shape-rendering:auto;text-rendering:auto;enable-background:accumulate"
     d="m 251.00195,113.25 c -18.99343,-0.11019 -38.33205,1.68027 -56.36133,8.13867 l 0,0.002 -0.002,0 c -10.88567,3.97398 -21.76897,10.52662 -27.26367,21.25196 -4.56088,8.63797 -4.06295,19.08112 -0.4082,27.88281 7.8e-4,0.002 0.001,0.004 0.002,0.006 3.56989,9.67667 12.20295,16.22911 21.03711,20.65625 17.39183,8.711 36.96636,11.0488 55.97266,12.93945 11.00836,1.15508 22.09963,0.19201 32.93554,-1.74804 l 0.0274,-0.004 c 0.006,-0.001 0.0118,-9.1e-4 0.0176,-0.002 8.10641,-0.73256 16.14345,-1.98897 24.21875,-2.76563 l 0.0449,-0.004 0.0449,-0.0137 c 2.4988,-0.71394 5.18556,-0.69947 7.89062,-0.96289 l 0.0371,-0.004 0.0371,-0.008 c 2.8218,-0.71267 5.81668,-0.74557 8.80274,-1.28906 2.24194,0.32597 4.46516,0.65226 6.62304,1.21485 0.99143,0.35625 2.00313,0.68202 3.02539,0.9707 13.69002,4.8382 25.82665,13.53897 35.61914,24.19726 l 0.002,0.002 c 2.87944,3.09564 5.61648,7.41302 10.50976,8.08789 1.84721,0.39709 3.55716,-0.075 5.04297,-0.92383 1.49181,-0.85228 2.78473,-2.07514 3.89258,-3.22852 l 0.004,-0.002 0.002,-0.004 c 10.48616,-11.23731 20.15424,-23.19804 29.58789,-35.30273 l 0.002,-0.004 0.002,-0.002 c 4.92195,-6.48938 10.07481,-12.8914 14.18945,-20.01172 l 0.002,-0.002 c 1.00803,-1.65647 1.6995,-3.72009 1.72461,-5.75391 0.0251,-2.03469 -0.64673,-4.06384 -2.37695,-5.48047 -10.79454,-10.24261 -22.10025,-19.92136 -33.29883,-29.6914 l -0.0156,-0.0137 -0.0176,-0.0117 c -0.76443,-0.55899 -1.56191,-1.30907 -2.48047,-1.89844 -0.90933,-0.58344 -1.97706,-1.00384 -3.20899,-0.8418 -3.302,-0.007 -6.02988,3.08482 -5.61132,6.36719 l -0.004,-0.0644 c -0.0296,12.44091 0.0207,24.88018 0.0508,37.32812 -17.91736,-0.28042 -35.84942,-0.80842 -53.71875,-2.06054 -7.12884,-16.6905 -15.00412,-34.50193 -30.35742,-45.50196 l -0.004,-0.002 C 283.84732,114.9537 266.75427,114.15971 251.0293,113.25 l -0.0137,0 -0.0137,0 z m -0.0312,1 c 0.002,1.1e-4 0.004,-1.1e-4 0.006,0 15.73199,0.91008 32.59371,1.73718 45.65821,11.25391 l 0.002,0.002 0.002,0 c 15.15697,10.85754 22.99392,28.60479 30.15235,45.37109 l 0.11914,0.28125 0.30468,0.0215 c 18.16375,1.28097 36.38355,1.80977 54.57813,2.08984 l 0.50781,0.008 0,-0.50781 c -0.03,-12.62053 -0.0808,-25.23 -0.0508,-37.83789 l 0,-0.0332 -0.004,-0.0312 c -0.33969,-2.66395 1.96898,-5.27484 4.64844,-5.24805 l 0.0371,0.002 0.0391,-0.006 c 0.95217,-0.13416 1.75302,0.17468 2.56446,0.69532 0.80626,0.51731 1.58448,1.24294 2.41406,1.85156 0.005,0.004 0.0103,0.008 0.0156,0.0117 11.20176,9.77245 22.49453,19.43984 33.26172,29.6582 l 0.0117,0.0137 0.0156,0.0117 c 1.46977,1.20338 2.03214,2.8825 2.00976,4.69531 -0.0224,1.81282 -0.65881,3.73488 -1.58008,5.24805 l -0.004,0.004 -0.002,0.006 c -4.06442,7.03572 -9.19118,13.41035 -14.12695,19.91797 -9.42354,12.09158 -19.07107,24.02511 -29.52148,35.2246 -1.08215,1.12663 -2.31978,2.28447 -3.66797,3.05469 -1.34819,0.77023 -2.78125,1.15867 -4.35547,0.81446 l -0.0195,-0.006 -0.0195,-0.002 c -4.37447,-0.59394 -6.95491,-4.58491 -9.93164,-7.78515 -9.88703,-10.76032 -22.14891,-19.5596 -36.01758,-24.46094 l -0.0156,-0.006 -0.0156,-0.004 c -1.01764,-0.28652 -2.02791,-0.61246 -3.01758,-0.96875 l -0.0215,-0.008 -0.0215,-0.006 c -2.25577,-0.58934 -4.54445,-0.92 -6.81445,-1.25 l -0.082,-0.0137 -0.0801,0.0156 c -2.87762,0.5347 -5.90342,0.56353 -8.88672,1.30469 -2.63494,0.25659 -5.38911,0.23004 -8.07031,0.9961 l 0.0898,-0.0176 c -8.12969,0.78189 -16.17954,2.04344 -24.25781,2.77148 l -0.0215,0.002 -0.0215,0.004 c -10.78994,1.93461 -21.80266,2.88749 -32.69922,1.74414 l -0.002,0 c -18.9931,-1.88931 -38.43937,-4.23114 -55.62696,-12.83984 -8.71976,-4.36982 -17.12006,-10.79263 -20.55468,-20.125 l -0.002,-0.01 -0.004,-0.01 c -3.56233,-8.57524 -4.02586,-18.72582 0.36914,-27.04492 l 0.002,-0.002 0.002,-0.004 c 5.3253,-10.39466 15.96248,-16.84156 26.7168,-20.76758 17.86114,-6.3975 37.07178,-8.188 55.98828,-8.08008 z"
     id="path10"
     inkscape:connector-curvature="0" />
  <path
     style="color:#000000;font-style:normal;font-variant:normal;font-weight:normal;font-stretch:normal;font-size:medium;line-height:normal;font-family:sans-serif;text-indent:0;text-align:start;text-decoration:none;text-decoration-line:none;text-decoration-style:solid;text-decoration-color:#000000;letter-spacing:normal;word-spacing:normal;text-transform:none;direction:ltr;block-progression:tb;writing-mode:lr-tb;baseline-shift:baseline;text-anchor:start;white-space:normal;clip-rule:nonzero;display:inline;overflow:visible;visibility:visible;opacity:1;isolation:auto;mix-blend-mode:normal;color-interpolation:sRGB;color-interpolation-filters:linearRGB;solid-color:#000000;solid-opacity:1;fill-opacity:1;fill-rule:nonzero;stroke:none;stroke-width:1;stroke-linecap:butt;stroke-linejoin:miter;stroke-miterlimit:4;stroke-dasharray:none;stroke-dashoffset:0;stroke-opacity:1;color-rendering:auto;image-rendering:auto;shape-rendering:auto;text-rendering:auto;enable-background:accumulate"
     d="m 324.06055,115.47852 c -2.37208,-0.27518 -4.80668,-0.16562 -6.94727,1.4746 -2.18788,1.49503 -3.393,3.69576 -3.93164,6.06836 -0.53923,2.37524 -0.4319,4.93317 -0.0234,7.2461 l 0.0195,0.10742 0.0625,0.0898 c 0.70361,1.01081 1.39205,2.08138 2.25782,3.04102 l 0.01,0.01 0.0117,0.01 c 1.21525,1.19861 2.80817,1.58331 4.24805,2.00586 1.43988,0.42255 2.70994,0.86514 3.54883,2.00586 l 0.0117,0.0156 0.0137,0.0137 c 0.77111,0.89287 1.25648,2.1885 1.89062,3.43359 0.63415,1.24509 1.46906,2.47268 3.00196,3.01172 l 0.0449,0.0156 0.0449,0.008 c 2.42342,0.36784 4.6743,-0.60114 6.79101,-0.70508 l 0.0254,-0.002 0.0254,-0.004 c 0.87827,-0.13476 2.0571,-0.11597 3.16796,-0.36328 1.11087,-0.24731 2.2188,-0.84461 2.6875,-2.15235 l 0,-0.002 0,-0.002 c 1.71695,-4.92466 1.28603,-10.21664 3.58204,-14.6543 l 0.0527,-0.0996 0.004,-0.11133 c 0.04,-1.03987 0.079,-2.06851 0.1289,-3.10547 l 0.006,-0.10742 -0.0391,-0.0996 c -1.12412,-2.84988 -3.36943,-4.42539 -5.90039,-5.25781 -2.53096,-0.83242 -5.36823,-0.96905 -7.86328,-1.0293 l -0.0117,0 -0.0117,0 c -2.15714,0.0477 -4.52908,-0.58534 -6.9082,-0.86132 z m -0.11524,0.99218 c 2.27588,0.26401 4.68207,0.92142 7.04492,0.86914 l -0.0215,0 c 2.47495,0.0598 5.22518,0.20789 7.57422,0.98047 2.32712,0.76538 4.22872,2.11299 5.24219,4.61719 -0.0457,0.96817 -0.0859,1.92841 -0.12305,2.89453 -2.38423,4.72749 -1.97675,10.0326 -3.58399,14.64258 -0.34185,0.94866 -1.01838,1.30188 -1.96093,1.51172 -0.9281,0.20662 -2.05185,0.19673 -3.05078,0.34375 -2.34368,0.11509 -4.49767,1.00051 -6.53907,0.71094 -1.16615,-0.42892 -1.81656,-1.34214 -2.40429,-2.4961 -0.59336,-1.165 -1.08638,-2.53027 -2.01758,-3.61523 -1.05091,-1.4145 -2.59819,-1.92943 -4.05664,-2.35742 -1.46103,-0.42876 -2.84404,-0.79656 -3.81836,-1.75196 -0.76239,-0.848 -1.41161,-1.8386 -2.09766,-2.82812 -0.37697,-2.19062 -0.46745,-4.58575 0.0234,-6.74805 0.49826,-2.19476 1.56787,-4.13582 3.52539,-5.4707 l 0.0117,-0.008 0.0117,-0.01 c 1.8748,-1.44575 3.96435,-1.54917 6.24023,-1.28516 z"
     id="path12"
     inkscape:connector-curvature="0" />
  <path
     style="color:#000000;font-style:normal;font-variant:normal;font-weight:normal;font-stretch:normal;font-size:medium;line-height:normal;font-family:sans-serif;text-indent:0;text-align:start;text-decoration:none;text-decoration-line:none;text-decoration-style:solid;text-decoration-color:#000000;letter-spacing:normal;word-spacing:normal;text-transform:none;direction:ltr;block-progression:tb;writing-mode:lr-tb;baseline-shift:baseline;text-anchor:start;white-space:normal;clip-rule:nonzero;display:inline;overflow:visible;visibility:visible;opacity:1;isolation:auto;mix-blend-mode:normal;color-interpolation:sRGB;color-interpolation-filters:linearRGB;solid-color:#000000;solid-opacity:1;fill-opacity:1;fill-rule:nonzero;stroke:none;stroke-width:1;stroke-linecap:butt;stroke-linejoin:miter;stroke-miterlimit:4;stroke-dasharray:none;stroke-dashoffset:0;stroke-opacity:1;color-rendering:auto;image-rendering:auto;shape-rendering:auto;text-rendering:auto;enable-background:accumulate"
     d="m 164.66602,117.58594 c -1.24108,0.001 -2.47286,0.22402 -3.5625,0.32617 l -0.0156,0.002 -0.0156,0.002 c -7.98671,1.26789 -16.03408,2.21564 -24.10157,2.375 -1.65222,0.0306 -3.62249,0.2105 -4.93945,1.65234 -4.932,4.81396 -9.44135,10.01403 -14.67383,14.41406 -9.6834,7.92606 -19.887363,15.33495 -28.744139,24.32227 l -0.002,0.002 -0.0039,0.004 c -2.801268,2.9487 -6.641952,5.64577 -7.527344,10.19922 l -0.02539,0.12304 0.03711,0.1211 c 0.826586,2.65541 2.307639,4.93796 3.501953,7.28711 l -0.01563,-0.0371 c 4.784055,11.66302 12.663568,21.93578 22.259765,30.0332 l 0.0137,0.0117 0.0137,0.01 c 3.48055,2.5412 7.29948,6.03362 12.21289,5.70118 1.75886,0.0561 3.30359,-0.71486 4.51563,-1.83985 1.21879,-1.13125 2.12874,-2.61646 2.68359,-4.0664 l 0.004,-0.0117 0.004,-0.0117 c 1.59196,-4.88672 2.64841,-10.04784 2.35351,-15.24414 l 0.002,0.0156 c -0.25682,-9.17667 2.54964,-18.27799 7.14844,-26.19922 l 0.004,-0.006 c 8.90391,-14.89313 22.43026,-26.36565 32.36914,-40.73632 l 0.006,-0.01 0.006,-0.01 c 1.34612,-2.14303 1.52149,-4.98013 0.21679,-7.20898 l -0.0469,-0.082 -0.0762,-0.0586 c -1.084,-0.84932 -2.36049,-1.0814 -3.60156,-1.08008 z m 0.002,1 c 1.07835,-0.001 2.04723,0.20469 2.88281,0.81836 1.04174,1.85811 0.91022,4.26322 -0.22266,6.07226 -9.83905,14.22159 -23.38299,25.70763 -32.39648,40.78711 l -0.002,0.002 -0.002,0.004 c -4.67911,8.05736 -7.55021,17.33338 -7.28711,26.73438 l 0,0.008 0,0.006 c 0.28496,5.02103 -0.73805,10.05817 -2.30468,14.86914 -0.50583,1.31521 -1.34744,2.6785 -2.42188,3.67578 -1.07871,1.00124 -2.36725,1.63233 -3.82617,1.57812 l -0.0254,-0.002 -0.0273,0.002 c -4.40566,0.31133 -8.01529,-2.91022 -11.5625,-5.50195 C 97.993632,199.63747 90.21615,189.49272 85.501953,178 l -0.0078,-0.0176 -0.0078,-0.0195 c -1.20336,-2.36694 -2.59996,-4.5694 -3.382812,-7 0.841797,-4.01518 4.358997,-6.56734 7.228515,-9.58789 8.780248,-8.90837 18.951229,-16.29754 28.664059,-24.24805 l 0.004,-0.002 0.002,-0.002 c 5.32017,-4.47378 9.84818,-9.70402 14.74805,-14.48438 l 0.01,-0.0117 0.01,-0.01 c 1.00305,-1.09816 2.63097,-1.29872 4.21875,-1.32813 l 0.002,0 c 8.13252,-0.16064 16.22499,-1.11265 24.23829,-2.38476 1.14088,-0.10872 2.33063,-0.31719 3.43945,-0.31836 z"
     id="path14"
     inkscape:connector-curvature="0" />
  <path
     style="color:#000000;font-style:normal;font-variant:normal;font-weight:normal;font-stretch:normal;font-size:medium;line-height:normal;font-family:sans-serif;text-indent:0;text-align:start;text-decoration:none;text-decoration-line:none;text-decoration-style:solid;text-decoration-color:#000000;letter-spacing:normal;word-spacing:normal;text-transform:none;direction:ltr;block-progression:tb;writing-mode:lr-tb;baseline-shift:baseline;text-anchor:start;white-space:normal;clip-rule:nonzero;display:inline;overflow:visible;visibility:visible;opacity:1;isolation:auto;mix-blend-mode:normal;color-interpolation:sRGB;color-interpolation-filters:linearRGB;solid-color:#000000;solid-opacity:1;fill-opacity:1;fill-rule:nonzero;stroke:none;stroke-width:1;stroke-linecap:butt;stroke-linejoin:miter;stroke-miterlimit:4;stroke-dasharray:none;stroke-dashoffset:0;stroke-opacity:1;color-rendering:auto;image-rendering:auto;shape-rendering:auto;text-rendering:auto;enable-background:accumulate"
     d="m 138.07031,126.34961 -0.20703,0.004 -0.14258,0.14843 c -6.74756,6.99711 -13.89728,13.65472 -20.21289,21.125 -5.93726,7.04862 -11.63196,14.29316 -17.902341,20.99219 l -0.01367,0.0137 -0.01172,0.0137 c -0.303898,0.37771 -0.798941,0.79497 -1.205078,1.32422 -0.406137,0.52926 -0.718056,1.25467 -0.498047,2.07813 l 0.01758,0.0644 0.0332,0.0586 c 3.597946,6.16502 8.493626,11.36472 13.074216,16.67382 l 0.63282,0.73438 0.23046,-0.94141 c 2.09905,-8.54541 5.32467,-16.81752 9.32813,-24.66601 l 0.002,-0.006 c 5.85559,-11.14259 14.13294,-20.91477 23.57422,-29.22071 2.81624,-2.46294 5.37753,-5.19875 8.66602,-6.76562 l 1.54297,-0.73438 -1.69727,-0.21289 c -5.06132,-0.63392 -10.14443,-0.78392 -15.21094,-0.68359 z m 0.2168,1.00195 c 4.50178,-0.0833 9.00208,0.0777 13.47851,0.56055 -2.86306,1.69287 -5.25298,3.98196 -7.65429,6.08203 l -0.002,0 c -9.51722,8.37274 -17.87849,18.23848 -23.80274,29.51367 l 0,0.002 -0.002,0.004 c -3.89457,7.63413 -7.01038,15.68784 -9.13281,24 -4.3974,-5.06475 -8.95124,-10.01902 -12.318364,-15.75781 -0.110839,-0.46313 0.01215,-0.78184 0.314453,-1.17578 0.305024,-0.39749 0.776523,-0.80035 1.167971,-1.2793 l 0.0234,-0.0273 c 6.29949,-6.73317 11.99742,-13.97813 17.9121,-21 l 0,-0.002 c 6.2177,-7.3543 13.28855,-13.955 20.01563,-20.91992 z"
     id="path16"
     inkscape:connector-curvature="0" />
  <path
     style="color:#000000;font-style:normal;font-variant:normal;font-weight:normal;font-stretch:normal;font-size:medium;line-height:normal;font-family:sans-serif;text-indent:0;text-align:start;text-decoration:none;text-decoration-line:none;text-decoration-style:solid;text-decoration-color:#000000;letter-spacing:normal;word-spacing:normal;text-transform:none;direction:ltr;block-progression:tb;writing-mode:lr-tb;baseline-shift:baseline;text-anchor:start;white-space:normal;clip-rule:nonzero;display:inline;overflow:visible;visibility:visible;opacity:1;isolation:auto;mix-blend-mode:normal;color-interpolation:sRGB;color-interpolation-filters:linearRGB;solid-color:#000000;solid-opacity:1;fill-opacity:1;fill-rule:nonzero;stroke:none;stroke-width:1;stroke-linecap:butt;stroke-linejoin:miter;stroke-miterlimit:4;stroke-dasharray:none;stroke-dashoffset:0;stroke-opacity:1;color-rendering:auto;image-rendering:auto;shape-rendering:auto;text-rendering:auto;enable-background:accumulate"
     d="m 255.11133,125.29102 c -19.42457,-0.41074 -39.46815,1.17675 -57.60742,8.8789 l -0.002,0.002 -0.004,0 c -5.75275,2.54448 -11.46419,5.86979 -15.32422,11.09374 -9.2e-4,0.001 -0.001,0.003 -0.002,0.004 -3.43112,4.48799 -3.03745,10.65192 -1.43165,15.64063 2.6e-4,8.6e-4 0.002,0.001 0.002,0.002 1.83486,6.24665 7.54099,10.03223 12.85547,12.82031 l 0.006,0.004 0.006,0.002 c 11.68783,5.75835 24.60217,8.34459 37.375,10.01758 12.76735,1.6749 25.71141,1.90402 38.55078,1.00195 l 0.0234,0 0.0234,-0.004 c 5.75592,-0.94943 11.64749,-0.7631 17.55859,-1.125 l 0.01,0 0.008,-0.002 c 8.84038,-0.8632 17.83459,-0.13613 26.79102,-1.21875 3.02463,-0.17792 6.06067,-0.18571 9.09961,-0.0684 2.30587,0.73938 4.65092,1.37154 6.97851,2.00977 1.25283,0.52072 2.51114,1.00069 3.77539,1.47851 15.64452,6.50346 29.22554,17.49668 39.80665,30.67579 l 0.33984,0.42187 0.39453,-0.37305 c 7.44174,-7.02998 13.89525,-14.96424 21.00391,-22.23242 l 0.008,-0.008 0.006,-0.008 c 7.63503,-8.51446 15.48416,-16.88353 22.58203,-25.90625 l 0.2793,-0.35547 -0.32618,-0.3125 C 408.8807,159.0653 399.29794,150.98939 390.79492,141.9082 l -0.84765,-0.90625 -0.0176,1.24024 c -0.15874,11.59808 -0.18528,23.18403 -0.91602,34.74804 -1.49494,0.94183 -3.19459,1.40779 -4.95703,1.28125 l -0.0176,-0.002 -0.0156,0 c -20.05964,-0.12006 -40.11529,0.34026 -60.1543,0.74024 l -0.0215,0 -0.0234,0.004 c -1.52314,0.16826 -2.95338,-0.56454 -3.49805,-1.98242 l -0.004,-0.0137 -0.006,-0.0137 c -6.74174,-14.89175 -13.05018,-31.26959 -26.55079,-41.72852 -11.03054,-8.54436 -25.50361,-9.04529 -38.63085,-9.98437 l -0.0117,0 -0.0117,0 z m -0.0469,0.99804 c 6.4e-4,5e-5 0.001,-4e-5 0.002,0 13.15221,0.94083 27.37895,1.48015 38.08789,9.77539 13.21147,10.23494 19.48464,26.40341 26.23828,41.32422 0.71533,1.86213 2.6261,2.83089 4.54297,2.61914 l -0.0449,0.002 c 20.02993,-0.3998 40.06446,-0.85948 60.09376,-0.74024 2.05964,0.14787 4.07363,-0.39323 5.79296,-1.54297 l 0.20508,-0.13867 0.0156,-0.24609 c 0.72639,-11.31236 0.76945,-22.62101 0.91601,-33.91992 8.24043,8.67296 17.34348,16.47037 25.94532,24.71093 -6.98754,8.84034 -14.69987,17.09283 -22.24219,25.50391 -7.02495,7.18448 -13.38692,14.94142 -20.60547,21.82031 -10.62414,-13.10208 -24.1849,-24.05393 -39.83984,-30.55859 l -0.008,-0.004 -0.008,-0.002 c -1.26919,-0.47969 -2.52294,-0.95847 -3.76367,-1.47461 l -0.0293,-0.0117 -0.0312,-0.008 c -2.37161,-0.65044 -4.74415,-1.29017 -7.05859,-2.03516 l -0.0664,-0.0195 -0.0684,-0.004 c -3.08408,-0.12055 -6.16956,-0.11077 -9.24805,0.0703 l -0.0156,0.002 -0.0156,0.002 c -8.83324,1.0719 -17.8295,0.34296 -26.79883,1.21875 l 0.0195,-0.002 c -5.84889,0.35809 -11.77803,0.16615 -17.66211,1.13672 l 0.0469,-0.006 c -12.78063,0.89794 -25.65696,0.66705 -38.34961,-0.99805 -12.72284,-1.66644 -25.52362,-4.23841 -37.05273,-9.91601 l -0.006,-0.004 c -0.002,-9.1e-4 -0.004,-0.001 -0.006,-0.002 -5.24123,-2.75085 -10.64684,-6.4053 -12.35156,-12.21289 l -0.002,-0.006 -0.002,-0.006 c -1.55022,-4.80765 -1.87142,-10.63639 1.27149,-14.74414 l 0.002,-0.002 0.004,-0.004 c 3.69988,-5.01149 9.24533,-8.26507 14.92968,-10.7793 17.93099,-7.61183 37.81729,-9.20612 57.16211,-8.79883 z"
     id="path18"
     inkscape:connector-curvature="0" />
  <path
     style="color:#000000;font-style:normal;font-variant:normal;font-weight:normal;font-stretch:normal;font-size:medium;line-height:normal;font-family:sans-serif;text-indent:0;text-align:start;text-decoration:none;text-decoration-line:none;text-decoration-style:solid;text-decoration-color:#000000;letter-spacing:normal;word-spacing:normal;text-transform:none;direction:ltr;block-progression:tb;writing-mode:lr-tb;baseline-shift:baseline;text-anchor:start;white-space:normal;clip-rule:nonzero;display:inline;overflow:visible;visibility:visible;opacity:1;isolation:auto;mix-blend-mode:normal;color-interpolation:sRGB;color-interpolation-filters:linearRGB;solid-color:#000000;solid-opacity:1;fill-opacity:1;fill-rule:nonzero;stroke:none;stroke-width:1;stroke-linecap:butt;stroke-linejoin:miter;stroke-miterlimit:4;stroke-dasharray:none;stroke-dashoffset:0;stroke-opacity:1;color-rendering:auto;image-rendering:auto;shape-rendering:auto;text-rendering:auto;enable-background:accumulate"
     d="m 334.11133,129.55078 -0.56641,0.0508 c -0.45,0.04 -1.34965,0.12004 -1.79101,0.16016 l -0.63086,0.0586 0.20312,0.59961 c 0.56736,1.68216 1.09539,3.38526 1.59375,5.09961 l 0.98047,-0.12305 c 0.06,-1.76987 0.11953,-3.51915 0.18945,-5.27734 l 0.0215,-0.56836 z m -1.04102,1.09766 c -0.0231,0.59659 -0.0431,1.195 -0.0645,1.79101 -0.18165,-0.57858 -0.35272,-1.1614 -0.54297,-1.73633 0.22024,-0.0197 0.38897,-0.0352 0.60742,-0.0547 z"
     id="path20"
     inkscape:connector-curvature="0" />
  <path
     style="color:#000000;font-style:normal;font-variant:normal;font-weight:normal;font-stretch:normal;font-size:medium;line-height:normal;font-family:sans-serif;text-indent:0;text-align:start;text-decoration:none;text-decoration-line:none;text-decoration-style:solid;text-decoration-color:#000000;letter-spacing:normal;word-spacing:normal;text-transform:none;direction:ltr;block-progression:tb;writing-mode:lr-tb;baseline-shift:baseline;text-anchor:start;white-space:normal;clip-rule:nonzero;display:inline;overflow:visible;visibility:visible;opacity:1;isolation:auto;mix-blend-mode:normal;color-interpolation:sRGB;color-interpolation-filters:linearRGB;solid-color:#000000;solid-opacity:1;fill-opacity:1;fill-rule:nonzero;stroke:none;stroke-width:1;stroke-linecap:butt;stroke-linejoin:miter;stroke-miterlimit:4;stroke-dasharray:none;stroke-dashoffset:0;stroke-opacity:1;color-rendering:auto;image-rendering:auto;shape-rendering:auto;text-rendering:auto;enable-background:accumulate"
     d="m 146.19922,235.44531 0.0469,0.008 c -1.80065,-0.42765 -3.44006,0.31843 -4.90039,0.72461 l -0.33593,0.0937 -0.0274,0.34961 c -0.0533,0.66928 -0.1649,1.43527 -0.10547,2.21485 0.0594,0.77958 0.31345,1.59701 0.98828,2.23633 l -0.0488,-0.0547 c 10.52915,13.47892 21.01163,27.01293 31.85742,40.25 l 0.002,0.002 c 0.6271,0.75252 1.33568,1.5972 2.21484,2.21875 0.86932,0.61459 1.94577,0.99276 3.17383,0.77149 1.99683,-0.11052 3.36233,-1.28303 4.48438,-2.58399 1.12844,-1.30838 2.08638,-2.75777 3.29492,-3.63086 l 0.002,-0.002 c 5.41636,-3.96746 12.52096,-4.57092 19.17188,-4.69141 11.64897,0.53807 24.14904,3.51654 32.1914,12.38477 l 0.0137,0.0137 0.0137,0.0137 c 1.4476,1.36873 2.23962,3.43206 3.24609,5.4043 1.00648,1.97224 2.2905,3.88171 4.7793,4.65039 l 0.002,0 0.004,0 c 6.72253,2.01067 13.78721,1.79534 20.52539,2.8457 l 0.0312,0.004 0.0312,0.002 c 9.28425,0.26839 18.64919,1.78218 28.07812,0.68946 13.35105,-0.6525 26.84429,-3.36266 38.79883,-9.62696 2.62652,-1.27902 5.44028,-2.97194 7.58594,-5.20508 2.14936,-2.23699 3.6279,-5.05046 3.4707,-8.45117 l 0,-0.008 0,-0.01 c -0.70681,-8.42113 -3.50157,-17.09262 -9.44531,-23.39257 l -0.008,-0.006 -0.006,-0.008 c -6.47032,-6.31723 -15.62324,-8.37376 -24.16992,-9.4082 l -0.01,-0.002 -0.01,0 c -21.78083,-1.74648 -43.44097,1.87618 -65.08789,1.42773 -14.73651,-0.35821 -29.24631,-3.71295 -44.0664,-4.58789 l -0.0176,-0.002 c -18.59887,-1.73088 -37.30455,-2.08099 -55.76953,-4.63477 z m -0.18555,0.98047 0.0234,0.006 0.0234,0.004 c 18.54919,2.56542 37.27865,2.91487 55.83398,4.64257 l 0.008,0 0.008,0.002 c 14.71376,0.86669 29.23956,4.2282 44.11718,4.58984 l 0.002,0 c 21.7685,0.45121 43.40491,-3.16286 65.01953,-1.43164 8.46716,1.02556 17.36724,3.068 23.57422,9.12305 5.73034,6.07811 8.47426,14.52159 9.16797,22.77539 0.1381,3.08279 -1.17583,5.59749 -3.19336,7.69726 -2.02064,2.10302 -4.74681,3.75565 -7.31641,5.00586 l -0.006,0.004 -0.008,0.004 c -11.78546,6.17569 -25.13386,8.86616 -38.38281,9.51367 l -0.0156,0 -0.0176,0.002 c -9.25403,1.07881 -18.57225,-0.42087 -27.95117,-0.69336 -0.005,-7.9e-4 -0.0105,8e-4 -0.0156,0 -6.84071,-1.05856 -13.8314,-0.86632 -20.32813,-2.80859 -2.1412,-0.66132 -3.21062,-2.24568 -4.18164,-4.14844 -0.97024,-1.90122 -1.77763,-4.0909 -3.44727,-5.67187 -8.31595,-9.14985 -21.09741,-12.14876 -32.875,-12.69141 l -0.0156,0 -0.0156,0 c -6.70294,0.12041 -14.04971,0.69841 -19.76757,4.88672 -1.41962,1.02688 -2.39719,2.55148 -3.46289,3.78711 -1.06656,1.23662 -2.1502,2.1669 -3.80469,2.24804 l -0.0352,0 -0.0351,0.008 c -0.95452,0.18222 -1.71589,-0.089 -2.44922,-0.60742 -0.73334,-0.51845 -1.40054,-1.29354 -2.02344,-2.04102 l 0.004,0.002 c -10.83422,-13.22293 -21.31291,-26.74939 -31.84375,-40.23047 l -0.0234,-0.0293 -0.0254,-0.0254 c -0.46517,-0.44069 -0.63163,-0.95747 -0.67969,-1.58789 -0.0401,-0.52525 0.0323,-1.12468 0.0859,-1.7168 1.42342,-0.41987 2.76095,-0.92399 4.05273,-0.61719 z"
     id="path22"
     inkscape:connector-curvature="0" />
  <path
     style="color:#000000;font-style:normal;font-variant:normal;font-weight:normal;font-stretch:normal;font-size:medium;line-height:normal;font-family:sans-serif;text-indent:0;text-align:start;text-decoration:none;text-decoration-line:none;text-decoration-style:solid;text-decoration-color:#000000;letter-spacing:normal;word-spacing:normal;text-transform:none;direction:ltr;block-progression:tb;writing-mode:lr-tb;baseline-shift:baseline;text-anchor:start;white-space:normal;clip-rule:nonzero;display:inline;overflow:visible;visibility:visible;opacity:1;isolation:auto;mix-blend-mode:normal;color-interpolation:sRGB;color-interpolation-filters:linearRGB;solid-color:#000000;solid-opacity:1;fill-opacity:1;fill-rule:nonzero;stroke:none;stroke-width:1;stroke-linecap:butt;stroke-linejoin:miter;stroke-miterlimit:4;stroke-dasharray:none;stroke-dashoffset:0;stroke-opacity:1;color-rendering:auto;image-rendering:auto;shape-rendering:auto;text-rendering:auto;enable-background:accumulate"
     d="m 151.71875,242.3457 1.07813,1.07813 c 9.13829,9.14828 17.81835,18.74897 26.23242,28.58203 l 0.39453,0.45898 0.37695,-0.47461 c 4.13009,-5.19939 10.15184,-8.72548 16.69727,-9.83593 10.11134,-1.50454 20.53818,6.2e-4 30.13086,3.49609 l 0.002,0 c 10.52952,3.76909 21.2445,8.76912 27.98633,17.92578 l 0.14453,0.19727 0.24414,0.006 c 5.07112,0.14058 10.13738,-0.0384 15.1875,-0.0684 l 0.14844,-0.002 0.6289,-0.41601 c 19.25786,-0.16424 39.2057,-2.98165 56.15235,-12.89063 l 0.43164,-0.2539 -0.25391,-0.43164 c -2.37307,-4.04573 -6.77674,-5.9386 -10.80469,-7.44532 l -0.008,-0.002 -0.006,-0.002 c -9.8194,-3.35346 -20.11769,-5.20124 -30.47461,-5.61524 -16.09406,-1.53803 -32.17147,1.08023 -48.09179,-0.59961 l -0.004,0 c -28.40581,-3.16644 -56.41762,-9.14381 -84.68555,-13.47656 l -1.50781,-0.23047 z m 2.83203,1.46875 c 27.73101,4.30695 55.27825,10.11418 83.25391,13.23243 l 0.002,0 c 16.09841,1.69933 32.18084,-0.92028 48.10547,0.60156 l 0.0137,0 0.0137,0.002 c 10.26911,0.40798 20.47719,2.23792 30.20508,5.55859 3.82218,1.42975 7.72952,3.21009 9.96094,6.59766 -16.66075,9.56915 -36.27614,12.34599 -55.29883,12.49414 l -0.14844,0 -0.62109,0.41016 c -4.94674,0.0322 -9.87937,0.19363 -14.78711,0.0664 -6.94495,-9.28275 -17.77159,-14.30495 -28.2793,-18.0664 -9.7261,-3.54409 -20.31755,-5.07943 -30.625,-3.54492 l -0.004,0 -0.006,0.002 c -6.59746,1.11771 -12.63707,4.62911 -16.91016,9.77539 -7.98548,-9.31751 -16.23412,-18.41183 -24.875,-27.12891 z"
     id="path24"
     inkscape:connector-curvature="0" />
  <path
     style="color:#000000;font-style:normal;font-variant:normal;font-weight:normal;font-stretch:normal;font-size:medium;line-height:normal;font-family:sans-serif;text-indent:0;text-align:start;text-decoration:none;text-decoration-line:none;text-decoration-style:solid;text-decoration-color:#000000;letter-spacing:normal;word-spacing:normal;text-transform:none;direction:ltr;block-progression:tb;writing-mode:lr-tb;baseline-shift:baseline;text-anchor:start;white-space:normal;clip-rule:nonzero;display:inline;overflow:visible;visibility:visible;opacity:1;isolation:auto;mix-blend-mode:normal;color-interpolation:sRGB;color-interpolation-filters:linearRGB;solid-color:#000000;solid-opacity:1;fill-opacity:1;fill-rule:nonzero;stroke:none;stroke-width:1;stroke-linecap:butt;stroke-linejoin:miter;stroke-miterlimit:4;stroke-dasharray:none;stroke-dashoffset:0;stroke-opacity:1;color-rendering:auto;image-rendering:auto;shape-rendering:auto;text-rendering:auto;enable-background:accumulate"
     d="m 303.51758,309.23828 c -0.97887,-0.13489 -1.96894,-0.0819 -2.93946,0.0742 -1.94103,0.31228 -3.83764,1.02561 -5.56445,1.51758 -11.97505,3.41294 -24.57348,3.15993 -37.0039,2.91992 -14.4167,-0.39109 -28.81704,1.71166 -43.04493,-0.15625 l 0.0508,0.01 c -1.99695,-0.47181 -3.86025,0.21008 -5.57031,0.65234 l -0.40039,0.10352 0.0254,0.4121 c 0.0293,0.45264 -0.066,1.01354 -0.10351,1.61914 -0.0375,0.60561 -0.006,1.29052 0.39258,1.91016 l 0.004,0.004 0.002,0.006 c 7.66318,11.29943 16.10133,22.02704 24.42969,32.79492 l 0.002,0.002 0.002,0.004 c 5.17867,6.5279 9.03936,13.98419 13.32812,21.18945 4.5e-4,7.8e-4 0.002,0.001 0.002,0.002 7.4e-4,0.001 0.001,0.003 0.002,0.004 1.43242,2.46033 3.75258,4.80561 6.89844,4.96484 5.57764,0.9708 10.33916,-2.85664 13.53711,-6.77539 12.74589,-15.55499 25.58104,-31.03869 38.625,-46.34179 1.63882,-1.81741 2.81647,-4.38891 3.04492,-6.96485 0.22845,-2.57594 -0.53581,-5.19893 -2.82031,-6.88281 l -0.0117,-0.01 -0.0137,-0.008 c -0.92564,-0.59295 -1.89418,-0.91589 -2.87304,-1.05078 z m -0.14649,0.98438 c 0.84903,0.1155 1.67093,0.3968 2.4668,0.90429 1.96264,1.45621 2.60832,3.65203 2.40234,5.97461 -0.20655,2.32906 -1.30983,4.74023 -2.79101,6.38282 l -0.006,0.006 -0.004,0.006 c -13.05297,15.31349 -25.89528,30.80573 -38.64648,46.36719 -3.09701,3.79507 -7.56426,7.31629 -12.61524,6.42383 l -0.0332,-0.006 -0.0332,0 c -2.69044,-0.11937 -4.77759,-2.17573 -6.11914,-4.48242 l -0.002,-0.002 0,-0.002 c -4.2686,-7.17086 -8.14665,-14.67187 -13.40429,-21.30078 l -0.004,-0.006 c -8.32769,-10.76695 -16.7472,-21.47366 -24.38086,-32.72851 -0.23166,-0.36036 -0.26881,-0.78225 -0.23633,-1.30665 0.0245,-0.39476 0.0623,-0.85625 0.0781,-1.31445 1.63983,-0.43752 3.20934,-0.92465 4.74219,-0.5625 l 0.0254,0.006 0.0234,0.004 c 14.41083,1.89192 28.85035,-0.22436 43.15235,0.16406 l 0.002,0 0.002,0 c 12.42958,0.23999 25.13193,0.50808 37.29688,-2.95898 1.7832,-0.50804 3.64525,-1.20001 5.44922,-1.49024 0.90198,-0.14511 1.78175,-0.19417 2.63476,-0.0781 z"
     id="path26"
     inkscape:connector-curvature="0" />
  <path
     style="color:#000000;font-style:normal;font-variant:normal;font-weight:normal;font-stretch:normal;font-size:medium;line-height:normal;font-family:sans-serif;text-indent:0;text-align:start;text-decoration:none;text-decoration-line:none;text-decoration-style:solid;text-decoration-color:#000000;letter-spacing:normal;word-spacing:normal;text-transform:none;direction:ltr;block-progression:tb;writing-mode:lr-tb;baseline-shift:baseline;text-anchor:start;white-space:normal;clip-rule:nonzero;display:inline;overflow:visible;visibility:visible;opacity:1;isolation:auto;mix-blend-mode:normal;color-interpolation:sRGB;color-interpolation-filters:linearRGB;solid-color:#000000;solid-opacity:1;fill-opacity:1;fill-rule:nonzero;stroke:none;stroke-width:1;stroke-linecap:butt;stroke-linejoin:miter;stroke-miterlimit:4;stroke-dasharray:none;stroke-dashoffset:0;stroke-opacity:1;color-rendering:auto;image-rendering:auto;shape-rendering:auto;text-rendering:auto;enable-background:accumulate"
     d="m 221.70508,320.87891 -0.38086,0.90039 c 1.34219,0.93755 2.61747,1.95927 3.75976,3.12109 11.27458,11.4537 19.65214,25.41796 30.63868,37.31836 l 0.38476,0.41602 0.36524,-0.43165 c 9.96603,-11.79714 19.59474,-23.86742 29.58789,-35.60937 l 0.6875,-0.80859 -1.06055,-0.0156 c -11.25434,-0.17037 -22.50211,0.47775 -33.66406,-0.49805 l -0.008,0 -0.01,0 c -10.185,-0.53762 -20.26177,-2.45277 -30.30078,-4.39257 z m 1.68164,1.32031 c 9.42406,1.81253 18.91523,3.55834 28.54883,4.06836 10.9037,0.95322 21.81883,0.3893 32.67578,0.50586 -9.63033,11.34872 -18.93737,22.96416 -28.52539,34.33008 -10.70538,-11.70963 -19.03926,-25.47577 -30.28906,-36.9043 -0.73995,-0.75259 -1.5907,-1.35423 -2.41016,-2 z"
     id="path28"
     inkscape:connector-curvature="0" />
</svg>
