<?xml version="1.0" encoding="UTF-8" standalone="no"?>
<svg
   xmlns:dc="http://purl.org/dc/elements/1.1/"
   xmlns:cc="http://creativecommons.org/ns#"
   xmlns:rdf="http://www.w3.org/1999/02/22-rdf-syntax-ns#"
   xmlns:svg="http://www.w3.org/2000/svg"
   xmlns="http://www.w3.org/2000/svg"
   xmlns:sodipodi="http://sodipodi.sourceforge.net/DTD/sodipodi-0.dtd"
   xmlns:inkscape="http://www.inkscape.org/namespaces/inkscape"
   width="1154pt"
   height="866pt"
   viewBox="0 0 1154 866"
   version="1.1"
   id="svg2"
   inkscape:version="0.91 r13725"
   sodipodi:docname="Superman_shield.svg">
  <metadata
     id="metadata34">
    <rdf:RDF>
      <cc:Work
         rdf:about="">
        <dc:format>image/svg+xml</dc:format>
        <dc:type
           rdf:resource="http://purl.org/dc/dcmitype/StillImage" />
      </cc:Work>
    </rdf:RDF>
  </metadata>
  <defs
     id="defs32" />
  <sodipodi:namedview
     pagecolor="#ffffff"
     bordercolor="#666666"
     borderopacity="1"
     objecttolerance="10"
     gridtolerance="10"
     guidetolerance="10"
     inkscape:pageopacity="0"
     inkscape:pageshadow="2"
     inkscape:window-width="1114"
     inkscape:window-height="722"
     id="namedview30"
     showgrid="false"
     inkscape:zoom="0.19410745"
     inkscape:cx="-30.910726"
     inkscape:cy="541.24999"
     inkscape:window-x="0"
     inkscape:window-y="0"
     inkscape:window-maximized="0"
     inkscape:current-layer="svg2" />
  <path
     style="color:#000000;font-style:normal;font-variant:normal;font-weight:normal;font-stretch:normal;font-size:medium;line-height:normal;font-family:sans-serif;text-indent:0;text-align:start;text-decoration:none;text-decoration-line:none;text-decoration-style:solid;text-decoration-color:#000000;letter-spacing:normal;word-spacing:normal;text-transform:none;direction:ltr;block-progression:tb;writing-mode:lr-tb;baseline-shift:baseline;text-anchor:start;white-space:normal;clip-rule:nonzero;display:inline;overflow:visible;visibility:visible;opacity:1;isolation:auto;mix-blend-mode:normal;color-interpolation:sRGB;color-interpolation-filters:linearRGB;solid-color:#000000;solid-opacity:1;fill-opacity:1;fill-rule:nonzero;stroke:#000000;stroke-width:2.83464567;stroke-linecap:butt;stroke-linejoin:miter;stroke-miterlimit:4;stroke-dasharray:none;stroke-dashoffset:0;stroke-opacity:1;color-rendering:auto;image-rendering:auto;shape-rendering:auto;text-rendering:auto;enable-background:accumulate"
     d="m 218.93164,18.679688 -0.0293,0.0039 c -0.56431,0.06562 -1.28526,-0.0062 -2.02929,0.03711 -0.74403,0.04329 -1.55943,0.230802 -2.16993,0.890625 l 0.0195,-0.02148 C 151.1321,80.77038 87.693526,142.08918 24.074219,203.22852 l -0.148438,0.14257 -0.0059,0.20508 c -0.0103,0.35008 -0.01959,1.03922 -0.0293,1.36914 l -0.0059,0.19531 0.128906,0.14844 c 28.677084,32.91666 56.915628,66.21541 85.437498,99.26758 154.57012,180.06014 309.22968,360.02955 463.76953,540.10938 l -0.043,-0.0566 c 0.26261,0.41173 0.68346,0.67366 1.09766,0.66601 0.4142,-0.008 0.73951,-0.20939 1.02149,-0.42969 0.56394,-0.44058 1.04865,-1.07604 1.26757,-1.27343 l 0.0234,-0.0215 0.0215,-0.0254 C 754.3193,636.51548 932.10003,429.56623 1109.8301,222.57617 l 0,-0.006 0.01,-0.006 c 4.9058,-6.07001 10.5723,-11.63461 15.2051,-18.00976 l 0.2051,-0.28321 -0.1953,-0.29101 c -2.5392,-3.77782 -6.5373,-6.32561 -9.4551,-9.53711 l -0.01,-0.0117 -0.014,-0.0117 C 1075.0161,155.30989 1034.4574,116.2108 993.86719,77.140625 l 0,-0.002 -0.002,0 C 973.64815,57.751471 953.64803,38.10057 933.23242,18.945312 l -0.14453,-0.134765 -0.19727,0 c -86.62184,-0.260006 -173.26197,-0.04133 -259.88085,-0.111328 -151.35009,-0.01 -302.69899,0.02047 -454.04883,-0.01953 l -0.0293,0 z m 0.0859,0.996093 -0.0586,0.0039 c 151.35016,0.04 302.70087,0.0095 454.05079,0.01953 86.55536,0.06995 173.1292,-0.147742 259.68164,0.111328 20.35453,19.102097 40.30704,38.703569 60.48242,58.050781 l 0,-0.002 c 40.58977,39.069825 81.14897,78.171275 121.70897,117.281245 2.9556,3.24456 6.7067,5.75284 9.0977,9.13672 -4.5249,6.15263 -10.0508,11.63352 -14.92,17.65821 -177.71937,206.97767 -355.48791,413.91625 -533.18745,620.91406 -0.38538,0.3537 -0.80232,0.90501 -1.19141,1.20898 -0.19803,0.15471 -0.36428,0.2157 -0.42383,0.2168 -0.0595,0.001 -0.0939,0.0182 -0.23633,-0.20508 l -0.0195,-0.0293 -0.0234,-0.0273 C 419.43837,663.9335 264.77887,483.96416 110.20898,303.9043 81.733384,270.90575 53.533358,237.65467 24.894531,204.7793 c 0.0073,-0.30748 0.01453,-0.67384 0.02148,-0.97266 C 88.486294,142.71387 151.87668,81.441803 215.41602,20.310547 l 0.0117,-0.0098 0.01,-0.01172 c 0.37951,-0.410177 0.86317,-0.533601 1.49414,-0.570312 0.63097,-0.03671 1.36025,0.04141 2.08594,-0.04297 z"
     id="path6"
     inkscape:connector-curvature="0" />
  <path
     style="color:#000000;font-style:normal;font-variant:normal;font-weight:normal;font-stretch:normal;font-size:medium;line-height:normal;font-family:sans-serif;text-indent:0;text-align:start;text-decoration:none;text-decoration-line:none;text-decoration-style:solid;text-decoration-color:#000000;letter-spacing:normal;word-spacing:normal;text-transform:none;direction:ltr;block-progression:tb;writing-mode:lr-tb;baseline-shift:baseline;text-anchor:start;white-space:normal;clip-rule:nonzero;display:inline;overflow:visible;visibility:visible;opacity:1;isolation:auto;mix-blend-mode:normal;color-interpolation:sRGB;color-interpolation-filters:linearRGB;solid-color:#000000;solid-opacity:1;fill-opacity:1;fill-rule:nonzero;stroke:#000000;stroke-width:2.83464567;stroke-linecap:butt;stroke-linejoin:miter;stroke-miterlimit:4;stroke-dasharray:none;stroke-dashoffset:0;stroke-opacity:1;color-rendering:auto;image-rendering:auto;shape-rendering:auto;text-rendering:auto;enable-background:accumulate"
     d="m 230.67383,41.746094 c -1.79486,-0.01634 -3.60215,0.02766 -5.40821,0.298828 l -0.0996,0.01563 -0.0879,0.05273 c -3.30483,2.024209 -5.64927,5.108005 -8.35351,7.566407 l -0.006,0.0059 -0.006,0.0039 C 165.31346,99.298903 113.79238,148.78898 62.431641,198.42969 c -2.213986,2.11473 -4.715379,4.0493 -6.675782,6.57422 l -0.134765,0.17187 0.03516,0.21289 c 0.155195,0.96443 0.585112,1.83378 1.253906,2.56836 73.786574,85.86603 147.544084,171.7833 221.300784,257.68945 98.68954,114.77947 197.129,229.7589 295.92968,344.42969 l 0.38086,0.44141 0.37696,-0.44141 C 747.72833,608.71629 920.6497,407.44532 1093.5098,206.11523 l 0.3007,-0.35156 -0.3261,-0.32617 c -15.1387,-15.16865 -30.8205,-29.76999 -46.1348,-44.73438 l -0,-0.002 -0,-0.002 C 1006.2164,121.14993 965.2173,81.479843 924.06641,41.958984 l -0.14453,-0.138672 -0.20118,0 c -229.24006,-0.02 -458.47121,2.35e-4 -687.70117,-0.0098 l -0.004,0 -0.004,0 c -1.76032,0.02967 -3.54303,-0.04811 -5.33789,-0.06445 z m -0.01,1.003906 c 1.76942,0.01613 3.5591,0.09045 5.35547,0.06055 229.16299,0.01 458.32712,-0.0102 687.5,0.0098 41.09994,39.472616 82.05277,79.095818 123.13477,118.599608 15.2147,14.86704 30.7713,29.36667 45.791,44.40039 C 919.81329,406.88463 747.12183,607.888 574.51953,808.98242 475.8477,694.45932 377.53278,579.62763 278.96875,464.99414 205.20876,379.08416 131.45026,293.16505 57.660156,207.29492 l -0.0059,-0.006 -0.0039,-0.006 c -0.50129,-0.55059 -0.766633,-1.17866 -0.914063,-1.86718 1.836741,-2.29314 4.192255,-4.16531 6.388672,-6.26368 l 0.002,-0.002 C 114.48257,149.51463 165.99955,100.02693 217.39648,50.419922 l 0.0117,-0.0098 c 2.76552,-2.516535 5.06791,-5.484856 8.11719,-7.380859 1.68863,-0.244376 3.40362,-0.295114 5.13867,-0.279297 z"
     id="path8"
     inkscape:connector-curvature="0" />
  <path
     style="color:#000000;font-style:normal;font-variant:normal;font-weight:normal;font-stretch:normal;font-size:medium;line-height:normal;font-family:sans-serif;text-indent:0;text-align:start;text-decoration:none;text-decoration-line:none;text-decoration-style:solid;text-decoration-color:#000000;letter-spacing:normal;word-spacing:normal;text-transform:none;direction:ltr;block-progression:tb;writing-mode:lr-tb;baseline-shift:baseline;text-anchor:start;white-space:normal;clip-rule:nonzero;display:inline;overflow:visible;visibility:visible;opacity:1;isolation:auto;mix-blend-mode:normal;color-interpolation:sRGB;color-interpolation-filters:linearRGB;solid-color:#000000;solid-opacity:1;fill-opacity:1;fill-rule:nonzero;stroke:#000000;stroke-width:2.83464567;stroke-linecap:butt;stroke-linejoin:miter;stroke-miterlimit:4;stroke-dasharray:none;stroke-dashoffset:0;stroke-opacity:1;color-rendering:auto;image-rendering:auto;shape-rendering:auto;text-rendering:auto;enable-background:accumulate"
     d="m 250,75.210938 c -2.34305,0 -4.74052,-0.12488 -7.14844,0.255859 l -0.0879,0.01367 -0.0762,0.04297 c -3.64899,2.031825 -6.08688,5.465204 -9.00977,8.074218 l -0.008,0.0059 -0.008,0.0078 C 193.33132,122.58243 152.88973,161.46425 112.8457,200.74805 c -0.001,9.3e-4 -8.5e-4,0.003 -0.002,0.004 -4.60082,3.90325 -5.91531,11.32717 -1.69531,16.03125 24.88671,29.44614 49.73331,58.93382 74.76172,88.25196 l 0.61914,0.72461 0.24414,-0.92188 c 4.37221,-16.52838 8.31987,-33.1838 14.12695,-49.24805 l 0,-0.002 0.002,-0.002 C 222.73139,193.77359 261.77891,138.108 312.68555,96.767578 l 0.002,-0.002 c 8.34667,-6.869029 17.07304,-13.322934 25.18555,-20.542969 l 0.96875,-0.861328 -1.29688,-0.01172 c -29.18605,-0.260054 -58.36776,0.0113 -87.54297,-0.138671 l -0.002,0 z m -0.002,1 c 28.72637,0.147668 57.44625,-0.102989 86.16211,0.136718 -7.77902,6.821334 -16.08581,13.044967 -24.10743,19.646485 -51.05232,41.459399 -90.2031,97.272979 -112.09375,159.259769 -5.72316,15.83293 -9.63686,32.19261 -13.9082,48.40039 -24.81849,-29.07846 -49.46417,-58.32078 -74.14844,-87.52735 l -0.006,-0.006 -0.004,-0.006 c -3.799,-4.23479 -2.59495,-11.04601 1.60156,-14.60351 l 0.0137,-0.0117 0.0117,-0.0137 c 40.043,-39.28314 80.48823,-78.1665 120.82422,-117.14258 3.01507,-2.691307 5.41145,-5.999148 8.76367,-7.894531 2.24106,-0.340831 4.54823,-0.238345 6.89063,-0.238281 z"
     id="path10"
     inkscape:connector-curvature="0" />
  <path
     style="color:#000000;font-style:normal;font-variant:normal;font-weight:normal;font-stretch:normal;font-size:medium;line-height:normal;font-family:sans-serif;text-indent:0;text-align:start;text-decoration:none;text-decoration-line:none;text-decoration-style:solid;text-decoration-color:#000000;letter-spacing:normal;word-spacing:normal;text-transform:none;direction:ltr;block-progression:tb;writing-mode:lr-tb;baseline-shift:baseline;text-anchor:start;white-space:normal;clip-rule:nonzero;display:inline;overflow:visible;visibility:visible;opacity:1;isolation:auto;mix-blend-mode:normal;color-interpolation:sRGB;color-interpolation-filters:linearRGB;solid-color:#000000;solid-opacity:1;fill-opacity:1;fill-rule:nonzero;stroke:#000000;stroke-width:2.83464567;stroke-linecap:butt;stroke-linejoin:miter;stroke-miterlimit:4;stroke-dasharray:none;stroke-dashoffset:0;stroke-opacity:1;color-rendering:auto;image-rendering:auto;shape-rendering:auto;text-rendering:auto;enable-background:accumulate"
     d="m 774.05664,75.226562 c -16.90196,-0.02125 -33.80447,-0.0067 -50.70312,0.19336 l -1.61329,0.01953 1.3418,0.896485 c 6.23218,4.161484 12.88981,7.564107 19.28125,11.373046 6.89693,4.116073 14.17217,7.587629 20.33008,12.636716 l 0.002,0.002 0.002,0.002 c 8.07215,6.48762 15.43324,13.82705 22.33007,21.57227 5.24583,5.95164 9.56868,12.67806 14.3418,19.0957 l 0.36328,0.49023 0.4082,-0.45312 c 5.1908,-5.74766 11.14168,-10.94993 15.48047,-17.57031 5.79112,-8.40419 9.28052,-18.32556 10.16797,-28.470708 l -0.002,0 c 0.57535,-6.470174 -0.0297,-12.917782 -0.5293,-19.302734 l -0.0351,-0.462891 -0.46485,0.002 c -16.89778,0.05499 -33.7992,-0.0022 -50.70117,-0.02344 z m -0.002,1 c 16.7443,0.02105 33.49229,0.07589 50.23828,0.02344 0.49208,6.241138 1.04912,12.478604 0.49805,18.675781 -0.87256,9.974859 -4.30331,19.734419 -9.99219,27.990239 l -0.004,0.006 -0.004,0.004 c -4.1288,6.30388 -9.82641,11.38687 -14.9668,17.01172 -4.60901,-6.24001 -8.86784,-12.80006 -14.04883,-18.67773 l -0.002,-0.002 C 778.8515,113.4844 771.45232,106.10574 763.32617,99.574219 l -0.004,-0.0039 c -6.28115,-5.148999 -13.60379,-8.635742 -20.44532,-12.71875 l 0,-0.002 -0.002,0 c -5.92276,-3.529632 -11.99288,-6.739126 -17.74023,-10.435547 16.30211,-0.180688 32.60937,-0.208007 48.91992,-0.1875 z"
     id="path12"
     inkscape:connector-curvature="0" />
  <path
     style="color:#000000;font-style:normal;font-variant:normal;font-weight:normal;font-stretch:normal;font-size:medium;line-height:normal;font-family:sans-serif;text-indent:0;text-align:start;text-decoration:none;text-decoration-line:none;text-decoration-style:solid;text-decoration-color:#000000;letter-spacing:normal;word-spacing:normal;text-transform:none;direction:ltr;block-progression:tb;writing-mode:lr-tb;baseline-shift:baseline;text-anchor:start;white-space:normal;clip-rule:nonzero;display:inline;overflow:visible;visibility:visible;opacity:1;isolation:auto;mix-blend-mode:normal;color-interpolation:sRGB;color-interpolation-filters:linearRGB;solid-color:#000000;solid-opacity:1;fill-opacity:1;fill-rule:nonzero;stroke:#000000;stroke-width:2.83464567;stroke-linecap:butt;stroke-linejoin:miter;stroke-miterlimit:4;stroke-dasharray:none;stroke-dashoffset:0;stroke-opacity:1;color-rendering:auto;image-rendering:auto;shape-rendering:auto;text-rendering:auto;enable-background:accumulate"
     d="m 554.04883,76.980469 c -17.42678,0.09385 -34.85373,1.129859 -52.17578,2.791015 l -0.004,0.002 -0.002,0 c -31.20443,3.362632 -62.57457,9.068081 -91.62305,21.447262 -15.76924,6.71672 -30.89886,15.69672 -42.72266,28.3125 -6.3e-4,6.6e-4 -0.001,0.001 -0.002,0.002 -0.001,0.001 -0.003,0.003 -0.004,0.004 -9.8382,10.17244 -16.7708,23.16618 -19.3125,37.11914 -1.92486,8.36458 -2.22343,17.26517 0.43165,25.55469 4.20662,13.92502 14.65236,24.98972 26.45507,32.91211 16.56709,11.16194 35.82598,17.42566 55.03125,22.0918 l 0.004,0 0.004,0 c 48.14758,10.9053 97.85053,11.64296 146.93359,10.47265 l 0.008,0 0.008,0 c 25.59351,-1.42908 51.24784,-1.58836 76.86329,-0.6289 47.9261,1.84907 96.20785,7.1555 141.92187,22.17383 33.27626,11.02219 65.81611,28.07684 88.45117,55.40429 l 0.004,0.004 0.002,0.002 c 9.5157,11.12651 16.0104,24.37548 22.47071,37.49609 l 0.33984,0.6875 0.49219,-0.58593 c 45.51034,-54.22041 90.93057,-108.51131 136.30075,-162.85157 l 0.295,-0.35351 -0.3282,-0.32422 C 1006.7614,172.12368 969.7519,135.40525 932.62109,98.814453 l -0.84765,-0.835937 -0.004,1.189453 c -0.11947,36.886131 -4.6e-4,73.769951 -0.0586,110.652341 -53.10923,-0.01 -106.2183,0.0477 -159.32617,-0.041 -2.41743,-22.75354 -11.1232,-44.84791 -25.16016,-62.94532 -10.66143,-13.73336 -24.04722,-25.23217 -38.8125,-34.33007 l -0.002,0 C 677.53652,93.612732 641.82616,84.239361 606.2207,79.84375 588.90174,77.735834 571.47561,76.886624 554.04883,76.980469 Z m 0.006,1 c 17.39072,-0.09365 34.77388,0.753385 52.04492,2.855469 35.51455,4.384388 71.0827,13.732659 101.78906,32.521482 l 0,-0.002 c 14.67472,9.0421 27.9683,20.46516 38.54688,34.0918 14.01027,18.06299 22.68706,40.15535 25.01757,62.88281 l 0.0449,0.44922 0.45117,0 c 53.42093,0.09 106.8402,0.031 160.25976,0.041 l 0.5,0 0.002,-0.5 c 0.0594,-36.65446 -0.0551,-73.30627 0.0586,-109.95703 36.7346,36.20407 73.35447,72.53385 110.09177,108.73828 -45.11139,54.02982 -90.27182,108.00887 -135.52146,161.91992 -6.34949,-12.8958 -12.79976,-25.96252 -22.2539,-37.01953 l -0.006,-0.008 C 862.27541,306.466 829.55844,289.34195 796.17773,278.28516 l -0.002,0 C 750.3298,263.22348 701.95241,257.91147 653.97852,256.06055 628.33396,255.1 602.64798,255.26049 577.02148,256.69141 l 0.0156,-0.002 c -49.05427,1.16963 -98.66971,0.42768 -146.67969,-10.44531 l -0.008,-0.002 c -19.15212,-4.65366 -38.29049,-10.89071 -54.70117,-21.94727 -11.6744,-7.83597 -21.94567,-18.74836 -26.06055,-32.3789 l 0,-0.004 -0.002,-0.004 c -2.58492,-8.07047 -2.30335,-16.78996 -0.40821,-25.02539 l 0.002,-0.0117 0.002,-0.0117 c 2.50109,-13.756 9.34501,-26.58952 19.05859,-36.63086 l 0.002,-0.004 0.002,-0.002 c 11.69537,-12.48103 26.70435,-21.39983 42.39258,-28.08204 28.90973,-12.320051 60.17641,-18.015593 91.33008,-21.373042 17.29794,-1.658844 34.69717,-2.693454 52.08789,-2.787109 z"
     id="path14"
     inkscape:connector-curvature="0" />
  <path
     style="color:#000000;font-style:normal;font-variant:normal;font-weight:normal;font-stretch:normal;font-size:medium;line-height:normal;font-family:sans-serif;text-indent:0;text-align:start;text-decoration:none;text-decoration-line:none;text-decoration-style:solid;text-decoration-color:#000000;letter-spacing:normal;word-spacing:normal;text-transform:none;direction:ltr;block-progression:tb;writing-mode:lr-tb;baseline-shift:baseline;text-anchor:start;white-space:normal;clip-rule:nonzero;display:inline;overflow:visible;visibility:visible;opacity:1;isolation:auto;mix-blend-mode:normal;color-interpolation:sRGB;color-interpolation-filters:linearRGB;solid-color:#000000;solid-opacity:1;fill-opacity:1;fill-rule:nonzero;stroke:#000000;stroke-width:2.83464567;stroke-linecap:butt;stroke-linejoin:miter;stroke-miterlimit:4;stroke-dasharray:none;stroke-dashoffset:0;stroke-opacity:1;color-rendering:auto;image-rendering:auto;shape-rendering:auto;text-rendering:auto;enable-background:accumulate"
     d="m 250.34766,95.929688 -0.14649,0.140624 C 211.10254,134.01899 171.79213,171.73956 132.83984,209.8418 l -0.32812,0.32226 0.29297,0.35547 c 14.02536,16.93648 28.47529,33.51584 42.5,50.43945 l 0.13086,0.15821 0.20312,0.0195 c 0.39086,0.0401 1.18118,0.12024 1.57031,0.16016 l 0.47461,0.0488 0.0703,-0.47265 c 0.10486,-0.70543 0.30556,-2.05404 0.41992,-2.83203 l 0.44336,-0.53711 0.0293,-0.0899 c 19.79303,-61.09675 55.59674,-116.90517 102.6836,-160.556638 l 0.91015,-0.845703 -1.24218,-0.02148 c -10.15919,-0.180163 -20.31185,-0.08054 -30.44922,-0.06055 l -0.20117,0 z m 0.40625,1 c 9.6733,-0.02008 19.34953,-0.09233 29.02148,0.05859 C 233.03191,140.6083 197.45743,196.17355 177.73047,257.00781 l -0.50586,0.61133 -0.0195,0.13867 c -0.0923,0.62952 -0.25189,1.70708 -0.36914,2.4961 -0.31842,-0.0324 -0.62185,-0.062 -0.89453,-0.0899 -13.89597,-16.763 -28.19135,-33.18195 -42.07032,-49.92968 38.79144,-37.94079 77.93987,-75.50819 116.88282,-113.304692 z"
     id="path16"
     inkscape:connector-curvature="0" />
  <path
     style="color:#000000;font-style:normal;font-variant:normal;font-weight:normal;font-stretch:normal;font-size:medium;line-height:normal;font-family:sans-serif;text-indent:0;text-align:start;text-decoration:none;text-decoration-line:none;text-decoration-style:solid;text-decoration-color:#000000;letter-spacing:normal;word-spacing:normal;text-transform:none;direction:ltr;block-progression:tb;writing-mode:lr-tb;baseline-shift:baseline;text-anchor:start;white-space:normal;clip-rule:nonzero;display:inline;overflow:visible;visibility:visible;opacity:1;isolation:auto;mix-blend-mode:normal;color-interpolation:sRGB;color-interpolation-filters:linearRGB;solid-color:#000000;solid-opacity:1;fill-opacity:1;fill-rule:nonzero;stroke:#000000;stroke-width:2.83464567;stroke-linecap:butt;stroke-linejoin:miter;stroke-miterlimit:4;stroke-dasharray:none;stroke-dashoffset:0;stroke-opacity:1;color-rendering:auto;image-rendering:auto;shape-rendering:auto;text-rendering:auto;enable-background:accumulate"
     d="m 804.56641,95.949219 c -4.88274,-0.07004 -9.76894,-0.09932 -14.64063,0.04102 l -1.15234,0.0332 0.8125,0.818359 c 3.67015,3.700073 7.1885,7.561033 10.88867,11.281253 l 0.53906,0.54101 0.28125,-0.71094 c 1.46594,-3.71505 2.75372,-7.50447 3.75,-11.378901 l 0.1582,-0.615235 -0.63671,-0.0098 z m -0.69532,1.001953 c -0.8908,3.348538 -2.00215,6.636718 -3.25586,9.876948 -3.19721,-3.24229 -6.30286,-6.57892 -9.50195,-9.841792 4.24054,-0.09926 8.49566,-0.09278 12.75781,-0.03516 z"
     id="path18"
     inkscape:connector-curvature="0" />
  <path
     style="color:#000000;font-style:normal;font-variant:normal;font-weight:normal;font-stretch:normal;font-size:medium;line-height:normal;font-family:sans-serif;text-indent:0;text-align:start;text-decoration:none;text-decoration-line:none;text-decoration-style:solid;text-decoration-color:#000000;letter-spacing:normal;word-spacing:normal;text-transform:none;direction:ltr;block-progression:tb;writing-mode:lr-tb;baseline-shift:baseline;text-anchor:start;white-space:normal;clip-rule:nonzero;display:inline;overflow:visible;visibility:visible;opacity:1;isolation:auto;mix-blend-mode:normal;color-interpolation:sRGB;color-interpolation-filters:linearRGB;solid-color:#000000;solid-opacity:1;fill-opacity:1;fill-rule:nonzero;stroke:#000000;stroke-width:2.83464567;stroke-linecap:butt;stroke-linejoin:miter;stroke-miterlimit:4;stroke-dasharray:none;stroke-dashoffset:0;stroke-opacity:1;color-rendering:auto;image-rendering:auto;shape-rendering:auto;text-rendering:auto;enable-background:accumulate"
     d="m 553.99219,97.660156 c -21.04677,0.09005 -42.09029,1.264952 -62.95899,4.103514 -26.52616,3.50356 -53.10625,9.20239 -77.5625,20.46289 l -0.004,0 -0.004,0.002 c -11.08737,5.32314 -21.9329,11.77099 -30.45703,20.85937 -5.98726,5.99045 -10.6986,13.36336 -13.16406,21.51758 l -0.002,0.004 0,0.004 c -2.30569,8.14009 -4.3138,17.36614 -0.0762,25.46094 6.6e-4,0.001 0.001,0.003 0.002,0.004 6.9e-4,0.001 0.001,0.003 0.002,0.004 6.93134,13.84465 21.23411,21.64473 34.7207,27.56641 l 0.008,0.002 0.006,0.002 c 18.71175,7.62108 38.61109,12.02908 58.5586,14.71289 45.0354,6.38644 90.70224,5.91496 136,3.79493 42.36197,-0.85964 84.87432,0.57062 126.84961,6.42578 l 0.002,0 c 25.71663,3.52679 51.23588,8.88124 75.90039,17.01953 l 0.002,0 c 11.42956,3.7433 22.63003,8.20519 33.52149,13.31641 29.35608,13.83986 56.34007,34.16955 74.3164,61.46289 l -0.041,-0.0742 c 0.18368,0.41984 0.50833,0.72851 0.88086,0.84961 0.37252,0.12109 0.74799,0.0698 1.08008,-0.0508 0.66417,-0.24109 1.2219,-0.73639 1.52734,-1.30079 l -0.0547,0.082 c 34.26875,-41.10849 68.78862,-82.02922 102.99028,-123.20117 l 0.2949,-0.35547 -0.3301,-0.32226 c -21.07599,-20.58609 -41.80691,-41.52528 -62.88086,-62.11914 l -0.8457,-0.82617 -0.004,1.18164 c -0.0795,27.32581 -0.0104,54.64978 -0.0391,81.98242 -66.3551,0.01 -132.72093,5e-5 -199.07617,0 -0.15835,-20.84203 -4.01083,-42.17804 -15.00782,-60.24024 -9.85117,-16.83354 -24.62172,-30.34545 -41.16601,-40.39843 l 0,0.002 C 677.94078,117.98736 656.67836,110.50108 635.05078,105.5625 l -0.002,0 -0.002,0 c -19.7297,-4.32651 -39.83938,-6.851214 -60.00782,-7.652344 l -0.002,0 -0.004,0 c -7.00973,-0.190128 -14.02542,-0.280015 -21.04101,-0.25 z m 0.004,1 c 7.00215,-0.02998 14.00559,0.06024 21.00391,0.25 20.11156,0.798871 40.16173,3.315424 59.83203,7.628904 21.55099,4.92143 42.70786,12.37533 61.62695,23.90821 l 0.002,0 c 16.43295,9.98533 31.07929,23.39214 40.82812,40.05468 l 0.002,0.004 0.002,0.004 c 10.95562,17.99426 14.787,39.34215 14.88672,60.22265 l 0.002,0.49805 0.49805,0 c 66.67995,0 133.37068,0.01 200.05078,0 l 0.49805,0 0.002,-0.5 c 0.0296,-27.10331 -0.0355,-54.19465 0.0391,-81.28516 20.66229,20.20941 41.01612,40.74571 61.70117,60.95703 -34.10248,41.049 -68.522,81.85364 -102.69531,122.84766 l -0.0312,0.0391 -0.0234,0.043 c -0.15456,0.28561 -0.61245,0.69952 -0.98828,0.83594 -0.18791,0.0682 -0.33791,0.0715 -0.43164,0.041 -0.0937,-0.0305 -0.17712,-0.0787 -0.27344,-0.29882 l -0.0156,-0.0391 -0.0234,-0.0351 c -18.10367,-27.48667 -45.24069,-47.91823 -74.72461,-61.81836 l -0.002,0 c -10.92748,-5.1282 -22.1655,-9.60689 -33.63477,-13.36328 l -0.002,0 c -24.73493,-8.16138 -50.31342,-13.52743 -76.07617,-17.06055 l 0,0.002 c -42.04472,-5.86484 -84.61174,-7.29591 -127.00977,-6.43554 l -0.006,0 -0.006,0 c -45.27777,2.11942 -90.88609,2.58776 -135.82617,-3.78516 l -0.002,0 -0.002,0 c -19.89186,-2.67621 -39.71071,-7.06976 -58.31836,-14.64844 -13.42727,-5.89653 -27.4745,-13.61315 -34.22266,-27.09961 l -0.002,-0.006 -0.002,-0.004 c -4.03565,-7.70088 -2.14609,-16.62742 0.14649,-24.72266 l 0.002,-0.008 c 2.4137,-7.97786 7.03614,-15.21778 12.92188,-21.10352 l 0.006,-0.006 0.006,-0.006 c 8.39586,-8.95161 19.12948,-15.34376 30.1621,-20.64062 24.32099,-11.19681 50.79921,-16.87892 77.26954,-20.375 l 0.002,0 c 20.8163,-2.831437 41.81583,-4.005749 62.82812,-4.095704 z"
     id="path20"
     inkscape:connector-curvature="0" />
  <path
     style="color:#000000;font-style:normal;font-variant:normal;font-weight:normal;font-stretch:normal;font-size:medium;line-height:normal;font-family:sans-serif;text-indent:0;text-align:start;text-decoration:none;text-decoration-line:none;text-decoration-style:solid;text-decoration-color:#000000;letter-spacing:normal;word-spacing:normal;text-transform:none;direction:ltr;block-progression:tb;writing-mode:lr-tb;baseline-shift:baseline;text-anchor:start;white-space:normal;clip-rule:nonzero;display:inline;overflow:visible;visibility:visible;opacity:1;isolation:auto;mix-blend-mode:normal;color-interpolation:sRGB;color-interpolation-filters:linearRGB;solid-color:#000000;solid-opacity:1;fill-opacity:1;fill-rule:nonzero;stroke:#000000;stroke-width:2.83464567;stroke-linecap:butt;stroke-linejoin:miter;stroke-miterlimit:4;stroke-dasharray:none;stroke-dashoffset:0;stroke-opacity:1;color-rendering:auto;image-rendering:auto;shape-rendering:auto;text-rendering:auto;enable-background:accumulate"
     d="m 237.96875,366.54102 0.86914,1.03125 c 36.70051,43.4706 73.50055,86.85139 110.24023,130.29101 2.08429,2.49142 4.04685,5.2047 6.59376,7.41406 l 0.21874,0.18946 0.27149,-0.0937 c 2.47403,-0.84638 4.00821,-3.00809 5.73047,-4.46094 l 0.0137,-0.0117 0.0137,-0.0137 c 10.29049,-10.12163 23.36027,-17.08824 37.07031,-21.43945 22.8652,-7.16344 47.39825,-8.2024 71.01172,-4.54297 19.90491,3.18119 39.50593,9.73096 56.3418,20.93164 l 0,0.002 0.002,0 c 12.51953,8.19388 22.8922,19.50129 29.85157,32.75391 l 0.13867,0.26367 0.29492,0.004 c 31.75685,0.51994 63.52203,1.34069 95.30273,1.14062 l 0.002,0 0.002,0 c 26.8078,-0.44013 53.79879,-1.50959 80.18164,-6.90039 l 0.004,0 0.004,-0.002 c 18.29857,-3.99843 36.68649,-10.38464 51.33789,-22.54883 l 0.004,-0.004 c 10.27227,-8.30809 18.04383,-20.21395 19.91602,-33.46875 l 0,-0.006 c 1.56548,-10.09801 -2.41357,-20.71052 -10.01172,-27.47461 l -0.004,-0.002 -0.006,-0.004 c -7.63978,-6.50796 -17.06911,-10.40527 -26.3457,-13.70117 l -0.006,-0.002 -0.004,-0.002 c -23.31738,-7.74907 -47.74339,-11.17048 -72.0332,-13.85157 l -0.002,0 c -36.55747,-3.84183 -73.26494,-5.75282 -109.91211,-7.97265 l -0.002,0 -0.002,0 C 496.1096,399.19071 407.05655,393.52063 318.94531,380.125 l -0.006,0 -0.004,0 c -26.67429,-3.50662 -53.04062,-9.08655 -79.63672,-13.36914 l -1.33008,-0.21484 z m 2.52344,1.43945 c 26.10641,4.24733 52.04086,9.68108 78.3125,13.13476 l -0.01,0 c 88.16812,13.40428 177.25277,19.07323 266.20508,23.94336 36.65218,2.22014 73.34334,4.13073 109.86523,7.96875 24.2669,2.67856 48.61663,6.09597 71.81641,13.80469 9.24255,3.2838 18.55139,7.1466 26.03125,13.51758 7e-4,5.9e-4 0.001,0.001 0.002,0.002 7.33504,6.535 11.19317,16.83567 9.68164,26.57227 l -0.002,0.002 0,0.004 c -1.82898,12.96106 -9.45446,24.67123 -19.55859,32.84179 l -0.002,0.002 -0.004,0.002 c -14.46791,12.01353 -32.69634,18.36452 -50.91602,22.3457 -26.27344,5.36781 -53.19798,6.43901 -79.98633,6.87891 -31.66816,0.19936 -63.3339,-0.61645 -95.00585,-1.13672 -7.03884,-13.28853 -17.45215,-24.62979 -30.0254,-32.85937 l -0.002,-0.002 C 509.9109,483.70354 490.17242,477.11468 470.1582,473.91602 l -0.002,0 c -23.74594,-3.68022 -48.43066,-2.64021 -71.46484,4.57617 l -0.002,0 0,0.002 c -13.81705,4.38493 -27.01665,11.41117 -37.4414,21.6543 -0.001,0.001 -0.002,0.003 -0.004,0.004 -1.77389,1.49753 -3.21802,3.32866 -5.16016,4.11524 -2.31018,-2.07136 -4.20199,-4.61265 -6.24023,-7.04883 l -0.002,0 0,-0.002 C 313.39832,454.1274 276.89676,411.09723 240.49219,367.98047 Z"
     id="path22"
     inkscape:connector-curvature="0" />
  <path
     style="color:#000000;font-style:normal;font-variant:normal;font-weight:normal;font-stretch:normal;font-size:medium;line-height:normal;font-family:sans-serif;text-indent:0;text-align:start;text-decoration:none;text-decoration-line:none;text-decoration-style:solid;text-decoration-color:#000000;letter-spacing:normal;word-spacing:normal;text-transform:none;direction:ltr;block-progression:tb;writing-mode:lr-tb;baseline-shift:baseline;text-anchor:start;white-space:normal;clip-rule:nonzero;display:inline;overflow:visible;visibility:visible;opacity:1;isolation:auto;mix-blend-mode:normal;color-interpolation:sRGB;color-interpolation-filters:linearRGB;solid-color:#000000;solid-opacity:1;fill-opacity:1;fill-rule:nonzero;stroke:#000000;stroke-width:2.83464567;stroke-linecap:butt;stroke-linejoin:miter;stroke-miterlimit:4;stroke-dasharray:none;stroke-dashoffset:0;stroke-opacity:1;color-rendering:auto;image-rendering:auto;shape-rendering:auto;text-rendering:auto;enable-background:accumulate"
     d="m 290.33398,396.60742 0.84375,1.00391 c 22.17203,26.40241 44.58138,52.58313 66.76954,78.96094 l 0.29687,0.35156 0.375,-0.26563 c 22.48621,-15.92648 50.12822,-22.88161 77.39844,-24.28906 20.91535,-0.74804 41.97175,1.89628 62.02734,7.92969 27.57546,8.33445 53.68476,24.20315 70.1836,48.20508 l 0.14843,0.21484 0.26172,0.002 c 19.12318,0.03 38.24455,0.5381 57.37305,0.64844 13.70128,0.7623 27.36269,-0.17967 41.00195,-0.26953 l 0.002,0 c 9.70481,-0.12031 19.36182,-0.96058 29.02149,-1.5 l 0.0117,-0.002 0.0117,0 c 10.3199,-1.05999 20.68878,-2.14083 30.875,-4.38868 15.41797,-3.32603 31.1775,-8.25955 43.54687,-18.60937 l 0.008,-0.006 c 6.31362,-5.05136 11.38819,-12.25136 12.55274,-20.43555 0.83947,-4.68831 -2.07843,-8.99733 -5.94336,-11.2207 -11.07459,-6.64293 -23.62468,-10.1517 -36.05859,-12.96484 l -0.004,0 -0.002,-0.002 c -18.77341,-4.06424 -37.85446,-6.78804 -57.00586,-8.21289 l -0.66016,-0.47461 -0.14062,-0.0117 c -27.37836,-2.15987 -54.78852,-4.19051 -82.23243,-5.63086 l -0.01,0 c -17.96194,-1.33058 -35.95588,-1.84073 -53.86524,-3.28906 l -0.01,0 -0.008,-0.002 c -33.06802,-1.5471 -66.07587,-4.33073 -99.11133,-6.61914 l -0.62891,-0.47656 -0.16211,-0.004 c -7.71157,-0.16938 -15.40668,-0.99703 -23.08398,-1.88672 l -0.008,-0.002 -0.01,0 c -26.43249,-2.08546 -52.75736,-5.57778 -79.11328,-8.61524 l -0.65235,-0.43164 -0.12109,-0.0117 c -17.59547,-1.83743 -35.04057,-4.97615 -52.58203,-7.50781 l -1.29688,-0.1875 z m 2.47071,1.37891 c 17.0344,2.48761 34.01686,5.49494 51.17578,7.29297 l 0.6543,0.43359 0.11718,0.0137 c 26.38428,3.03934 52.76184,6.54142 79.26953,8.63282 7.62012,0.88295 15.28383,1.70206 22.98829,1.88085 l 0.61718,0.46875 0.14844,0.01 c 33.07498,2.28965 66.13878,5.08028 99.28125,6.63086 17.94157,1.45032 35.93823,1.96062 53.86719,3.28906 l 0.004,0 0.006,0 c 27.38592,1.43716 54.74451,3.46341 82.07618,5.61914 l 0.65234,0.47071 0.14062,0.01 c 19.15733,1.41832 38.24478,4.14598 57.02149,8.21094 12.4019,2.80605 24.84522,6.29619 35.76758,12.84961 l 0.006,0.002 0.004,0.002 c 3.57231,2.05504 6.21159,6.00165 5.45703,10.18946 l -0.002,0.008 -0.002,0.01 c -1.11718,7.86923 -6.03645,14.88386 -12.19727,19.81054 l -0.004,0.002 -0.004,0.004 c -12.1695,10.18588 -27.7661,15.09101 -43.125,18.4043 l -0.002,0.002 c -10.10554,2.23019 -20.42856,3.30997 -30.74024,4.36914 -0.005,2.6e-4 -0.009,-2.5e-4 -0.0137,0 -0.003,3.4e-4 -0.006,0.002 -0.01,0.002 -9.67243,0.54062 -19.30769,1.37649 -28.95507,1.49609 -13.68009,0.0902 -27.31748,1.02915 -40.93555,0.27148 l -0.0137,-0.002 -0.0117,0 c -19.0404,-0.10948 -38.08883,-0.61249 -57.1543,-0.64648 -16.66903,-24.11271 -42.89557,-40.02113 -70.55469,-48.38086 -20.16386,-6.06621 -41.32754,-8.72264 -62.35156,-7.97071 l -0.004,0 -0.004,0 c -27.25481,1.40561 -54.92277,8.33853 -77.54492,24.22071 -21.81326,-25.92828 -43.83097,-51.66583 -65.625,-77.60547 z"
     id="path24"
     inkscape:connector-curvature="0" />
  <path
     style="color:#000000;font-style:normal;font-variant:normal;font-weight:normal;font-stretch:normal;font-size:medium;line-height:normal;font-family:sans-serif;text-indent:0;text-align:start;text-decoration:none;text-decoration-line:none;text-decoration-style:solid;text-decoration-color:#000000;letter-spacing:normal;word-spacing:normal;text-transform:none;direction:ltr;block-progression:tb;writing-mode:lr-tb;baseline-shift:baseline;text-anchor:start;white-space:normal;clip-rule:nonzero;display:inline;overflow:visible;visibility:visible;opacity:1;isolation:auto;mix-blend-mode:normal;color-interpolation:sRGB;color-interpolation-filters:linearRGB;solid-color:#000000;solid-opacity:1;fill-opacity:1;fill-rule:nonzero;stroke:#000000;stroke-width:2.83464567;stroke-linecap:butt;stroke-linejoin:miter;stroke-miterlimit:4;stroke-dasharray:none;stroke-dashoffset:0;stroke-opacity:1;color-rendering:auto;image-rendering:auto;shape-rendering:auto;text-rendering:auto;enable-background:accumulate"
     d="m 417.7793,573.35938 0.9707,1.13476 C 470.36101,634.81532 522.25107,694.8957 573.98047,755.125 l 0.37695,0.4375 0.37891,-0.43359 c 24.65374,-28.18428 48.82463,-56.78481 73.33203,-85.0918 l 0.002,-0.002 0,-0.002 c 25.38656,-29.81595 51.2576,-59.23572 76.49219,-89.20117 l 0.96094,-1.14258 -1.45508,0.33399 c -22.82974,5.21222 -45.50815,11.10702 -68.63477,14.67187 l -0.002,0 c -21.97556,3.48454 -44.23704,4.83446 -66.48633,4.97461 -9.90741,-0.0937 -19.83688,-0.88256 -29.80469,-0.89258 l -0.043,-0.50586 c -25.87577,-1.41812 -51.53255,-5.49515 -76.96094,-10.46289 l -0.002,0 -0.004,0 c -21.11506,-3.94534 -41.89835,-9.49381 -62.89258,-14.12695 l -1.45898,-0.32226 z m 2.72656,1.64453 c 20.46124,4.55851 40.77427,9.926 61.4375,13.78711 24.83061,4.85094 49.90537,8.81521 75.20508,10.32812 l 0.0859,0.61133 c 10.54661,-0.10965 21.10436,0.8392 31.70117,0.93945 l 0.004,0 0.004,0 c 22.28746,-0.14011 44.60133,-1.4915 66.64258,-4.98633 22.69092,-3.49769 44.91089,-9.21872 67.22265,-14.34179 -24.91542,29.55363 -50.43497,58.60659 -75.5,88.04492 C 622.92325,697.5528 598.87481,725.9994 574.36133,754.0332 523.08812,694.33668 471.66132,634.78548 420.50586,575.00391 Z"
     id="path26"
     inkscape:connector-curvature="0" />
  <path
     style="color:#000000;font-style:normal;font-variant:normal;font-weight:normal;font-stretch:normal;font-size:medium;line-height:normal;font-family:sans-serif;text-indent:0;text-align:start;text-decoration:none;text-decoration-line:none;text-decoration-style:solid;text-decoration-color:#000000;letter-spacing:normal;word-spacing:normal;text-transform:none;direction:ltr;block-progression:tb;writing-mode:lr-tb;baseline-shift:baseline;text-anchor:start;white-space:normal;clip-rule:nonzero;display:inline;overflow:visible;visibility:visible;opacity:1;isolation:auto;mix-blend-mode:normal;color-interpolation:sRGB;color-interpolation-filters:linearRGB;solid-color:#000000;solid-opacity:1;fill-opacity:1;fill-rule:nonzero;stroke:#000000;stroke-width:2.83464567;stroke-linecap:butt;stroke-linejoin:miter;stroke-miterlimit:4;stroke-dasharray:none;stroke-dashoffset:0;stroke-opacity:1;color-rendering:auto;image-rendering:auto;shape-rendering:auto;text-rendering:auto;enable-background:accumulate"
     d="m 473.80469,607.06055 0.94531,1.10547 c 32.43108,37.88126 65.05125,75.59994 97.49023,113.46875 l 0.0332,0.0391 0.041,0.0332 c 0.18485,0.14242 0.65626,0.72235 1.18555,1.14258 0.26464,0.21012 0.56343,0.40492 0.95117,0.44141 0.38774,0.0365 0.81968,-0.16614 1.09571,-0.52735 31.23548,-36.02511 62.09019,-72.37644 93.38085,-108.3457 l 0.87305,-1.00391 -1.31836,0.17969 c -15.45506,2.12069 -30.88444,4.4782 -46.43554,5.48633 l 0,0.002 c -49.1718,3.34604 -98.59735,-1.9387 -146.81641,-11.73242 l -1.42578,-0.28906 z m 2.61523,1.51562 c 47.84382,9.62726 96.87503,14.82394 145.69336,11.50195 15.16856,-0.98332 30.1856,-3.24283 45.19531,-5.31445 -31.00525,35.65727 -61.58818,71.67485 -92.53711,107.36914 l -0.01,0.0117 -0.01,0.0117 c -0.12898,0.16879 -0.13977,0.145 -0.20703,0.13867 -0.0673,-0.006 -0.23347,-0.0774 -0.42383,-0.22851 -0.35727,-0.28366 -0.7261,-0.75348 -1.12109,-1.08203 -32.13795,-37.5174 -64.45061,-74.88625 -96.58008,-112.40821 z"
     id="path28"
     inkscape:connector-curvature="0" />
</svg>
