<?xml version="1.0" encoding="UTF-8" standalone="no"?>
<!-- Created with Inkscape (http://www.inkscape.org/) -->

<svg
   xmlns:dc="http://purl.org/dc/elements/1.1/"
   xmlns:cc="http://creativecommons.org/ns#"
   xmlns:rdf="http://www.w3.org/1999/02/22-rdf-syntax-ns#"
   xmlns:svg="http://www.w3.org/2000/svg"
   xmlns="http://www.w3.org/2000/svg"
   xmlns:sodipodi="http://sodipodi.sourceforge.net/DTD/sodipodi-0.dtd"
   xmlns:inkscape="http://www.inkscape.org/namespaces/inkscape"
   width="210mm"
   height="297mm"
   viewBox="0 0 744.09448819 1052.3622047"
   id="svg6538"
   version="1.1"
   inkscape:version="0.91 r13725"
   sodipodi:docname="vonfleek.svg">
  <defs
     id="defs6540" />
  <sodipodi:namedview
     id="base"
     pagecolor="#ffffff"
     bordercolor="#666666"
     borderopacity="1.0"
     inkscape:pageopacity="0.0"
     inkscape:pageshadow="2"
     inkscape:zoom="2.8"
     inkscape:cx="280.919"
     inkscape:cy="576.99755"
     inkscape:document-units="px"
     inkscape:current-layer="layer1"
     showgrid="false"
     inkscape:window-width="1440"
     inkscape:window-height="851"
     inkscape:window-x="0"
     inkscape:window-y="0"
     inkscape:window-maximized="1" />
  <metadata
     id="metadata6543">
    <rdf:RDF>
      <cc:Work
         rdf:about="">
        <dc:format>image/svg+xml</dc:format>
        <dc:type
           rdf:resource="http://purl.org/dc/dcmitype/StillImage" />
        <dc:title></dc:title>
      </cc:Work>
    </rdf:RDF>
  </metadata>
  <g
     inkscape:label="Layer 1"
     inkscape:groupmode="layer"
     id="layer1">
    <g
       style="font-style:normal;font-variant:normal;font-weight:normal;font-stretch:normal;font-size:40px;line-height:125%;font-family:'Marker Felt';-inkscape-font-specification:'Marker Felt, Normal';text-align:start;letter-spacing:0px;word-spacing:0px;writing-mode:lr-tb;text-anchor:start;fill:#000000;fill-opacity:1;stroke:none;stroke-width:1px;stroke-linecap:butt;stroke-linejoin:miter;stroke-opacity:1"
       id="text7086">
      <path
         d="m 253.96571,459.28792 -6.48,23.52 q -0.04,0.16 -0.04,0.36 0,0.28 0.08,1 0.12,0.72 0.12,1.12 0,1.2 -0.72,1.92 -0.68,0.76 -1.68,0.76 -1.48,0 -3.24,-1.56 -1.76,-1.6 -1.76,-3.04 0,-0.24 0.2,-0.88 0.16,-0.52 0.08,-0.88 l -4.56,-22.8 q -0.04,-0.28 -0.84,-0.88 -0.76,-0.6 -0.76,-1.28 0,-1.8 3.4,-1.8 1.48,0 2.68,0.48 1.24,0.48 1.52,1.32 0.08,0.24 0.08,0.48 0,0.36 -0.32,1.04 -0.32,0.68 -0.24,1.12 l 2.88,15.04 4.08,-16 q 0.08,-0.36 0.08,-0.84 0,-0.2 0,-0.52 0,-0.36 0,-0.52 0,-1.24 1.12,-1.96 0.72,-0.44 1.76,-0.44 1.6,0 3,0.88 1.4,0.84 1.4,2 0,0.32 -0.16,0.72 -0.16,0.36 -0.88,0.8 -0.68,0.4 -0.8,0.84 z"
         style=""
         id="path7110" />
      <path
         d="m 266.39196,466.00792 q 2.68,2.72 2.68,9.16 0,5 -1.88,8.52 -2.12,3.96 -5.84,3.96 -3.68,0 -5.68,-3.56 -1.76,-3.12 -1.76,-7.92 0,-4.24 1.36,-7.6 1.44,-3.6 3.68,-4.24 1.16,-0.32 2.4,-0.32 3.08,0 5.04,2 z m -4.56,1.92 q -1.32,-0.12 -2.28,2.48 -0.84,2.36 -0.84,4.96 0,3.76 0.32,5.32 0.56,2.8 2.32,3.08 1.12,0.16 2.08,-3.08 0.92,-3.12 0.92,-6.68 0,-5.84 -2.52,-6.08 z"
         style=""
         id="path7112" />
      <path
         d="m 290.51696,484.08792 q -0.08,0.88 -1.16,1.52 -1.08,0.6 -2.4,0.6 -1.96,0 -2.68,-1.24 0.32,-12.32 -0.72,-12.48 -1,-0.16 -4.88,11.04 0,1.2 0,2.4 -0.04,1.44 -0.8,2.04 -0.72,0.6 -1.56,0.6 -1.44,0 -3.08,-1.56 -0.48,-0.4 -0.52,-6.08 0.04,3.48 0.04,-12.92 0,-0.36 -0.08,-0.96 -0.08,-0.64 -0.08,-0.92 0,-0.76 0.4,-1.32 0.48,-0.72 1.52,-0.72 1.08,0 2.24,0.68 1.2,0.64 1.44,1.24 0.16,0.4 0.16,0.8 0,0.4 -0.32,1.12 -0.32,0.72 -0.32,1.2 l 0,5.52 q 2.52,-5.36 3.8,-7.08 2.28,-2.96 5.16,-2.76 1.72,0.12 2.44,3.2 0.56,2.32 0.6,6.88 0,3.6 0,7.2 0.08,0.28 0.56,1 0.28,0.4 0.24,1 z"
         style=""
         id="path7114" />
      <path
         d="m 317.56633,457.28792 q 0.08,1.8 -1.56,2.2 -0.08,0.04 -3,0.24 -0.24,0 -0.32,0.04 -2.44,1.16 -3.6,1.6 -0.44,3.56 -0.08,9.52 0.52,-0.36 1.6,-1.08 0.96,-1.12 1.6,-1.08 1.32,0.08 2.64,1.32 1.36,1.2 1.36,2.52 0,0.52 -0.24,0.96 -0.44,0.88 -2.2,0.96 -2,0.08 -2.68,0.64 -0.56,0.2 -1.08,0.72 -0.48,0.48 -0.92,0.96 -0.32,2.68 0,7.52 0.2,0.52 0.2,1 0,1.28 -1.4,2 -0.52,0.28 -1.24,0.28 -1.28,0 -2.36,-0.76 -1.2,-0.8 -1.44,-2.04 -0.08,-0.56 0.16,-0.84 0.28,-0.28 0.56,-0.52 -0.24,-17.44 0,-25.76 -0.04,-0.4 -0.04,-0.72 0,-2.08 2.52,-2.08 0.44,0 0.96,0.08 0.88,0.12 1.2,0.32 0.08,0.04 0.56,0.56 0.8,-0.28 2.56,-0.88 0.4,-0.24 0.84,-0.52 0.48,-0.32 1.48,-0.32 1.16,0 2.52,1 1.36,1 1.4,2.16 z"
         style=""
         id="path7116" />
      <path
         d="m 326.05039,486.84792 q -0.8,1.52 -2.96,1.52 -2,0 -2.8,-1.36 -0.24,-0.4 -0.24,-0.88 0,-0.4 0.28,-1.32 0.28,-0.92 0.28,-1.52 l -0.16,-25.84 q 0,-2.12 0,-2.16 0.12,-0.52 1.12,-0.84 1,-0.36 2.12,-0.36 1.64,0 2.08,0.6 0.44,0.6 0.44,1.24 0,0.44 -0.32,1.48 -0.32,1 -0.32,1.64 l 0,24 q 0,0.6 0.32,1.6 0.36,0.96 0.36,1.4 0,0.44 -0.2,0.8 z"
         style=""
         id="path7118" />
      <path
         d="m 343.67477,482.44792 q -0.32,1.52 -2.16,3.24 -0.28,0.44 -2.2,1.16 -2.2,0.84 -3.8,0.72 -3,-0.2 -4.72,-3.44 -1.56,-3 -1.56,-7.36 0,-4.72 1.76,-8.28 1.96,-3.92 5.24,-4.4 0.64,-0.08 1.24,-0.08 4.76,0 5.24,5.84 0.24,2.68 -2.12,5.84 -2.56,3.48 -6.56,4.88 0.44,1.6 0.68,2.08 0.56,1 1.52,1 0.92,0 1.96,-0.72 0.88,-0.6 1.2,-1.16 0.16,-0.08 0.32,-0.88 0.16,-0.84 0.84,-1.2 0.24,-0.12 0.56,-0.12 0.96,0 1.84,0.96 0.92,0.92 0.72,1.92 z m -6.28,-14.08 q -1.6,0 -2.6,2.28 -1.32,3.04 -1.08,6 1.88,-0.6 3.48,-2.8 1.6,-2.2 1.6,-3.92 0,-1.56 -1.4,-1.56 z"
         style=""
         id="path7120" />
      <path
         d="m 361.01852,482.44792 q -0.32,1.52 -2.16,3.24 -0.28,0.44 -2.2,1.16 -2.2,0.84 -3.8,0.72 -3,-0.2 -4.72,-3.44 -1.56,-3 -1.56,-7.36 0,-4.72 1.76,-8.28 1.96,-3.92 5.24,-4.4 0.64,-0.08 1.24,-0.08 4.76,0 5.24,5.84 0.24,2.68 -2.12,5.84 -2.56,3.48 -6.56,4.88 0.44,1.6 0.68,2.08 0.56,1 1.52,1 0.92,0 1.96,-0.72 0.88,-0.6 1.2,-1.16 0.16,-0.08 0.32,-0.88 0.16,-0.84 0.84,-1.2 0.24,-0.12 0.56,-0.12 0.96,0 1.84,0.96 0.92,0.92 0.72,1.92 z m -6.28,-14.08 q -1.6,0 -2.6,2.28 -1.32,3.04 -1.08,6 1.88,-0.6 3.48,-2.8 1.6,-2.2 1.6,-3.92 0,-1.56 -1.4,-1.56 z"
         style=""
         id="path7122" />
      <path
         d="m 383.11196,483.52792 q 0.04,0.28 0.04,0.56 0,2.4 -2.68,3.24 -0.52,0.16 -0.92,0.16 -0.72,0 -1.32,-0.68 -0.92,-1 -1.12,-1.12 l -7.2,-5.04 0,3.36 q 0,0.36 0.2,0.92 0.24,0.52 0.24,0.8 0,0.44 -0.44,0.92 -1,1.04 -2.88,1.04 -1.8,0 -2.32,-1.2 -0.24,-0.56 -0.16,-1.16 0.16,-1.04 0.16,-1.4 l 0,-26.32 q -0.04,-0.72 0.16,-2.16 0.36,-0.88 2.2,-0.88 2.4,0 3.08,0.88 0.36,0.48 0.36,1.04 0,0.44 -0.32,1.36 -0.28,0.92 -0.28,1.44 -0.08,2.32 0,13.08 2.24,-2.16 5.76,-5.64 0.48,-0.48 1.24,-1.72 0.44,-0.72 1.32,-0.96 0.24,-0.08 0.56,-0.08 1.16,0 2.36,0.88 1.24,0.88 1.24,1.88 0,0.56 -0.8,1.36 -0.8,0.8 -1.6,1.52 l -6.64,6.88 7.12,5.12 q 0.08,0.08 1.6,0.64 0.88,0.36 1.04,1.28 z"
         style=""
         id="path7124" />
    </g>
  </g>
</svg>
