<?xml version="1.0" encoding="UTF-8" standalone="no"?>
<!-- Created with Inkscape (http://www.inkscape.org/) -->

<svg
   xmlns:dc="http://purl.org/dc/elements/1.1/"
   xmlns:cc="http://creativecommons.org/ns#"
   xmlns:rdf="http://www.w3.org/1999/02/22-rdf-syntax-ns#"
   xmlns:svg="http://www.w3.org/2000/svg"
   xmlns="http://www.w3.org/2000/svg"
   xmlns:sodipodi="http://sodipodi.sourceforge.net/DTD/sodipodi-0.dtd"
   xmlns:inkscape="http://www.inkscape.org/namespaces/inkscape"
   width="210mm"
   height="297mm"
   viewBox="0 0 744.09448819 1052.3622047"
   id="svg2"
   version="1.1"
   inkscape:version="0.91 r13725"
   sodipodi:docname="Letter-S.svg">
  <defs
     id="defs4" />
  <sodipodi:namedview
     id="base"
     pagecolor="#ffffff"
     bordercolor="#666666"
     borderopacity="1.0"
     inkscape:pageopacity="0.0"
     inkscape:pageshadow="2"
     inkscape:zoom="4.8212317"
     inkscape:cx="265.54464"
     inkscape:cy="715.46053"
     inkscape:document-units="px"
     inkscape:current-layer="text4136"
     showgrid="false"
     inkscape:window-width="2560"
     inkscape:window-height="1391"
     inkscape:window-x="1"
     inkscape:window-y="1"
     inkscape:window-maximized="0" />
  <metadata
     id="metadata7">
    <rdf:RDF>
      <cc:Work
         rdf:about="">
        <dc:format>image/svg+xml</dc:format>
        <dc:type
           rdf:resource="http://purl.org/dc/dcmitype/StillImage" />
        <dc:title></dc:title>
      </cc:Work>
    </rdf:RDF>
  </metadata>
  <g
     inkscape:label="Layer 1"
     inkscape:groupmode="layer"
     id="layer1">
    <g
       transform="scale(0.85305403,1.1722587)"
       style="font-style:normal;font-variant:normal;font-weight:normal;font-stretch:normal;font-size:105.50328064px;line-height:125%;font-family:AppleMyungjo;-inkscape-font-specification:'AppleMyungjo, Normal';text-align:start;letter-spacing:0px;word-spacing:0px;writing-mode:lr-tb;text-anchor:start;fill:#000000;fill-opacity:1;stroke:none;stroke-width:1px;stroke-linecap:butt;stroke-linejoin:miter;stroke-opacity:1"
       id="text4136">
      <g
         transform="scale(1.1722587,0.85305402)"
         style="font-style:normal;font-weight:normal;font-size:128.55097961px;line-height:125%;font-family:sans-serif;letter-spacing:0px;word-spacing:0px;fill:#000000;fill-opacity:1;stroke:#000000;stroke-width:2.92499999;stroke-linecap:butt;stroke-linejoin:miter;stroke-opacity:1;stroke-miterlimit:4;stroke-dasharray:none"
         id="text5683">
        <path
           d="m 194.13112,360.43821 4.51496,0 q 2.50831,14.54821 11.53823,23.3273 9.02993,8.77909 20.94441,8.77909 9.15534,0 15.04987,-5.39287 5.89453,-5.51829 5.89453,-13.29405 0,-6.14537 -4.26413,-10.28408 -4.26413,-4.26413 -12.0399,-6.01995 -15.67694,-3.51164 -22.19856,-5.89453 -9.657,-3.51164 -13.54488,-8.27743 -4.51496,-5.51829 -4.51496,-15.17529 0,-11.91448 7.77577,-19.81566 7.77576,-7.90118 19.69024,-7.90118 6.52161,0 11.66365,2.25748 5.26746,2.25748 10.53491,6.77244 l 5.76912,-8.15202 4.51496,0 0.37625,33.98763 -4.13872,0 q -7.39952,-29.97433 -28.84558,-29.97433 -8.40285,0 -13.79572,5.01663 -5.26745,4.89121 -5.26745,11.91448 0,7.14869 4.89121,11.2874 3.76246,3.26081 19.18858,6.77244 15.55153,3.51164 22.07315,7.52494 11.03657,6.77244 11.03657,20.06649 0,12.54156 -8.40285,20.81899 -8.40284,8.27743 -21.94773,8.27743 -14.17196,0 -24.9577,-9.28075 l -7.02327,8.65367 -4.51496,0 0,-35.99427 z"
           style="font-style:normal;font-variant:normal;font-weight:normal;font-stretch:normal;font-size:128.55097961px;line-height:125%;font-family:AppleMyungjo;-inkscape-font-specification:'AppleMyungjo, Normal';text-align:start;writing-mode:lr-tb;text-anchor:start;stroke:#000000;stroke-opacity:1;stroke-width:2.92499999;stroke-miterlimit:4;stroke-dasharray:none"
           id="path5707" />
      </g>
    </g>
  </g>
</svg>
