M48
;DRILL file {KiCad 4.0.7} date Friday, April 13, 2018 'PMt' 03:16:27 PM
;FORMAT={-:-/ absolute / metric / decimal}
FMAT,2
METRIC,TZ
T1C0.400
T2C0.800
T3C1.200
T4C1.600
%
G90
G05
M71
T1
X151.Y-97.
T2
X141.Y-75.
X143.54Y-75.
X159.512Y-94.234
X159.512Y-96.774
X159.512Y-99.314
X159.512Y-101.854
X167.132Y-94.234
X167.132Y-96.774
X167.132Y-99.314
X167.132Y-101.854
X168.Y-75.
X170.54Y-75.
T3
X140.5Y-113.5
X145.5Y-113.5
X155.Y-71.
X155.Y-86.24
X155.5Y-109.
X170.74Y-109.
X184.Y-71.
X184.Y-86.24
X184.Y-92.76
X184.Y-108.
T4
X137.Y-95.
X140.Y-99.7
X143.Y-95.
T0
M30
