G04 #@! TF.FileFunction,Copper,L2,Bot,Signal*
%FSLAX46Y46*%
G04 Gerber Fmt 4.6, Leading zero omitted, Abs format (unit mm)*
G04 Created by KiCad (PCBNEW 4.0.7) date Saturday, April 14, 2018 'PMt' 04:39:03 PM*
%MOMM*%
%LPD*%
G01*
G04 APERTURE LIST*
%ADD10C,0.100000*%
%ADD11R,2.400000X1.600000*%
%ADD12O,2.400000X1.600000*%
%ADD13C,1.800000*%
%ADD14R,1.800000X1.800000*%
%ADD15R,2.400000X2.400000*%
%ADD16C,2.400000*%
%ADD17O,2.400000X2.400000*%
%ADD18C,2.600000*%
%ADD19C,2.032000*%
%ADD20C,0.635000*%
%ADD21C,1.016000*%
G04 APERTURE END LIST*
D10*
D11*
X159512000Y-94234000D03*
D12*
X167132000Y-101854000D03*
X159512000Y-96774000D03*
X167132000Y-99314000D03*
X159512000Y-99314000D03*
X167132000Y-96774000D03*
X159512000Y-101854000D03*
X167132000Y-94234000D03*
D13*
X170540000Y-75000000D03*
D14*
X168000000Y-75000000D03*
D15*
X145500000Y-113500000D03*
D16*
X140500000Y-113500000D03*
D13*
X143540000Y-75000000D03*
D14*
X141000000Y-75000000D03*
D16*
X184000000Y-108000000D03*
D17*
X184000000Y-92760000D03*
D16*
X155500000Y-109000000D03*
D17*
X170740000Y-109000000D03*
D16*
X155000000Y-71000000D03*
D17*
X155000000Y-86240000D03*
D16*
X184000000Y-71000000D03*
D17*
X184000000Y-86240000D03*
D18*
X143000000Y-95000000D03*
X137000000Y-95000000D03*
X140000000Y-99700000D03*
D19*
X150000000Y-97500000D03*
X155000000Y-92500000D03*
X172500000Y-102500000D03*
X172500000Y-90000000D03*
D20*
X153226000Y-96774000D02*
X159512000Y-96774000D01*
X152500000Y-97500000D02*
X153226000Y-96774000D01*
X150000000Y-97500000D02*
X152500000Y-97500000D01*
D21*
X161774000Y-96774000D02*
X159512000Y-96774000D01*
X167132000Y-99314000D02*
X164314000Y-99314000D01*
X164314000Y-99314000D02*
X161774000Y-96774000D01*
D20*
X145500000Y-113500000D02*
X151500000Y-113500000D01*
X151500000Y-113500000D02*
X155500000Y-109500000D01*
X155500000Y-109500000D02*
X155500000Y-109000000D01*
D21*
X155500000Y-108000000D02*
X155500000Y-109000000D01*
D20*
X141000000Y-75000000D02*
X141000000Y-71500000D01*
X154000000Y-70000000D02*
X155000000Y-71000000D01*
X142500000Y-70000000D02*
X154000000Y-70000000D01*
X141000000Y-71500000D02*
X142500000Y-70000000D01*
X170540000Y-75000000D02*
X177500000Y-75000000D01*
X181500000Y-71000000D02*
X184000000Y-71000000D01*
X177500000Y-75000000D02*
X181500000Y-71000000D01*
X167132000Y-96774000D02*
X171774000Y-96774000D01*
X175000000Y-104740000D02*
X170740000Y-109000000D01*
X175000000Y-100000000D02*
X175000000Y-104740000D01*
X171774000Y-96774000D02*
X175000000Y-100000000D01*
X170740000Y-109000000D02*
X176000000Y-109000000D01*
X177000000Y-108000000D02*
X184000000Y-108000000D01*
X176000000Y-109000000D02*
X177000000Y-108000000D01*
X155000000Y-86240000D02*
X155000000Y-87500000D01*
X147500000Y-100000000D02*
X159512000Y-99314000D01*
X147500000Y-95000000D02*
X147500000Y-100000000D01*
X150000000Y-92500000D02*
X147500000Y-95000000D01*
X155000000Y-87500000D02*
X150000000Y-92500000D01*
X158826000Y-100000000D02*
X159512000Y-99314000D01*
X187500000Y-85000000D02*
X187500000Y-67500000D01*
X186260000Y-86240000D02*
X187500000Y-85000000D01*
X184000000Y-86240000D02*
X186260000Y-86240000D01*
X158760000Y-86240000D02*
X155000000Y-86240000D01*
X160000000Y-85000000D02*
X158760000Y-86240000D01*
X160000000Y-67500000D02*
X160000000Y-85000000D01*
X187500000Y-67500000D02*
X160000000Y-67500000D01*
X156734000Y-94234000D02*
X159512000Y-94234000D01*
X155000000Y-92500000D02*
X156734000Y-94234000D01*
X159512000Y-94234000D02*
X159512000Y-90488000D01*
X159512000Y-90488000D02*
X168000000Y-82000000D01*
X168000000Y-82000000D02*
X168000000Y-75000000D01*
X137000000Y-95000000D02*
X137000000Y-100500000D01*
X135000000Y-108000000D02*
X140500000Y-113500000D01*
X135000000Y-102500000D02*
X135000000Y-108000000D01*
X137000000Y-100500000D02*
X135000000Y-102500000D01*
X143000000Y-95000000D02*
X143000000Y-98000000D01*
X146854000Y-101854000D02*
X159512000Y-101854000D01*
X143000000Y-98000000D02*
X146854000Y-101854000D01*
X159512000Y-101854000D02*
X161854000Y-101854000D01*
X161854000Y-101854000D02*
X165000000Y-105000000D01*
X165000000Y-105000000D02*
X170000000Y-105000000D01*
X170000000Y-105000000D02*
X172500000Y-102500000D01*
X172500000Y-90000000D02*
X168266000Y-94234000D01*
X168266000Y-94234000D02*
X167132000Y-94234000D01*
X147500000Y-90000000D02*
X147500000Y-90500000D01*
X143540000Y-78540000D02*
X147500000Y-82500000D01*
X147500000Y-82500000D02*
X147500000Y-90000000D01*
X143540000Y-75000000D02*
X143540000Y-78540000D01*
X147500000Y-90500000D02*
X143000000Y-95000000D01*
X167132000Y-94234000D02*
X175766000Y-94234000D01*
X177240000Y-92760000D02*
X184000000Y-92760000D01*
X175766000Y-94234000D02*
X177240000Y-92760000D01*
M02*
