G75*
%MOIN*%
%OFA0B0*%
%FSLAX25Y25*%
%IPPOS*%
%LPD*%
%AMOC8*
5,1,8,0,0,1.08239X$1,22.5*
%
%ADD10C,0.00800*%
%ADD11C,0.06500*%
%ADD12C,0.17000*%
%ADD13C,0.07400*%
%ADD14OC8,0.07400*%
%ADD15C,0.05600*%
%ADD16C,0.01000*%
%ADD17C,0.04362*%
D10*
X0015000Y0002860D02*
X0185000Y0002860D01*
X0185000Y0212860D01*
X0015000Y0212860D01*
D11*
X0040000Y0142860D03*
X0050000Y0142860D03*
X0065000Y0122860D03*
X0065000Y0112860D03*
D12*
X0047126Y0174356D03*
X0058937Y0192860D03*
X0035315Y0192860D03*
D13*
X0025000Y0157860D03*
X0065000Y0157860D03*
X0025000Y0112860D03*
X0025000Y0102860D03*
X0025000Y0092860D03*
X0025000Y0082860D03*
X0025000Y0072860D03*
X0025000Y0062860D03*
X0140000Y0052860D03*
X0160000Y0072860D03*
X0170000Y0072860D03*
X0180000Y0052860D03*
X0170000Y0032860D03*
X0160000Y0032860D03*
X0140000Y0012860D03*
X0180000Y0012860D03*
X0180000Y0092860D03*
X0170000Y0112860D03*
X0160000Y0112860D03*
X0175000Y0132860D03*
X0175000Y0142860D03*
X0175000Y0152860D03*
X0175000Y0162860D03*
X0175000Y0172860D03*
X0175000Y0182860D03*
X0175000Y0192860D03*
X0175000Y0202860D03*
X0140000Y0092860D03*
D14*
X0115000Y0042860D03*
X0115000Y0032860D03*
X0105000Y0032860D03*
X0105000Y0042860D03*
X0095000Y0042860D03*
X0095000Y0032860D03*
D15*
X0092800Y0062860D02*
X0087200Y0062860D01*
X0087200Y0072860D02*
X0092800Y0072860D01*
X0092800Y0082860D02*
X0087200Y0082860D01*
X0087200Y0092860D02*
X0092800Y0092860D01*
X0092800Y0102860D02*
X0087200Y0102860D01*
X0087200Y0112860D02*
X0092800Y0112860D01*
X0092800Y0122860D02*
X0087200Y0122860D01*
X0087200Y0132860D02*
X0092800Y0132860D01*
X0092800Y0142860D02*
X0087200Y0142860D01*
X0087200Y0152860D02*
X0092800Y0152860D01*
X0092800Y0162860D02*
X0087200Y0162860D01*
X0087200Y0172860D02*
X0092800Y0172860D01*
X0092800Y0182860D02*
X0087200Y0182860D01*
X0087200Y0192860D02*
X0092800Y0192860D01*
X0117200Y0192860D02*
X0122800Y0192860D01*
X0122800Y0182860D02*
X0117200Y0182860D01*
X0117200Y0172860D02*
X0122800Y0172860D01*
X0122800Y0162860D02*
X0117200Y0162860D01*
X0117200Y0152860D02*
X0122800Y0152860D01*
X0122800Y0142860D02*
X0117200Y0142860D01*
X0117200Y0132860D02*
X0122800Y0132860D01*
X0122800Y0122860D02*
X0117200Y0122860D01*
X0117200Y0112860D02*
X0122800Y0112860D01*
X0122800Y0102860D02*
X0117200Y0102860D01*
X0117200Y0092860D02*
X0122800Y0092860D01*
X0122800Y0082860D02*
X0117200Y0082860D01*
X0117200Y0072860D02*
X0122800Y0072860D01*
X0122800Y0062860D02*
X0117200Y0062860D01*
D16*
X0120000Y0062860D02*
X0160000Y0062860D01*
X0170000Y0072860D01*
X0165000Y0074900D02*
X0164578Y0075919D01*
X0163059Y0077438D01*
X0161074Y0078260D01*
X0158926Y0078260D01*
X0156941Y0077438D01*
X0155422Y0075919D01*
X0154600Y0073934D01*
X0154600Y0071786D01*
X0155422Y0069801D01*
X0156941Y0068282D01*
X0158926Y0067460D01*
X0161074Y0067460D01*
X0161782Y0067753D01*
X0159089Y0065060D01*
X0126759Y0065060D01*
X0126615Y0065409D01*
X0125349Y0066675D01*
X0123695Y0067360D01*
X0116305Y0067360D01*
X0114651Y0066675D01*
X0113385Y0065409D01*
X0112700Y0063755D01*
X0112700Y0061965D01*
X0113385Y0060311D01*
X0114651Y0059045D01*
X0116305Y0058360D01*
X0123695Y0058360D01*
X0125349Y0059045D01*
X0126615Y0060311D01*
X0126759Y0060660D01*
X0160911Y0060660D01*
X0162200Y0061949D01*
X0168067Y0067816D01*
X0168926Y0067460D01*
X0171074Y0067460D01*
X0173059Y0068282D01*
X0174578Y0069801D01*
X0175400Y0071786D01*
X0175400Y0073934D01*
X0174578Y0075919D01*
X0173059Y0077438D01*
X0171074Y0078260D01*
X0168926Y0078260D01*
X0166941Y0077438D01*
X0165422Y0075919D01*
X0165000Y0074900D01*
X0164647Y0075751D02*
X0165353Y0075751D01*
X0166253Y0076750D02*
X0163747Y0076750D01*
X0162309Y0077748D02*
X0167691Y0077748D01*
X0172309Y0077748D02*
X0182900Y0077748D01*
X0182900Y0076750D02*
X0173747Y0076750D01*
X0174647Y0075751D02*
X0182900Y0075751D01*
X0182900Y0074753D02*
X0175061Y0074753D01*
X0175400Y0073754D02*
X0182900Y0073754D01*
X0182900Y0072756D02*
X0175400Y0072756D01*
X0175388Y0071757D02*
X0182900Y0071757D01*
X0182900Y0070759D02*
X0174975Y0070759D01*
X0174537Y0069760D02*
X0182900Y0069760D01*
X0182900Y0068762D02*
X0173538Y0068762D01*
X0171806Y0067763D02*
X0182900Y0067763D01*
X0182900Y0066765D02*
X0167016Y0066765D01*
X0168015Y0067763D02*
X0168194Y0067763D01*
X0166017Y0065766D02*
X0182900Y0065766D01*
X0182900Y0064768D02*
X0165019Y0064768D01*
X0164020Y0063769D02*
X0182900Y0063769D01*
X0182900Y0062771D02*
X0163022Y0062771D01*
X0162023Y0061772D02*
X0182900Y0061772D01*
X0182900Y0060774D02*
X0161025Y0060774D01*
X0159795Y0065766D02*
X0126258Y0065766D01*
X0125132Y0066765D02*
X0160793Y0066765D01*
X0158194Y0067763D02*
X0102200Y0067763D01*
X0102200Y0066765D02*
X0114868Y0066765D01*
X0113742Y0065766D02*
X0102200Y0065766D01*
X0102200Y0064768D02*
X0113119Y0064768D01*
X0112706Y0063769D02*
X0102200Y0063769D01*
X0102200Y0062771D02*
X0112700Y0062771D01*
X0112780Y0061772D02*
X0102200Y0061772D01*
X0102200Y0060774D02*
X0113193Y0060774D01*
X0113921Y0059775D02*
X0102200Y0059775D01*
X0102200Y0058777D02*
X0115299Y0058777D01*
X0124701Y0058777D02*
X0182900Y0058777D01*
X0182900Y0059775D02*
X0126079Y0059775D01*
X0123695Y0068360D02*
X0125349Y0069045D01*
X0126615Y0070311D01*
X0127300Y0071965D01*
X0127300Y0073755D01*
X0126615Y0075409D01*
X0125349Y0076675D01*
X0123695Y0077360D01*
X0116305Y0077360D01*
X0114651Y0076675D01*
X0113385Y0075409D01*
X0112700Y0073755D01*
X0112700Y0071965D01*
X0113385Y0070311D01*
X0114651Y0069045D01*
X0116305Y0068360D01*
X0123695Y0068360D01*
X0124665Y0068762D02*
X0156461Y0068762D01*
X0155463Y0069760D02*
X0126064Y0069760D01*
X0126800Y0070759D02*
X0155025Y0070759D01*
X0154612Y0071757D02*
X0127214Y0071757D01*
X0127300Y0072756D02*
X0154600Y0072756D01*
X0154600Y0073754D02*
X0127300Y0073754D01*
X0126887Y0074753D02*
X0154939Y0074753D01*
X0155353Y0075751D02*
X0126273Y0075751D01*
X0125168Y0076750D02*
X0156253Y0076750D01*
X0157691Y0077748D02*
X0102200Y0077748D01*
X0102200Y0076750D02*
X0114832Y0076750D01*
X0113727Y0075751D02*
X0102200Y0075751D01*
X0102200Y0074753D02*
X0113113Y0074753D01*
X0112700Y0073754D02*
X0102200Y0073754D01*
X0102200Y0072756D02*
X0112700Y0072756D01*
X0112786Y0071757D02*
X0102200Y0071757D01*
X0102200Y0070759D02*
X0113200Y0070759D01*
X0113936Y0069760D02*
X0102200Y0069760D01*
X0102200Y0068762D02*
X0115335Y0068762D01*
X0116305Y0078360D02*
X0114651Y0079045D01*
X0113385Y0080311D01*
X0112700Y0081965D01*
X0112700Y0083755D01*
X0113385Y0085409D01*
X0114651Y0086675D01*
X0116305Y0087360D01*
X0123695Y0087360D01*
X0125349Y0086675D01*
X0126615Y0085409D01*
X0127300Y0083755D01*
X0127300Y0081965D01*
X0126615Y0080311D01*
X0125349Y0079045D01*
X0123695Y0078360D01*
X0116305Y0078360D01*
X0115371Y0078747D02*
X0102200Y0078747D01*
X0102200Y0079745D02*
X0113951Y0079745D01*
X0113206Y0080744D02*
X0102200Y0080744D01*
X0102200Y0081742D02*
X0112792Y0081742D01*
X0112700Y0082741D02*
X0102200Y0082741D01*
X0102200Y0083739D02*
X0112700Y0083739D01*
X0113107Y0084738D02*
X0102200Y0084738D01*
X0102200Y0085736D02*
X0113712Y0085736D01*
X0114796Y0086735D02*
X0102200Y0086735D01*
X0102200Y0087733D02*
X0138266Y0087733D01*
X0138926Y0087460D02*
X0136941Y0088282D01*
X0135422Y0089801D01*
X0134600Y0091786D01*
X0134600Y0093934D01*
X0135422Y0095919D01*
X0136941Y0097438D01*
X0138926Y0098260D01*
X0141074Y0098260D01*
X0143059Y0097438D01*
X0144578Y0095919D01*
X0145400Y0093934D01*
X0145400Y0091786D01*
X0144578Y0089801D01*
X0143059Y0088282D01*
X0141074Y0087460D01*
X0138926Y0087460D01*
X0141734Y0087733D02*
X0179127Y0087733D01*
X0178782Y0087788D02*
X0179591Y0087660D01*
X0179614Y0087660D01*
X0179614Y0092474D01*
X0180386Y0092474D01*
X0180386Y0087660D01*
X0180409Y0087660D01*
X0181218Y0087788D01*
X0181996Y0088041D01*
X0182725Y0088413D01*
X0182900Y0088539D01*
X0182900Y0057181D01*
X0182725Y0057307D01*
X0181996Y0057679D01*
X0181218Y0057932D01*
X0180409Y0058060D01*
X0180386Y0058060D01*
X0180386Y0053246D01*
X0179614Y0053246D01*
X0179614Y0058060D01*
X0179591Y0058060D01*
X0178782Y0057932D01*
X0178004Y0057679D01*
X0177275Y0057307D01*
X0176612Y0056826D01*
X0176034Y0056248D01*
X0175553Y0055585D01*
X0175181Y0054856D01*
X0174928Y0054078D01*
X0174800Y0053269D01*
X0174800Y0053246D01*
X0179614Y0053246D01*
X0179614Y0052474D01*
X0180386Y0052474D01*
X0180386Y0047660D01*
X0180409Y0047660D01*
X0181218Y0047788D01*
X0181996Y0048041D01*
X0182725Y0048413D01*
X0182900Y0048539D01*
X0182900Y0017181D01*
X0182725Y0017307D01*
X0181996Y0017679D01*
X0181218Y0017932D01*
X0180409Y0018060D01*
X0180386Y0018060D01*
X0180386Y0013246D01*
X0179614Y0013246D01*
X0179614Y0018060D01*
X0179591Y0018060D01*
X0178782Y0017932D01*
X0178004Y0017679D01*
X0177275Y0017307D01*
X0176612Y0016826D01*
X0176034Y0016248D01*
X0175553Y0015585D01*
X0175181Y0014856D01*
X0174928Y0014078D01*
X0174800Y0013269D01*
X0174800Y0013246D01*
X0179614Y0013246D01*
X0179614Y0012474D01*
X0180386Y0012474D01*
X0180386Y0007660D01*
X0180409Y0007660D01*
X0181218Y0007788D01*
X0181996Y0008041D01*
X0182725Y0008413D01*
X0182900Y0008539D01*
X0182900Y0004960D01*
X0015000Y0004960D01*
X0015000Y0210760D01*
X0182900Y0210760D01*
X0182900Y0097181D01*
X0182725Y0097307D01*
X0181996Y0097679D01*
X0181218Y0097932D01*
X0180409Y0098060D01*
X0180386Y0098060D01*
X0180386Y0093246D01*
X0179614Y0093246D01*
X0179614Y0098060D01*
X0179591Y0098060D01*
X0178782Y0097932D01*
X0178004Y0097679D01*
X0177275Y0097307D01*
X0176612Y0096826D01*
X0176034Y0096248D01*
X0175553Y0095585D01*
X0175181Y0094856D01*
X0174928Y0094078D01*
X0174800Y0093269D01*
X0174800Y0093246D01*
X0179614Y0093246D01*
X0179614Y0092474D01*
X0174800Y0092474D01*
X0174800Y0092451D01*
X0174928Y0091642D01*
X0175181Y0090864D01*
X0175553Y0090135D01*
X0176034Y0089472D01*
X0176612Y0088894D01*
X0177275Y0088413D01*
X0178004Y0088041D01*
X0178782Y0087788D01*
X0179614Y0087733D02*
X0180386Y0087733D01*
X0180873Y0087733D02*
X0182900Y0087733D01*
X0182900Y0086735D02*
X0125204Y0086735D01*
X0126288Y0085736D02*
X0182900Y0085736D01*
X0182900Y0084738D02*
X0126893Y0084738D01*
X0127300Y0083739D02*
X0182900Y0083739D01*
X0182900Y0082741D02*
X0127300Y0082741D01*
X0127208Y0081742D02*
X0182900Y0081742D01*
X0182900Y0080744D02*
X0126794Y0080744D01*
X0126049Y0079745D02*
X0182900Y0079745D01*
X0182900Y0078747D02*
X0124629Y0078747D01*
X0123695Y0088360D02*
X0116305Y0088360D01*
X0114651Y0089045D01*
X0113385Y0090311D01*
X0112700Y0091965D01*
X0112700Y0093755D01*
X0113385Y0095409D01*
X0114651Y0096675D01*
X0116305Y0097360D01*
X0123695Y0097360D01*
X0125349Y0096675D01*
X0126615Y0095409D01*
X0127300Y0093755D01*
X0127300Y0091965D01*
X0126615Y0090311D01*
X0125349Y0089045D01*
X0123695Y0088360D01*
X0124593Y0088732D02*
X0136491Y0088732D01*
X0135493Y0089730D02*
X0126034Y0089730D01*
X0126788Y0090729D02*
X0135038Y0090729D01*
X0134624Y0091727D02*
X0127202Y0091727D01*
X0127300Y0092726D02*
X0134600Y0092726D01*
X0134600Y0093725D02*
X0127300Y0093725D01*
X0126899Y0094723D02*
X0134927Y0094723D01*
X0135340Y0095722D02*
X0126302Y0095722D01*
X0125240Y0096720D02*
X0136223Y0096720D01*
X0137619Y0097719D02*
X0107970Y0097719D01*
X0108968Y0098717D02*
X0115443Y0098717D01*
X0114651Y0099045D02*
X0116305Y0098360D01*
X0123695Y0098360D01*
X0125349Y0099045D01*
X0126615Y0100311D01*
X0127300Y0101965D01*
X0127300Y0103755D01*
X0126615Y0105409D01*
X0125349Y0106675D01*
X0123695Y0107360D01*
X0117611Y0107360D01*
X0118611Y0108360D01*
X0123695Y0108360D01*
X0125349Y0109045D01*
X0126615Y0110311D01*
X0127300Y0111965D01*
X0127300Y0113755D01*
X0126615Y0115409D01*
X0125349Y0116675D01*
X0123695Y0117360D01*
X0116305Y0117360D01*
X0114651Y0116675D01*
X0113385Y0115409D01*
X0112700Y0113755D01*
X0112700Y0111965D01*
X0113385Y0110311D01*
X0113862Y0109834D01*
X0104155Y0100126D01*
X0111710Y0111458D01*
X0112200Y0111949D01*
X0112200Y0112194D01*
X0112336Y0112398D01*
X0112200Y0113078D01*
X0112200Y0172341D01*
X0112375Y0172691D01*
X0112200Y0173217D01*
X0112200Y0173771D01*
X0111923Y0174048D01*
X0111799Y0174420D01*
X0111303Y0174668D01*
X0110911Y0175060D01*
X0110519Y0175060D01*
X0097199Y0181720D01*
X0097300Y0181965D01*
X0097300Y0183755D01*
X0096615Y0185409D01*
X0095349Y0186675D01*
X0093695Y0187360D01*
X0086305Y0187360D01*
X0084651Y0186675D01*
X0083385Y0185409D01*
X0082700Y0183755D01*
X0082700Y0181965D01*
X0083385Y0180311D01*
X0084651Y0179045D01*
X0086305Y0178360D01*
X0093695Y0178360D01*
X0093906Y0178447D01*
X0107800Y0171500D01*
X0107800Y0113526D01*
X0098823Y0100060D01*
X0096364Y0100060D01*
X0096615Y0100311D01*
X0097300Y0101965D01*
X0097300Y0103755D01*
X0096615Y0105409D01*
X0095349Y0106675D01*
X0093695Y0107360D01*
X0086305Y0107360D01*
X0084651Y0106675D01*
X0083385Y0105409D01*
X0082700Y0103755D01*
X0082700Y0101965D01*
X0083385Y0100311D01*
X0083636Y0100060D01*
X0049089Y0100060D01*
X0044089Y0095060D01*
X0029934Y0095060D01*
X0029578Y0095919D01*
X0028059Y0097438D01*
X0027040Y0097860D01*
X0028059Y0098282D01*
X0029578Y0099801D01*
X0029934Y0100660D01*
X0075911Y0100660D01*
X0077200Y0101949D01*
X0077200Y0119571D01*
X0078290Y0120662D01*
X0078881Y0122088D01*
X0078881Y0123632D01*
X0078290Y0125058D01*
X0077198Y0126150D01*
X0075772Y0126741D01*
X0074228Y0126741D01*
X0072802Y0126150D01*
X0071710Y0125058D01*
X0071119Y0123632D01*
X0071119Y0122088D01*
X0071710Y0120662D01*
X0072800Y0119571D01*
X0072800Y0105060D01*
X0029934Y0105060D01*
X0029578Y0105919D01*
X0028059Y0107438D01*
X0027040Y0107860D01*
X0028059Y0108282D01*
X0029578Y0109801D01*
X0029934Y0110660D01*
X0060553Y0110660D01*
X0060804Y0110056D01*
X0062196Y0108664D01*
X0064015Y0107910D01*
X0065985Y0107910D01*
X0067804Y0108664D01*
X0069196Y0110056D01*
X0069950Y0111875D01*
X0069950Y0113845D01*
X0069196Y0115664D01*
X0067804Y0117056D01*
X0065985Y0117810D01*
X0064015Y0117810D01*
X0062196Y0117056D01*
X0060804Y0115664D01*
X0060553Y0115060D01*
X0029934Y0115060D01*
X0029578Y0115919D01*
X0028059Y0117438D01*
X0026074Y0118260D01*
X0023926Y0118260D01*
X0021941Y0117438D01*
X0020422Y0115919D01*
X0019600Y0113934D01*
X0019600Y0111786D01*
X0020422Y0109801D01*
X0021941Y0108282D01*
X0022960Y0107860D01*
X0021941Y0107438D01*
X0020422Y0105919D01*
X0019600Y0103934D01*
X0019600Y0101786D01*
X0020422Y0099801D01*
X0021941Y0098282D01*
X0022960Y0097860D01*
X0021941Y0097438D01*
X0020422Y0095919D01*
X0019600Y0093934D01*
X0019600Y0091786D01*
X0020422Y0089801D01*
X0021941Y0088282D01*
X0022960Y0087860D01*
X0021941Y0087438D01*
X0020422Y0085919D01*
X0019600Y0083934D01*
X0019600Y0081786D01*
X0020422Y0079801D01*
X0021941Y0078282D01*
X0022960Y0077860D01*
X0021941Y0077438D01*
X0020422Y0075919D01*
X0019600Y0073934D01*
X0019600Y0071786D01*
X0020422Y0069801D01*
X0021941Y0068282D01*
X0023224Y0067751D01*
X0023004Y0067679D01*
X0022275Y0067307D01*
X0021612Y0066826D01*
X0021034Y0066248D01*
X0020553Y0065585D01*
X0020181Y0064856D01*
X0019928Y0064078D01*
X0019814Y0063360D01*
X0024500Y0063360D01*
X0024500Y0062360D01*
X0019814Y0062360D01*
X0019928Y0061642D01*
X0020181Y0060864D01*
X0020553Y0060135D01*
X0021034Y0059472D01*
X0021612Y0058894D01*
X0022275Y0058413D01*
X0023004Y0058041D01*
X0023782Y0057788D01*
X0024500Y0057674D01*
X0024500Y0062360D01*
X0025500Y0062360D01*
X0025500Y0063360D01*
X0030186Y0063360D01*
X0030072Y0064078D01*
X0029819Y0064856D01*
X0029447Y0065585D01*
X0028966Y0066248D01*
X0028388Y0066826D01*
X0027725Y0067307D01*
X0026996Y0067679D01*
X0026776Y0067751D01*
X0028059Y0068282D01*
X0029578Y0069801D01*
X0030400Y0071786D01*
X0030400Y0073934D01*
X0029578Y0075919D01*
X0028059Y0077438D01*
X0027040Y0077860D01*
X0028059Y0078282D01*
X0029578Y0079801D01*
X0030400Y0081786D01*
X0030400Y0083934D01*
X0029578Y0085919D01*
X0028059Y0087438D01*
X0027040Y0087860D01*
X0028059Y0088282D01*
X0029578Y0089801D01*
X0029934Y0090660D01*
X0045911Y0090660D01*
X0047200Y0091949D01*
X0050911Y0095660D01*
X0083636Y0095660D01*
X0083385Y0095409D01*
X0082700Y0093755D01*
X0082700Y0091965D01*
X0083385Y0090311D01*
X0084651Y0089045D01*
X0086305Y0088360D01*
X0093695Y0088360D01*
X0095349Y0089045D01*
X0096615Y0090311D01*
X0097300Y0091965D01*
X0097300Y0093755D01*
X0096615Y0095409D01*
X0096364Y0095660D01*
X0099334Y0095660D01*
X0099538Y0095524D01*
X0099556Y0095528D01*
X0099089Y0095060D01*
X0097800Y0093771D01*
X0097800Y0058771D01*
X0094089Y0055060D01*
X0092800Y0053771D01*
X0092800Y0048260D01*
X0092763Y0048260D01*
X0089600Y0045097D01*
X0089600Y0040623D01*
X0092363Y0037860D01*
X0089600Y0035097D01*
X0089600Y0030623D01*
X0092763Y0027460D01*
X0097237Y0027460D01*
X0100000Y0030223D01*
X0102763Y0027460D01*
X0107237Y0027460D01*
X0110000Y0030223D01*
X0112763Y0027460D01*
X0117237Y0027460D01*
X0120400Y0030623D01*
X0120400Y0035097D01*
X0117495Y0038001D01*
X0120200Y0040706D01*
X0120200Y0042360D01*
X0115500Y0042360D01*
X0115500Y0043360D01*
X0114500Y0043360D01*
X0114500Y0048060D01*
X0112846Y0048060D01*
X0110141Y0045355D01*
X0107237Y0048260D01*
X0102763Y0048260D01*
X0100000Y0045497D01*
X0097237Y0048260D01*
X0097200Y0048260D01*
X0097200Y0051949D01*
X0102200Y0056949D01*
X0102200Y0091949D01*
X0112700Y0102449D01*
X0112700Y0101965D01*
X0113385Y0100311D01*
X0114651Y0099045D01*
X0113980Y0099716D02*
X0109967Y0099716D01*
X0110965Y0100714D02*
X0113218Y0100714D01*
X0112804Y0101713D02*
X0111964Y0101713D01*
X0108737Y0104708D02*
X0107209Y0104708D01*
X0107738Y0103710D02*
X0106544Y0103710D01*
X0106740Y0102711D02*
X0105878Y0102711D01*
X0105741Y0101713D02*
X0105212Y0101713D01*
X0104743Y0100714D02*
X0104547Y0100714D01*
X0100590Y0102711D02*
X0097300Y0102711D01*
X0097300Y0103710D02*
X0101256Y0103710D01*
X0101921Y0104708D02*
X0096905Y0104708D01*
X0096317Y0105707D02*
X0102587Y0105707D01*
X0103253Y0106705D02*
X0095276Y0106705D01*
X0094521Y0108702D02*
X0104584Y0108702D01*
X0103918Y0107704D02*
X0077200Y0107704D01*
X0077200Y0108702D02*
X0085479Y0108702D01*
X0086305Y0108360D02*
X0093695Y0108360D01*
X0095349Y0109045D01*
X0096615Y0110311D01*
X0097300Y0111965D01*
X0097300Y0113755D01*
X0096615Y0115409D01*
X0095349Y0116675D01*
X0093695Y0117360D01*
X0086305Y0117360D01*
X0084651Y0116675D01*
X0083385Y0115409D01*
X0082700Y0113755D01*
X0082700Y0111965D01*
X0083385Y0110311D01*
X0084651Y0109045D01*
X0086305Y0108360D01*
X0084724Y0106705D02*
X0077200Y0106705D01*
X0077200Y0105707D02*
X0083683Y0105707D01*
X0083095Y0104708D02*
X0077200Y0104708D01*
X0077200Y0103710D02*
X0082700Y0103710D01*
X0082700Y0102711D02*
X0077200Y0102711D01*
X0076964Y0101713D02*
X0082804Y0101713D01*
X0083218Y0100714D02*
X0075965Y0100714D01*
X0075000Y0102860D02*
X0075000Y0122860D01*
X0072328Y0125677D02*
X0069183Y0125677D01*
X0069196Y0125664D02*
X0067804Y0127056D01*
X0065985Y0127810D01*
X0064015Y0127810D01*
X0062196Y0127056D01*
X0060804Y0125664D01*
X0060553Y0125060D01*
X0031360Y0125060D01*
X0027200Y0133379D01*
X0027200Y0152926D01*
X0028059Y0153282D01*
X0029578Y0154801D01*
X0030400Y0156786D01*
X0030400Y0158934D01*
X0029578Y0160919D01*
X0028059Y0162438D01*
X0026074Y0163260D01*
X0023926Y0163260D01*
X0021941Y0162438D01*
X0020422Y0160919D01*
X0019600Y0158934D01*
X0019600Y0156786D01*
X0020422Y0154801D01*
X0021941Y0153282D01*
X0022800Y0152926D01*
X0022800Y0133217D01*
X0022625Y0132691D01*
X0022800Y0132341D01*
X0022800Y0131949D01*
X0023192Y0131557D01*
X0027800Y0122341D01*
X0027800Y0121949D01*
X0028192Y0121557D01*
X0028440Y0121061D01*
X0028812Y0120937D01*
X0029089Y0120660D01*
X0029643Y0120660D01*
X0030169Y0120485D01*
X0030519Y0120660D01*
X0060553Y0120660D01*
X0060804Y0120056D01*
X0062196Y0118664D01*
X0064015Y0117910D01*
X0065985Y0117910D01*
X0067804Y0118664D01*
X0069196Y0120056D01*
X0069950Y0121875D01*
X0069950Y0123845D01*
X0069196Y0125664D01*
X0069605Y0124678D02*
X0071552Y0124678D01*
X0071139Y0123680D02*
X0069950Y0123680D01*
X0069950Y0122681D02*
X0071119Y0122681D01*
X0071287Y0121683D02*
X0069870Y0121683D01*
X0069457Y0120684D02*
X0071700Y0120684D01*
X0072685Y0119686D02*
X0068826Y0119686D01*
X0067828Y0118687D02*
X0072800Y0118687D01*
X0072800Y0117689D02*
X0066277Y0117689D01*
X0068170Y0116690D02*
X0072800Y0116690D01*
X0072800Y0115692D02*
X0069169Y0115692D01*
X0069598Y0114693D02*
X0072800Y0114693D01*
X0072800Y0113695D02*
X0069950Y0113695D01*
X0069950Y0112696D02*
X0072800Y0112696D01*
X0072800Y0111698D02*
X0069876Y0111698D01*
X0069463Y0110699D02*
X0072800Y0110699D01*
X0072800Y0109701D02*
X0068841Y0109701D01*
X0067843Y0108702D02*
X0072800Y0108702D01*
X0072800Y0107704D02*
X0027417Y0107704D01*
X0028479Y0108702D02*
X0062157Y0108702D01*
X0061159Y0109701D02*
X0029477Y0109701D01*
X0028792Y0106705D02*
X0072800Y0106705D01*
X0072800Y0105707D02*
X0029666Y0105707D01*
X0025000Y0102860D02*
X0075000Y0102860D01*
X0077200Y0109701D02*
X0083995Y0109701D01*
X0083224Y0110699D02*
X0077200Y0110699D01*
X0077200Y0111698D02*
X0082811Y0111698D01*
X0082700Y0112696D02*
X0077200Y0112696D01*
X0077200Y0113695D02*
X0082700Y0113695D01*
X0083089Y0114693D02*
X0077200Y0114693D01*
X0077200Y0115692D02*
X0083668Y0115692D01*
X0084688Y0116690D02*
X0077200Y0116690D01*
X0077200Y0117689D02*
X0096119Y0117689D01*
X0096119Y0117088D02*
X0096710Y0115662D01*
X0097802Y0114570D01*
X0099228Y0113979D01*
X0100772Y0113979D01*
X0102198Y0114570D01*
X0103290Y0115662D01*
X0103881Y0117088D01*
X0103881Y0118632D01*
X0103290Y0120058D01*
X0102200Y0121149D01*
X0102200Y0133771D01*
X0100911Y0135060D01*
X0096759Y0135060D01*
X0096615Y0135409D01*
X0095349Y0136675D01*
X0093695Y0137360D01*
X0086305Y0137360D01*
X0084651Y0136675D01*
X0083385Y0135409D01*
X0083241Y0135060D01*
X0080911Y0135060D01*
X0067200Y0148771D01*
X0067200Y0152926D01*
X0068059Y0153282D01*
X0069578Y0154801D01*
X0070400Y0156786D01*
X0070400Y0158934D01*
X0070044Y0159793D01*
X0070911Y0160660D01*
X0072200Y0161949D01*
X0072200Y0178771D01*
X0065737Y0185235D01*
X0067099Y0186597D01*
X0068442Y0188923D01*
X0069137Y0191517D01*
X0069137Y0194203D01*
X0068442Y0196797D01*
X0067099Y0199123D01*
X0065200Y0201022D01*
X0062874Y0202365D01*
X0060280Y0203060D01*
X0057594Y0203060D01*
X0055000Y0202365D01*
X0052674Y0201022D01*
X0050775Y0199123D01*
X0049432Y0196797D01*
X0048737Y0194203D01*
X0048737Y0191517D01*
X0049432Y0188923D01*
X0050775Y0186597D01*
X0052674Y0184698D01*
X0055000Y0183355D01*
X0057594Y0182660D01*
X0060280Y0182660D01*
X0061706Y0183042D01*
X0067800Y0176949D01*
X0067800Y0163771D01*
X0066933Y0162904D01*
X0066074Y0163260D01*
X0063926Y0163260D01*
X0061941Y0162438D01*
X0060422Y0160919D01*
X0059600Y0158934D01*
X0059600Y0156786D01*
X0060422Y0154801D01*
X0061941Y0153282D01*
X0062800Y0152926D01*
X0062800Y0152186D01*
X0049089Y0152186D01*
X0047800Y0150897D01*
X0047800Y0147307D01*
X0047196Y0147056D01*
X0045804Y0145664D01*
X0045050Y0143845D01*
X0045050Y0141875D01*
X0045804Y0140056D01*
X0047196Y0138664D01*
X0049015Y0137910D01*
X0050985Y0137910D01*
X0052804Y0138664D01*
X0054196Y0140056D01*
X0054950Y0141875D01*
X0054950Y0143845D01*
X0054196Y0145664D01*
X0052804Y0147056D01*
X0052200Y0147307D01*
X0052200Y0147786D01*
X0061963Y0147786D01*
X0064089Y0145660D01*
X0077800Y0131949D01*
X0079089Y0130660D01*
X0083241Y0130660D01*
X0083385Y0130311D01*
X0084651Y0129045D01*
X0086305Y0128360D01*
X0093695Y0128360D01*
X0095349Y0129045D01*
X0096615Y0130311D01*
X0096759Y0130660D01*
X0097800Y0130660D01*
X0097800Y0121149D01*
X0096710Y0120058D01*
X0096119Y0118632D01*
X0096119Y0117088D01*
X0096284Y0116690D02*
X0095312Y0116690D01*
X0096332Y0115692D02*
X0096697Y0115692D01*
X0096911Y0114693D02*
X0097678Y0114693D01*
X0097300Y0113695D02*
X0107800Y0113695D01*
X0107800Y0114693D02*
X0102322Y0114693D01*
X0103303Y0115692D02*
X0107800Y0115692D01*
X0107800Y0116690D02*
X0103716Y0116690D01*
X0103881Y0117689D02*
X0107800Y0117689D01*
X0107800Y0118687D02*
X0103858Y0118687D01*
X0103445Y0119686D02*
X0107800Y0119686D01*
X0107800Y0120684D02*
X0102664Y0120684D01*
X0102200Y0121683D02*
X0107800Y0121683D01*
X0107800Y0122681D02*
X0102200Y0122681D01*
X0102200Y0123680D02*
X0107800Y0123680D01*
X0107800Y0124678D02*
X0102200Y0124678D01*
X0102200Y0125677D02*
X0107800Y0125677D01*
X0107800Y0126675D02*
X0102200Y0126675D01*
X0102200Y0127674D02*
X0107800Y0127674D01*
X0107800Y0128672D02*
X0102200Y0128672D01*
X0102200Y0129671D02*
X0107800Y0129671D01*
X0107800Y0130669D02*
X0102200Y0130669D01*
X0102200Y0131668D02*
X0107800Y0131668D01*
X0107800Y0132666D02*
X0102200Y0132666D01*
X0102200Y0133665D02*
X0107800Y0133665D01*
X0107800Y0134663D02*
X0101308Y0134663D01*
X0100000Y0132860D02*
X0090000Y0132860D01*
X0080000Y0132860D01*
X0065000Y0147860D01*
X0062874Y0149986D01*
X0050000Y0149986D01*
X0050000Y0142860D01*
X0054617Y0144649D02*
X0065100Y0144649D01*
X0064102Y0145647D02*
X0054203Y0145647D01*
X0053215Y0146646D02*
X0063103Y0146646D01*
X0064089Y0145660D02*
X0064089Y0145660D01*
X0065000Y0147860D02*
X0065000Y0157860D01*
X0070000Y0162860D01*
X0070000Y0177860D01*
X0058937Y0188923D01*
X0058937Y0192860D01*
X0051784Y0185588D02*
X0042185Y0185588D01*
X0041989Y0185392D02*
X0042783Y0186186D01*
X0043483Y0187064D01*
X0044081Y0188015D01*
X0044568Y0189027D01*
X0044939Y0190087D01*
X0045189Y0191182D01*
X0045315Y0192298D01*
X0045315Y0192360D01*
X0035815Y0192360D01*
X0035815Y0193360D01*
X0045315Y0193360D01*
X0045315Y0193422D01*
X0045189Y0194538D01*
X0044939Y0195633D01*
X0044568Y0196693D01*
X0044081Y0197705D01*
X0043483Y0198656D01*
X0042783Y0199534D01*
X0041989Y0200328D01*
X0041111Y0201028D01*
X0040160Y0201626D01*
X0039148Y0202113D01*
X0038088Y0202484D01*
X0036993Y0202734D01*
X0035877Y0202860D01*
X0035815Y0202860D01*
X0035815Y0193360D01*
X0034815Y0193360D01*
X0034815Y0202860D01*
X0034753Y0202860D01*
X0033637Y0202734D01*
X0032542Y0202484D01*
X0031482Y0202113D01*
X0030470Y0201626D01*
X0029519Y0201028D01*
X0028641Y0200328D01*
X0027847Y0199534D01*
X0027146Y0198656D01*
X0026549Y0197705D01*
X0026062Y0196693D01*
X0025691Y0195633D01*
X0025441Y0194538D01*
X0025315Y0193422D01*
X0025315Y0193360D01*
X0034815Y0193360D01*
X0034815Y0192360D01*
X0035815Y0192360D01*
X0035815Y0182860D01*
X0035877Y0182860D01*
X0036993Y0182986D01*
X0038088Y0183236D01*
X0039148Y0183607D01*
X0040160Y0184094D01*
X0041111Y0184692D01*
X0041989Y0185392D01*
X0040948Y0184589D02*
X0052863Y0184589D01*
X0051971Y0183122D02*
X0050959Y0183609D01*
X0049899Y0183980D01*
X0048804Y0184230D01*
X0047688Y0184356D01*
X0047626Y0184356D01*
X0047626Y0174856D01*
X0057126Y0174856D01*
X0057126Y0174918D01*
X0057000Y0176034D01*
X0056750Y0177129D01*
X0056379Y0178189D01*
X0055892Y0179201D01*
X0055294Y0180152D01*
X0054594Y0181030D01*
X0053800Y0181824D01*
X0052922Y0182525D01*
X0051971Y0183122D01*
X0052814Y0182592D02*
X0062157Y0182592D01*
X0063155Y0181594D02*
X0054031Y0181594D01*
X0054941Y0180595D02*
X0064154Y0180595D01*
X0065152Y0179596D02*
X0055643Y0179596D01*
X0056182Y0178598D02*
X0066151Y0178598D01*
X0067149Y0177599D02*
X0056586Y0177599D01*
X0056871Y0176601D02*
X0067800Y0176601D01*
X0067800Y0175602D02*
X0057049Y0175602D01*
X0057126Y0173856D02*
X0047626Y0173856D01*
X0047626Y0164356D01*
X0047688Y0164356D01*
X0048804Y0164482D01*
X0049899Y0164732D01*
X0050959Y0165103D01*
X0051971Y0165590D01*
X0052922Y0166188D01*
X0053800Y0166888D01*
X0054594Y0167682D01*
X0055294Y0168560D01*
X0055892Y0169511D01*
X0056379Y0170523D01*
X0056750Y0171583D01*
X0057000Y0172678D01*
X0057126Y0173794D01*
X0057126Y0173856D01*
X0057105Y0173605D02*
X0067800Y0173605D01*
X0067800Y0172607D02*
X0056984Y0172607D01*
X0056756Y0171608D02*
X0067800Y0171608D01*
X0067800Y0170610D02*
X0056410Y0170610D01*
X0055940Y0169611D02*
X0067800Y0169611D01*
X0067800Y0168613D02*
X0055328Y0168613D01*
X0054526Y0167614D02*
X0067800Y0167614D01*
X0067800Y0166616D02*
X0053459Y0166616D01*
X0052014Y0165617D02*
X0067800Y0165617D01*
X0067800Y0164619D02*
X0049404Y0164619D01*
X0047626Y0164619D02*
X0046626Y0164619D01*
X0046626Y0164356D02*
X0046626Y0173856D01*
X0047626Y0173856D01*
X0047626Y0174856D01*
X0046626Y0174856D01*
X0046626Y0173856D01*
X0037126Y0173856D01*
X0037126Y0173794D01*
X0037252Y0172678D01*
X0037502Y0171583D01*
X0037873Y0170523D01*
X0038360Y0169511D01*
X0038958Y0168560D01*
X0039658Y0167682D01*
X0040452Y0166888D01*
X0041330Y0166188D01*
X0042281Y0165590D01*
X0043293Y0165103D01*
X0044353Y0164732D01*
X0045448Y0164482D01*
X0046564Y0164356D01*
X0046626Y0164356D01*
X0046626Y0165617D02*
X0047626Y0165617D01*
X0047626Y0166616D02*
X0046626Y0166616D01*
X0046626Y0167614D02*
X0047626Y0167614D01*
X0047626Y0168613D02*
X0046626Y0168613D01*
X0046626Y0169611D02*
X0047626Y0169611D01*
X0047626Y0170610D02*
X0046626Y0170610D01*
X0046626Y0171608D02*
X0047626Y0171608D01*
X0047626Y0172607D02*
X0046626Y0172607D01*
X0046626Y0173605D02*
X0047626Y0173605D01*
X0047126Y0174356D02*
X0035000Y0186482D01*
X0035000Y0192545D01*
X0035315Y0192860D01*
X0035315Y0188175D01*
X0030000Y0182860D01*
X0030000Y0142860D01*
X0027200Y0142652D02*
X0035250Y0142652D01*
X0035250Y0142671D02*
X0035250Y0142486D01*
X0035367Y0141748D01*
X0035598Y0141037D01*
X0035937Y0140370D01*
X0036377Y0139766D01*
X0036906Y0139237D01*
X0037510Y0138797D01*
X0038177Y0138458D01*
X0038888Y0138227D01*
X0039626Y0138110D01*
X0039811Y0138110D01*
X0039811Y0142671D01*
X0035250Y0142671D01*
X0035250Y0143049D02*
X0039811Y0143049D01*
X0039811Y0147610D01*
X0039626Y0147610D01*
X0038888Y0147493D01*
X0038177Y0147262D01*
X0037510Y0146923D01*
X0036906Y0146483D01*
X0036377Y0145954D01*
X0035937Y0145350D01*
X0035598Y0144683D01*
X0035367Y0143972D01*
X0035250Y0143234D01*
X0035250Y0143049D01*
X0035316Y0143650D02*
X0027200Y0143650D01*
X0027200Y0144649D02*
X0035587Y0144649D01*
X0036154Y0145647D02*
X0027200Y0145647D01*
X0027200Y0146646D02*
X0037129Y0146646D01*
X0039811Y0146646D02*
X0040189Y0146646D01*
X0040189Y0147610D02*
X0040374Y0147610D01*
X0041112Y0147493D01*
X0041823Y0147262D01*
X0042490Y0146923D01*
X0043094Y0146483D01*
X0043623Y0145954D01*
X0044063Y0145350D01*
X0044402Y0144683D01*
X0044633Y0143972D01*
X0044750Y0143234D01*
X0044750Y0143049D01*
X0040189Y0143049D01*
X0039811Y0143049D01*
X0039811Y0142671D01*
X0040189Y0142671D01*
X0040189Y0143049D01*
X0040189Y0147610D01*
X0040189Y0145647D02*
X0039811Y0145647D01*
X0039811Y0144649D02*
X0040189Y0144649D01*
X0040189Y0143650D02*
X0039811Y0143650D01*
X0040000Y0142860D02*
X0050000Y0132860D01*
X0050000Y0127860D01*
X0050000Y0132860D02*
X0075000Y0132860D01*
X0085000Y0122860D01*
X0090000Y0122860D01*
X0090300Y0122681D02*
X0097800Y0122681D01*
X0097100Y0122560D02*
X0090300Y0122560D01*
X0090300Y0123160D01*
X0089700Y0123160D01*
X0089700Y0127160D01*
X0086862Y0127160D01*
X0086193Y0127054D01*
X0085549Y0126845D01*
X0084946Y0126538D01*
X0084399Y0126140D01*
X0083920Y0125661D01*
X0083522Y0125114D01*
X0083215Y0124511D01*
X0083006Y0123867D01*
X0082900Y0123198D01*
X0082900Y0123160D01*
X0089700Y0123160D01*
X0089700Y0122560D01*
X0082900Y0122560D01*
X0082900Y0122522D01*
X0083006Y0121853D01*
X0083215Y0121209D01*
X0083522Y0120606D01*
X0083920Y0120059D01*
X0084399Y0119580D01*
X0084946Y0119182D01*
X0085549Y0118875D01*
X0086193Y0118666D01*
X0086862Y0118560D01*
X0089700Y0118560D01*
X0089700Y0122560D01*
X0090300Y0122560D01*
X0090300Y0118560D01*
X0093138Y0118560D01*
X0093807Y0118666D01*
X0094451Y0118875D01*
X0095054Y0119182D01*
X0095601Y0119580D01*
X0096080Y0120059D01*
X0096478Y0120606D01*
X0096785Y0121209D01*
X0096994Y0121853D01*
X0097100Y0122522D01*
X0097100Y0122560D01*
X0097100Y0123160D02*
X0097100Y0123198D01*
X0096994Y0123867D01*
X0096785Y0124511D01*
X0096478Y0125114D01*
X0096080Y0125661D01*
X0095601Y0126140D01*
X0095054Y0126538D01*
X0094451Y0126845D01*
X0093807Y0127054D01*
X0093138Y0127160D01*
X0090300Y0127160D01*
X0090300Y0123160D01*
X0097100Y0123160D01*
X0097024Y0123680D02*
X0097800Y0123680D01*
X0097800Y0124678D02*
X0096699Y0124678D01*
X0096064Y0125677D02*
X0097800Y0125677D01*
X0097800Y0126675D02*
X0094783Y0126675D01*
X0094449Y0128672D02*
X0097800Y0128672D01*
X0097800Y0127674D02*
X0066313Y0127674D01*
X0068185Y0126675D02*
X0074069Y0126675D01*
X0075931Y0126675D02*
X0085217Y0126675D01*
X0083936Y0125677D02*
X0077672Y0125677D01*
X0078448Y0124678D02*
X0083301Y0124678D01*
X0082976Y0123680D02*
X0078861Y0123680D01*
X0078881Y0122681D02*
X0089700Y0122681D01*
X0089700Y0121683D02*
X0090300Y0121683D01*
X0090300Y0120684D02*
X0089700Y0120684D01*
X0089700Y0119686D02*
X0090300Y0119686D01*
X0090300Y0118687D02*
X0089700Y0118687D01*
X0086127Y0118687D02*
X0077200Y0118687D01*
X0077315Y0119686D02*
X0084293Y0119686D01*
X0083483Y0120684D02*
X0078300Y0120684D01*
X0078713Y0121683D02*
X0083061Y0121683D01*
X0085551Y0128672D02*
X0029553Y0128672D01*
X0030053Y0127674D02*
X0063687Y0127674D01*
X0061815Y0126675D02*
X0030552Y0126675D01*
X0031051Y0125677D02*
X0060817Y0125677D01*
X0065000Y0122860D02*
X0030000Y0122860D01*
X0025000Y0132860D01*
X0025000Y0157860D01*
X0021127Y0161623D02*
X0015000Y0161623D01*
X0015000Y0160625D02*
X0020300Y0160625D01*
X0019887Y0159626D02*
X0015000Y0159626D01*
X0015000Y0158628D02*
X0019600Y0158628D01*
X0019600Y0157629D02*
X0015000Y0157629D01*
X0015000Y0156631D02*
X0019664Y0156631D01*
X0020078Y0155632D02*
X0015000Y0155632D01*
X0015000Y0154634D02*
X0020590Y0154634D01*
X0021588Y0153635D02*
X0015000Y0153635D01*
X0015000Y0152637D02*
X0022800Y0152637D01*
X0022800Y0151638D02*
X0015000Y0151638D01*
X0015000Y0150640D02*
X0022800Y0150640D01*
X0022800Y0149641D02*
X0015000Y0149641D01*
X0015000Y0148643D02*
X0022800Y0148643D01*
X0022800Y0147644D02*
X0015000Y0147644D01*
X0015000Y0146646D02*
X0022800Y0146646D01*
X0022800Y0145647D02*
X0015000Y0145647D01*
X0015000Y0144649D02*
X0022800Y0144649D01*
X0022800Y0143650D02*
X0015000Y0143650D01*
X0015000Y0142652D02*
X0022800Y0142652D01*
X0022800Y0141653D02*
X0015000Y0141653D01*
X0015000Y0140655D02*
X0022800Y0140655D01*
X0022800Y0139656D02*
X0015000Y0139656D01*
X0015000Y0138658D02*
X0022800Y0138658D01*
X0022800Y0137659D02*
X0015000Y0137659D01*
X0015000Y0136661D02*
X0022800Y0136661D01*
X0022800Y0135662D02*
X0015000Y0135662D01*
X0015000Y0134663D02*
X0022800Y0134663D01*
X0022800Y0133665D02*
X0015000Y0133665D01*
X0015000Y0132666D02*
X0022637Y0132666D01*
X0023081Y0131668D02*
X0015000Y0131668D01*
X0015000Y0130669D02*
X0023636Y0130669D01*
X0024135Y0129671D02*
X0015000Y0129671D01*
X0015000Y0128672D02*
X0024634Y0128672D01*
X0025133Y0127674D02*
X0015000Y0127674D01*
X0015000Y0126675D02*
X0025633Y0126675D01*
X0026132Y0125677D02*
X0015000Y0125677D01*
X0015000Y0124678D02*
X0026631Y0124678D01*
X0027130Y0123680D02*
X0015000Y0123680D01*
X0015000Y0122681D02*
X0027630Y0122681D01*
X0028066Y0121683D02*
X0015000Y0121683D01*
X0015000Y0120684D02*
X0029064Y0120684D01*
X0027453Y0117689D02*
X0063723Y0117689D01*
X0062172Y0118687D02*
X0015000Y0118687D01*
X0015000Y0117689D02*
X0022547Y0117689D01*
X0021194Y0116690D02*
X0015000Y0116690D01*
X0015000Y0115692D02*
X0020328Y0115692D01*
X0019914Y0114693D02*
X0015000Y0114693D01*
X0015000Y0113695D02*
X0019600Y0113695D01*
X0019600Y0112696D02*
X0015000Y0112696D01*
X0015000Y0111698D02*
X0019637Y0111698D01*
X0020050Y0110699D02*
X0015000Y0110699D01*
X0015000Y0109701D02*
X0020523Y0109701D01*
X0021521Y0108702D02*
X0015000Y0108702D01*
X0015000Y0107704D02*
X0022583Y0107704D01*
X0021208Y0106705D02*
X0015000Y0106705D01*
X0015000Y0105707D02*
X0020334Y0105707D01*
X0019921Y0104708D02*
X0015000Y0104708D01*
X0015000Y0103710D02*
X0019600Y0103710D01*
X0019600Y0102711D02*
X0015000Y0102711D01*
X0015000Y0101713D02*
X0019630Y0101713D01*
X0020044Y0100714D02*
X0015000Y0100714D01*
X0015000Y0099716D02*
X0020508Y0099716D01*
X0021506Y0098717D02*
X0015000Y0098717D01*
X0015000Y0097719D02*
X0022619Y0097719D01*
X0021223Y0096720D02*
X0015000Y0096720D01*
X0015000Y0095722D02*
X0020340Y0095722D01*
X0019927Y0094723D02*
X0015000Y0094723D01*
X0015000Y0093725D02*
X0019600Y0093725D01*
X0019600Y0092726D02*
X0015000Y0092726D01*
X0015000Y0091727D02*
X0019624Y0091727D01*
X0020038Y0090729D02*
X0015000Y0090729D01*
X0015000Y0089730D02*
X0020493Y0089730D01*
X0021491Y0088732D02*
X0015000Y0088732D01*
X0015000Y0087733D02*
X0022655Y0087733D01*
X0021238Y0086735D02*
X0015000Y0086735D01*
X0015000Y0085736D02*
X0020347Y0085736D01*
X0019933Y0084738D02*
X0015000Y0084738D01*
X0015000Y0083739D02*
X0019600Y0083739D01*
X0019600Y0082741D02*
X0015000Y0082741D01*
X0015000Y0081742D02*
X0019618Y0081742D01*
X0020032Y0080744D02*
X0015000Y0080744D01*
X0015000Y0079745D02*
X0020478Y0079745D01*
X0021476Y0078747D02*
X0015000Y0078747D01*
X0015000Y0077748D02*
X0022691Y0077748D01*
X0021253Y0076750D02*
X0015000Y0076750D01*
X0015000Y0075751D02*
X0020353Y0075751D01*
X0019939Y0074753D02*
X0015000Y0074753D01*
X0015000Y0073754D02*
X0019600Y0073754D01*
X0019600Y0072756D02*
X0015000Y0072756D01*
X0015000Y0071757D02*
X0019612Y0071757D01*
X0020025Y0070759D02*
X0015000Y0070759D01*
X0015000Y0069760D02*
X0020463Y0069760D01*
X0021461Y0068762D02*
X0015000Y0068762D01*
X0015000Y0067763D02*
X0023194Y0067763D01*
X0021551Y0066765D02*
X0015000Y0066765D01*
X0015000Y0065766D02*
X0020684Y0065766D01*
X0020152Y0064768D02*
X0015000Y0064768D01*
X0015000Y0063769D02*
X0019879Y0063769D01*
X0019907Y0061772D02*
X0015000Y0061772D01*
X0015000Y0060774D02*
X0020227Y0060774D01*
X0020814Y0059775D02*
X0015000Y0059775D01*
X0015000Y0058777D02*
X0021773Y0058777D01*
X0023845Y0057778D02*
X0015000Y0057778D01*
X0015000Y0056780D02*
X0075808Y0056780D01*
X0076807Y0057778D02*
X0026155Y0057778D01*
X0026218Y0057788D02*
X0026996Y0058041D01*
X0027725Y0058413D01*
X0028388Y0058894D01*
X0028966Y0059472D01*
X0029447Y0060135D01*
X0029819Y0060864D01*
X0030072Y0061642D01*
X0030186Y0062360D01*
X0025500Y0062360D01*
X0025500Y0057674D01*
X0026218Y0057788D01*
X0025500Y0057778D02*
X0024500Y0057778D01*
X0024500Y0058777D02*
X0025500Y0058777D01*
X0025500Y0059775D02*
X0024500Y0059775D01*
X0024500Y0060774D02*
X0025500Y0060774D01*
X0025500Y0061772D02*
X0024500Y0061772D01*
X0024500Y0062771D02*
X0015000Y0062771D01*
X0015000Y0055781D02*
X0074810Y0055781D01*
X0073811Y0054783D02*
X0015000Y0054783D01*
X0015000Y0053784D02*
X0072813Y0053784D01*
X0072800Y0053771D02*
X0072800Y0011949D01*
X0074089Y0010660D01*
X0129782Y0010660D01*
X0130462Y0010524D01*
X0130666Y0010660D01*
X0130911Y0010660D01*
X0131402Y0011150D01*
X0134600Y0013283D01*
X0134600Y0011786D01*
X0135422Y0009801D01*
X0136941Y0008282D01*
X0138926Y0007460D01*
X0141074Y0007460D01*
X0143059Y0008282D01*
X0144578Y0009801D01*
X0145400Y0011786D01*
X0145400Y0013934D01*
X0144578Y0015919D01*
X0143059Y0017438D01*
X0141686Y0018007D01*
X0145666Y0020660D01*
X0164481Y0020660D01*
X0164831Y0020485D01*
X0165357Y0020660D01*
X0165911Y0020660D01*
X0166188Y0020937D01*
X0166560Y0021061D01*
X0166808Y0021557D01*
X0167200Y0021949D01*
X0167200Y0022341D01*
X0169760Y0027460D01*
X0171074Y0027460D01*
X0173059Y0028282D01*
X0174578Y0029801D01*
X0175400Y0031786D01*
X0175400Y0033934D01*
X0174578Y0035919D01*
X0173059Y0037438D01*
X0171074Y0038260D01*
X0168926Y0038260D01*
X0166941Y0037438D01*
X0165422Y0035919D01*
X0165000Y0034900D01*
X0164578Y0035919D01*
X0163059Y0037438D01*
X0161074Y0038260D01*
X0158926Y0038260D01*
X0156941Y0037438D01*
X0155422Y0035919D01*
X0154600Y0033934D01*
X0154600Y0031786D01*
X0155422Y0029801D01*
X0156941Y0028282D01*
X0158926Y0027460D01*
X0161074Y0027460D01*
X0163059Y0028282D01*
X0164578Y0029801D01*
X0165000Y0030820D01*
X0165422Y0029801D01*
X0165815Y0029409D01*
X0163640Y0025060D01*
X0145218Y0025060D01*
X0144538Y0025196D01*
X0144334Y0025060D01*
X0144089Y0025060D01*
X0143598Y0024570D01*
X0129334Y0015060D01*
X0077200Y0015060D01*
X0077200Y0051949D01*
X0084474Y0059222D01*
X0084651Y0059045D01*
X0086305Y0058360D01*
X0093695Y0058360D01*
X0095349Y0059045D01*
X0096615Y0060311D01*
X0097300Y0061965D01*
X0097300Y0063755D01*
X0096615Y0065409D01*
X0095349Y0066675D01*
X0093695Y0067360D01*
X0086305Y0067360D01*
X0084651Y0066675D01*
X0083385Y0065409D01*
X0082700Y0063755D01*
X0082700Y0063671D01*
X0072800Y0053771D01*
X0072800Y0052786D02*
X0015000Y0052786D01*
X0015000Y0051787D02*
X0072800Y0051787D01*
X0072800Y0050789D02*
X0015000Y0050789D01*
X0015000Y0049790D02*
X0072800Y0049790D01*
X0072800Y0048792D02*
X0015000Y0048792D01*
X0015000Y0047793D02*
X0072800Y0047793D01*
X0072800Y0046794D02*
X0015000Y0046794D01*
X0015000Y0045796D02*
X0072800Y0045796D01*
X0072800Y0044797D02*
X0015000Y0044797D01*
X0015000Y0043799D02*
X0072800Y0043799D01*
X0072800Y0042800D02*
X0015000Y0042800D01*
X0015000Y0041802D02*
X0072800Y0041802D01*
X0072800Y0040803D02*
X0015000Y0040803D01*
X0015000Y0039805D02*
X0072800Y0039805D01*
X0072800Y0038806D02*
X0015000Y0038806D01*
X0015000Y0037808D02*
X0072800Y0037808D01*
X0072800Y0036809D02*
X0015000Y0036809D01*
X0015000Y0035811D02*
X0072800Y0035811D01*
X0072800Y0034812D02*
X0015000Y0034812D01*
X0015000Y0033814D02*
X0072800Y0033814D01*
X0072800Y0032815D02*
X0015000Y0032815D01*
X0015000Y0031817D02*
X0072800Y0031817D01*
X0072800Y0030818D02*
X0015000Y0030818D01*
X0015000Y0029820D02*
X0072800Y0029820D01*
X0072800Y0028821D02*
X0015000Y0028821D01*
X0015000Y0027823D02*
X0072800Y0027823D01*
X0072800Y0026824D02*
X0015000Y0026824D01*
X0015000Y0025826D02*
X0072800Y0025826D01*
X0072800Y0024827D02*
X0015000Y0024827D01*
X0015000Y0023829D02*
X0072800Y0023829D01*
X0072800Y0022830D02*
X0015000Y0022830D01*
X0015000Y0021832D02*
X0072800Y0021832D01*
X0072800Y0020833D02*
X0015000Y0020833D01*
X0015000Y0019835D02*
X0072800Y0019835D01*
X0072800Y0018836D02*
X0015000Y0018836D01*
X0015000Y0017838D02*
X0072800Y0017838D01*
X0072800Y0016839D02*
X0015000Y0016839D01*
X0015000Y0015841D02*
X0072800Y0015841D01*
X0072800Y0014842D02*
X0015000Y0014842D01*
X0015000Y0013844D02*
X0072800Y0013844D01*
X0072800Y0012845D02*
X0015000Y0012845D01*
X0015000Y0011847D02*
X0072902Y0011847D01*
X0073901Y0010848D02*
X0015000Y0010848D01*
X0015000Y0009850D02*
X0135402Y0009850D01*
X0134988Y0010848D02*
X0131099Y0010848D01*
X0132446Y0011847D02*
X0134600Y0011847D01*
X0134600Y0012845D02*
X0133944Y0012845D01*
X0136372Y0008851D02*
X0015000Y0008851D01*
X0015000Y0007853D02*
X0137978Y0007853D01*
X0142022Y0007853D02*
X0178584Y0007853D01*
X0178782Y0007788D02*
X0179591Y0007660D01*
X0179614Y0007660D01*
X0179614Y0012474D01*
X0174800Y0012474D01*
X0174800Y0012451D01*
X0174928Y0011642D01*
X0175181Y0010864D01*
X0175553Y0010135D01*
X0176034Y0009472D01*
X0176612Y0008894D01*
X0177275Y0008413D01*
X0178004Y0008041D01*
X0178782Y0007788D01*
X0179614Y0007853D02*
X0180386Y0007853D01*
X0180386Y0008851D02*
X0179614Y0008851D01*
X0179614Y0009850D02*
X0180386Y0009850D01*
X0180386Y0010848D02*
X0179614Y0010848D01*
X0179614Y0011847D02*
X0180386Y0011847D01*
X0180000Y0012860D02*
X0180000Y0052860D01*
X0170000Y0042860D01*
X0115000Y0042860D01*
X0115500Y0042800D02*
X0182900Y0042800D01*
X0182900Y0041802D02*
X0120200Y0041802D01*
X0120200Y0040803D02*
X0182900Y0040803D01*
X0182900Y0039805D02*
X0119299Y0039805D01*
X0118300Y0038806D02*
X0182900Y0038806D01*
X0182900Y0037808D02*
X0172166Y0037808D01*
X0173687Y0036809D02*
X0182900Y0036809D01*
X0182900Y0035811D02*
X0174623Y0035811D01*
X0175036Y0034812D02*
X0182900Y0034812D01*
X0182900Y0033814D02*
X0175400Y0033814D01*
X0175400Y0032815D02*
X0182900Y0032815D01*
X0182900Y0031817D02*
X0175400Y0031817D01*
X0174999Y0030818D02*
X0182900Y0030818D01*
X0182900Y0029820D02*
X0174586Y0029820D01*
X0173598Y0028821D02*
X0182900Y0028821D01*
X0182900Y0027823D02*
X0171950Y0027823D01*
X0169442Y0026824D02*
X0182900Y0026824D01*
X0182900Y0025826D02*
X0168943Y0025826D01*
X0168443Y0024827D02*
X0182900Y0024827D01*
X0182900Y0023829D02*
X0167944Y0023829D01*
X0167445Y0022830D02*
X0182900Y0022830D01*
X0182900Y0021832D02*
X0167083Y0021832D01*
X0166084Y0020833D02*
X0182900Y0020833D01*
X0182900Y0019835D02*
X0144428Y0019835D01*
X0142930Y0018836D02*
X0182900Y0018836D01*
X0182900Y0017838D02*
X0181508Y0017838D01*
X0180386Y0017838D02*
X0179614Y0017838D01*
X0179614Y0016839D02*
X0180386Y0016839D01*
X0180386Y0015841D02*
X0179614Y0015841D01*
X0179614Y0014842D02*
X0180386Y0014842D01*
X0180386Y0013844D02*
X0179614Y0013844D01*
X0179614Y0012845D02*
X0145400Y0012845D01*
X0145400Y0011847D02*
X0174896Y0011847D01*
X0175189Y0010848D02*
X0145012Y0010848D01*
X0144598Y0009850D02*
X0175760Y0009850D01*
X0176671Y0008851D02*
X0143628Y0008851D01*
X0145400Y0013844D02*
X0174891Y0013844D01*
X0175176Y0014842D02*
X0145024Y0014842D01*
X0144610Y0015841D02*
X0175738Y0015841D01*
X0176630Y0016839D02*
X0143658Y0016839D01*
X0142094Y0017838D02*
X0178492Y0017838D01*
X0181416Y0007853D02*
X0182900Y0007853D01*
X0182900Y0006854D02*
X0015000Y0006854D01*
X0015000Y0005856D02*
X0182900Y0005856D01*
X0165000Y0022860D02*
X0145000Y0022860D01*
X0130000Y0012860D01*
X0075000Y0012860D01*
X0075000Y0052860D01*
X0085000Y0062860D01*
X0090000Y0062860D01*
X0094701Y0058777D02*
X0097800Y0058777D01*
X0097800Y0059775D02*
X0096079Y0059775D01*
X0096807Y0060774D02*
X0097800Y0060774D01*
X0097800Y0061772D02*
X0097220Y0061772D01*
X0097300Y0062771D02*
X0097800Y0062771D01*
X0097800Y0063769D02*
X0097294Y0063769D01*
X0096881Y0064768D02*
X0097800Y0064768D01*
X0097800Y0065766D02*
X0096258Y0065766D01*
X0095132Y0066765D02*
X0097800Y0066765D01*
X0097800Y0067763D02*
X0026806Y0067763D01*
X0028449Y0066765D02*
X0084868Y0066765D01*
X0083742Y0065766D02*
X0029316Y0065766D01*
X0029848Y0064768D02*
X0083119Y0064768D01*
X0082706Y0063769D02*
X0030121Y0063769D01*
X0030093Y0061772D02*
X0080801Y0061772D01*
X0079802Y0060774D02*
X0029773Y0060774D01*
X0029186Y0059775D02*
X0078804Y0059775D01*
X0077805Y0058777D02*
X0028226Y0058777D01*
X0025500Y0062771D02*
X0081799Y0062771D01*
X0084028Y0058777D02*
X0085299Y0058777D01*
X0083029Y0057778D02*
X0096807Y0057778D01*
X0095808Y0056780D02*
X0082031Y0056780D01*
X0081032Y0055781D02*
X0094810Y0055781D01*
X0093811Y0054783D02*
X0080034Y0054783D01*
X0079035Y0053784D02*
X0092813Y0053784D01*
X0092800Y0052786D02*
X0078037Y0052786D01*
X0077200Y0051787D02*
X0092800Y0051787D01*
X0092800Y0050789D02*
X0077200Y0050789D01*
X0077200Y0049790D02*
X0092800Y0049790D01*
X0092800Y0048792D02*
X0077200Y0048792D01*
X0077200Y0047793D02*
X0092296Y0047793D01*
X0091298Y0046794D02*
X0077200Y0046794D01*
X0077200Y0045796D02*
X0090299Y0045796D01*
X0089600Y0044797D02*
X0077200Y0044797D01*
X0077200Y0043799D02*
X0089600Y0043799D01*
X0089600Y0042800D02*
X0077200Y0042800D01*
X0077200Y0041802D02*
X0089600Y0041802D01*
X0089600Y0040803D02*
X0077200Y0040803D01*
X0077200Y0039805D02*
X0090418Y0039805D01*
X0091417Y0038806D02*
X0077200Y0038806D01*
X0077200Y0037808D02*
X0092311Y0037808D01*
X0091313Y0036809D02*
X0077200Y0036809D01*
X0077200Y0035811D02*
X0090314Y0035811D01*
X0089600Y0034812D02*
X0077200Y0034812D01*
X0077200Y0033814D02*
X0089600Y0033814D01*
X0089600Y0032815D02*
X0077200Y0032815D01*
X0077200Y0031817D02*
X0089600Y0031817D01*
X0089600Y0030818D02*
X0077200Y0030818D01*
X0077200Y0029820D02*
X0090403Y0029820D01*
X0091402Y0028821D02*
X0077200Y0028821D01*
X0077200Y0027823D02*
X0092400Y0027823D01*
X0097600Y0027823D02*
X0102400Y0027823D01*
X0101402Y0028821D02*
X0098598Y0028821D01*
X0099597Y0029820D02*
X0100403Y0029820D01*
X0107600Y0027823D02*
X0112400Y0027823D01*
X0111402Y0028821D02*
X0108598Y0028821D01*
X0109597Y0029820D02*
X0110403Y0029820D01*
X0117600Y0027823D02*
X0158050Y0027823D01*
X0156402Y0028821D02*
X0118598Y0028821D01*
X0119597Y0029820D02*
X0155414Y0029820D01*
X0155001Y0030818D02*
X0120400Y0030818D01*
X0120400Y0031817D02*
X0154600Y0031817D01*
X0154600Y0032815D02*
X0120400Y0032815D01*
X0120400Y0033814D02*
X0154600Y0033814D01*
X0154964Y0034812D02*
X0120400Y0034812D01*
X0119686Y0035811D02*
X0155377Y0035811D01*
X0156313Y0036809D02*
X0118687Y0036809D01*
X0117689Y0037808D02*
X0157834Y0037808D01*
X0162166Y0037808D02*
X0167834Y0037808D01*
X0166313Y0036809D02*
X0163687Y0036809D01*
X0164623Y0035811D02*
X0165377Y0035811D01*
X0164999Y0030818D02*
X0165001Y0030818D01*
X0164586Y0029820D02*
X0165414Y0029820D01*
X0165521Y0028821D02*
X0163598Y0028821D01*
X0165022Y0027823D02*
X0161950Y0027823D01*
X0164023Y0025826D02*
X0077200Y0025826D01*
X0077200Y0026824D02*
X0164522Y0026824D01*
X0165000Y0022860D02*
X0170000Y0032860D01*
X0182900Y0043799D02*
X0120200Y0043799D01*
X0120200Y0043360D02*
X0120200Y0045014D01*
X0117154Y0048060D01*
X0115500Y0048060D01*
X0115500Y0043360D01*
X0120200Y0043360D01*
X0120200Y0044797D02*
X0182900Y0044797D01*
X0182900Y0045796D02*
X0119418Y0045796D01*
X0118419Y0046794D02*
X0182900Y0046794D01*
X0182900Y0047793D02*
X0181233Y0047793D01*
X0180386Y0047793D02*
X0179614Y0047793D01*
X0179614Y0047660D02*
X0179614Y0052474D01*
X0174800Y0052474D01*
X0174800Y0052451D01*
X0174928Y0051642D01*
X0175181Y0050864D01*
X0175553Y0050135D01*
X0176034Y0049472D01*
X0176612Y0048894D01*
X0177275Y0048413D01*
X0178004Y0048041D01*
X0178782Y0047788D01*
X0179591Y0047660D01*
X0179614Y0047660D01*
X0178767Y0047793D02*
X0141878Y0047793D01*
X0141074Y0047460D02*
X0143059Y0048282D01*
X0144578Y0049801D01*
X0145400Y0051786D01*
X0145400Y0053934D01*
X0144578Y0055919D01*
X0143059Y0057438D01*
X0141074Y0058260D01*
X0138926Y0058260D01*
X0136941Y0057438D01*
X0135422Y0055919D01*
X0134600Y0053934D01*
X0134600Y0051786D01*
X0135422Y0049801D01*
X0136941Y0048282D01*
X0138926Y0047460D01*
X0141074Y0047460D01*
X0143568Y0048792D02*
X0176753Y0048792D01*
X0175803Y0049790D02*
X0144567Y0049790D01*
X0144987Y0050789D02*
X0175219Y0050789D01*
X0174905Y0051787D02*
X0145400Y0051787D01*
X0145400Y0052786D02*
X0179614Y0052786D01*
X0180000Y0052860D02*
X0180000Y0092860D01*
X0180000Y0102860D01*
X0145000Y0102860D01*
X0120000Y0132860D01*
X0165000Y0177860D01*
X0165000Y0192860D01*
X0175000Y0202860D01*
X0175500Y0202562D02*
X0182900Y0202562D01*
X0182900Y0201564D02*
X0180046Y0201564D01*
X0180072Y0201642D02*
X0179819Y0200864D01*
X0179447Y0200135D01*
X0178966Y0199472D01*
X0178388Y0198894D01*
X0177725Y0198413D01*
X0176996Y0198041D01*
X0176776Y0197969D01*
X0178059Y0197438D01*
X0179578Y0195919D01*
X0180400Y0193934D01*
X0180400Y0191786D01*
X0179578Y0189801D01*
X0178059Y0188282D01*
X0177040Y0187860D01*
X0178059Y0187438D01*
X0179578Y0185919D01*
X0180400Y0183934D01*
X0180400Y0181786D01*
X0179578Y0179801D01*
X0178059Y0178282D01*
X0177040Y0177860D01*
X0178059Y0177438D01*
X0179578Y0175919D01*
X0180400Y0173934D01*
X0180400Y0171786D01*
X0179578Y0169801D01*
X0178059Y0168282D01*
X0177040Y0167860D01*
X0178059Y0167438D01*
X0179578Y0165919D01*
X0180400Y0163934D01*
X0180400Y0161786D01*
X0179578Y0159801D01*
X0178059Y0158282D01*
X0177040Y0157860D01*
X0178059Y0157438D01*
X0179578Y0155919D01*
X0180400Y0153934D01*
X0180400Y0151786D01*
X0179578Y0149801D01*
X0178059Y0148282D01*
X0177040Y0147860D01*
X0178059Y0147438D01*
X0179578Y0145919D01*
X0180400Y0143934D01*
X0180400Y0141786D01*
X0179578Y0139801D01*
X0178059Y0138282D01*
X0177040Y0137860D01*
X0178059Y0137438D01*
X0179578Y0135919D01*
X0180400Y0133934D01*
X0180400Y0131786D01*
X0179578Y0129801D01*
X0178059Y0128282D01*
X0176074Y0127460D01*
X0173926Y0127460D01*
X0171941Y0128282D01*
X0170422Y0129801D01*
X0169600Y0131786D01*
X0169600Y0133934D01*
X0170422Y0135919D01*
X0171941Y0137438D01*
X0172960Y0137860D01*
X0171941Y0138282D01*
X0170422Y0139801D01*
X0169600Y0141786D01*
X0169600Y0143934D01*
X0170422Y0145919D01*
X0171941Y0147438D01*
X0172960Y0147860D01*
X0171941Y0148282D01*
X0170422Y0149801D01*
X0169600Y0151786D01*
X0169600Y0153934D01*
X0170422Y0155919D01*
X0171941Y0157438D01*
X0172960Y0157860D01*
X0171941Y0158282D01*
X0170422Y0159801D01*
X0169600Y0161786D01*
X0169600Y0163934D01*
X0170422Y0165919D01*
X0171941Y0167438D01*
X0172960Y0167860D01*
X0171941Y0168282D01*
X0170422Y0169801D01*
X0169600Y0171786D01*
X0169600Y0173934D01*
X0170422Y0175919D01*
X0171941Y0177438D01*
X0172960Y0177860D01*
X0171941Y0178282D01*
X0170422Y0179801D01*
X0169600Y0181786D01*
X0169600Y0183934D01*
X0170422Y0185919D01*
X0171941Y0187438D01*
X0172960Y0187860D01*
X0171941Y0188282D01*
X0170422Y0189801D01*
X0169600Y0191786D01*
X0169600Y0193934D01*
X0170422Y0195919D01*
X0171941Y0197438D01*
X0173224Y0197969D01*
X0173004Y0198041D01*
X0172275Y0198413D01*
X0171612Y0198894D01*
X0171034Y0199472D01*
X0170553Y0200135D01*
X0170181Y0200864D01*
X0169928Y0201642D01*
X0169814Y0202360D01*
X0174500Y0202360D01*
X0174500Y0203360D01*
X0174500Y0208046D01*
X0173782Y0207932D01*
X0173004Y0207679D01*
X0172275Y0207307D01*
X0171612Y0206826D01*
X0171034Y0206248D01*
X0170553Y0205585D01*
X0170181Y0204856D01*
X0169928Y0204078D01*
X0169814Y0203360D01*
X0174500Y0203360D01*
X0175500Y0203360D01*
X0175500Y0208046D01*
X0176218Y0207932D01*
X0176996Y0207679D01*
X0177725Y0207307D01*
X0178388Y0206826D01*
X0178966Y0206248D01*
X0179447Y0205585D01*
X0179819Y0204856D01*
X0180072Y0204078D01*
X0180186Y0203360D01*
X0175500Y0203360D01*
X0175500Y0202360D01*
X0180186Y0202360D01*
X0180072Y0201642D01*
X0179667Y0200565D02*
X0182900Y0200565D01*
X0182900Y0199567D02*
X0179035Y0199567D01*
X0177940Y0198568D02*
X0182900Y0198568D01*
X0182900Y0197570D02*
X0177741Y0197570D01*
X0178926Y0196571D02*
X0182900Y0196571D01*
X0182900Y0195573D02*
X0179721Y0195573D01*
X0180135Y0194574D02*
X0182900Y0194574D01*
X0182900Y0193576D02*
X0180400Y0193576D01*
X0180400Y0192577D02*
X0182900Y0192577D01*
X0182900Y0191579D02*
X0180314Y0191579D01*
X0179901Y0190580D02*
X0182900Y0190580D01*
X0182900Y0189582D02*
X0179358Y0189582D01*
X0178360Y0188583D02*
X0182900Y0188583D01*
X0182900Y0187585D02*
X0177705Y0187585D01*
X0178911Y0186586D02*
X0182900Y0186586D01*
X0182900Y0185588D02*
X0179715Y0185588D01*
X0180129Y0184589D02*
X0182900Y0184589D01*
X0182900Y0183591D02*
X0180400Y0183591D01*
X0180400Y0182592D02*
X0182900Y0182592D01*
X0182900Y0181594D02*
X0180320Y0181594D01*
X0179907Y0180595D02*
X0182900Y0180595D01*
X0182900Y0179596D02*
X0179373Y0179596D01*
X0178375Y0178598D02*
X0182900Y0178598D01*
X0182900Y0177599D02*
X0177669Y0177599D01*
X0178896Y0176601D02*
X0182900Y0176601D01*
X0182900Y0175602D02*
X0179709Y0175602D01*
X0180123Y0174604D02*
X0182900Y0174604D01*
X0182900Y0173605D02*
X0180400Y0173605D01*
X0180400Y0172607D02*
X0182900Y0172607D01*
X0182900Y0171608D02*
X0180326Y0171608D01*
X0179913Y0170610D02*
X0182900Y0170610D01*
X0182900Y0169611D02*
X0179388Y0169611D01*
X0178390Y0168613D02*
X0182900Y0168613D01*
X0182900Y0167614D02*
X0177633Y0167614D01*
X0178881Y0166616D02*
X0182900Y0166616D01*
X0182900Y0165617D02*
X0179703Y0165617D01*
X0180116Y0164619D02*
X0182900Y0164619D01*
X0182900Y0163620D02*
X0180400Y0163620D01*
X0180400Y0162622D02*
X0182900Y0162622D01*
X0182900Y0161623D02*
X0180333Y0161623D01*
X0179919Y0160625D02*
X0182900Y0160625D01*
X0182900Y0159626D02*
X0179403Y0159626D01*
X0178405Y0158628D02*
X0182900Y0158628D01*
X0182900Y0157629D02*
X0177597Y0157629D01*
X0178866Y0156631D02*
X0182900Y0156631D01*
X0182900Y0155632D02*
X0179697Y0155632D01*
X0180110Y0154634D02*
X0182900Y0154634D01*
X0182900Y0153635D02*
X0180400Y0153635D01*
X0180400Y0152637D02*
X0182900Y0152637D01*
X0182900Y0151638D02*
X0180339Y0151638D01*
X0179925Y0150640D02*
X0182900Y0150640D01*
X0182900Y0149641D02*
X0179418Y0149641D01*
X0178419Y0148643D02*
X0182900Y0148643D01*
X0182900Y0147644D02*
X0177561Y0147644D01*
X0178851Y0146646D02*
X0182900Y0146646D01*
X0182900Y0145647D02*
X0179690Y0145647D01*
X0180104Y0144649D02*
X0182900Y0144649D01*
X0182900Y0143650D02*
X0180400Y0143650D01*
X0180400Y0142652D02*
X0182900Y0142652D01*
X0182900Y0141653D02*
X0180345Y0141653D01*
X0179931Y0140655D02*
X0182900Y0140655D01*
X0182900Y0139656D02*
X0179433Y0139656D01*
X0178434Y0138658D02*
X0182900Y0138658D01*
X0182900Y0137659D02*
X0177525Y0137659D01*
X0178836Y0136661D02*
X0182900Y0136661D01*
X0182900Y0135662D02*
X0179684Y0135662D01*
X0180098Y0134663D02*
X0182900Y0134663D01*
X0182900Y0133665D02*
X0180400Y0133665D01*
X0180400Y0132666D02*
X0182900Y0132666D01*
X0182900Y0131668D02*
X0180351Y0131668D01*
X0179938Y0130669D02*
X0182900Y0130669D01*
X0182900Y0129671D02*
X0179448Y0129671D01*
X0178449Y0128672D02*
X0182900Y0128672D01*
X0182900Y0127674D02*
X0176591Y0127674D01*
X0173409Y0127674D02*
X0112200Y0127674D01*
X0112200Y0128672D02*
X0116173Y0128672D01*
X0116193Y0128666D02*
X0116862Y0128560D01*
X0119700Y0128560D01*
X0119700Y0132560D01*
X0112900Y0132560D01*
X0112900Y0132522D01*
X0113006Y0131853D01*
X0113215Y0131209D01*
X0113522Y0130606D01*
X0113920Y0130059D01*
X0114399Y0129580D01*
X0114946Y0129182D01*
X0115549Y0128875D01*
X0116193Y0128666D01*
X0116305Y0127360D02*
X0114651Y0126675D01*
X0113385Y0125409D01*
X0112700Y0123755D01*
X0112700Y0121965D01*
X0113385Y0120311D01*
X0114651Y0119045D01*
X0116305Y0118360D01*
X0123695Y0118360D01*
X0125349Y0119045D01*
X0126615Y0120311D01*
X0127300Y0121965D01*
X0127300Y0123755D01*
X0126615Y0125409D01*
X0125349Y0126675D01*
X0123695Y0127360D01*
X0116305Y0127360D01*
X0114652Y0126675D02*
X0112200Y0126675D01*
X0112200Y0125677D02*
X0113653Y0125677D01*
X0113082Y0124678D02*
X0112200Y0124678D01*
X0112200Y0123680D02*
X0112700Y0123680D01*
X0112700Y0122681D02*
X0112200Y0122681D01*
X0112200Y0121683D02*
X0112817Y0121683D01*
X0113230Y0120684D02*
X0112200Y0120684D01*
X0112200Y0119686D02*
X0114010Y0119686D01*
X0115515Y0118687D02*
X0112200Y0118687D01*
X0112200Y0117689D02*
X0157547Y0117689D01*
X0156941Y0117438D02*
X0155422Y0115919D01*
X0154600Y0113934D01*
X0154600Y0111786D01*
X0155422Y0109801D01*
X0156941Y0108282D01*
X0158926Y0107460D01*
X0161074Y0107460D01*
X0163059Y0108282D01*
X0164578Y0109801D01*
X0165000Y0110820D01*
X0165422Y0109801D01*
X0166941Y0108282D01*
X0168926Y0107460D01*
X0171074Y0107460D01*
X0173059Y0108282D01*
X0174578Y0109801D01*
X0175400Y0111786D01*
X0175400Y0113934D01*
X0174578Y0115919D01*
X0173059Y0117438D01*
X0171074Y0118260D01*
X0168926Y0118260D01*
X0166941Y0117438D01*
X0165422Y0115919D01*
X0165000Y0114900D01*
X0164578Y0115919D01*
X0163059Y0117438D01*
X0161074Y0118260D01*
X0158926Y0118260D01*
X0156941Y0117438D01*
X0156194Y0116690D02*
X0125312Y0116690D01*
X0126332Y0115692D02*
X0155328Y0115692D01*
X0154914Y0114693D02*
X0126911Y0114693D01*
X0127300Y0113695D02*
X0154600Y0113695D01*
X0154600Y0112696D02*
X0127300Y0112696D01*
X0127189Y0111698D02*
X0154637Y0111698D01*
X0155050Y0110699D02*
X0126776Y0110699D01*
X0126005Y0109701D02*
X0155523Y0109701D01*
X0156521Y0108702D02*
X0124521Y0108702D01*
X0125276Y0106705D02*
X0182900Y0106705D01*
X0182900Y0105707D02*
X0126317Y0105707D01*
X0126905Y0104708D02*
X0182900Y0104708D01*
X0182900Y0103710D02*
X0127300Y0103710D01*
X0127300Y0102711D02*
X0182900Y0102711D01*
X0182900Y0101713D02*
X0127195Y0101713D01*
X0126782Y0100714D02*
X0182900Y0100714D01*
X0182900Y0099716D02*
X0126020Y0099716D01*
X0124557Y0098717D02*
X0182900Y0098717D01*
X0182900Y0097719D02*
X0181874Y0097719D01*
X0180386Y0097719D02*
X0179614Y0097719D01*
X0179614Y0096720D02*
X0180386Y0096720D01*
X0180386Y0095722D02*
X0179614Y0095722D01*
X0179614Y0094723D02*
X0180386Y0094723D01*
X0180386Y0093725D02*
X0179614Y0093725D01*
X0179614Y0092726D02*
X0145400Y0092726D01*
X0145400Y0093725D02*
X0174872Y0093725D01*
X0175138Y0094723D02*
X0145073Y0094723D01*
X0144660Y0095722D02*
X0175651Y0095722D01*
X0176506Y0096720D02*
X0143777Y0096720D01*
X0142381Y0097719D02*
X0178126Y0097719D01*
X0179614Y0091727D02*
X0180386Y0091727D01*
X0180386Y0090729D02*
X0179614Y0090729D01*
X0179614Y0089730D02*
X0180386Y0089730D01*
X0180386Y0088732D02*
X0179614Y0088732D01*
X0176835Y0088732D02*
X0143509Y0088732D01*
X0144507Y0089730D02*
X0175846Y0089730D01*
X0175250Y0090729D02*
X0144962Y0090729D01*
X0145376Y0091727D02*
X0174915Y0091727D01*
X0171662Y0107704D02*
X0182900Y0107704D01*
X0182900Y0108702D02*
X0173479Y0108702D01*
X0174477Y0109701D02*
X0182900Y0109701D01*
X0182900Y0110699D02*
X0174950Y0110699D01*
X0175363Y0111698D02*
X0182900Y0111698D01*
X0182900Y0112696D02*
X0175400Y0112696D01*
X0175400Y0113695D02*
X0182900Y0113695D01*
X0182900Y0114693D02*
X0175086Y0114693D01*
X0174672Y0115692D02*
X0182900Y0115692D01*
X0182900Y0116690D02*
X0173806Y0116690D01*
X0172453Y0117689D02*
X0182900Y0117689D01*
X0182900Y0118687D02*
X0124485Y0118687D01*
X0125990Y0119686D02*
X0182900Y0119686D01*
X0182900Y0120684D02*
X0126770Y0120684D01*
X0127183Y0121683D02*
X0182900Y0121683D01*
X0182900Y0122681D02*
X0127300Y0122681D01*
X0127300Y0123680D02*
X0182900Y0123680D01*
X0182900Y0124678D02*
X0126918Y0124678D01*
X0126347Y0125677D02*
X0182900Y0125677D01*
X0182900Y0126675D02*
X0125348Y0126675D01*
X0124451Y0128875D02*
X0125054Y0129182D01*
X0125601Y0129580D01*
X0126080Y0130059D01*
X0126478Y0130606D01*
X0126785Y0131209D01*
X0126994Y0131853D01*
X0127100Y0132522D01*
X0127100Y0132560D01*
X0120300Y0132560D01*
X0120300Y0133160D01*
X0119700Y0133160D01*
X0119700Y0137160D01*
X0116862Y0137160D01*
X0116193Y0137054D01*
X0115549Y0136845D01*
X0114946Y0136538D01*
X0114399Y0136140D01*
X0113920Y0135661D01*
X0113522Y0135114D01*
X0113215Y0134511D01*
X0113006Y0133867D01*
X0112900Y0133198D01*
X0112900Y0133160D01*
X0119700Y0133160D01*
X0119700Y0132560D01*
X0120300Y0132560D01*
X0120300Y0128560D01*
X0123138Y0128560D01*
X0123807Y0128666D01*
X0124451Y0128875D01*
X0123827Y0128672D02*
X0171551Y0128672D01*
X0170552Y0129671D02*
X0125692Y0129671D01*
X0126510Y0130669D02*
X0170062Y0130669D01*
X0169649Y0131668D02*
X0126934Y0131668D01*
X0127100Y0133160D02*
X0127100Y0133198D01*
X0126994Y0133867D01*
X0126785Y0134511D01*
X0126478Y0135114D01*
X0126080Y0135661D01*
X0125601Y0136140D01*
X0125054Y0136538D01*
X0124451Y0136845D01*
X0123807Y0137054D01*
X0123138Y0137160D01*
X0120300Y0137160D01*
X0120300Y0133160D01*
X0127100Y0133160D01*
X0127026Y0133665D02*
X0169600Y0133665D01*
X0169600Y0132666D02*
X0120300Y0132666D01*
X0119700Y0132666D02*
X0112200Y0132666D01*
X0112200Y0131668D02*
X0113066Y0131668D01*
X0113490Y0130669D02*
X0112200Y0130669D01*
X0112200Y0129671D02*
X0114308Y0129671D01*
X0112974Y0133665D02*
X0112200Y0133665D01*
X0112200Y0134663D02*
X0113293Y0134663D01*
X0113921Y0135662D02*
X0112200Y0135662D01*
X0112200Y0136661D02*
X0115187Y0136661D01*
X0116305Y0138360D02*
X0114651Y0139045D01*
X0113385Y0140311D01*
X0112700Y0141965D01*
X0112700Y0143755D01*
X0113385Y0145409D01*
X0114651Y0146675D01*
X0116305Y0147360D01*
X0123695Y0147360D01*
X0125349Y0146675D01*
X0126615Y0145409D01*
X0127300Y0143755D01*
X0127300Y0141965D01*
X0126615Y0140311D01*
X0125349Y0139045D01*
X0123695Y0138360D01*
X0116305Y0138360D01*
X0115587Y0138658D02*
X0112200Y0138658D01*
X0112200Y0139656D02*
X0114040Y0139656D01*
X0113243Y0140655D02*
X0112200Y0140655D01*
X0112200Y0141653D02*
X0112829Y0141653D01*
X0112700Y0142652D02*
X0112200Y0142652D01*
X0112200Y0143650D02*
X0112700Y0143650D01*
X0113070Y0144649D02*
X0112200Y0144649D01*
X0112200Y0145647D02*
X0113623Y0145647D01*
X0114622Y0146646D02*
X0112200Y0146646D01*
X0112200Y0147644D02*
X0172439Y0147644D01*
X0171581Y0148643D02*
X0124377Y0148643D01*
X0123695Y0148360D02*
X0125349Y0149045D01*
X0126615Y0150311D01*
X0127300Y0151965D01*
X0127300Y0153755D01*
X0126615Y0155409D01*
X0125349Y0156675D01*
X0123695Y0157360D01*
X0116305Y0157360D01*
X0114651Y0156675D01*
X0113385Y0155409D01*
X0112700Y0153755D01*
X0112700Y0151965D01*
X0113385Y0150311D01*
X0114651Y0149045D01*
X0116305Y0148360D01*
X0123695Y0148360D01*
X0125378Y0146646D02*
X0171149Y0146646D01*
X0170310Y0145647D02*
X0126377Y0145647D01*
X0126930Y0144649D02*
X0169896Y0144649D01*
X0169600Y0143650D02*
X0127300Y0143650D01*
X0127300Y0142652D02*
X0169600Y0142652D01*
X0169655Y0141653D02*
X0127171Y0141653D01*
X0126757Y0140655D02*
X0170069Y0140655D01*
X0170567Y0139656D02*
X0125960Y0139656D01*
X0124413Y0138658D02*
X0171566Y0138658D01*
X0172475Y0137659D02*
X0112200Y0137659D01*
X0107800Y0137659D02*
X0078312Y0137659D01*
X0077314Y0138658D02*
X0085587Y0138658D01*
X0086305Y0138360D02*
X0093695Y0138360D01*
X0095349Y0139045D01*
X0096615Y0140311D01*
X0097300Y0141965D01*
X0097300Y0143755D01*
X0096615Y0145409D01*
X0095349Y0146675D01*
X0093695Y0147360D01*
X0086305Y0147360D01*
X0084651Y0146675D01*
X0083385Y0145409D01*
X0082700Y0143755D01*
X0082700Y0141965D01*
X0083385Y0140311D01*
X0084651Y0139045D01*
X0086305Y0138360D01*
X0084637Y0136661D02*
X0079311Y0136661D01*
X0080309Y0135662D02*
X0083638Y0135662D01*
X0084040Y0139656D02*
X0076315Y0139656D01*
X0075317Y0140655D02*
X0083243Y0140655D01*
X0082829Y0141653D02*
X0074318Y0141653D01*
X0073320Y0142652D02*
X0082700Y0142652D01*
X0082700Y0143650D02*
X0072321Y0143650D01*
X0071323Y0144649D02*
X0083070Y0144649D01*
X0083623Y0145647D02*
X0070324Y0145647D01*
X0069326Y0146646D02*
X0084622Y0146646D01*
X0085622Y0148643D02*
X0067329Y0148643D01*
X0067200Y0149641D02*
X0084055Y0149641D01*
X0084651Y0149045D02*
X0086305Y0148360D01*
X0093695Y0148360D01*
X0095349Y0149045D01*
X0096615Y0150311D01*
X0097300Y0151965D01*
X0097300Y0153755D01*
X0096615Y0155409D01*
X0095349Y0156675D01*
X0093695Y0157360D01*
X0086305Y0157360D01*
X0084651Y0156675D01*
X0083385Y0155409D01*
X0082700Y0153755D01*
X0082700Y0151965D01*
X0083385Y0150311D01*
X0084651Y0149045D01*
X0083249Y0150640D02*
X0067200Y0150640D01*
X0067200Y0151638D02*
X0082835Y0151638D01*
X0082700Y0152637D02*
X0067200Y0152637D01*
X0068412Y0153635D02*
X0082700Y0153635D01*
X0083064Y0154634D02*
X0069410Y0154634D01*
X0069922Y0155632D02*
X0083608Y0155632D01*
X0084607Y0156631D02*
X0070336Y0156631D01*
X0070400Y0157629D02*
X0107800Y0157629D01*
X0107800Y0156631D02*
X0095393Y0156631D01*
X0096392Y0155632D02*
X0107800Y0155632D01*
X0107800Y0154634D02*
X0096936Y0154634D01*
X0097300Y0153635D02*
X0107800Y0153635D01*
X0107800Y0152637D02*
X0097300Y0152637D01*
X0097165Y0151638D02*
X0107800Y0151638D01*
X0107800Y0150640D02*
X0096751Y0150640D01*
X0095945Y0149641D02*
X0107800Y0149641D01*
X0107800Y0148643D02*
X0094377Y0148643D01*
X0095378Y0146646D02*
X0107800Y0146646D01*
X0107800Y0147644D02*
X0068327Y0147644D01*
X0066099Y0143650D02*
X0054950Y0143650D01*
X0054950Y0142652D02*
X0067097Y0142652D01*
X0068096Y0141653D02*
X0054858Y0141653D01*
X0054444Y0140655D02*
X0069094Y0140655D01*
X0070093Y0139656D02*
X0053796Y0139656D01*
X0052789Y0138658D02*
X0071091Y0138658D01*
X0072090Y0137659D02*
X0027200Y0137659D01*
X0027200Y0136661D02*
X0073088Y0136661D01*
X0074087Y0135662D02*
X0027200Y0135662D01*
X0027200Y0134663D02*
X0075085Y0134663D01*
X0076084Y0133665D02*
X0027200Y0133665D01*
X0027556Y0132666D02*
X0077082Y0132666D01*
X0078081Y0131668D02*
X0028056Y0131668D01*
X0028555Y0130669D02*
X0079079Y0130669D01*
X0084025Y0129671D02*
X0029054Y0129671D01*
X0027200Y0138658D02*
X0037785Y0138658D01*
X0036486Y0139656D02*
X0027200Y0139656D01*
X0027200Y0140655D02*
X0035793Y0140655D01*
X0035398Y0141653D02*
X0027200Y0141653D01*
X0027200Y0147644D02*
X0047800Y0147644D01*
X0047800Y0148643D02*
X0027200Y0148643D01*
X0027200Y0149641D02*
X0047800Y0149641D01*
X0047800Y0150640D02*
X0027200Y0150640D01*
X0027200Y0151638D02*
X0048541Y0151638D01*
X0046785Y0146646D02*
X0042871Y0146646D01*
X0043846Y0145647D02*
X0045797Y0145647D01*
X0045383Y0144649D02*
X0044413Y0144649D01*
X0044684Y0143650D02*
X0045050Y0143650D01*
X0045050Y0142652D02*
X0044750Y0142652D01*
X0044750Y0142671D02*
X0040189Y0142671D01*
X0040189Y0138110D01*
X0040374Y0138110D01*
X0041112Y0138227D01*
X0041823Y0138458D01*
X0042490Y0138797D01*
X0043094Y0139237D01*
X0043623Y0139766D01*
X0044063Y0140370D01*
X0044402Y0141037D01*
X0044633Y0141748D01*
X0044750Y0142486D01*
X0044750Y0142671D01*
X0044602Y0141653D02*
X0045142Y0141653D01*
X0045556Y0140655D02*
X0044207Y0140655D01*
X0043514Y0139656D02*
X0046204Y0139656D01*
X0047211Y0138658D02*
X0042215Y0138658D01*
X0040189Y0138658D02*
X0039811Y0138658D01*
X0039811Y0139656D02*
X0040189Y0139656D01*
X0040189Y0140655D02*
X0039811Y0140655D01*
X0039811Y0141653D02*
X0040189Y0141653D01*
X0040189Y0142652D02*
X0039811Y0142652D01*
X0052200Y0147644D02*
X0062105Y0147644D01*
X0062800Y0152637D02*
X0027200Y0152637D01*
X0028412Y0153635D02*
X0061588Y0153635D01*
X0060590Y0154634D02*
X0029410Y0154634D01*
X0029922Y0155632D02*
X0060078Y0155632D01*
X0059664Y0156631D02*
X0030336Y0156631D01*
X0030400Y0157629D02*
X0059600Y0157629D01*
X0059600Y0158628D02*
X0030400Y0158628D01*
X0030113Y0159626D02*
X0059887Y0159626D01*
X0060300Y0160625D02*
X0029700Y0160625D01*
X0028873Y0161623D02*
X0061127Y0161623D01*
X0062385Y0162622D02*
X0027615Y0162622D01*
X0022385Y0162622D02*
X0015000Y0162622D01*
X0015000Y0163620D02*
X0067649Y0163620D01*
X0070876Y0160625D02*
X0083255Y0160625D01*
X0083385Y0160311D02*
X0084651Y0159045D01*
X0086305Y0158360D01*
X0093695Y0158360D01*
X0095349Y0159045D01*
X0096615Y0160311D01*
X0097300Y0161965D01*
X0097300Y0163755D01*
X0096615Y0165409D01*
X0095349Y0166675D01*
X0093695Y0167360D01*
X0086305Y0167360D01*
X0084651Y0166675D01*
X0083385Y0165409D01*
X0082700Y0163755D01*
X0082700Y0161965D01*
X0083385Y0160311D01*
X0084070Y0159626D02*
X0070113Y0159626D01*
X0070400Y0158628D02*
X0085658Y0158628D01*
X0082841Y0161623D02*
X0071875Y0161623D01*
X0072200Y0162622D02*
X0082700Y0162622D01*
X0082700Y0163620D02*
X0072200Y0163620D01*
X0072200Y0164619D02*
X0083058Y0164619D01*
X0083593Y0165617D02*
X0072200Y0165617D01*
X0072200Y0166616D02*
X0084592Y0166616D01*
X0085694Y0168613D02*
X0072200Y0168613D01*
X0072200Y0169611D02*
X0084085Y0169611D01*
X0084651Y0169045D02*
X0083385Y0170311D01*
X0082700Y0171965D01*
X0082700Y0173755D01*
X0083385Y0175409D01*
X0084651Y0176675D01*
X0086305Y0177360D01*
X0093695Y0177360D01*
X0095349Y0176675D01*
X0096615Y0175409D01*
X0097300Y0173755D01*
X0097300Y0171965D01*
X0096615Y0170311D01*
X0095349Y0169045D01*
X0093695Y0168360D01*
X0086305Y0168360D01*
X0084651Y0169045D01*
X0083261Y0170610D02*
X0072200Y0170610D01*
X0072200Y0171608D02*
X0082848Y0171608D01*
X0082700Y0172607D02*
X0072200Y0172607D01*
X0072200Y0173605D02*
X0082700Y0173605D01*
X0083052Y0174604D02*
X0072200Y0174604D01*
X0072200Y0175602D02*
X0083578Y0175602D01*
X0084577Y0176601D02*
X0072200Y0176601D01*
X0072200Y0177599D02*
X0095602Y0177599D01*
X0095423Y0176601D02*
X0097599Y0176601D01*
X0096421Y0175602D02*
X0099596Y0175602D01*
X0101593Y0174604D02*
X0096948Y0174604D01*
X0097300Y0173605D02*
X0103590Y0173605D01*
X0105587Y0172607D02*
X0097300Y0172607D01*
X0097152Y0171608D02*
X0107584Y0171608D01*
X0107800Y0170610D02*
X0096739Y0170610D01*
X0095915Y0169611D02*
X0107800Y0169611D01*
X0107800Y0168613D02*
X0094306Y0168613D01*
X0095408Y0166616D02*
X0107800Y0166616D01*
X0107800Y0167614D02*
X0072200Y0167614D01*
X0067800Y0174604D02*
X0047626Y0174604D01*
X0047626Y0175602D02*
X0046626Y0175602D01*
X0046626Y0174856D02*
X0046626Y0184356D01*
X0046564Y0184356D01*
X0045448Y0184230D01*
X0044353Y0183980D01*
X0043293Y0183609D01*
X0042281Y0183122D01*
X0041330Y0182525D01*
X0040452Y0181824D01*
X0039658Y0181030D01*
X0038958Y0180152D01*
X0038360Y0179201D01*
X0037873Y0178189D01*
X0037502Y0177129D01*
X0037252Y0176034D01*
X0037126Y0174918D01*
X0037126Y0174856D01*
X0046626Y0174856D01*
X0046626Y0174604D02*
X0015000Y0174604D01*
X0015000Y0175602D02*
X0037203Y0175602D01*
X0037381Y0176601D02*
X0015000Y0176601D01*
X0015000Y0177599D02*
X0037666Y0177599D01*
X0038070Y0178598D02*
X0015000Y0178598D01*
X0015000Y0179596D02*
X0038609Y0179596D01*
X0039311Y0180595D02*
X0015000Y0180595D01*
X0015000Y0181594D02*
X0040221Y0181594D01*
X0041438Y0182592D02*
X0015000Y0182592D01*
X0015000Y0183591D02*
X0031528Y0183591D01*
X0031482Y0183607D02*
X0032542Y0183236D01*
X0033637Y0182986D01*
X0034753Y0182860D01*
X0034815Y0182860D01*
X0034815Y0192360D01*
X0025315Y0192360D01*
X0025315Y0192298D01*
X0025441Y0191182D01*
X0025691Y0190087D01*
X0026062Y0189027D01*
X0026549Y0188015D01*
X0027146Y0187064D01*
X0027847Y0186186D01*
X0028641Y0185392D01*
X0029519Y0184692D01*
X0030470Y0184094D01*
X0031482Y0183607D01*
X0029682Y0184589D02*
X0015000Y0184589D01*
X0015000Y0185588D02*
X0028445Y0185588D01*
X0027528Y0186586D02*
X0015000Y0186586D01*
X0015000Y0187585D02*
X0026819Y0187585D01*
X0026275Y0188583D02*
X0015000Y0188583D01*
X0015000Y0189582D02*
X0025868Y0189582D01*
X0025578Y0190580D02*
X0015000Y0190580D01*
X0015000Y0191579D02*
X0025396Y0191579D01*
X0025332Y0193576D02*
X0015000Y0193576D01*
X0015000Y0194574D02*
X0025449Y0194574D01*
X0025677Y0195573D02*
X0015000Y0195573D01*
X0015000Y0196571D02*
X0026019Y0196571D01*
X0026484Y0197570D02*
X0015000Y0197570D01*
X0015000Y0198568D02*
X0027091Y0198568D01*
X0027880Y0199567D02*
X0015000Y0199567D01*
X0015000Y0200565D02*
X0028938Y0200565D01*
X0030371Y0201564D02*
X0015000Y0201564D01*
X0015000Y0202562D02*
X0032884Y0202562D01*
X0034815Y0202562D02*
X0035815Y0202562D01*
X0035815Y0201564D02*
X0034815Y0201564D01*
X0034815Y0200565D02*
X0035815Y0200565D01*
X0035815Y0199567D02*
X0034815Y0199567D01*
X0034815Y0198568D02*
X0035815Y0198568D01*
X0035815Y0197570D02*
X0034815Y0197570D01*
X0034815Y0196571D02*
X0035815Y0196571D01*
X0035815Y0195573D02*
X0034815Y0195573D01*
X0034815Y0194574D02*
X0035815Y0194574D01*
X0035815Y0193576D02*
X0034815Y0193576D01*
X0035000Y0192860D02*
X0035000Y0192545D01*
X0034815Y0192577D02*
X0015000Y0192577D01*
X0015000Y0203561D02*
X0169846Y0203561D01*
X0170085Y0204559D02*
X0015000Y0204559D01*
X0015000Y0205558D02*
X0170539Y0205558D01*
X0171342Y0206556D02*
X0015000Y0206556D01*
X0015000Y0207555D02*
X0172760Y0207555D01*
X0174500Y0207555D02*
X0175500Y0207555D01*
X0175500Y0206556D02*
X0174500Y0206556D01*
X0174500Y0205558D02*
X0175500Y0205558D01*
X0175500Y0204559D02*
X0174500Y0204559D01*
X0174500Y0203561D02*
X0175500Y0203561D01*
X0174500Y0202562D02*
X0062137Y0202562D01*
X0064262Y0201564D02*
X0169954Y0201564D01*
X0170333Y0200565D02*
X0065657Y0200565D01*
X0066655Y0199567D02*
X0170965Y0199567D01*
X0172060Y0198568D02*
X0067419Y0198568D01*
X0067996Y0197570D02*
X0172259Y0197570D01*
X0171074Y0196571D02*
X0125453Y0196571D01*
X0125349Y0196675D02*
X0123695Y0197360D01*
X0116305Y0197360D01*
X0114651Y0196675D01*
X0113385Y0195409D01*
X0112700Y0193755D01*
X0112700Y0191965D01*
X0113385Y0190311D01*
X0114651Y0189045D01*
X0116305Y0188360D01*
X0123695Y0188360D01*
X0125349Y0189045D01*
X0126615Y0190311D01*
X0127300Y0191965D01*
X0127300Y0193755D01*
X0126615Y0195409D01*
X0125349Y0196675D01*
X0126451Y0195573D02*
X0170279Y0195573D01*
X0169865Y0194574D02*
X0126961Y0194574D01*
X0127300Y0193576D02*
X0169600Y0193576D01*
X0169600Y0192577D02*
X0127300Y0192577D01*
X0127140Y0191579D02*
X0169686Y0191579D01*
X0170099Y0190580D02*
X0126726Y0190580D01*
X0125886Y0189582D02*
X0170642Y0189582D01*
X0171640Y0188583D02*
X0124234Y0188583D01*
X0123695Y0187360D02*
X0125349Y0186675D01*
X0126615Y0185409D01*
X0127300Y0183755D01*
X0127300Y0181965D01*
X0126615Y0180311D01*
X0125349Y0179045D01*
X0123695Y0178360D01*
X0116305Y0178360D01*
X0114651Y0179045D01*
X0113385Y0180311D01*
X0112700Y0181965D01*
X0112700Y0183755D01*
X0113385Y0185409D01*
X0114651Y0186675D01*
X0116305Y0187360D01*
X0123695Y0187360D01*
X0125438Y0186586D02*
X0171089Y0186586D01*
X0170285Y0185588D02*
X0126436Y0185588D01*
X0126955Y0184589D02*
X0169871Y0184589D01*
X0169600Y0183591D02*
X0127300Y0183591D01*
X0127300Y0182592D02*
X0169600Y0182592D01*
X0169680Y0181594D02*
X0127146Y0181594D01*
X0126733Y0180595D02*
X0170093Y0180595D01*
X0170627Y0179596D02*
X0125900Y0179596D01*
X0124270Y0178598D02*
X0171625Y0178598D01*
X0172331Y0177599D02*
X0105440Y0177599D01*
X0103443Y0178598D02*
X0115730Y0178598D01*
X0116305Y0177360D02*
X0114651Y0176675D01*
X0113385Y0175409D01*
X0112700Y0173755D01*
X0112700Y0171965D01*
X0113385Y0170311D01*
X0114651Y0169045D01*
X0116305Y0168360D01*
X0123695Y0168360D01*
X0125349Y0169045D01*
X0126615Y0170311D01*
X0127300Y0171965D01*
X0127300Y0173755D01*
X0126615Y0175409D01*
X0125349Y0176675D01*
X0123695Y0177360D01*
X0116305Y0177360D01*
X0114577Y0176601D02*
X0107437Y0176601D01*
X0109434Y0175602D02*
X0113578Y0175602D01*
X0113052Y0174604D02*
X0111431Y0174604D01*
X0112200Y0173605D02*
X0112700Y0173605D01*
X0112700Y0172607D02*
X0112333Y0172607D01*
X0112200Y0171608D02*
X0112848Y0171608D01*
X0113261Y0170610D02*
X0112200Y0170610D01*
X0112200Y0169611D02*
X0114085Y0169611D01*
X0115694Y0168613D02*
X0112200Y0168613D01*
X0112200Y0167614D02*
X0172367Y0167614D01*
X0171610Y0168613D02*
X0124306Y0168613D01*
X0123695Y0167360D02*
X0125349Y0166675D01*
X0126615Y0165409D01*
X0127300Y0163755D01*
X0127300Y0161965D01*
X0126615Y0160311D01*
X0125349Y0159045D01*
X0123695Y0158360D01*
X0116305Y0158360D01*
X0114651Y0159045D01*
X0113385Y0160311D01*
X0112700Y0161965D01*
X0112700Y0163755D01*
X0113385Y0165409D01*
X0114651Y0166675D01*
X0116305Y0167360D01*
X0123695Y0167360D01*
X0125408Y0166616D02*
X0171119Y0166616D01*
X0170297Y0165617D02*
X0126407Y0165617D01*
X0126942Y0164619D02*
X0169884Y0164619D01*
X0169600Y0163620D02*
X0127300Y0163620D01*
X0127300Y0162622D02*
X0169600Y0162622D01*
X0169667Y0161623D02*
X0127158Y0161623D01*
X0126745Y0160625D02*
X0170081Y0160625D01*
X0170597Y0159626D02*
X0125930Y0159626D01*
X0124342Y0158628D02*
X0171595Y0158628D01*
X0172403Y0157629D02*
X0112200Y0157629D01*
X0112200Y0156631D02*
X0114607Y0156631D01*
X0113608Y0155632D02*
X0112200Y0155632D01*
X0112200Y0154634D02*
X0113064Y0154634D01*
X0112700Y0153635D02*
X0112200Y0153635D01*
X0112200Y0152637D02*
X0112700Y0152637D01*
X0112835Y0151638D02*
X0112200Y0151638D01*
X0112200Y0150640D02*
X0113249Y0150640D01*
X0114055Y0149641D02*
X0112200Y0149641D01*
X0112200Y0148643D02*
X0115622Y0148643D01*
X0107800Y0145647D02*
X0096377Y0145647D01*
X0096930Y0144649D02*
X0107800Y0144649D01*
X0107800Y0143650D02*
X0097300Y0143650D01*
X0097300Y0142652D02*
X0107800Y0142652D01*
X0107800Y0141653D02*
X0097171Y0141653D01*
X0096757Y0140655D02*
X0107800Y0140655D01*
X0107800Y0139656D02*
X0095960Y0139656D01*
X0094413Y0138658D02*
X0107800Y0138658D01*
X0107800Y0136661D02*
X0095363Y0136661D01*
X0096362Y0135662D02*
X0107800Y0135662D01*
X0100000Y0132860D02*
X0100000Y0117860D01*
X0097336Y0120684D02*
X0096517Y0120684D01*
X0096555Y0119686D02*
X0095707Y0119686D01*
X0096142Y0118687D02*
X0093873Y0118687D01*
X0096939Y0121683D02*
X0097800Y0121683D01*
X0090300Y0123680D02*
X0089700Y0123680D01*
X0089700Y0124678D02*
X0090300Y0124678D01*
X0090300Y0125677D02*
X0089700Y0125677D01*
X0089700Y0126675D02*
X0090300Y0126675D01*
X0095975Y0129671D02*
X0097800Y0129671D01*
X0112200Y0116690D02*
X0114688Y0116690D01*
X0113668Y0115692D02*
X0112200Y0115692D01*
X0112200Y0114693D02*
X0113089Y0114693D01*
X0112700Y0113695D02*
X0112200Y0113695D01*
X0112276Y0112696D02*
X0112700Y0112696D01*
X0112811Y0111698D02*
X0111949Y0111698D01*
X0111204Y0110699D02*
X0113224Y0110699D01*
X0113729Y0109701D02*
X0110538Y0109701D01*
X0109872Y0108702D02*
X0112731Y0108702D01*
X0111732Y0107704D02*
X0109207Y0107704D01*
X0108541Y0106705D02*
X0110734Y0106705D01*
X0109735Y0105707D02*
X0107875Y0105707D01*
X0105250Y0109701D02*
X0096005Y0109701D01*
X0096776Y0110699D02*
X0105915Y0110699D01*
X0106581Y0111698D02*
X0097189Y0111698D01*
X0097300Y0112696D02*
X0107247Y0112696D01*
X0110000Y0112860D02*
X0100000Y0097860D01*
X0050000Y0097860D01*
X0045000Y0092860D01*
X0025000Y0092860D01*
X0028777Y0096720D02*
X0045749Y0096720D01*
X0046747Y0097719D02*
X0027381Y0097719D01*
X0028494Y0098717D02*
X0047746Y0098717D01*
X0048744Y0099716D02*
X0029492Y0099716D01*
X0029660Y0095722D02*
X0044750Y0095722D01*
X0047977Y0092726D02*
X0082700Y0092726D01*
X0082700Y0093725D02*
X0048976Y0093725D01*
X0049974Y0094723D02*
X0083101Y0094723D01*
X0082798Y0091727D02*
X0046979Y0091727D01*
X0047200Y0091949D02*
X0047200Y0091949D01*
X0045980Y0090729D02*
X0083212Y0090729D01*
X0083966Y0089730D02*
X0029507Y0089730D01*
X0028509Y0088732D02*
X0085407Y0088732D01*
X0086305Y0087360D02*
X0084651Y0086675D01*
X0083385Y0085409D01*
X0082700Y0083755D01*
X0082700Y0081965D01*
X0083385Y0080311D01*
X0084651Y0079045D01*
X0086305Y0078360D01*
X0093695Y0078360D01*
X0095349Y0079045D01*
X0096615Y0080311D01*
X0097300Y0081965D01*
X0097300Y0083755D01*
X0096615Y0085409D01*
X0095349Y0086675D01*
X0093695Y0087360D01*
X0086305Y0087360D01*
X0084796Y0086735D02*
X0028762Y0086735D01*
X0029653Y0085736D02*
X0083712Y0085736D01*
X0083107Y0084738D02*
X0030067Y0084738D01*
X0030400Y0083739D02*
X0082700Y0083739D01*
X0082700Y0082741D02*
X0030400Y0082741D01*
X0030382Y0081742D02*
X0082792Y0081742D01*
X0083206Y0080744D02*
X0029968Y0080744D01*
X0029522Y0079745D02*
X0083951Y0079745D01*
X0085371Y0078747D02*
X0028524Y0078747D01*
X0027309Y0077748D02*
X0097800Y0077748D01*
X0097800Y0076750D02*
X0095168Y0076750D01*
X0095349Y0076675D02*
X0093695Y0077360D01*
X0086305Y0077360D01*
X0084651Y0076675D01*
X0083385Y0075409D01*
X0082700Y0073755D01*
X0082700Y0071965D01*
X0083385Y0070311D01*
X0084651Y0069045D01*
X0086305Y0068360D01*
X0093695Y0068360D01*
X0095349Y0069045D01*
X0096615Y0070311D01*
X0097300Y0071965D01*
X0097300Y0073755D01*
X0096615Y0075409D01*
X0095349Y0076675D01*
X0096273Y0075751D02*
X0097800Y0075751D01*
X0097800Y0074753D02*
X0096887Y0074753D01*
X0097300Y0073754D02*
X0097800Y0073754D01*
X0097800Y0072756D02*
X0097300Y0072756D01*
X0097214Y0071757D02*
X0097800Y0071757D01*
X0097800Y0070759D02*
X0096800Y0070759D01*
X0096064Y0069760D02*
X0097800Y0069760D01*
X0097800Y0068762D02*
X0094665Y0068762D01*
X0085335Y0068762D02*
X0028538Y0068762D01*
X0029537Y0069760D02*
X0083936Y0069760D01*
X0083200Y0070759D02*
X0029975Y0070759D01*
X0030388Y0071757D02*
X0082786Y0071757D01*
X0082700Y0072756D02*
X0030400Y0072756D01*
X0030400Y0073754D02*
X0082700Y0073754D01*
X0083113Y0074753D02*
X0030061Y0074753D01*
X0029647Y0075751D02*
X0083727Y0075751D01*
X0084832Y0076750D02*
X0028747Y0076750D01*
X0027345Y0087733D02*
X0097800Y0087733D01*
X0097800Y0086735D02*
X0095204Y0086735D01*
X0096288Y0085736D02*
X0097800Y0085736D01*
X0097800Y0084738D02*
X0096893Y0084738D01*
X0097300Y0083739D02*
X0097800Y0083739D01*
X0097800Y0082741D02*
X0097300Y0082741D01*
X0097208Y0081742D02*
X0097800Y0081742D01*
X0097800Y0080744D02*
X0096794Y0080744D01*
X0096049Y0079745D02*
X0097800Y0079745D01*
X0097800Y0078747D02*
X0094629Y0078747D01*
X0094593Y0088732D02*
X0097800Y0088732D01*
X0097800Y0089730D02*
X0096034Y0089730D01*
X0096788Y0090729D02*
X0097800Y0090729D01*
X0097800Y0091727D02*
X0097202Y0091727D01*
X0097300Y0092726D02*
X0097800Y0092726D01*
X0097800Y0093725D02*
X0097300Y0093725D01*
X0096899Y0094723D02*
X0098752Y0094723D01*
X0100000Y0092860D02*
X0100000Y0057860D01*
X0095000Y0052860D01*
X0095000Y0042860D01*
X0098702Y0046794D02*
X0101298Y0046794D01*
X0100299Y0045796D02*
X0099701Y0045796D01*
X0097704Y0047793D02*
X0102296Y0047793D01*
X0097200Y0048792D02*
X0136432Y0048792D01*
X0135433Y0049790D02*
X0097200Y0049790D01*
X0097200Y0050789D02*
X0135013Y0050789D01*
X0134600Y0051787D02*
X0097200Y0051787D01*
X0098037Y0052786D02*
X0134600Y0052786D01*
X0134600Y0053784D02*
X0099035Y0053784D01*
X0100034Y0054783D02*
X0134951Y0054783D01*
X0135365Y0055781D02*
X0101032Y0055781D01*
X0102031Y0056780D02*
X0136283Y0056780D01*
X0137763Y0057778D02*
X0102200Y0057778D01*
X0107704Y0047793D02*
X0112579Y0047793D01*
X0111581Y0046794D02*
X0108702Y0046794D01*
X0109701Y0045796D02*
X0110582Y0045796D01*
X0114500Y0045796D02*
X0115500Y0045796D01*
X0115500Y0046794D02*
X0114500Y0046794D01*
X0114500Y0047793D02*
X0115500Y0047793D01*
X0117421Y0047793D02*
X0138122Y0047793D01*
X0145400Y0053784D02*
X0174882Y0053784D01*
X0175157Y0054783D02*
X0145049Y0054783D01*
X0144635Y0055781D02*
X0175695Y0055781D01*
X0176566Y0056780D02*
X0143717Y0056780D01*
X0142237Y0057778D02*
X0178309Y0057778D01*
X0179614Y0057778D02*
X0180386Y0057778D01*
X0180386Y0056780D02*
X0179614Y0056780D01*
X0179614Y0055781D02*
X0180386Y0055781D01*
X0180386Y0054783D02*
X0179614Y0054783D01*
X0179614Y0053784D02*
X0180386Y0053784D01*
X0180386Y0051787D02*
X0179614Y0051787D01*
X0179614Y0050789D02*
X0180386Y0050789D01*
X0180386Y0049790D02*
X0179614Y0049790D01*
X0179614Y0048792D02*
X0180386Y0048792D01*
X0181691Y0057778D02*
X0182900Y0057778D01*
X0143856Y0024827D02*
X0077200Y0024827D01*
X0077200Y0023829D02*
X0142487Y0023829D01*
X0140989Y0022830D02*
X0077200Y0022830D01*
X0077200Y0021832D02*
X0139491Y0021832D01*
X0137994Y0020833D02*
X0077200Y0020833D01*
X0077200Y0019835D02*
X0136496Y0019835D01*
X0134998Y0018836D02*
X0077200Y0018836D01*
X0077200Y0017838D02*
X0133500Y0017838D01*
X0132003Y0016839D02*
X0077200Y0016839D01*
X0077200Y0015841D02*
X0130505Y0015841D01*
X0115500Y0043799D02*
X0114500Y0043799D01*
X0114500Y0044797D02*
X0115500Y0044797D01*
X0115407Y0088732D02*
X0102200Y0088732D01*
X0102200Y0089730D02*
X0113966Y0089730D01*
X0113212Y0090729D02*
X0102200Y0090729D01*
X0102200Y0091727D02*
X0112798Y0091727D01*
X0112700Y0092726D02*
X0102977Y0092726D01*
X0103976Y0093725D02*
X0112700Y0093725D01*
X0113101Y0094723D02*
X0104974Y0094723D01*
X0105973Y0095722D02*
X0113698Y0095722D01*
X0114760Y0096720D02*
X0106971Y0096720D01*
X0100000Y0092860D02*
X0120000Y0112860D01*
X0117955Y0107704D02*
X0158338Y0107704D01*
X0161662Y0107704D02*
X0168338Y0107704D01*
X0166521Y0108702D02*
X0163479Y0108702D01*
X0164477Y0109701D02*
X0165523Y0109701D01*
X0165050Y0110699D02*
X0164950Y0110699D01*
X0164672Y0115692D02*
X0165328Y0115692D01*
X0166194Y0116690D02*
X0163806Y0116690D01*
X0162453Y0117689D02*
X0167547Y0117689D01*
X0169902Y0134663D02*
X0126707Y0134663D01*
X0126079Y0135662D02*
X0170316Y0135662D01*
X0171164Y0136661D02*
X0124813Y0136661D01*
X0120300Y0136661D02*
X0119700Y0136661D01*
X0119700Y0135662D02*
X0120300Y0135662D01*
X0120300Y0134663D02*
X0119700Y0134663D01*
X0119700Y0133665D02*
X0120300Y0133665D01*
X0120300Y0131668D02*
X0119700Y0131668D01*
X0119700Y0130669D02*
X0120300Y0130669D01*
X0120300Y0129671D02*
X0119700Y0129671D01*
X0119700Y0128672D02*
X0120300Y0128672D01*
X0110000Y0112860D02*
X0110000Y0172860D01*
X0090000Y0182860D01*
X0085730Y0178598D02*
X0072200Y0178598D01*
X0071375Y0179596D02*
X0084100Y0179596D01*
X0083267Y0180595D02*
X0070376Y0180595D01*
X0069378Y0181594D02*
X0082854Y0181594D01*
X0082700Y0182592D02*
X0068379Y0182592D01*
X0067381Y0183591D02*
X0082700Y0183591D01*
X0083045Y0184589D02*
X0066382Y0184589D01*
X0066090Y0185588D02*
X0083564Y0185588D01*
X0084562Y0186586D02*
X0067088Y0186586D01*
X0067669Y0187585D02*
X0172295Y0187585D01*
X0171104Y0176601D02*
X0125423Y0176601D01*
X0126421Y0175602D02*
X0170291Y0175602D01*
X0169877Y0174604D02*
X0126948Y0174604D01*
X0127300Y0173605D02*
X0169600Y0173605D01*
X0169600Y0172607D02*
X0127300Y0172607D01*
X0127152Y0171608D02*
X0169673Y0171608D01*
X0170087Y0170610D02*
X0126739Y0170610D01*
X0125915Y0169611D02*
X0170612Y0169611D01*
X0171134Y0156631D02*
X0125393Y0156631D01*
X0126392Y0155632D02*
X0170303Y0155632D01*
X0169890Y0154634D02*
X0126936Y0154634D01*
X0127300Y0153635D02*
X0169600Y0153635D01*
X0169600Y0152637D02*
X0127300Y0152637D01*
X0127165Y0151638D02*
X0169661Y0151638D01*
X0170075Y0150640D02*
X0126751Y0150640D01*
X0125945Y0149641D02*
X0170582Y0149641D01*
X0180154Y0203561D02*
X0182900Y0203561D01*
X0182900Y0204559D02*
X0179915Y0204559D01*
X0179461Y0205558D02*
X0182900Y0205558D01*
X0182900Y0206556D02*
X0178658Y0206556D01*
X0177240Y0207555D02*
X0182900Y0207555D01*
X0182900Y0208553D02*
X0015000Y0208553D01*
X0015000Y0209552D02*
X0182900Y0209552D01*
X0182900Y0210550D02*
X0015000Y0210550D01*
X0035000Y0192860D02*
X0035315Y0192860D01*
X0035815Y0192577D02*
X0048737Y0192577D01*
X0048737Y0191579D02*
X0045234Y0191579D01*
X0045052Y0190580D02*
X0048988Y0190580D01*
X0049256Y0189582D02*
X0044762Y0189582D01*
X0044354Y0188583D02*
X0049628Y0188583D01*
X0050205Y0187585D02*
X0043810Y0187585D01*
X0043102Y0186586D02*
X0050786Y0186586D01*
X0050998Y0183591D02*
X0054592Y0183591D01*
X0047626Y0183591D02*
X0046626Y0183591D01*
X0046626Y0182592D02*
X0047626Y0182592D01*
X0047626Y0181594D02*
X0046626Y0181594D01*
X0046626Y0180595D02*
X0047626Y0180595D01*
X0047626Y0179596D02*
X0046626Y0179596D01*
X0046626Y0178598D02*
X0047626Y0178598D01*
X0047626Y0177599D02*
X0046626Y0177599D01*
X0046626Y0176601D02*
X0047626Y0176601D01*
X0043254Y0183591D02*
X0039102Y0183591D01*
X0035815Y0183591D02*
X0034815Y0183591D01*
X0034815Y0184589D02*
X0035815Y0184589D01*
X0035815Y0185588D02*
X0034815Y0185588D01*
X0034815Y0186586D02*
X0035815Y0186586D01*
X0035815Y0187585D02*
X0034815Y0187585D01*
X0034815Y0188583D02*
X0035815Y0188583D01*
X0035815Y0189582D02*
X0034815Y0189582D01*
X0034815Y0190580D02*
X0035815Y0190580D01*
X0035815Y0191579D02*
X0034815Y0191579D01*
X0043538Y0198568D02*
X0050455Y0198568D01*
X0049878Y0197570D02*
X0044146Y0197570D01*
X0044611Y0196571D02*
X0049372Y0196571D01*
X0049104Y0195573D02*
X0044953Y0195573D01*
X0045181Y0194574D02*
X0048837Y0194574D01*
X0048737Y0193576D02*
X0045298Y0193576D01*
X0042750Y0199567D02*
X0051219Y0199567D01*
X0052217Y0200565D02*
X0041692Y0200565D01*
X0040259Y0201564D02*
X0053612Y0201564D01*
X0055737Y0202562D02*
X0037746Y0202562D01*
X0037147Y0173605D02*
X0015000Y0173605D01*
X0015000Y0172607D02*
X0037268Y0172607D01*
X0037496Y0171608D02*
X0015000Y0171608D01*
X0015000Y0170610D02*
X0037842Y0170610D01*
X0038312Y0169611D02*
X0015000Y0169611D01*
X0015000Y0168613D02*
X0038924Y0168613D01*
X0039726Y0167614D02*
X0015000Y0167614D01*
X0015000Y0166616D02*
X0040793Y0166616D01*
X0042238Y0165617D02*
X0015000Y0165617D01*
X0015000Y0164619D02*
X0044848Y0164619D01*
X0068246Y0188583D02*
X0085766Y0188583D01*
X0086305Y0188360D02*
X0093695Y0188360D01*
X0095349Y0189045D01*
X0096615Y0190311D01*
X0097300Y0191965D01*
X0097300Y0193755D01*
X0096615Y0195409D01*
X0095349Y0196675D01*
X0093695Y0197360D01*
X0086305Y0197360D01*
X0084651Y0196675D01*
X0083385Y0195409D01*
X0082700Y0193755D01*
X0082700Y0191965D01*
X0083385Y0190311D01*
X0084651Y0189045D01*
X0086305Y0188360D01*
X0084114Y0189582D02*
X0068618Y0189582D01*
X0068886Y0190580D02*
X0083274Y0190580D01*
X0082860Y0191579D02*
X0069137Y0191579D01*
X0069137Y0192577D02*
X0082700Y0192577D01*
X0082700Y0193576D02*
X0069137Y0193576D01*
X0069038Y0194574D02*
X0083039Y0194574D01*
X0083549Y0195573D02*
X0068770Y0195573D01*
X0068502Y0196571D02*
X0084547Y0196571D01*
X0094234Y0188583D02*
X0115766Y0188583D01*
X0114114Y0189582D02*
X0095886Y0189582D01*
X0096726Y0190580D02*
X0113274Y0190580D01*
X0112860Y0191579D02*
X0097140Y0191579D01*
X0097300Y0192577D02*
X0112700Y0192577D01*
X0112700Y0193576D02*
X0097300Y0193576D01*
X0096961Y0194574D02*
X0113039Y0194574D01*
X0113549Y0195573D02*
X0096451Y0195573D01*
X0095453Y0196571D02*
X0114547Y0196571D01*
X0114562Y0186586D02*
X0095438Y0186586D01*
X0096436Y0185588D02*
X0113564Y0185588D01*
X0113045Y0184589D02*
X0096955Y0184589D01*
X0097300Y0183591D02*
X0112700Y0183591D01*
X0112700Y0182592D02*
X0097300Y0182592D01*
X0097452Y0181594D02*
X0112854Y0181594D01*
X0113267Y0180595D02*
X0099449Y0180595D01*
X0101446Y0179596D02*
X0114100Y0179596D01*
X0114592Y0166616D02*
X0112200Y0166616D01*
X0112200Y0165617D02*
X0113593Y0165617D01*
X0113058Y0164619D02*
X0112200Y0164619D01*
X0112200Y0163620D02*
X0112700Y0163620D01*
X0112700Y0162622D02*
X0112200Y0162622D01*
X0112200Y0161623D02*
X0112841Y0161623D01*
X0113255Y0160625D02*
X0112200Y0160625D01*
X0112200Y0159626D02*
X0114070Y0159626D01*
X0115658Y0158628D02*
X0112200Y0158628D01*
X0107800Y0158628D02*
X0094342Y0158628D01*
X0095930Y0159626D02*
X0107800Y0159626D01*
X0107800Y0160625D02*
X0096745Y0160625D01*
X0097158Y0161623D02*
X0107800Y0161623D01*
X0107800Y0162622D02*
X0097300Y0162622D01*
X0097300Y0163620D02*
X0107800Y0163620D01*
X0107800Y0164619D02*
X0096942Y0164619D01*
X0096407Y0165617D02*
X0107800Y0165617D01*
X0061830Y0116690D02*
X0028806Y0116690D01*
X0029672Y0115692D02*
X0060831Y0115692D01*
X0061174Y0119686D02*
X0015000Y0119686D01*
X0025000Y0112860D02*
X0065000Y0112860D01*
X0096782Y0100714D02*
X0099259Y0100714D01*
X0099924Y0101713D02*
X0097195Y0101713D01*
D17*
X0100000Y0117860D03*
X0075000Y0122860D03*
X0050000Y0127860D03*
X0030000Y0142860D03*
M02*
