G75*
%MOIN*%
%OFA0B0*%
%FSLAX25Y25*%
%IPPOS*%
%LPD*%
%AMOC8*
5,1,8,0,0,1.08239X$1,22.5*
%
%ADD10C,0.07300*%
%ADD11C,0.17800*%
%ADD12C,0.08200*%
%ADD13OC8,0.08200*%
%ADD14C,0.06400*%
%ADD15C,0.05162*%
D10*
X0065000Y0112860D03*
X0065000Y0122860D03*
X0050000Y0142860D03*
X0040000Y0142860D03*
D11*
X0047126Y0174356D03*
X0058937Y0192860D03*
X0035315Y0192860D03*
D12*
X0025000Y0062860D03*
X0025000Y0072860D03*
X0025000Y0082860D03*
X0025000Y0092860D03*
X0025000Y0102860D03*
X0025000Y0112860D03*
X0025000Y0157860D03*
X0065000Y0157860D03*
X0140000Y0092860D03*
X0160000Y0112860D03*
X0170000Y0112860D03*
X0175000Y0132860D03*
X0175000Y0142860D03*
X0175000Y0152860D03*
X0175000Y0162860D03*
X0175000Y0172860D03*
X0175000Y0182860D03*
X0175000Y0192860D03*
X0175000Y0202860D03*
X0180000Y0092860D03*
X0170000Y0072860D03*
X0160000Y0072860D03*
X0140000Y0052860D03*
X0160000Y0032860D03*
X0170000Y0032860D03*
X0180000Y0052860D03*
X0180000Y0012860D03*
X0140000Y0012860D03*
D13*
X0115000Y0032860D03*
X0115000Y0042860D03*
X0105000Y0042860D03*
X0105000Y0032860D03*
X0095000Y0032860D03*
X0095000Y0042860D03*
D14*
X0092800Y0062860D02*
X0087200Y0062860D01*
X0087200Y0072860D02*
X0092800Y0072860D01*
X0092800Y0082860D02*
X0087200Y0082860D01*
X0087200Y0092860D02*
X0092800Y0092860D01*
X0092800Y0102860D02*
X0087200Y0102860D01*
X0087200Y0112860D02*
X0092800Y0112860D01*
X0092800Y0122860D02*
X0087200Y0122860D01*
X0087200Y0132860D02*
X0092800Y0132860D01*
X0092800Y0142860D02*
X0087200Y0142860D01*
X0087200Y0152860D02*
X0092800Y0152860D01*
X0092800Y0162860D02*
X0087200Y0162860D01*
X0087200Y0172860D02*
X0092800Y0172860D01*
X0092800Y0182860D02*
X0087200Y0182860D01*
X0087200Y0192860D02*
X0092800Y0192860D01*
X0117200Y0192860D02*
X0122800Y0192860D01*
X0122800Y0182860D02*
X0117200Y0182860D01*
X0117200Y0172860D02*
X0122800Y0172860D01*
X0122800Y0162860D02*
X0117200Y0162860D01*
X0117200Y0152860D02*
X0122800Y0152860D01*
X0122800Y0142860D02*
X0117200Y0142860D01*
X0117200Y0132860D02*
X0122800Y0132860D01*
X0122800Y0122860D02*
X0117200Y0122860D01*
X0117200Y0112860D02*
X0122800Y0112860D01*
X0122800Y0102860D02*
X0117200Y0102860D01*
X0117200Y0092860D02*
X0122800Y0092860D01*
X0122800Y0082860D02*
X0117200Y0082860D01*
X0117200Y0072860D02*
X0122800Y0072860D01*
X0122800Y0062860D02*
X0117200Y0062860D01*
D15*
X0100000Y0117860D03*
X0075000Y0122860D03*
X0050000Y0127860D03*
X0030000Y0142860D03*
M02*
