%
M48
M72
T01C0.02362
T02C0.02756
T03C0.03200
T04C0.03543
T05C0.04000
T06C0.11800
%
T01
X100000Y117860
X75000Y122860
X50000Y127860
X30000Y142860
T02
X40000Y142860
X50000Y142860
X65000Y122860
X65000Y112860
T03
X90000Y112860
X90000Y122860
X90000Y132860
X90000Y142860
X90000Y152860
X90000Y162860
X90000Y172860
X90000Y182860
X90000Y192860
X120000Y192860
X120000Y182860
X120000Y172860
X120000Y162860
X120000Y152860
X120000Y142860
X120000Y132860
X120000Y122860
X120000Y112860
X120000Y102860
X120000Y92860
X120000Y82860
X120000Y72860
X120000Y62860
X90000Y62860
X90000Y72860
X90000Y82860
X90000Y92860
X90000Y102860
X160000Y112860
X170000Y112860
X170000Y72860
X160000Y72860
X160000Y32860
X170000Y32860
T04
X180000Y52860
X180000Y92860
X140000Y92860
X140000Y52860
X140000Y12860
X180000Y12860
X65000Y157860
X25000Y157860
T05
X25000Y62860
X25000Y72860
X25000Y82860
X25000Y92860
X25000Y102860
X25000Y112860
X95000Y42860
X95000Y32860
X105000Y32860
X105000Y42860
X115000Y42860
X115000Y32860
X175000Y132860
X175000Y142860
X175000Y152860
X175000Y162860
X175000Y172860
X175000Y182860
X175000Y192860
X175000Y202860
T06
X58937Y192860
X47126Y174356
X35315Y192860
M30
