G75*
%MOIN*%
%OFA0B0*%
%FSLAX25Y25*%
%IPPOS*%
%LPD*%
%AMOC8*
5,1,8,0,0,1.08239X$1,22.5*
%
%ADD10C,0.00300*%
%ADD11C,0.00400*%
%ADD12C,0.00800*%
%ADD13C,0.00100*%
%ADD14C,0.00600*%
%ADD15C,0.00500*%
D10*
X0020634Y0168010D02*
X0020150Y0168494D01*
X0020634Y0168010D02*
X0021601Y0168010D01*
X0022085Y0168494D01*
X0022085Y0168977D01*
X0021601Y0169461D01*
X0021117Y0169461D01*
X0021601Y0169461D02*
X0022085Y0169945D01*
X0022085Y0170429D01*
X0021601Y0170912D01*
X0020634Y0170912D01*
X0020150Y0170429D01*
X0023097Y0168494D02*
X0023580Y0168494D01*
X0023580Y0168010D01*
X0023097Y0168010D01*
X0023097Y0168494D01*
X0024570Y0168494D02*
X0025054Y0168010D01*
X0026021Y0168010D01*
X0026505Y0168494D01*
X0026505Y0168977D01*
X0026021Y0169461D01*
X0025537Y0169461D01*
X0026021Y0169461D02*
X0026505Y0169945D01*
X0026505Y0170429D01*
X0026021Y0170912D01*
X0025054Y0170912D01*
X0024570Y0170429D01*
X0027516Y0169461D02*
X0029451Y0169461D01*
X0030463Y0169461D02*
X0031430Y0169945D01*
X0031914Y0169945D01*
X0032398Y0169461D01*
X0032398Y0168494D01*
X0031914Y0168010D01*
X0030947Y0168010D01*
X0030463Y0168494D01*
X0030463Y0169461D02*
X0030463Y0170912D01*
X0032398Y0170912D01*
X0033409Y0170912D02*
X0033409Y0168977D01*
X0034377Y0168010D01*
X0035344Y0168977D01*
X0035344Y0170912D01*
X0028484Y0170429D02*
X0028484Y0168494D01*
X0160150Y0135912D02*
X0160150Y0133977D01*
X0161117Y0133010D01*
X0162085Y0133977D01*
X0162085Y0135912D01*
X0163097Y0135429D02*
X0163097Y0133494D01*
X0163580Y0133010D01*
X0164548Y0133010D01*
X0165031Y0133494D01*
X0166043Y0133494D02*
X0166527Y0133010D01*
X0167494Y0133010D01*
X0167978Y0133494D01*
X0167978Y0135429D02*
X0167494Y0135912D01*
X0166527Y0135912D01*
X0166043Y0135429D01*
X0166043Y0133494D01*
X0165031Y0135429D02*
X0164548Y0135912D01*
X0163580Y0135912D01*
X0163097Y0135429D01*
X0165150Y0143010D02*
X0165150Y0144945D01*
X0166117Y0145912D01*
X0167085Y0144945D01*
X0167085Y0143010D01*
X0168097Y0143494D02*
X0168580Y0143010D01*
X0169548Y0143010D01*
X0170031Y0143494D01*
X0170031Y0144461D01*
X0169548Y0144945D01*
X0169064Y0144945D01*
X0168097Y0144461D01*
X0168097Y0145912D01*
X0170031Y0145912D01*
X0167085Y0144461D02*
X0165150Y0144461D01*
X0165150Y0153010D02*
X0165150Y0154945D01*
X0166117Y0155912D01*
X0167085Y0154945D01*
X0167085Y0153010D01*
X0167085Y0154461D02*
X0165150Y0154461D01*
X0168097Y0154461D02*
X0170031Y0154461D01*
X0169548Y0153010D02*
X0169548Y0155912D01*
X0168097Y0154461D01*
X0168580Y0163010D02*
X0168097Y0163494D01*
X0168580Y0163010D02*
X0169548Y0163010D01*
X0170031Y0163494D01*
X0170031Y0163977D01*
X0169548Y0164461D01*
X0169064Y0164461D01*
X0169548Y0164461D02*
X0170031Y0164945D01*
X0170031Y0165429D01*
X0169548Y0165912D01*
X0168580Y0165912D01*
X0168097Y0165429D01*
X0167085Y0164945D02*
X0167085Y0163010D01*
X0167085Y0164461D02*
X0165150Y0164461D01*
X0165150Y0164945D02*
X0166117Y0165912D01*
X0167085Y0164945D01*
X0165150Y0164945D02*
X0165150Y0163010D01*
X0165150Y0173010D02*
X0165150Y0174945D01*
X0166117Y0175912D01*
X0167085Y0174945D01*
X0167085Y0173010D01*
X0168097Y0173010D02*
X0170031Y0174945D01*
X0170031Y0175429D01*
X0169548Y0175912D01*
X0168580Y0175912D01*
X0168097Y0175429D01*
X0167085Y0174461D02*
X0165150Y0174461D01*
X0168097Y0173010D02*
X0170031Y0173010D01*
X0170031Y0183010D02*
X0168097Y0183010D01*
X0169064Y0183010D02*
X0169064Y0185912D01*
X0168097Y0184945D01*
X0167085Y0184945D02*
X0167085Y0183010D01*
X0167085Y0184461D02*
X0165150Y0184461D01*
X0165150Y0184945D02*
X0166117Y0185912D01*
X0167085Y0184945D01*
X0165150Y0184945D02*
X0165150Y0183010D01*
X0165150Y0193010D02*
X0165150Y0194945D01*
X0166117Y0195912D01*
X0167085Y0194945D01*
X0167085Y0193010D01*
X0168097Y0193494D02*
X0170031Y0195429D01*
X0170031Y0193494D01*
X0169548Y0193010D01*
X0168580Y0193010D01*
X0168097Y0193494D01*
X0168097Y0195429D01*
X0168580Y0195912D01*
X0169548Y0195912D01*
X0170031Y0195429D01*
X0167085Y0194461D02*
X0165150Y0194461D01*
X0165031Y0203010D02*
X0165031Y0205912D01*
X0166043Y0205912D02*
X0167494Y0205912D01*
X0167978Y0205429D01*
X0167978Y0203494D01*
X0167494Y0203010D01*
X0166043Y0203010D01*
X0166043Y0205912D01*
X0163097Y0205912D02*
X0165031Y0203010D01*
X0163097Y0203010D02*
X0163097Y0205912D01*
X0162085Y0205429D02*
X0161601Y0205912D01*
X0160634Y0205912D01*
X0160150Y0205429D01*
X0160150Y0203494D01*
X0160634Y0203010D01*
X0161601Y0203010D01*
X0162085Y0203494D01*
X0162085Y0204461D01*
X0161117Y0204461D01*
D11*
X0059033Y0090931D02*
X0058265Y0090163D01*
X0058265Y0088629D01*
X0057498Y0087861D01*
X0056731Y0088629D01*
X0056731Y0090931D01*
X0059033Y0090931D02*
X0059800Y0090163D01*
X0059800Y0087861D01*
X0059033Y0086327D02*
X0059800Y0085559D01*
X0059800Y0084025D01*
X0059033Y0083257D01*
X0057498Y0083257D01*
X0056731Y0084025D01*
X0056731Y0085559D01*
X0057498Y0086327D01*
X0059033Y0086327D01*
X0059800Y0081723D02*
X0059800Y0080188D01*
X0059800Y0080955D02*
X0056731Y0080955D01*
X0056731Y0080188D01*
X0056731Y0078653D02*
X0056731Y0076352D01*
X0057498Y0075584D01*
X0059033Y0075584D01*
X0059800Y0076352D01*
X0059800Y0078653D01*
X0055196Y0078653D01*
X0055196Y0080955D02*
X0054429Y0080955D01*
X0056731Y0074050D02*
X0059800Y0074050D01*
X0059800Y0071748D01*
X0059033Y0070980D01*
X0056731Y0070980D01*
X0056731Y0069446D02*
X0056731Y0067911D01*
X0055963Y0068678D02*
X0059033Y0068678D01*
X0059800Y0069446D01*
X0059033Y0066376D02*
X0059800Y0065609D01*
X0059800Y0064074D01*
X0059033Y0063307D01*
X0057498Y0064074D02*
X0057498Y0065609D01*
X0058265Y0066376D01*
X0059033Y0066376D01*
X0057498Y0064074D02*
X0056731Y0063307D01*
X0055963Y0063307D01*
X0055196Y0064074D01*
X0055196Y0065609D01*
X0055963Y0066376D01*
X0056731Y0057169D02*
X0056731Y0054867D01*
X0057498Y0054099D01*
X0058265Y0054867D01*
X0058265Y0056401D01*
X0059033Y0057169D01*
X0059800Y0056401D01*
X0059800Y0054099D01*
X0059800Y0052565D02*
X0059033Y0051797D01*
X0055963Y0051797D01*
X0056731Y0051030D02*
X0056731Y0052565D01*
X0057498Y0049495D02*
X0059800Y0049495D01*
X0057498Y0049495D02*
X0056731Y0048728D01*
X0056731Y0046426D01*
X0059800Y0046426D01*
X0059800Y0044891D02*
X0057498Y0044891D01*
X0056731Y0044124D01*
X0056731Y0042589D01*
X0058265Y0042589D02*
X0058265Y0044891D01*
X0059800Y0044891D02*
X0059800Y0042589D01*
X0059033Y0041822D01*
X0058265Y0042589D01*
X0057498Y0040287D02*
X0055963Y0040287D01*
X0055196Y0039520D01*
X0055196Y0037218D01*
X0059800Y0037218D01*
X0058265Y0037218D02*
X0058265Y0039520D01*
X0057498Y0040287D01*
X0056731Y0031080D02*
X0056731Y0029545D01*
X0055963Y0030312D02*
X0059033Y0030312D01*
X0059800Y0031080D01*
X0059033Y0028010D02*
X0057498Y0028010D01*
X0056731Y0027243D01*
X0056731Y0025708D01*
X0057498Y0024941D01*
X0059033Y0024941D01*
X0059800Y0025708D01*
X0059800Y0027243D01*
X0059033Y0028010D01*
X0056731Y0023406D02*
X0056731Y0022639D01*
X0058265Y0021104D01*
X0056731Y0021104D02*
X0059800Y0021104D01*
X0059800Y0017268D02*
X0056731Y0017268D01*
X0058265Y0017268D02*
X0056731Y0018802D01*
X0056731Y0019570D01*
X0057498Y0015733D02*
X0059800Y0015733D01*
X0059800Y0013431D01*
X0059033Y0012664D01*
X0058265Y0013431D01*
X0058265Y0015733D01*
X0057498Y0015733D02*
X0056731Y0014966D01*
X0056731Y0013431D01*
X0055963Y0011129D02*
X0055196Y0010362D01*
X0055196Y0008827D01*
X0055963Y0008060D01*
X0059033Y0008060D01*
X0059800Y0008827D01*
X0059800Y0010362D01*
X0059033Y0011129D01*
D12*
X0027500Y0057860D02*
X0022500Y0057860D01*
X0020000Y0060360D01*
X0020000Y0065360D01*
X0022500Y0067860D01*
X0020000Y0070360D01*
X0020000Y0075360D01*
X0022500Y0077860D01*
X0020000Y0080360D01*
X0020000Y0085360D01*
X0022500Y0087860D01*
X0020000Y0090360D01*
X0020000Y0095360D01*
X0022500Y0097860D01*
X0020000Y0100360D01*
X0020000Y0105360D01*
X0022500Y0107860D01*
X0020000Y0110360D01*
X0020000Y0115360D01*
X0022500Y0117860D01*
X0027500Y0117860D01*
X0030000Y0115360D01*
X0030000Y0110360D01*
X0027500Y0107860D01*
X0030000Y0105360D01*
X0030000Y0100360D01*
X0027500Y0097860D01*
X0030000Y0095360D01*
X0030000Y0090360D01*
X0027500Y0087860D01*
X0030000Y0085360D01*
X0030000Y0080360D01*
X0027500Y0077860D01*
X0030000Y0075360D01*
X0030000Y0070360D01*
X0027500Y0067860D01*
X0030000Y0065360D01*
X0030000Y0060360D01*
X0027500Y0057860D01*
X0062500Y0117860D02*
X0067500Y0117860D01*
X0045000Y0140360D02*
X0045000Y0145360D01*
X0057402Y0153136D02*
X0032598Y0153136D01*
X0032598Y0162584D01*
X0057402Y0162584D01*
X0057402Y0153136D01*
X0056181Y0175143D02*
X0058937Y0175143D01*
X0058937Y0183411D01*
X0058937Y0202309D02*
X0058937Y0210577D01*
X0016811Y0210577D01*
X0016811Y0175143D01*
X0037677Y0175143D01*
X0093000Y0196860D02*
X0093000Y0197860D01*
X0100000Y0197860D01*
X0100002Y0197720D01*
X0100008Y0197580D01*
X0100018Y0197440D01*
X0100031Y0197300D01*
X0100049Y0197161D01*
X0100071Y0197022D01*
X0100096Y0196885D01*
X0100125Y0196747D01*
X0100158Y0196611D01*
X0100195Y0196476D01*
X0100236Y0196342D01*
X0100281Y0196209D01*
X0100329Y0196077D01*
X0100381Y0195947D01*
X0100436Y0195818D01*
X0100495Y0195691D01*
X0100558Y0195565D01*
X0100624Y0195441D01*
X0100693Y0195320D01*
X0100766Y0195200D01*
X0100843Y0195082D01*
X0100922Y0194967D01*
X0101005Y0194853D01*
X0101091Y0194743D01*
X0101180Y0194634D01*
X0101272Y0194528D01*
X0101367Y0194425D01*
X0101464Y0194324D01*
X0101565Y0194227D01*
X0101668Y0194132D01*
X0101774Y0194040D01*
X0101883Y0193951D01*
X0101993Y0193865D01*
X0102107Y0193782D01*
X0102222Y0193703D01*
X0102340Y0193626D01*
X0102460Y0193553D01*
X0102581Y0193484D01*
X0102705Y0193418D01*
X0102831Y0193355D01*
X0102958Y0193296D01*
X0103087Y0193241D01*
X0103217Y0193189D01*
X0103349Y0193141D01*
X0103482Y0193096D01*
X0103616Y0193055D01*
X0103751Y0193018D01*
X0103887Y0192985D01*
X0104025Y0192956D01*
X0104162Y0192931D01*
X0104301Y0192909D01*
X0104440Y0192891D01*
X0104580Y0192878D01*
X0104720Y0192868D01*
X0104860Y0192862D01*
X0105000Y0192860D01*
X0105140Y0192862D01*
X0105280Y0192868D01*
X0105420Y0192878D01*
X0105560Y0192891D01*
X0105699Y0192909D01*
X0105838Y0192931D01*
X0105975Y0192956D01*
X0106113Y0192985D01*
X0106249Y0193018D01*
X0106384Y0193055D01*
X0106518Y0193096D01*
X0106651Y0193141D01*
X0106783Y0193189D01*
X0106913Y0193241D01*
X0107042Y0193296D01*
X0107169Y0193355D01*
X0107295Y0193418D01*
X0107419Y0193484D01*
X0107540Y0193553D01*
X0107660Y0193626D01*
X0107778Y0193703D01*
X0107893Y0193782D01*
X0108007Y0193865D01*
X0108117Y0193951D01*
X0108226Y0194040D01*
X0108332Y0194132D01*
X0108435Y0194227D01*
X0108536Y0194324D01*
X0108633Y0194425D01*
X0108728Y0194528D01*
X0108820Y0194634D01*
X0108909Y0194743D01*
X0108995Y0194853D01*
X0109078Y0194967D01*
X0109157Y0195082D01*
X0109234Y0195200D01*
X0109307Y0195320D01*
X0109376Y0195441D01*
X0109442Y0195565D01*
X0109505Y0195691D01*
X0109564Y0195818D01*
X0109619Y0195947D01*
X0109671Y0196077D01*
X0109719Y0196209D01*
X0109764Y0196342D01*
X0109805Y0196476D01*
X0109842Y0196611D01*
X0109875Y0196747D01*
X0109904Y0196885D01*
X0109929Y0197022D01*
X0109951Y0197161D01*
X0109969Y0197300D01*
X0109982Y0197440D01*
X0109992Y0197580D01*
X0109998Y0197720D01*
X0110000Y0197860D01*
X0117000Y0197860D01*
X0117000Y0196860D01*
X0170000Y0195360D02*
X0170000Y0190360D01*
X0172500Y0187860D01*
X0170000Y0185360D01*
X0170000Y0180360D01*
X0172500Y0177860D01*
X0170000Y0175360D01*
X0170000Y0170360D01*
X0172500Y0167860D01*
X0170000Y0165360D01*
X0170000Y0160360D01*
X0172500Y0157860D01*
X0170000Y0155360D01*
X0170000Y0150360D01*
X0172500Y0147860D01*
X0170000Y0145360D01*
X0170000Y0140360D01*
X0172500Y0137860D01*
X0170000Y0135360D01*
X0170000Y0130360D01*
X0172500Y0127860D01*
X0177500Y0127860D01*
X0180000Y0130360D01*
X0180000Y0135360D01*
X0177500Y0137860D01*
X0180000Y0140360D01*
X0180000Y0145360D01*
X0177500Y0147860D01*
X0180000Y0150360D01*
X0180000Y0155360D01*
X0177500Y0157860D01*
X0180000Y0160360D01*
X0180000Y0165360D01*
X0177500Y0167860D01*
X0180000Y0170360D01*
X0180000Y0175360D01*
X0177500Y0177860D01*
X0180000Y0180360D01*
X0180000Y0185360D01*
X0177500Y0187860D01*
X0180000Y0190360D01*
X0180000Y0195360D01*
X0177500Y0197860D01*
X0180000Y0200360D01*
X0180000Y0205360D01*
X0177500Y0207860D01*
X0172500Y0207860D01*
X0170000Y0205360D01*
X0170000Y0200360D01*
X0172500Y0197860D01*
X0170000Y0195360D01*
X0175000Y0120360D02*
X0175000Y0105360D01*
X0172402Y0097584D02*
X0147598Y0097584D01*
X0147598Y0088136D01*
X0172402Y0088136D01*
X0172402Y0097584D01*
X0175000Y0080360D02*
X0175000Y0065360D01*
X0172402Y0057584D02*
X0147598Y0057584D01*
X0147598Y0048136D01*
X0172402Y0048136D01*
X0172402Y0057584D01*
X0175000Y0040360D02*
X0175000Y0025360D01*
X0172402Y0017584D02*
X0147598Y0017584D01*
X0147598Y0008136D01*
X0172402Y0008136D01*
X0172402Y0017584D01*
X0120000Y0030360D02*
X0120000Y0045360D01*
X0117500Y0047860D01*
X0112500Y0047860D01*
X0110000Y0045360D01*
X0110000Y0030360D01*
X0112500Y0027860D01*
X0117500Y0027860D01*
X0120000Y0030360D01*
X0110000Y0030360D02*
X0107500Y0027860D01*
X0102500Y0027860D01*
X0100000Y0030360D01*
X0100000Y0045360D01*
X0102500Y0047860D01*
X0107500Y0047860D01*
X0110000Y0045360D01*
X0100000Y0045360D02*
X0097500Y0047860D01*
X0092500Y0047860D01*
X0090000Y0045360D01*
X0090000Y0030360D01*
X0092500Y0027860D01*
X0097500Y0027860D01*
X0100000Y0030360D01*
X0097500Y0026541D02*
X0092500Y0026541D01*
X0093000Y0057860D02*
X0093000Y0058860D01*
X0093000Y0057860D02*
X0117000Y0057860D01*
X0117000Y0058860D01*
D13*
X0175329Y0080669D02*
X0174609Y0080129D01*
X0174610Y0080130D02*
X0174429Y0080363D01*
X0174243Y0080591D01*
X0174051Y0080815D01*
X0173854Y0081034D01*
X0173652Y0081248D01*
X0173444Y0081457D01*
X0173231Y0081660D01*
X0173014Y0081859D01*
X0172791Y0082052D01*
X0172564Y0082240D01*
X0172333Y0082422D01*
X0172097Y0082599D01*
X0171856Y0082769D01*
X0171612Y0082934D01*
X0171364Y0083092D01*
X0171112Y0083245D01*
X0170856Y0083391D01*
X0170597Y0083531D01*
X0170334Y0083665D01*
X0170069Y0083792D01*
X0169800Y0083913D01*
X0169528Y0084027D01*
X0169254Y0084134D01*
X0168977Y0084235D01*
X0168698Y0084329D01*
X0168416Y0084416D01*
X0168133Y0084496D01*
X0167847Y0084569D01*
X0167560Y0084635D01*
X0167271Y0084694D01*
X0166981Y0084746D01*
X0166690Y0084791D01*
X0166398Y0084829D01*
X0166105Y0084859D01*
X0165811Y0084883D01*
X0165517Y0084899D01*
X0165223Y0084908D01*
X0164928Y0084910D01*
X0164633Y0084904D01*
X0164339Y0084892D01*
X0164045Y0084872D01*
X0163752Y0084845D01*
X0163459Y0084811D01*
X0163167Y0084770D01*
X0162877Y0084721D01*
X0162587Y0084666D01*
X0162300Y0084604D01*
X0162013Y0084534D01*
X0161729Y0084457D01*
X0161446Y0084374D01*
X0161166Y0084284D01*
X0160888Y0084187D01*
X0160612Y0084083D01*
X0160339Y0083972D01*
X0160069Y0083855D01*
X0159801Y0083731D01*
X0159537Y0083601D01*
X0159276Y0083464D01*
X0159019Y0083321D01*
X0158765Y0083171D01*
X0158514Y0083016D01*
X0158268Y0082854D01*
X0158026Y0082687D01*
X0157788Y0082513D01*
X0157554Y0082334D01*
X0157324Y0082149D01*
X0157100Y0081959D01*
X0156879Y0081763D01*
X0156664Y0081562D01*
X0156454Y0081355D01*
X0156249Y0081144D01*
X0156049Y0080927D01*
X0155854Y0080706D01*
X0155665Y0080480D01*
X0155482Y0080250D01*
X0155304Y0080015D01*
X0155132Y0079775D01*
X0154966Y0079532D01*
X0154806Y0079285D01*
X0154652Y0079034D01*
X0154504Y0078779D01*
X0154362Y0078520D01*
X0154227Y0078259D01*
X0154098Y0077994D01*
X0153976Y0077726D01*
X0153860Y0077455D01*
X0153751Y0077181D01*
X0153649Y0076905D01*
X0153554Y0076626D01*
X0153465Y0076345D01*
X0153383Y0076062D01*
X0153308Y0075777D01*
X0153241Y0075490D01*
X0153180Y0075202D01*
X0153126Y0074912D01*
X0153079Y0074621D01*
X0153040Y0074329D01*
X0153008Y0074037D01*
X0152982Y0073743D01*
X0152964Y0073449D01*
X0152954Y0073155D01*
X0152950Y0072860D01*
X0152954Y0072565D01*
X0152964Y0072271D01*
X0152982Y0071977D01*
X0153008Y0071683D01*
X0153040Y0071391D01*
X0153079Y0071099D01*
X0153126Y0070808D01*
X0153180Y0070518D01*
X0153241Y0070230D01*
X0153308Y0069943D01*
X0153383Y0069658D01*
X0153465Y0069375D01*
X0153554Y0069094D01*
X0153649Y0068815D01*
X0153751Y0068539D01*
X0153860Y0068265D01*
X0153976Y0067994D01*
X0154098Y0067726D01*
X0154227Y0067461D01*
X0154362Y0067200D01*
X0154504Y0066941D01*
X0154652Y0066686D01*
X0154806Y0066435D01*
X0154966Y0066188D01*
X0155132Y0065945D01*
X0155304Y0065705D01*
X0155482Y0065470D01*
X0155665Y0065240D01*
X0155854Y0065014D01*
X0156049Y0064793D01*
X0156249Y0064576D01*
X0156454Y0064365D01*
X0156664Y0064158D01*
X0156879Y0063957D01*
X0157100Y0063761D01*
X0157324Y0063571D01*
X0157554Y0063386D01*
X0157788Y0063207D01*
X0158026Y0063033D01*
X0158268Y0062866D01*
X0158514Y0062704D01*
X0158765Y0062549D01*
X0159019Y0062399D01*
X0159276Y0062256D01*
X0159537Y0062119D01*
X0159801Y0061989D01*
X0160069Y0061865D01*
X0160339Y0061748D01*
X0160612Y0061637D01*
X0160888Y0061533D01*
X0161166Y0061436D01*
X0161446Y0061346D01*
X0161729Y0061263D01*
X0162013Y0061186D01*
X0162300Y0061116D01*
X0162587Y0061054D01*
X0162877Y0060999D01*
X0163167Y0060950D01*
X0163459Y0060909D01*
X0163752Y0060875D01*
X0164045Y0060848D01*
X0164339Y0060828D01*
X0164633Y0060816D01*
X0164928Y0060810D01*
X0165223Y0060812D01*
X0165517Y0060821D01*
X0165811Y0060837D01*
X0166105Y0060861D01*
X0166398Y0060891D01*
X0166690Y0060929D01*
X0166981Y0060974D01*
X0167271Y0061026D01*
X0167560Y0061085D01*
X0167847Y0061151D01*
X0168133Y0061224D01*
X0168416Y0061304D01*
X0168698Y0061391D01*
X0168977Y0061485D01*
X0169254Y0061586D01*
X0169528Y0061693D01*
X0169800Y0061807D01*
X0170069Y0061928D01*
X0170334Y0062055D01*
X0170597Y0062189D01*
X0170856Y0062329D01*
X0171112Y0062475D01*
X0171364Y0062628D01*
X0171612Y0062786D01*
X0171856Y0062951D01*
X0172097Y0063121D01*
X0172333Y0063298D01*
X0172564Y0063480D01*
X0172791Y0063668D01*
X0173014Y0063861D01*
X0173231Y0064060D01*
X0173444Y0064263D01*
X0173652Y0064472D01*
X0173854Y0064686D01*
X0174051Y0064905D01*
X0174243Y0065129D01*
X0174429Y0065357D01*
X0174610Y0065590D01*
X0175329Y0065051D01*
X0175330Y0065050D01*
X0175136Y0064800D01*
X0174936Y0064554D01*
X0174730Y0064314D01*
X0174518Y0064079D01*
X0174300Y0063849D01*
X0174077Y0063624D01*
X0173849Y0063405D01*
X0173615Y0063191D01*
X0173376Y0062983D01*
X0173132Y0062781D01*
X0172883Y0062586D01*
X0172629Y0062396D01*
X0172371Y0062213D01*
X0172109Y0062036D01*
X0171842Y0061865D01*
X0171571Y0061701D01*
X0171296Y0061544D01*
X0171018Y0061393D01*
X0170735Y0061249D01*
X0170450Y0061113D01*
X0170161Y0060983D01*
X0169869Y0060860D01*
X0169574Y0060745D01*
X0169277Y0060637D01*
X0168976Y0060536D01*
X0168674Y0060442D01*
X0168369Y0060356D01*
X0168062Y0060277D01*
X0167754Y0060206D01*
X0167444Y0060143D01*
X0167132Y0060087D01*
X0166819Y0060038D01*
X0166505Y0059998D01*
X0166190Y0059965D01*
X0165874Y0059940D01*
X0165558Y0059922D01*
X0165242Y0059912D01*
X0164925Y0059910D01*
X0164608Y0059916D01*
X0164292Y0059929D01*
X0163976Y0059951D01*
X0163661Y0059979D01*
X0163346Y0060016D01*
X0163033Y0060060D01*
X0162720Y0060112D01*
X0162409Y0060172D01*
X0162100Y0060239D01*
X0161792Y0060314D01*
X0161486Y0060396D01*
X0161183Y0060485D01*
X0160881Y0060582D01*
X0160582Y0060687D01*
X0160286Y0060799D01*
X0159992Y0060917D01*
X0159702Y0061043D01*
X0159415Y0061176D01*
X0159130Y0061317D01*
X0158850Y0061464D01*
X0158573Y0061617D01*
X0158300Y0061778D01*
X0158031Y0061945D01*
X0157766Y0062119D01*
X0157506Y0062299D01*
X0157250Y0062485D01*
X0156999Y0062678D01*
X0156752Y0062876D01*
X0156510Y0063081D01*
X0156274Y0063291D01*
X0156042Y0063508D01*
X0155817Y0063730D01*
X0155596Y0063957D01*
X0155381Y0064189D01*
X0155172Y0064427D01*
X0154969Y0064670D01*
X0154771Y0064918D01*
X0154580Y0065170D01*
X0154395Y0065427D01*
X0154217Y0065689D01*
X0154045Y0065955D01*
X0153879Y0066224D01*
X0153720Y0066498D01*
X0153568Y0066776D01*
X0153423Y0067057D01*
X0153284Y0067342D01*
X0153153Y0067630D01*
X0153029Y0067922D01*
X0152911Y0068216D01*
X0152801Y0068513D01*
X0152699Y0068812D01*
X0152604Y0069114D01*
X0152516Y0069418D01*
X0152435Y0069725D01*
X0152362Y0070033D01*
X0152297Y0070343D01*
X0152239Y0070654D01*
X0152189Y0070967D01*
X0152147Y0071281D01*
X0152112Y0071595D01*
X0152085Y0071911D01*
X0152065Y0072227D01*
X0152054Y0072543D01*
X0152050Y0072860D01*
X0152054Y0073177D01*
X0152065Y0073493D01*
X0152085Y0073809D01*
X0152112Y0074125D01*
X0152147Y0074439D01*
X0152189Y0074753D01*
X0152239Y0075066D01*
X0152297Y0075377D01*
X0152362Y0075687D01*
X0152435Y0075995D01*
X0152516Y0076302D01*
X0152604Y0076606D01*
X0152699Y0076908D01*
X0152801Y0077207D01*
X0152911Y0077504D01*
X0153029Y0077798D01*
X0153153Y0078090D01*
X0153284Y0078378D01*
X0153423Y0078663D01*
X0153568Y0078944D01*
X0153720Y0079222D01*
X0153879Y0079496D01*
X0154045Y0079765D01*
X0154217Y0080031D01*
X0154395Y0080293D01*
X0154580Y0080550D01*
X0154771Y0080802D01*
X0154969Y0081050D01*
X0155172Y0081293D01*
X0155381Y0081531D01*
X0155596Y0081763D01*
X0155817Y0081990D01*
X0156042Y0082212D01*
X0156274Y0082429D01*
X0156510Y0082639D01*
X0156752Y0082844D01*
X0156999Y0083042D01*
X0157250Y0083235D01*
X0157506Y0083421D01*
X0157766Y0083601D01*
X0158031Y0083775D01*
X0158300Y0083942D01*
X0158573Y0084103D01*
X0158850Y0084256D01*
X0159130Y0084403D01*
X0159415Y0084544D01*
X0159702Y0084677D01*
X0159992Y0084803D01*
X0160286Y0084921D01*
X0160582Y0085033D01*
X0160881Y0085138D01*
X0161183Y0085235D01*
X0161486Y0085324D01*
X0161792Y0085406D01*
X0162100Y0085481D01*
X0162409Y0085548D01*
X0162720Y0085608D01*
X0163033Y0085660D01*
X0163346Y0085704D01*
X0163661Y0085741D01*
X0163976Y0085769D01*
X0164292Y0085791D01*
X0164608Y0085804D01*
X0164925Y0085810D01*
X0165242Y0085808D01*
X0165558Y0085798D01*
X0165874Y0085780D01*
X0166190Y0085755D01*
X0166505Y0085722D01*
X0166819Y0085682D01*
X0167132Y0085633D01*
X0167444Y0085577D01*
X0167754Y0085514D01*
X0168062Y0085443D01*
X0168369Y0085364D01*
X0168674Y0085278D01*
X0168976Y0085184D01*
X0169277Y0085083D01*
X0169574Y0084975D01*
X0169869Y0084860D01*
X0170161Y0084737D01*
X0170450Y0084607D01*
X0170735Y0084471D01*
X0171018Y0084327D01*
X0171296Y0084176D01*
X0171571Y0084019D01*
X0171842Y0083855D01*
X0172109Y0083684D01*
X0172371Y0083507D01*
X0172629Y0083324D01*
X0172883Y0083134D01*
X0173132Y0082939D01*
X0173376Y0082737D01*
X0173615Y0082529D01*
X0173849Y0082315D01*
X0174077Y0082096D01*
X0174300Y0081871D01*
X0174518Y0081641D01*
X0174730Y0081406D01*
X0174936Y0081166D01*
X0175136Y0080920D01*
X0175330Y0080670D01*
X0175255Y0080614D01*
X0175062Y0080862D01*
X0174863Y0081106D01*
X0174659Y0081344D01*
X0174449Y0081578D01*
X0174233Y0081806D01*
X0174011Y0082029D01*
X0173784Y0082247D01*
X0173552Y0082459D01*
X0173315Y0082665D01*
X0173073Y0082866D01*
X0172825Y0083060D01*
X0172574Y0083248D01*
X0172317Y0083430D01*
X0172057Y0083606D01*
X0171792Y0083775D01*
X0171523Y0083938D01*
X0171250Y0084094D01*
X0170974Y0084244D01*
X0170694Y0084386D01*
X0170410Y0084522D01*
X0170123Y0084651D01*
X0169833Y0084773D01*
X0169541Y0084887D01*
X0169245Y0084995D01*
X0168947Y0085095D01*
X0168647Y0085188D01*
X0168344Y0085273D01*
X0168040Y0085351D01*
X0167734Y0085422D01*
X0167426Y0085485D01*
X0167116Y0085541D01*
X0166806Y0085589D01*
X0166494Y0085629D01*
X0166181Y0085662D01*
X0165868Y0085687D01*
X0165554Y0085704D01*
X0165240Y0085714D01*
X0164925Y0085716D01*
X0164611Y0085710D01*
X0164297Y0085697D01*
X0163983Y0085676D01*
X0163670Y0085647D01*
X0163358Y0085611D01*
X0163047Y0085567D01*
X0162737Y0085515D01*
X0162428Y0085456D01*
X0162121Y0085389D01*
X0161815Y0085315D01*
X0161512Y0085234D01*
X0161210Y0085145D01*
X0160911Y0085048D01*
X0160614Y0084945D01*
X0160320Y0084834D01*
X0160029Y0084716D01*
X0159740Y0084591D01*
X0159455Y0084459D01*
X0159173Y0084320D01*
X0158895Y0084174D01*
X0158620Y0084021D01*
X0158349Y0083862D01*
X0158082Y0083696D01*
X0157819Y0083523D01*
X0157560Y0083345D01*
X0157306Y0083160D01*
X0157057Y0082968D01*
X0156812Y0082771D01*
X0156572Y0082568D01*
X0156337Y0082359D01*
X0156107Y0082144D01*
X0155883Y0081924D01*
X0155664Y0081699D01*
X0155451Y0081468D01*
X0155243Y0081232D01*
X0155041Y0080990D01*
X0154846Y0080745D01*
X0154656Y0080494D01*
X0154472Y0080239D01*
X0154295Y0079979D01*
X0154124Y0079715D01*
X0153960Y0079447D01*
X0153802Y0079175D01*
X0153651Y0078900D01*
X0153507Y0078620D01*
X0153369Y0078338D01*
X0153239Y0078052D01*
X0153115Y0077763D01*
X0152999Y0077470D01*
X0152890Y0077176D01*
X0152788Y0076878D01*
X0152694Y0076579D01*
X0152606Y0076276D01*
X0152526Y0075972D01*
X0152454Y0075667D01*
X0152389Y0075359D01*
X0152332Y0075050D01*
X0152282Y0074739D01*
X0152240Y0074428D01*
X0152205Y0074115D01*
X0152179Y0073802D01*
X0152159Y0073488D01*
X0152148Y0073174D01*
X0152144Y0072860D01*
X0152148Y0072546D01*
X0152159Y0072232D01*
X0152179Y0071918D01*
X0152205Y0071605D01*
X0152240Y0071292D01*
X0152282Y0070981D01*
X0152332Y0070670D01*
X0152389Y0070361D01*
X0152454Y0070053D01*
X0152526Y0069748D01*
X0152606Y0069444D01*
X0152694Y0069141D01*
X0152788Y0068842D01*
X0152890Y0068544D01*
X0152999Y0068250D01*
X0153115Y0067957D01*
X0153239Y0067668D01*
X0153369Y0067382D01*
X0153507Y0067100D01*
X0153651Y0066820D01*
X0153802Y0066545D01*
X0153960Y0066273D01*
X0154124Y0066005D01*
X0154295Y0065741D01*
X0154472Y0065481D01*
X0154656Y0065226D01*
X0154846Y0064975D01*
X0155041Y0064730D01*
X0155243Y0064488D01*
X0155451Y0064252D01*
X0155664Y0064021D01*
X0155883Y0063796D01*
X0156107Y0063576D01*
X0156337Y0063361D01*
X0156572Y0063152D01*
X0156812Y0062949D01*
X0157057Y0062752D01*
X0157306Y0062560D01*
X0157560Y0062375D01*
X0157819Y0062197D01*
X0158082Y0062024D01*
X0158349Y0061858D01*
X0158620Y0061699D01*
X0158895Y0061546D01*
X0159173Y0061400D01*
X0159455Y0061261D01*
X0159740Y0061129D01*
X0160029Y0061004D01*
X0160320Y0060886D01*
X0160614Y0060775D01*
X0160911Y0060672D01*
X0161210Y0060575D01*
X0161512Y0060486D01*
X0161815Y0060405D01*
X0162121Y0060331D01*
X0162428Y0060264D01*
X0162737Y0060205D01*
X0163047Y0060153D01*
X0163358Y0060109D01*
X0163670Y0060073D01*
X0163983Y0060044D01*
X0164297Y0060023D01*
X0164611Y0060010D01*
X0164925Y0060004D01*
X0165240Y0060006D01*
X0165554Y0060016D01*
X0165868Y0060033D01*
X0166181Y0060058D01*
X0166494Y0060091D01*
X0166806Y0060131D01*
X0167116Y0060179D01*
X0167426Y0060235D01*
X0167734Y0060298D01*
X0168040Y0060369D01*
X0168344Y0060447D01*
X0168647Y0060532D01*
X0168947Y0060625D01*
X0169245Y0060725D01*
X0169541Y0060833D01*
X0169833Y0060947D01*
X0170123Y0061069D01*
X0170410Y0061198D01*
X0170694Y0061334D01*
X0170974Y0061476D01*
X0171250Y0061626D01*
X0171523Y0061782D01*
X0171792Y0061945D01*
X0172057Y0062114D01*
X0172317Y0062290D01*
X0172574Y0062472D01*
X0172825Y0062660D01*
X0173073Y0062854D01*
X0173315Y0063055D01*
X0173552Y0063261D01*
X0173784Y0063473D01*
X0174011Y0063691D01*
X0174233Y0063914D01*
X0174449Y0064142D01*
X0174659Y0064376D01*
X0174863Y0064614D01*
X0175062Y0064858D01*
X0175255Y0065106D01*
X0175180Y0065163D01*
X0174988Y0064916D01*
X0174791Y0064674D01*
X0174588Y0064437D01*
X0174379Y0064206D01*
X0174165Y0063979D01*
X0173945Y0063757D01*
X0173720Y0063541D01*
X0173489Y0063331D01*
X0173254Y0063126D01*
X0173013Y0062927D01*
X0172768Y0062734D01*
X0172518Y0062548D01*
X0172264Y0062367D01*
X0172005Y0062192D01*
X0171742Y0062024D01*
X0171475Y0061863D01*
X0171204Y0061708D01*
X0170930Y0061559D01*
X0170652Y0061418D01*
X0170370Y0061283D01*
X0170086Y0061155D01*
X0169798Y0061034D01*
X0169507Y0060920D01*
X0169214Y0060814D01*
X0168918Y0060714D01*
X0168620Y0060622D01*
X0168320Y0060537D01*
X0168017Y0060460D01*
X0167713Y0060390D01*
X0167408Y0060327D01*
X0167101Y0060272D01*
X0166792Y0060224D01*
X0166483Y0060184D01*
X0166172Y0060152D01*
X0165861Y0060127D01*
X0165550Y0060110D01*
X0165238Y0060100D01*
X0164926Y0060098D01*
X0164614Y0060104D01*
X0164302Y0060117D01*
X0163991Y0060138D01*
X0163680Y0060166D01*
X0163370Y0060203D01*
X0163061Y0060246D01*
X0162753Y0060297D01*
X0162446Y0060356D01*
X0162142Y0060422D01*
X0161838Y0060496D01*
X0161537Y0060577D01*
X0161238Y0060665D01*
X0160941Y0060761D01*
X0160646Y0060864D01*
X0160354Y0060974D01*
X0160065Y0061091D01*
X0159778Y0061215D01*
X0159495Y0061346D01*
X0159215Y0061484D01*
X0158939Y0061629D01*
X0158666Y0061781D01*
X0158397Y0061939D01*
X0158132Y0062104D01*
X0157871Y0062275D01*
X0157615Y0062452D01*
X0157362Y0062636D01*
X0157115Y0062826D01*
X0156872Y0063021D01*
X0156633Y0063223D01*
X0156400Y0063431D01*
X0156172Y0063644D01*
X0155950Y0063862D01*
X0155732Y0064086D01*
X0155521Y0064315D01*
X0155315Y0064550D01*
X0155114Y0064789D01*
X0154920Y0065033D01*
X0154732Y0065282D01*
X0154549Y0065535D01*
X0154373Y0065793D01*
X0154204Y0066055D01*
X0154041Y0066321D01*
X0153884Y0066591D01*
X0153734Y0066865D01*
X0153591Y0067142D01*
X0153454Y0067422D01*
X0153325Y0067706D01*
X0153202Y0067993D01*
X0153087Y0068283D01*
X0152979Y0068576D01*
X0152877Y0068871D01*
X0152783Y0069169D01*
X0152697Y0069469D01*
X0152618Y0069770D01*
X0152546Y0070074D01*
X0152481Y0070379D01*
X0152424Y0070686D01*
X0152375Y0070994D01*
X0152333Y0071304D01*
X0152299Y0071614D01*
X0152272Y0071925D01*
X0152253Y0072236D01*
X0152242Y0072548D01*
X0152238Y0072860D01*
X0152242Y0073172D01*
X0152253Y0073484D01*
X0152272Y0073795D01*
X0152299Y0074106D01*
X0152333Y0074416D01*
X0152375Y0074726D01*
X0152424Y0075034D01*
X0152481Y0075341D01*
X0152546Y0075646D01*
X0152618Y0075950D01*
X0152697Y0076251D01*
X0152783Y0076551D01*
X0152877Y0076849D01*
X0152979Y0077144D01*
X0153087Y0077437D01*
X0153202Y0077727D01*
X0153325Y0078014D01*
X0153454Y0078298D01*
X0153591Y0078578D01*
X0153734Y0078855D01*
X0153884Y0079129D01*
X0154041Y0079399D01*
X0154204Y0079665D01*
X0154373Y0079927D01*
X0154549Y0080185D01*
X0154732Y0080438D01*
X0154920Y0080687D01*
X0155114Y0080931D01*
X0155315Y0081170D01*
X0155521Y0081405D01*
X0155732Y0081634D01*
X0155950Y0081858D01*
X0156172Y0082076D01*
X0156400Y0082289D01*
X0156633Y0082497D01*
X0156872Y0082699D01*
X0157115Y0082894D01*
X0157362Y0083084D01*
X0157615Y0083268D01*
X0157871Y0083445D01*
X0158132Y0083616D01*
X0158397Y0083781D01*
X0158666Y0083939D01*
X0158939Y0084091D01*
X0159215Y0084236D01*
X0159495Y0084374D01*
X0159778Y0084505D01*
X0160065Y0084629D01*
X0160354Y0084746D01*
X0160646Y0084856D01*
X0160941Y0084959D01*
X0161238Y0085055D01*
X0161537Y0085143D01*
X0161838Y0085224D01*
X0162142Y0085298D01*
X0162446Y0085364D01*
X0162753Y0085423D01*
X0163061Y0085474D01*
X0163370Y0085517D01*
X0163680Y0085554D01*
X0163991Y0085582D01*
X0164302Y0085603D01*
X0164614Y0085616D01*
X0164926Y0085622D01*
X0165238Y0085620D01*
X0165550Y0085610D01*
X0165861Y0085593D01*
X0166172Y0085568D01*
X0166483Y0085536D01*
X0166792Y0085496D01*
X0167101Y0085448D01*
X0167408Y0085393D01*
X0167713Y0085330D01*
X0168017Y0085260D01*
X0168320Y0085183D01*
X0168620Y0085098D01*
X0168918Y0085006D01*
X0169214Y0084906D01*
X0169507Y0084800D01*
X0169798Y0084686D01*
X0170086Y0084565D01*
X0170370Y0084437D01*
X0170652Y0084302D01*
X0170930Y0084161D01*
X0171204Y0084012D01*
X0171475Y0083857D01*
X0171742Y0083696D01*
X0172005Y0083528D01*
X0172264Y0083353D01*
X0172518Y0083172D01*
X0172768Y0082986D01*
X0173013Y0082793D01*
X0173254Y0082594D01*
X0173489Y0082389D01*
X0173720Y0082179D01*
X0173945Y0081963D01*
X0174165Y0081741D01*
X0174379Y0081514D01*
X0174588Y0081283D01*
X0174791Y0081046D01*
X0174988Y0080804D01*
X0175180Y0080557D01*
X0175104Y0080501D01*
X0174914Y0080746D01*
X0174719Y0080986D01*
X0174517Y0081221D01*
X0174310Y0081451D01*
X0174097Y0081676D01*
X0173879Y0081896D01*
X0173655Y0082110D01*
X0173426Y0082319D01*
X0173193Y0082522D01*
X0172954Y0082720D01*
X0172711Y0082911D01*
X0172462Y0083097D01*
X0172210Y0083276D01*
X0171953Y0083449D01*
X0171692Y0083616D01*
X0171427Y0083777D01*
X0171158Y0083930D01*
X0170886Y0084078D01*
X0170610Y0084218D01*
X0170330Y0084352D01*
X0170048Y0084479D01*
X0169762Y0084599D01*
X0169474Y0084712D01*
X0169183Y0084818D01*
X0168889Y0084916D01*
X0168593Y0085008D01*
X0168295Y0085092D01*
X0167995Y0085169D01*
X0167693Y0085238D01*
X0167390Y0085301D01*
X0167085Y0085355D01*
X0166779Y0085403D01*
X0166471Y0085442D01*
X0166163Y0085474D01*
X0165855Y0085499D01*
X0165545Y0085516D01*
X0165236Y0085526D01*
X0164926Y0085528D01*
X0164616Y0085522D01*
X0164307Y0085509D01*
X0163998Y0085488D01*
X0163689Y0085460D01*
X0163382Y0085424D01*
X0163075Y0085381D01*
X0162769Y0085330D01*
X0162465Y0085272D01*
X0162162Y0085206D01*
X0161861Y0085133D01*
X0161562Y0085053D01*
X0161265Y0084965D01*
X0160970Y0084870D01*
X0160678Y0084768D01*
X0160388Y0084659D01*
X0160101Y0084542D01*
X0159817Y0084419D01*
X0159536Y0084289D01*
X0159258Y0084152D01*
X0158984Y0084008D01*
X0158713Y0083858D01*
X0158446Y0083701D01*
X0158183Y0083537D01*
X0157924Y0083367D01*
X0157669Y0083191D01*
X0157418Y0083009D01*
X0157173Y0082820D01*
X0156931Y0082626D01*
X0156695Y0082426D01*
X0156464Y0082220D01*
X0156237Y0082008D01*
X0156016Y0081791D01*
X0155801Y0081569D01*
X0155590Y0081342D01*
X0155386Y0081109D01*
X0155187Y0080871D01*
X0154994Y0080629D01*
X0154807Y0080382D01*
X0154626Y0080131D01*
X0154452Y0079875D01*
X0154283Y0079615D01*
X0154121Y0079351D01*
X0153966Y0079083D01*
X0153817Y0078811D01*
X0153675Y0078536D01*
X0153539Y0078257D01*
X0153411Y0077976D01*
X0153289Y0077691D01*
X0153175Y0077403D01*
X0153067Y0077112D01*
X0152967Y0076819D01*
X0152873Y0076524D01*
X0152787Y0076226D01*
X0152709Y0075927D01*
X0152638Y0075625D01*
X0152574Y0075322D01*
X0152517Y0075018D01*
X0152468Y0074712D01*
X0152427Y0074405D01*
X0152393Y0074097D01*
X0152366Y0073788D01*
X0152347Y0073479D01*
X0152336Y0073170D01*
X0152332Y0072860D01*
X0152336Y0072550D01*
X0152347Y0072241D01*
X0152366Y0071932D01*
X0152393Y0071623D01*
X0152427Y0071315D01*
X0152468Y0071008D01*
X0152517Y0070702D01*
X0152574Y0070398D01*
X0152638Y0070095D01*
X0152709Y0069793D01*
X0152787Y0069494D01*
X0152873Y0069196D01*
X0152967Y0068901D01*
X0153067Y0068608D01*
X0153175Y0068317D01*
X0153289Y0068029D01*
X0153411Y0067744D01*
X0153539Y0067463D01*
X0153675Y0067184D01*
X0153817Y0066909D01*
X0153966Y0066637D01*
X0154121Y0066369D01*
X0154283Y0066105D01*
X0154452Y0065845D01*
X0154626Y0065589D01*
X0154807Y0065338D01*
X0154994Y0065091D01*
X0155187Y0064849D01*
X0155386Y0064611D01*
X0155590Y0064378D01*
X0155801Y0064151D01*
X0156016Y0063929D01*
X0156237Y0063712D01*
X0156464Y0063500D01*
X0156695Y0063294D01*
X0156931Y0063094D01*
X0157173Y0062900D01*
X0157418Y0062711D01*
X0157669Y0062529D01*
X0157924Y0062353D01*
X0158183Y0062183D01*
X0158446Y0062019D01*
X0158713Y0061862D01*
X0158984Y0061712D01*
X0159258Y0061568D01*
X0159536Y0061431D01*
X0159817Y0061301D01*
X0160101Y0061178D01*
X0160388Y0061061D01*
X0160678Y0060952D01*
X0160970Y0060850D01*
X0161265Y0060755D01*
X0161562Y0060667D01*
X0161861Y0060587D01*
X0162162Y0060514D01*
X0162465Y0060448D01*
X0162769Y0060390D01*
X0163075Y0060339D01*
X0163382Y0060296D01*
X0163689Y0060260D01*
X0163998Y0060232D01*
X0164307Y0060211D01*
X0164616Y0060198D01*
X0164926Y0060192D01*
X0165236Y0060194D01*
X0165545Y0060204D01*
X0165855Y0060221D01*
X0166163Y0060246D01*
X0166471Y0060278D01*
X0166779Y0060317D01*
X0167085Y0060365D01*
X0167390Y0060419D01*
X0167693Y0060482D01*
X0167995Y0060551D01*
X0168295Y0060628D01*
X0168593Y0060712D01*
X0168889Y0060804D01*
X0169183Y0060902D01*
X0169474Y0061008D01*
X0169762Y0061121D01*
X0170048Y0061241D01*
X0170330Y0061368D01*
X0170610Y0061502D01*
X0170886Y0061642D01*
X0171158Y0061790D01*
X0171427Y0061943D01*
X0171692Y0062104D01*
X0171953Y0062271D01*
X0172210Y0062444D01*
X0172462Y0062623D01*
X0172711Y0062809D01*
X0172954Y0063000D01*
X0173193Y0063198D01*
X0173426Y0063401D01*
X0173655Y0063610D01*
X0173879Y0063824D01*
X0174097Y0064044D01*
X0174310Y0064269D01*
X0174517Y0064499D01*
X0174719Y0064734D01*
X0174914Y0064974D01*
X0175104Y0065219D01*
X0175029Y0065276D01*
X0174841Y0065033D01*
X0174646Y0064794D01*
X0174446Y0064561D01*
X0174241Y0064333D01*
X0174029Y0064109D01*
X0173813Y0063891D01*
X0173591Y0063678D01*
X0173364Y0063471D01*
X0173132Y0063269D01*
X0172895Y0063073D01*
X0172653Y0062883D01*
X0172407Y0062699D01*
X0172156Y0062521D01*
X0171901Y0062349D01*
X0171642Y0062184D01*
X0171379Y0062024D01*
X0171112Y0061872D01*
X0170842Y0061725D01*
X0170568Y0061586D01*
X0170291Y0061453D01*
X0170010Y0061327D01*
X0169727Y0061208D01*
X0169440Y0061096D01*
X0169151Y0060991D01*
X0168860Y0060893D01*
X0168566Y0060802D01*
X0168270Y0060719D01*
X0167973Y0060642D01*
X0167673Y0060573D01*
X0167372Y0060512D01*
X0167069Y0060457D01*
X0166765Y0060411D01*
X0166460Y0060371D01*
X0166155Y0060339D01*
X0165848Y0060315D01*
X0165541Y0060298D01*
X0165234Y0060288D01*
X0164926Y0060286D01*
X0164619Y0060292D01*
X0164312Y0060305D01*
X0164005Y0060325D01*
X0163699Y0060354D01*
X0163393Y0060389D01*
X0163089Y0060432D01*
X0162786Y0060483D01*
X0162484Y0060540D01*
X0162183Y0060606D01*
X0161884Y0060678D01*
X0161588Y0060758D01*
X0161293Y0060845D01*
X0161000Y0060939D01*
X0160710Y0061041D01*
X0160422Y0061149D01*
X0160137Y0061264D01*
X0159855Y0061387D01*
X0159576Y0061516D01*
X0159300Y0061652D01*
X0159028Y0061795D01*
X0158759Y0061944D01*
X0158494Y0062100D01*
X0158233Y0062262D01*
X0157976Y0062431D01*
X0157723Y0062606D01*
X0157475Y0062787D01*
X0157231Y0062974D01*
X0156991Y0063167D01*
X0156757Y0063365D01*
X0156527Y0063570D01*
X0156302Y0063780D01*
X0156083Y0063995D01*
X0155869Y0064216D01*
X0155660Y0064441D01*
X0155457Y0064672D01*
X0155260Y0064908D01*
X0155068Y0065149D01*
X0154883Y0065394D01*
X0154703Y0065643D01*
X0154530Y0065897D01*
X0154363Y0066155D01*
X0154202Y0066417D01*
X0154048Y0066683D01*
X0153900Y0066953D01*
X0153759Y0067226D01*
X0153624Y0067503D01*
X0153497Y0067782D01*
X0153376Y0068065D01*
X0153262Y0068351D01*
X0153156Y0068639D01*
X0153056Y0068930D01*
X0152963Y0069223D01*
X0152878Y0069519D01*
X0152800Y0069816D01*
X0152729Y0070115D01*
X0152666Y0070416D01*
X0152610Y0070718D01*
X0152561Y0071022D01*
X0152520Y0071327D01*
X0152486Y0071632D01*
X0152460Y0071938D01*
X0152441Y0072245D01*
X0152430Y0072553D01*
X0152426Y0072860D01*
X0152430Y0073167D01*
X0152441Y0073475D01*
X0152460Y0073782D01*
X0152486Y0074088D01*
X0152520Y0074393D01*
X0152561Y0074698D01*
X0152610Y0075002D01*
X0152666Y0075304D01*
X0152729Y0075605D01*
X0152800Y0075904D01*
X0152878Y0076201D01*
X0152963Y0076497D01*
X0153056Y0076790D01*
X0153156Y0077081D01*
X0153262Y0077369D01*
X0153376Y0077655D01*
X0153497Y0077938D01*
X0153624Y0078217D01*
X0153759Y0078494D01*
X0153900Y0078767D01*
X0154048Y0079037D01*
X0154202Y0079303D01*
X0154363Y0079565D01*
X0154530Y0079823D01*
X0154703Y0080077D01*
X0154883Y0080326D01*
X0155068Y0080571D01*
X0155260Y0080812D01*
X0155457Y0081048D01*
X0155660Y0081279D01*
X0155869Y0081504D01*
X0156083Y0081725D01*
X0156302Y0081940D01*
X0156527Y0082150D01*
X0156757Y0082355D01*
X0156991Y0082553D01*
X0157231Y0082746D01*
X0157475Y0082933D01*
X0157723Y0083114D01*
X0157976Y0083289D01*
X0158233Y0083458D01*
X0158494Y0083620D01*
X0158759Y0083776D01*
X0159028Y0083925D01*
X0159300Y0084068D01*
X0159576Y0084204D01*
X0159855Y0084333D01*
X0160137Y0084456D01*
X0160422Y0084571D01*
X0160710Y0084679D01*
X0161000Y0084781D01*
X0161293Y0084875D01*
X0161588Y0084962D01*
X0161884Y0085042D01*
X0162183Y0085114D01*
X0162484Y0085180D01*
X0162786Y0085237D01*
X0163089Y0085288D01*
X0163393Y0085331D01*
X0163699Y0085366D01*
X0164005Y0085395D01*
X0164312Y0085415D01*
X0164619Y0085428D01*
X0164926Y0085434D01*
X0165234Y0085432D01*
X0165541Y0085422D01*
X0165848Y0085405D01*
X0166155Y0085381D01*
X0166460Y0085349D01*
X0166765Y0085309D01*
X0167069Y0085263D01*
X0167372Y0085208D01*
X0167673Y0085147D01*
X0167973Y0085078D01*
X0168270Y0085001D01*
X0168566Y0084918D01*
X0168860Y0084827D01*
X0169151Y0084729D01*
X0169440Y0084624D01*
X0169727Y0084512D01*
X0170010Y0084393D01*
X0170291Y0084267D01*
X0170568Y0084134D01*
X0170842Y0083995D01*
X0171112Y0083848D01*
X0171379Y0083696D01*
X0171642Y0083536D01*
X0171901Y0083371D01*
X0172156Y0083199D01*
X0172407Y0083021D01*
X0172653Y0082837D01*
X0172895Y0082647D01*
X0173132Y0082451D01*
X0173364Y0082249D01*
X0173591Y0082042D01*
X0173813Y0081829D01*
X0174029Y0081611D01*
X0174241Y0081387D01*
X0174446Y0081159D01*
X0174646Y0080926D01*
X0174841Y0080687D01*
X0175029Y0080444D01*
X0174954Y0080388D01*
X0174767Y0080629D01*
X0174574Y0080866D01*
X0174375Y0081097D01*
X0174171Y0081324D01*
X0173962Y0081546D01*
X0173747Y0081762D01*
X0173526Y0081973D01*
X0173301Y0082179D01*
X0173071Y0082379D01*
X0172835Y0082574D01*
X0172596Y0082762D01*
X0172351Y0082945D01*
X0172102Y0083122D01*
X0171849Y0083292D01*
X0171592Y0083457D01*
X0171331Y0083615D01*
X0171066Y0083766D01*
X0170798Y0083911D01*
X0170526Y0084050D01*
X0170251Y0084182D01*
X0169972Y0084307D01*
X0169691Y0084425D01*
X0169407Y0084536D01*
X0169120Y0084640D01*
X0168831Y0084738D01*
X0168539Y0084828D01*
X0168246Y0084911D01*
X0167950Y0084986D01*
X0167653Y0085055D01*
X0167354Y0085116D01*
X0167053Y0085170D01*
X0166752Y0085216D01*
X0166449Y0085256D01*
X0166146Y0085287D01*
X0165841Y0085312D01*
X0165537Y0085328D01*
X0165232Y0085338D01*
X0164927Y0085340D01*
X0164622Y0085334D01*
X0164317Y0085321D01*
X0164012Y0085301D01*
X0163708Y0085273D01*
X0163405Y0085238D01*
X0163103Y0085195D01*
X0162802Y0085145D01*
X0162502Y0085088D01*
X0162204Y0085023D01*
X0161908Y0084951D01*
X0161613Y0084872D01*
X0161320Y0084785D01*
X0161030Y0084692D01*
X0160742Y0084591D01*
X0160456Y0084483D01*
X0160173Y0084369D01*
X0159893Y0084247D01*
X0159616Y0084119D01*
X0159343Y0083984D01*
X0159073Y0083843D01*
X0158806Y0083694D01*
X0158543Y0083540D01*
X0158284Y0083379D01*
X0158028Y0083211D01*
X0157777Y0083038D01*
X0157531Y0082858D01*
X0157289Y0082672D01*
X0157051Y0082481D01*
X0156818Y0082284D01*
X0156590Y0082081D01*
X0156367Y0081872D01*
X0156149Y0081659D01*
X0155937Y0081440D01*
X0155730Y0081216D01*
X0155528Y0080986D01*
X0155332Y0080752D01*
X0155142Y0080514D01*
X0154958Y0080270D01*
X0154780Y0080023D01*
X0154608Y0079771D01*
X0154442Y0079514D01*
X0154283Y0079254D01*
X0154129Y0078990D01*
X0153983Y0078723D01*
X0153843Y0078452D01*
X0153709Y0078177D01*
X0153583Y0077900D01*
X0153463Y0077619D01*
X0153350Y0077335D01*
X0153244Y0077049D01*
X0153145Y0076761D01*
X0153053Y0076470D01*
X0152969Y0076176D01*
X0152891Y0075881D01*
X0152821Y0075584D01*
X0152758Y0075286D01*
X0152702Y0074986D01*
X0152654Y0074684D01*
X0152613Y0074382D01*
X0152580Y0074079D01*
X0152554Y0073775D01*
X0152535Y0073470D01*
X0152524Y0073165D01*
X0152520Y0072860D01*
X0152524Y0072555D01*
X0152535Y0072250D01*
X0152554Y0071945D01*
X0152580Y0071641D01*
X0152613Y0071338D01*
X0152654Y0071036D01*
X0152702Y0070734D01*
X0152758Y0070434D01*
X0152821Y0070136D01*
X0152891Y0069839D01*
X0152969Y0069544D01*
X0153053Y0069250D01*
X0153145Y0068959D01*
X0153244Y0068671D01*
X0153350Y0068385D01*
X0153463Y0068101D01*
X0153583Y0067820D01*
X0153709Y0067543D01*
X0153843Y0067268D01*
X0153983Y0066997D01*
X0154129Y0066730D01*
X0154283Y0066466D01*
X0154442Y0066206D01*
X0154608Y0065949D01*
X0154780Y0065697D01*
X0154958Y0065450D01*
X0155142Y0065206D01*
X0155332Y0064968D01*
X0155528Y0064734D01*
X0155730Y0064504D01*
X0155937Y0064280D01*
X0156149Y0064061D01*
X0156367Y0063848D01*
X0156590Y0063639D01*
X0156818Y0063436D01*
X0157051Y0063239D01*
X0157289Y0063048D01*
X0157531Y0062862D01*
X0157777Y0062682D01*
X0158028Y0062509D01*
X0158284Y0062341D01*
X0158543Y0062180D01*
X0158806Y0062026D01*
X0159073Y0061877D01*
X0159343Y0061736D01*
X0159616Y0061601D01*
X0159893Y0061473D01*
X0160173Y0061351D01*
X0160456Y0061237D01*
X0160742Y0061129D01*
X0161030Y0061028D01*
X0161320Y0060935D01*
X0161613Y0060848D01*
X0161908Y0060769D01*
X0162204Y0060697D01*
X0162502Y0060632D01*
X0162802Y0060575D01*
X0163103Y0060525D01*
X0163405Y0060482D01*
X0163708Y0060447D01*
X0164012Y0060419D01*
X0164317Y0060399D01*
X0164622Y0060386D01*
X0164927Y0060380D01*
X0165232Y0060382D01*
X0165537Y0060392D01*
X0165841Y0060408D01*
X0166146Y0060433D01*
X0166449Y0060464D01*
X0166752Y0060504D01*
X0167053Y0060550D01*
X0167354Y0060604D01*
X0167653Y0060665D01*
X0167950Y0060734D01*
X0168246Y0060809D01*
X0168539Y0060892D01*
X0168831Y0060982D01*
X0169120Y0061080D01*
X0169407Y0061184D01*
X0169691Y0061295D01*
X0169972Y0061413D01*
X0170251Y0061538D01*
X0170526Y0061670D01*
X0170798Y0061809D01*
X0171066Y0061954D01*
X0171331Y0062105D01*
X0171592Y0062263D01*
X0171849Y0062428D01*
X0172102Y0062598D01*
X0172351Y0062775D01*
X0172596Y0062958D01*
X0172835Y0063146D01*
X0173071Y0063341D01*
X0173301Y0063541D01*
X0173526Y0063747D01*
X0173747Y0063958D01*
X0173962Y0064174D01*
X0174171Y0064396D01*
X0174375Y0064623D01*
X0174574Y0064854D01*
X0174767Y0065091D01*
X0174954Y0065332D01*
X0174879Y0065388D01*
X0174693Y0065149D01*
X0174502Y0064914D01*
X0174305Y0064685D01*
X0174102Y0064460D01*
X0173894Y0064239D01*
X0173680Y0064025D01*
X0173462Y0063815D01*
X0173238Y0063611D01*
X0173010Y0063412D01*
X0172776Y0063219D01*
X0172538Y0063032D01*
X0172296Y0062851D01*
X0172049Y0062675D01*
X0171798Y0062506D01*
X0171542Y0062343D01*
X0171283Y0062186D01*
X0171020Y0062036D01*
X0170754Y0061892D01*
X0170484Y0061754D01*
X0170211Y0061623D01*
X0169935Y0061499D01*
X0169655Y0061382D01*
X0169373Y0061272D01*
X0169089Y0061168D01*
X0168802Y0061072D01*
X0168512Y0060982D01*
X0168221Y0060900D01*
X0167928Y0060825D01*
X0167632Y0060757D01*
X0167336Y0060696D01*
X0167038Y0060643D01*
X0166738Y0060597D01*
X0166438Y0060558D01*
X0166137Y0060526D01*
X0165835Y0060502D01*
X0165532Y0060485D01*
X0165230Y0060476D01*
X0164927Y0060474D01*
X0164624Y0060480D01*
X0164322Y0060493D01*
X0164019Y0060513D01*
X0163718Y0060541D01*
X0163417Y0060576D01*
X0163117Y0060618D01*
X0162818Y0060668D01*
X0162521Y0060725D01*
X0162225Y0060789D01*
X0161931Y0060860D01*
X0161638Y0060939D01*
X0161348Y0061025D01*
X0161059Y0061118D01*
X0160774Y0061217D01*
X0160490Y0061324D01*
X0160210Y0061438D01*
X0159932Y0061558D01*
X0159657Y0061686D01*
X0159385Y0061820D01*
X0159117Y0061960D01*
X0158852Y0062107D01*
X0158591Y0062261D01*
X0158334Y0062421D01*
X0158081Y0062587D01*
X0157832Y0062759D01*
X0157587Y0062937D01*
X0157346Y0063122D01*
X0157111Y0063312D01*
X0156880Y0063507D01*
X0156653Y0063709D01*
X0156432Y0063915D01*
X0156216Y0064128D01*
X0156005Y0064345D01*
X0155800Y0064567D01*
X0155600Y0064795D01*
X0155405Y0065027D01*
X0155217Y0065264D01*
X0155034Y0065506D01*
X0154857Y0065751D01*
X0154686Y0066002D01*
X0154522Y0066256D01*
X0154363Y0066514D01*
X0154211Y0066776D01*
X0154066Y0067041D01*
X0153927Y0067310D01*
X0153794Y0067583D01*
X0153669Y0067858D01*
X0153550Y0068137D01*
X0153438Y0068418D01*
X0153333Y0068702D01*
X0153234Y0068989D01*
X0153143Y0069278D01*
X0153059Y0069569D01*
X0152982Y0069862D01*
X0152913Y0070156D01*
X0152850Y0070453D01*
X0152795Y0070750D01*
X0152747Y0071049D01*
X0152706Y0071349D01*
X0152673Y0071651D01*
X0152647Y0071952D01*
X0152629Y0072255D01*
X0152618Y0072557D01*
X0152614Y0072860D01*
X0152618Y0073163D01*
X0152629Y0073465D01*
X0152647Y0073768D01*
X0152673Y0074069D01*
X0152706Y0074371D01*
X0152747Y0074671D01*
X0152795Y0074970D01*
X0152850Y0075267D01*
X0152913Y0075564D01*
X0152982Y0075858D01*
X0153059Y0076151D01*
X0153143Y0076442D01*
X0153234Y0076731D01*
X0153333Y0077018D01*
X0153438Y0077302D01*
X0153550Y0077583D01*
X0153669Y0077862D01*
X0153794Y0078137D01*
X0153927Y0078410D01*
X0154066Y0078679D01*
X0154211Y0078944D01*
X0154363Y0079206D01*
X0154522Y0079464D01*
X0154686Y0079718D01*
X0154857Y0079969D01*
X0155034Y0080214D01*
X0155217Y0080456D01*
X0155405Y0080693D01*
X0155600Y0080925D01*
X0155800Y0081153D01*
X0156005Y0081375D01*
X0156216Y0081592D01*
X0156432Y0081805D01*
X0156653Y0082011D01*
X0156880Y0082213D01*
X0157111Y0082408D01*
X0157346Y0082598D01*
X0157587Y0082783D01*
X0157832Y0082961D01*
X0158081Y0083133D01*
X0158334Y0083299D01*
X0158591Y0083459D01*
X0158852Y0083613D01*
X0159117Y0083760D01*
X0159385Y0083900D01*
X0159657Y0084034D01*
X0159932Y0084162D01*
X0160210Y0084282D01*
X0160490Y0084396D01*
X0160774Y0084503D01*
X0161059Y0084602D01*
X0161348Y0084695D01*
X0161638Y0084781D01*
X0161931Y0084860D01*
X0162225Y0084931D01*
X0162521Y0084995D01*
X0162818Y0085052D01*
X0163117Y0085102D01*
X0163417Y0085144D01*
X0163718Y0085179D01*
X0164019Y0085207D01*
X0164322Y0085227D01*
X0164624Y0085240D01*
X0164927Y0085246D01*
X0165230Y0085244D01*
X0165532Y0085235D01*
X0165835Y0085218D01*
X0166137Y0085194D01*
X0166438Y0085162D01*
X0166738Y0085123D01*
X0167038Y0085077D01*
X0167336Y0085024D01*
X0167632Y0084963D01*
X0167928Y0084895D01*
X0168221Y0084820D01*
X0168512Y0084738D01*
X0168802Y0084648D01*
X0169089Y0084552D01*
X0169373Y0084448D01*
X0169655Y0084338D01*
X0169935Y0084221D01*
X0170211Y0084097D01*
X0170484Y0083966D01*
X0170754Y0083828D01*
X0171020Y0083684D01*
X0171283Y0083534D01*
X0171542Y0083377D01*
X0171798Y0083214D01*
X0172049Y0083045D01*
X0172296Y0082869D01*
X0172538Y0082688D01*
X0172776Y0082501D01*
X0173010Y0082308D01*
X0173238Y0082109D01*
X0173462Y0081905D01*
X0173680Y0081695D01*
X0173894Y0081481D01*
X0174102Y0081260D01*
X0174305Y0081035D01*
X0174502Y0080806D01*
X0174693Y0080571D01*
X0174879Y0080332D01*
X0174804Y0080275D01*
X0174619Y0080513D01*
X0174429Y0080745D01*
X0174234Y0080974D01*
X0174033Y0081197D01*
X0173826Y0081415D01*
X0173614Y0081629D01*
X0173397Y0081837D01*
X0173175Y0082039D01*
X0172948Y0082236D01*
X0172717Y0082428D01*
X0172481Y0082614D01*
X0172240Y0082794D01*
X0171995Y0082968D01*
X0171746Y0083136D01*
X0171492Y0083298D01*
X0171235Y0083453D01*
X0170974Y0083602D01*
X0170710Y0083745D01*
X0170442Y0083882D01*
X0170171Y0084011D01*
X0169897Y0084134D01*
X0169620Y0084251D01*
X0169340Y0084360D01*
X0169057Y0084463D01*
X0168773Y0084559D01*
X0168485Y0084647D01*
X0168196Y0084729D01*
X0167905Y0084804D01*
X0167612Y0084871D01*
X0167318Y0084932D01*
X0167022Y0084985D01*
X0166725Y0085030D01*
X0166427Y0085069D01*
X0166128Y0085100D01*
X0165828Y0085124D01*
X0165528Y0085141D01*
X0165228Y0085150D01*
X0164927Y0085152D01*
X0164627Y0085146D01*
X0164326Y0085134D01*
X0164027Y0085113D01*
X0163727Y0085086D01*
X0163429Y0085051D01*
X0163131Y0085009D01*
X0162835Y0084960D01*
X0162540Y0084903D01*
X0162246Y0084839D01*
X0161954Y0084769D01*
X0161664Y0084691D01*
X0161375Y0084605D01*
X0161089Y0084513D01*
X0160805Y0084414D01*
X0160524Y0084308D01*
X0160246Y0084195D01*
X0159970Y0084076D01*
X0159697Y0083949D01*
X0159428Y0083816D01*
X0159162Y0083677D01*
X0158899Y0083531D01*
X0158640Y0083379D01*
X0158384Y0083220D01*
X0158133Y0083055D01*
X0157886Y0082884D01*
X0157643Y0082707D01*
X0157404Y0082524D01*
X0157170Y0082336D01*
X0156941Y0082142D01*
X0156717Y0081942D01*
X0156497Y0081737D01*
X0156283Y0081526D01*
X0156073Y0081310D01*
X0155869Y0081090D01*
X0155671Y0080864D01*
X0155478Y0080633D01*
X0155291Y0080398D01*
X0155109Y0080159D01*
X0154934Y0079915D01*
X0154764Y0079666D01*
X0154601Y0079414D01*
X0154444Y0079158D01*
X0154293Y0078898D01*
X0154149Y0078634D01*
X0154011Y0078367D01*
X0153879Y0078097D01*
X0153755Y0077824D01*
X0153637Y0077547D01*
X0153526Y0077268D01*
X0153421Y0076986D01*
X0153324Y0076702D01*
X0153233Y0076415D01*
X0153150Y0076126D01*
X0153074Y0075836D01*
X0153004Y0075543D01*
X0152942Y0075249D01*
X0152888Y0074954D01*
X0152840Y0074657D01*
X0152800Y0074359D01*
X0152767Y0074060D01*
X0152741Y0073761D01*
X0152723Y0073461D01*
X0152712Y0073161D01*
X0152708Y0072860D01*
X0152712Y0072559D01*
X0152723Y0072259D01*
X0152741Y0071959D01*
X0152767Y0071660D01*
X0152800Y0071361D01*
X0152840Y0071063D01*
X0152888Y0070766D01*
X0152942Y0070471D01*
X0153004Y0070177D01*
X0153074Y0069884D01*
X0153150Y0069594D01*
X0153233Y0069305D01*
X0153324Y0069018D01*
X0153421Y0068734D01*
X0153526Y0068452D01*
X0153637Y0068173D01*
X0153755Y0067896D01*
X0153879Y0067623D01*
X0154011Y0067353D01*
X0154149Y0067086D01*
X0154293Y0066822D01*
X0154444Y0066562D01*
X0154601Y0066306D01*
X0154764Y0066054D01*
X0154934Y0065805D01*
X0155109Y0065561D01*
X0155291Y0065322D01*
X0155478Y0065087D01*
X0155671Y0064856D01*
X0155869Y0064630D01*
X0156073Y0064410D01*
X0156283Y0064194D01*
X0156497Y0063983D01*
X0156717Y0063778D01*
X0156941Y0063578D01*
X0157170Y0063384D01*
X0157404Y0063196D01*
X0157643Y0063013D01*
X0157886Y0062836D01*
X0158133Y0062665D01*
X0158384Y0062500D01*
X0158640Y0062341D01*
X0158899Y0062189D01*
X0159162Y0062043D01*
X0159428Y0061904D01*
X0159697Y0061771D01*
X0159970Y0061644D01*
X0160246Y0061525D01*
X0160524Y0061412D01*
X0160805Y0061306D01*
X0161089Y0061207D01*
X0161375Y0061115D01*
X0161664Y0061029D01*
X0161954Y0060951D01*
X0162246Y0060881D01*
X0162540Y0060817D01*
X0162835Y0060760D01*
X0163131Y0060711D01*
X0163429Y0060669D01*
X0163727Y0060634D01*
X0164027Y0060607D01*
X0164326Y0060586D01*
X0164627Y0060574D01*
X0164927Y0060568D01*
X0165228Y0060570D01*
X0165528Y0060579D01*
X0165828Y0060596D01*
X0166128Y0060620D01*
X0166427Y0060651D01*
X0166725Y0060690D01*
X0167022Y0060735D01*
X0167318Y0060788D01*
X0167612Y0060849D01*
X0167905Y0060916D01*
X0168196Y0060991D01*
X0168485Y0061073D01*
X0168773Y0061161D01*
X0169057Y0061257D01*
X0169340Y0061360D01*
X0169620Y0061469D01*
X0169897Y0061586D01*
X0170171Y0061709D01*
X0170442Y0061838D01*
X0170710Y0061975D01*
X0170974Y0062118D01*
X0171235Y0062267D01*
X0171492Y0062422D01*
X0171746Y0062584D01*
X0171995Y0062752D01*
X0172240Y0062926D01*
X0172481Y0063106D01*
X0172717Y0063292D01*
X0172948Y0063484D01*
X0173175Y0063681D01*
X0173397Y0063883D01*
X0173614Y0064091D01*
X0173826Y0064305D01*
X0174033Y0064523D01*
X0174234Y0064746D01*
X0174429Y0064975D01*
X0174619Y0065207D01*
X0174804Y0065445D01*
X0174728Y0065501D01*
X0174546Y0065266D01*
X0174357Y0065035D01*
X0174163Y0064808D01*
X0173963Y0064586D01*
X0173758Y0064370D01*
X0173548Y0064158D01*
X0173333Y0063952D01*
X0173113Y0063751D01*
X0172887Y0063555D01*
X0172658Y0063365D01*
X0172423Y0063181D01*
X0172184Y0063002D01*
X0171941Y0062829D01*
X0171694Y0062663D01*
X0171442Y0062502D01*
X0171187Y0062348D01*
X0170928Y0062200D01*
X0170666Y0062058D01*
X0170400Y0061923D01*
X0170131Y0061794D01*
X0169859Y0061672D01*
X0169584Y0061556D01*
X0169306Y0061447D01*
X0169026Y0061346D01*
X0168743Y0061251D01*
X0168458Y0061163D01*
X0168171Y0061082D01*
X0167883Y0061007D01*
X0167592Y0060941D01*
X0167300Y0060881D01*
X0167006Y0060828D01*
X0166711Y0060783D01*
X0166416Y0060744D01*
X0166119Y0060713D01*
X0165822Y0060690D01*
X0165524Y0060673D01*
X0165226Y0060664D01*
X0164928Y0060662D01*
X0164629Y0060668D01*
X0164331Y0060680D01*
X0164034Y0060700D01*
X0163737Y0060728D01*
X0163441Y0060762D01*
X0163145Y0060804D01*
X0162851Y0060853D01*
X0162558Y0060909D01*
X0162267Y0060972D01*
X0161977Y0061043D01*
X0161689Y0061120D01*
X0161403Y0061204D01*
X0161119Y0061296D01*
X0160837Y0061394D01*
X0160558Y0061499D01*
X0160282Y0061611D01*
X0160008Y0061730D01*
X0159738Y0061855D01*
X0159470Y0061987D01*
X0159206Y0062126D01*
X0158945Y0062271D01*
X0158688Y0062422D01*
X0158435Y0062579D01*
X0158186Y0062743D01*
X0157940Y0062913D01*
X0157699Y0063088D01*
X0157462Y0063270D01*
X0157230Y0063457D01*
X0157003Y0063649D01*
X0156780Y0063848D01*
X0156562Y0064051D01*
X0156349Y0064260D01*
X0156141Y0064474D01*
X0155939Y0064694D01*
X0155742Y0064917D01*
X0155551Y0065146D01*
X0155365Y0065380D01*
X0155185Y0065617D01*
X0155011Y0065859D01*
X0154843Y0066106D01*
X0154681Y0066356D01*
X0154525Y0066610D01*
X0154375Y0066868D01*
X0154232Y0067130D01*
X0154095Y0067395D01*
X0153964Y0067663D01*
X0153841Y0067934D01*
X0153724Y0068209D01*
X0153613Y0068486D01*
X0153510Y0068766D01*
X0153413Y0069048D01*
X0153323Y0069332D01*
X0153241Y0069619D01*
X0153165Y0069907D01*
X0153096Y0070197D01*
X0153035Y0070489D01*
X0152980Y0070782D01*
X0152933Y0071077D01*
X0152893Y0071372D01*
X0152860Y0071669D01*
X0152835Y0071966D01*
X0152817Y0072264D01*
X0152806Y0072562D01*
X0152802Y0072860D01*
X0152806Y0073158D01*
X0152817Y0073456D01*
X0152835Y0073754D01*
X0152860Y0074051D01*
X0152893Y0074348D01*
X0152933Y0074643D01*
X0152980Y0074938D01*
X0153035Y0075231D01*
X0153096Y0075523D01*
X0153165Y0075813D01*
X0153241Y0076101D01*
X0153323Y0076388D01*
X0153413Y0076672D01*
X0153510Y0076954D01*
X0153613Y0077234D01*
X0153724Y0077511D01*
X0153841Y0077786D01*
X0153964Y0078057D01*
X0154095Y0078325D01*
X0154232Y0078590D01*
X0154375Y0078852D01*
X0154525Y0079110D01*
X0154681Y0079364D01*
X0154843Y0079614D01*
X0155011Y0079861D01*
X0155185Y0080103D01*
X0155365Y0080340D01*
X0155551Y0080574D01*
X0155742Y0080803D01*
X0155939Y0081026D01*
X0156141Y0081246D01*
X0156349Y0081460D01*
X0156562Y0081669D01*
X0156780Y0081872D01*
X0157003Y0082071D01*
X0157230Y0082263D01*
X0157462Y0082450D01*
X0157699Y0082632D01*
X0157940Y0082807D01*
X0158186Y0082977D01*
X0158435Y0083141D01*
X0158688Y0083298D01*
X0158945Y0083449D01*
X0159206Y0083594D01*
X0159470Y0083733D01*
X0159738Y0083865D01*
X0160008Y0083990D01*
X0160282Y0084109D01*
X0160558Y0084221D01*
X0160837Y0084326D01*
X0161119Y0084424D01*
X0161403Y0084516D01*
X0161689Y0084600D01*
X0161977Y0084677D01*
X0162267Y0084748D01*
X0162558Y0084811D01*
X0162851Y0084867D01*
X0163145Y0084916D01*
X0163441Y0084958D01*
X0163737Y0084992D01*
X0164034Y0085020D01*
X0164331Y0085040D01*
X0164629Y0085052D01*
X0164928Y0085058D01*
X0165226Y0085056D01*
X0165524Y0085047D01*
X0165822Y0085030D01*
X0166119Y0085007D01*
X0166416Y0084976D01*
X0166711Y0084937D01*
X0167006Y0084892D01*
X0167300Y0084839D01*
X0167592Y0084779D01*
X0167883Y0084713D01*
X0168171Y0084638D01*
X0168458Y0084557D01*
X0168743Y0084469D01*
X0169026Y0084374D01*
X0169306Y0084273D01*
X0169584Y0084164D01*
X0169859Y0084048D01*
X0170131Y0083926D01*
X0170400Y0083797D01*
X0170666Y0083662D01*
X0170928Y0083520D01*
X0171187Y0083372D01*
X0171442Y0083218D01*
X0171694Y0083057D01*
X0171941Y0082891D01*
X0172184Y0082718D01*
X0172423Y0082539D01*
X0172658Y0082355D01*
X0172887Y0082165D01*
X0173113Y0081969D01*
X0173333Y0081768D01*
X0173548Y0081562D01*
X0173758Y0081350D01*
X0173963Y0081134D01*
X0174163Y0080912D01*
X0174357Y0080685D01*
X0174546Y0080454D01*
X0174728Y0080219D01*
X0174653Y0080162D01*
X0174472Y0080396D01*
X0174285Y0080625D01*
X0174092Y0080850D01*
X0173894Y0081070D01*
X0173691Y0081285D01*
X0173482Y0081495D01*
X0173268Y0081700D01*
X0173050Y0081899D01*
X0172826Y0082093D01*
X0172598Y0082282D01*
X0172366Y0082465D01*
X0172129Y0082642D01*
X0171887Y0082813D01*
X0171642Y0082979D01*
X0171393Y0083138D01*
X0171139Y0083291D01*
X0170883Y0083438D01*
X0170622Y0083579D01*
X0170358Y0083713D01*
X0170091Y0083841D01*
X0169821Y0083962D01*
X0169549Y0084077D01*
X0169273Y0084185D01*
X0168995Y0084286D01*
X0168714Y0084380D01*
X0168432Y0084467D01*
X0168147Y0084548D01*
X0167860Y0084621D01*
X0167572Y0084688D01*
X0167282Y0084747D01*
X0166990Y0084799D01*
X0166698Y0084844D01*
X0166404Y0084882D01*
X0166110Y0084913D01*
X0165815Y0084937D01*
X0165520Y0084953D01*
X0165224Y0084962D01*
X0164928Y0084964D01*
X0164632Y0084958D01*
X0164336Y0084946D01*
X0164041Y0084926D01*
X0163746Y0084899D01*
X0163452Y0084865D01*
X0163159Y0084823D01*
X0162867Y0084775D01*
X0162577Y0084719D01*
X0162288Y0084656D01*
X0162000Y0084586D01*
X0161714Y0084509D01*
X0161430Y0084426D01*
X0161149Y0084335D01*
X0160869Y0084237D01*
X0160592Y0084133D01*
X0160318Y0084022D01*
X0160047Y0083904D01*
X0159778Y0083780D01*
X0159513Y0083649D01*
X0159251Y0083511D01*
X0158992Y0083368D01*
X0158737Y0083218D01*
X0158485Y0083061D01*
X0158238Y0082899D01*
X0157995Y0082731D01*
X0157755Y0082556D01*
X0157520Y0082376D01*
X0157290Y0082191D01*
X0157064Y0081999D01*
X0156843Y0081803D01*
X0156627Y0081601D01*
X0156416Y0081393D01*
X0156210Y0081181D01*
X0156009Y0080963D01*
X0155813Y0080741D01*
X0155623Y0080514D01*
X0155439Y0080283D01*
X0155261Y0080047D01*
X0155088Y0079807D01*
X0154921Y0079562D01*
X0154760Y0079314D01*
X0154605Y0079061D01*
X0154457Y0078805D01*
X0154315Y0078546D01*
X0154179Y0078283D01*
X0154049Y0078017D01*
X0153927Y0077748D01*
X0153810Y0077475D01*
X0153701Y0077200D01*
X0153598Y0076923D01*
X0153502Y0076643D01*
X0153413Y0076361D01*
X0153331Y0076076D01*
X0153256Y0075790D01*
X0153188Y0075502D01*
X0153127Y0075213D01*
X0153073Y0074922D01*
X0153026Y0074629D01*
X0152986Y0074336D01*
X0152954Y0074042D01*
X0152929Y0073747D01*
X0152910Y0073452D01*
X0152900Y0073156D01*
X0152896Y0072860D01*
X0152900Y0072564D01*
X0152910Y0072268D01*
X0152929Y0071973D01*
X0152954Y0071678D01*
X0152986Y0071384D01*
X0153026Y0071091D01*
X0153073Y0070798D01*
X0153127Y0070507D01*
X0153188Y0070218D01*
X0153256Y0069930D01*
X0153331Y0069644D01*
X0153413Y0069359D01*
X0153502Y0069077D01*
X0153598Y0068797D01*
X0153701Y0068520D01*
X0153810Y0068245D01*
X0153927Y0067972D01*
X0154049Y0067703D01*
X0154179Y0067437D01*
X0154315Y0067174D01*
X0154457Y0066915D01*
X0154605Y0066659D01*
X0154760Y0066406D01*
X0154921Y0066158D01*
X0155088Y0065913D01*
X0155261Y0065673D01*
X0155439Y0065437D01*
X0155623Y0065206D01*
X0155813Y0064979D01*
X0156009Y0064757D01*
X0156210Y0064539D01*
X0156416Y0064327D01*
X0156627Y0064119D01*
X0156843Y0063917D01*
X0157064Y0063721D01*
X0157290Y0063529D01*
X0157520Y0063344D01*
X0157755Y0063164D01*
X0157995Y0062989D01*
X0158238Y0062821D01*
X0158485Y0062659D01*
X0158737Y0062502D01*
X0158992Y0062352D01*
X0159251Y0062209D01*
X0159513Y0062071D01*
X0159778Y0061940D01*
X0160047Y0061816D01*
X0160318Y0061698D01*
X0160592Y0061587D01*
X0160869Y0061483D01*
X0161149Y0061385D01*
X0161430Y0061294D01*
X0161714Y0061211D01*
X0162000Y0061134D01*
X0162288Y0061064D01*
X0162577Y0061001D01*
X0162867Y0060945D01*
X0163159Y0060897D01*
X0163452Y0060855D01*
X0163746Y0060821D01*
X0164041Y0060794D01*
X0164336Y0060774D01*
X0164632Y0060762D01*
X0164928Y0060756D01*
X0165224Y0060758D01*
X0165520Y0060767D01*
X0165815Y0060783D01*
X0166110Y0060807D01*
X0166404Y0060838D01*
X0166698Y0060876D01*
X0166990Y0060921D01*
X0167282Y0060973D01*
X0167572Y0061032D01*
X0167860Y0061099D01*
X0168147Y0061172D01*
X0168432Y0061253D01*
X0168714Y0061340D01*
X0168995Y0061434D01*
X0169273Y0061535D01*
X0169549Y0061643D01*
X0169821Y0061758D01*
X0170091Y0061879D01*
X0170358Y0062007D01*
X0170622Y0062141D01*
X0170883Y0062282D01*
X0171139Y0062429D01*
X0171393Y0062582D01*
X0171642Y0062741D01*
X0171887Y0062907D01*
X0172129Y0063078D01*
X0172366Y0063255D01*
X0172598Y0063438D01*
X0172826Y0063627D01*
X0173050Y0063821D01*
X0173268Y0064020D01*
X0173482Y0064225D01*
X0173691Y0064435D01*
X0173894Y0064650D01*
X0174092Y0064870D01*
X0174285Y0065095D01*
X0174472Y0065324D01*
X0174653Y0065558D01*
X0175329Y0040669D02*
X0174609Y0040129D01*
X0174610Y0040130D02*
X0174429Y0040363D01*
X0174243Y0040591D01*
X0174051Y0040815D01*
X0173854Y0041034D01*
X0173652Y0041248D01*
X0173444Y0041457D01*
X0173231Y0041660D01*
X0173014Y0041859D01*
X0172791Y0042052D01*
X0172564Y0042240D01*
X0172333Y0042422D01*
X0172097Y0042599D01*
X0171856Y0042769D01*
X0171612Y0042934D01*
X0171364Y0043092D01*
X0171112Y0043245D01*
X0170856Y0043391D01*
X0170597Y0043531D01*
X0170334Y0043665D01*
X0170069Y0043792D01*
X0169800Y0043913D01*
X0169528Y0044027D01*
X0169254Y0044134D01*
X0168977Y0044235D01*
X0168698Y0044329D01*
X0168416Y0044416D01*
X0168133Y0044496D01*
X0167847Y0044569D01*
X0167560Y0044635D01*
X0167271Y0044694D01*
X0166981Y0044746D01*
X0166690Y0044791D01*
X0166398Y0044829D01*
X0166105Y0044859D01*
X0165811Y0044883D01*
X0165517Y0044899D01*
X0165223Y0044908D01*
X0164928Y0044910D01*
X0164633Y0044904D01*
X0164339Y0044892D01*
X0164045Y0044872D01*
X0163752Y0044845D01*
X0163459Y0044811D01*
X0163167Y0044770D01*
X0162877Y0044721D01*
X0162587Y0044666D01*
X0162300Y0044604D01*
X0162013Y0044534D01*
X0161729Y0044457D01*
X0161446Y0044374D01*
X0161166Y0044284D01*
X0160888Y0044187D01*
X0160612Y0044083D01*
X0160339Y0043972D01*
X0160069Y0043855D01*
X0159801Y0043731D01*
X0159537Y0043601D01*
X0159276Y0043464D01*
X0159019Y0043321D01*
X0158765Y0043171D01*
X0158514Y0043016D01*
X0158268Y0042854D01*
X0158026Y0042687D01*
X0157788Y0042513D01*
X0157554Y0042334D01*
X0157324Y0042149D01*
X0157100Y0041959D01*
X0156879Y0041763D01*
X0156664Y0041562D01*
X0156454Y0041355D01*
X0156249Y0041144D01*
X0156049Y0040927D01*
X0155854Y0040706D01*
X0155665Y0040480D01*
X0155482Y0040250D01*
X0155304Y0040015D01*
X0155132Y0039775D01*
X0154966Y0039532D01*
X0154806Y0039285D01*
X0154652Y0039034D01*
X0154504Y0038779D01*
X0154362Y0038520D01*
X0154227Y0038259D01*
X0154098Y0037994D01*
X0153976Y0037726D01*
X0153860Y0037455D01*
X0153751Y0037181D01*
X0153649Y0036905D01*
X0153554Y0036626D01*
X0153465Y0036345D01*
X0153383Y0036062D01*
X0153308Y0035777D01*
X0153241Y0035490D01*
X0153180Y0035202D01*
X0153126Y0034912D01*
X0153079Y0034621D01*
X0153040Y0034329D01*
X0153008Y0034037D01*
X0152982Y0033743D01*
X0152964Y0033449D01*
X0152954Y0033155D01*
X0152950Y0032860D01*
X0152954Y0032565D01*
X0152964Y0032271D01*
X0152982Y0031977D01*
X0153008Y0031683D01*
X0153040Y0031391D01*
X0153079Y0031099D01*
X0153126Y0030808D01*
X0153180Y0030518D01*
X0153241Y0030230D01*
X0153308Y0029943D01*
X0153383Y0029658D01*
X0153465Y0029375D01*
X0153554Y0029094D01*
X0153649Y0028815D01*
X0153751Y0028539D01*
X0153860Y0028265D01*
X0153976Y0027994D01*
X0154098Y0027726D01*
X0154227Y0027461D01*
X0154362Y0027200D01*
X0154504Y0026941D01*
X0154652Y0026686D01*
X0154806Y0026435D01*
X0154966Y0026188D01*
X0155132Y0025945D01*
X0155304Y0025705D01*
X0155482Y0025470D01*
X0155665Y0025240D01*
X0155854Y0025014D01*
X0156049Y0024793D01*
X0156249Y0024576D01*
X0156454Y0024365D01*
X0156664Y0024158D01*
X0156879Y0023957D01*
X0157100Y0023761D01*
X0157324Y0023571D01*
X0157554Y0023386D01*
X0157788Y0023207D01*
X0158026Y0023033D01*
X0158268Y0022866D01*
X0158514Y0022704D01*
X0158765Y0022549D01*
X0159019Y0022399D01*
X0159276Y0022256D01*
X0159537Y0022119D01*
X0159801Y0021989D01*
X0160069Y0021865D01*
X0160339Y0021748D01*
X0160612Y0021637D01*
X0160888Y0021533D01*
X0161166Y0021436D01*
X0161446Y0021346D01*
X0161729Y0021263D01*
X0162013Y0021186D01*
X0162300Y0021116D01*
X0162587Y0021054D01*
X0162877Y0020999D01*
X0163167Y0020950D01*
X0163459Y0020909D01*
X0163752Y0020875D01*
X0164045Y0020848D01*
X0164339Y0020828D01*
X0164633Y0020816D01*
X0164928Y0020810D01*
X0165223Y0020812D01*
X0165517Y0020821D01*
X0165811Y0020837D01*
X0166105Y0020861D01*
X0166398Y0020891D01*
X0166690Y0020929D01*
X0166981Y0020974D01*
X0167271Y0021026D01*
X0167560Y0021085D01*
X0167847Y0021151D01*
X0168133Y0021224D01*
X0168416Y0021304D01*
X0168698Y0021391D01*
X0168977Y0021485D01*
X0169254Y0021586D01*
X0169528Y0021693D01*
X0169800Y0021807D01*
X0170069Y0021928D01*
X0170334Y0022055D01*
X0170597Y0022189D01*
X0170856Y0022329D01*
X0171112Y0022475D01*
X0171364Y0022628D01*
X0171612Y0022786D01*
X0171856Y0022951D01*
X0172097Y0023121D01*
X0172333Y0023298D01*
X0172564Y0023480D01*
X0172791Y0023668D01*
X0173014Y0023861D01*
X0173231Y0024060D01*
X0173444Y0024263D01*
X0173652Y0024472D01*
X0173854Y0024686D01*
X0174051Y0024905D01*
X0174243Y0025129D01*
X0174429Y0025357D01*
X0174610Y0025590D01*
X0175329Y0025051D01*
X0175330Y0025050D01*
X0175136Y0024800D01*
X0174936Y0024554D01*
X0174730Y0024314D01*
X0174518Y0024079D01*
X0174300Y0023849D01*
X0174077Y0023624D01*
X0173849Y0023405D01*
X0173615Y0023191D01*
X0173376Y0022983D01*
X0173132Y0022781D01*
X0172883Y0022586D01*
X0172629Y0022396D01*
X0172371Y0022213D01*
X0172109Y0022036D01*
X0171842Y0021865D01*
X0171571Y0021701D01*
X0171296Y0021544D01*
X0171018Y0021393D01*
X0170735Y0021249D01*
X0170450Y0021113D01*
X0170161Y0020983D01*
X0169869Y0020860D01*
X0169574Y0020745D01*
X0169277Y0020637D01*
X0168976Y0020536D01*
X0168674Y0020442D01*
X0168369Y0020356D01*
X0168062Y0020277D01*
X0167754Y0020206D01*
X0167444Y0020143D01*
X0167132Y0020087D01*
X0166819Y0020038D01*
X0166505Y0019998D01*
X0166190Y0019965D01*
X0165874Y0019940D01*
X0165558Y0019922D01*
X0165242Y0019912D01*
X0164925Y0019910D01*
X0164608Y0019916D01*
X0164292Y0019929D01*
X0163976Y0019951D01*
X0163661Y0019979D01*
X0163346Y0020016D01*
X0163033Y0020060D01*
X0162720Y0020112D01*
X0162409Y0020172D01*
X0162100Y0020239D01*
X0161792Y0020314D01*
X0161486Y0020396D01*
X0161183Y0020485D01*
X0160881Y0020582D01*
X0160582Y0020687D01*
X0160286Y0020799D01*
X0159992Y0020917D01*
X0159702Y0021043D01*
X0159415Y0021176D01*
X0159130Y0021317D01*
X0158850Y0021464D01*
X0158573Y0021617D01*
X0158300Y0021778D01*
X0158031Y0021945D01*
X0157766Y0022119D01*
X0157506Y0022299D01*
X0157250Y0022485D01*
X0156999Y0022678D01*
X0156752Y0022876D01*
X0156510Y0023081D01*
X0156274Y0023291D01*
X0156042Y0023508D01*
X0155817Y0023730D01*
X0155596Y0023957D01*
X0155381Y0024189D01*
X0155172Y0024427D01*
X0154969Y0024670D01*
X0154771Y0024918D01*
X0154580Y0025170D01*
X0154395Y0025427D01*
X0154217Y0025689D01*
X0154045Y0025955D01*
X0153879Y0026224D01*
X0153720Y0026498D01*
X0153568Y0026776D01*
X0153423Y0027057D01*
X0153284Y0027342D01*
X0153153Y0027630D01*
X0153029Y0027922D01*
X0152911Y0028216D01*
X0152801Y0028513D01*
X0152699Y0028812D01*
X0152604Y0029114D01*
X0152516Y0029418D01*
X0152435Y0029725D01*
X0152362Y0030033D01*
X0152297Y0030343D01*
X0152239Y0030654D01*
X0152189Y0030967D01*
X0152147Y0031281D01*
X0152112Y0031595D01*
X0152085Y0031911D01*
X0152065Y0032227D01*
X0152054Y0032543D01*
X0152050Y0032860D01*
X0152054Y0033177D01*
X0152065Y0033493D01*
X0152085Y0033809D01*
X0152112Y0034125D01*
X0152147Y0034439D01*
X0152189Y0034753D01*
X0152239Y0035066D01*
X0152297Y0035377D01*
X0152362Y0035687D01*
X0152435Y0035995D01*
X0152516Y0036302D01*
X0152604Y0036606D01*
X0152699Y0036908D01*
X0152801Y0037207D01*
X0152911Y0037504D01*
X0153029Y0037798D01*
X0153153Y0038090D01*
X0153284Y0038378D01*
X0153423Y0038663D01*
X0153568Y0038944D01*
X0153720Y0039222D01*
X0153879Y0039496D01*
X0154045Y0039765D01*
X0154217Y0040031D01*
X0154395Y0040293D01*
X0154580Y0040550D01*
X0154771Y0040802D01*
X0154969Y0041050D01*
X0155172Y0041293D01*
X0155381Y0041531D01*
X0155596Y0041763D01*
X0155817Y0041990D01*
X0156042Y0042212D01*
X0156274Y0042429D01*
X0156510Y0042639D01*
X0156752Y0042844D01*
X0156999Y0043042D01*
X0157250Y0043235D01*
X0157506Y0043421D01*
X0157766Y0043601D01*
X0158031Y0043775D01*
X0158300Y0043942D01*
X0158573Y0044103D01*
X0158850Y0044256D01*
X0159130Y0044403D01*
X0159415Y0044544D01*
X0159702Y0044677D01*
X0159992Y0044803D01*
X0160286Y0044921D01*
X0160582Y0045033D01*
X0160881Y0045138D01*
X0161183Y0045235D01*
X0161486Y0045324D01*
X0161792Y0045406D01*
X0162100Y0045481D01*
X0162409Y0045548D01*
X0162720Y0045608D01*
X0163033Y0045660D01*
X0163346Y0045704D01*
X0163661Y0045741D01*
X0163976Y0045769D01*
X0164292Y0045791D01*
X0164608Y0045804D01*
X0164925Y0045810D01*
X0165242Y0045808D01*
X0165558Y0045798D01*
X0165874Y0045780D01*
X0166190Y0045755D01*
X0166505Y0045722D01*
X0166819Y0045682D01*
X0167132Y0045633D01*
X0167444Y0045577D01*
X0167754Y0045514D01*
X0168062Y0045443D01*
X0168369Y0045364D01*
X0168674Y0045278D01*
X0168976Y0045184D01*
X0169277Y0045083D01*
X0169574Y0044975D01*
X0169869Y0044860D01*
X0170161Y0044737D01*
X0170450Y0044607D01*
X0170735Y0044471D01*
X0171018Y0044327D01*
X0171296Y0044176D01*
X0171571Y0044019D01*
X0171842Y0043855D01*
X0172109Y0043684D01*
X0172371Y0043507D01*
X0172629Y0043324D01*
X0172883Y0043134D01*
X0173132Y0042939D01*
X0173376Y0042737D01*
X0173615Y0042529D01*
X0173849Y0042315D01*
X0174077Y0042096D01*
X0174300Y0041871D01*
X0174518Y0041641D01*
X0174730Y0041406D01*
X0174936Y0041166D01*
X0175136Y0040920D01*
X0175330Y0040670D01*
X0175255Y0040614D01*
X0175062Y0040862D01*
X0174863Y0041106D01*
X0174659Y0041344D01*
X0174449Y0041578D01*
X0174233Y0041806D01*
X0174011Y0042029D01*
X0173784Y0042247D01*
X0173552Y0042459D01*
X0173315Y0042665D01*
X0173073Y0042866D01*
X0172825Y0043060D01*
X0172574Y0043248D01*
X0172317Y0043430D01*
X0172057Y0043606D01*
X0171792Y0043775D01*
X0171523Y0043938D01*
X0171250Y0044094D01*
X0170974Y0044244D01*
X0170694Y0044386D01*
X0170410Y0044522D01*
X0170123Y0044651D01*
X0169833Y0044773D01*
X0169541Y0044887D01*
X0169245Y0044995D01*
X0168947Y0045095D01*
X0168647Y0045188D01*
X0168344Y0045273D01*
X0168040Y0045351D01*
X0167734Y0045422D01*
X0167426Y0045485D01*
X0167116Y0045541D01*
X0166806Y0045589D01*
X0166494Y0045629D01*
X0166181Y0045662D01*
X0165868Y0045687D01*
X0165554Y0045704D01*
X0165240Y0045714D01*
X0164925Y0045716D01*
X0164611Y0045710D01*
X0164297Y0045697D01*
X0163983Y0045676D01*
X0163670Y0045647D01*
X0163358Y0045611D01*
X0163047Y0045567D01*
X0162737Y0045515D01*
X0162428Y0045456D01*
X0162121Y0045389D01*
X0161815Y0045315D01*
X0161512Y0045234D01*
X0161210Y0045145D01*
X0160911Y0045048D01*
X0160614Y0044945D01*
X0160320Y0044834D01*
X0160029Y0044716D01*
X0159740Y0044591D01*
X0159455Y0044459D01*
X0159173Y0044320D01*
X0158895Y0044174D01*
X0158620Y0044021D01*
X0158349Y0043862D01*
X0158082Y0043696D01*
X0157819Y0043523D01*
X0157560Y0043345D01*
X0157306Y0043160D01*
X0157057Y0042968D01*
X0156812Y0042771D01*
X0156572Y0042568D01*
X0156337Y0042359D01*
X0156107Y0042144D01*
X0155883Y0041924D01*
X0155664Y0041699D01*
X0155451Y0041468D01*
X0155243Y0041232D01*
X0155041Y0040990D01*
X0154846Y0040745D01*
X0154656Y0040494D01*
X0154472Y0040239D01*
X0154295Y0039979D01*
X0154124Y0039715D01*
X0153960Y0039447D01*
X0153802Y0039175D01*
X0153651Y0038900D01*
X0153507Y0038620D01*
X0153369Y0038338D01*
X0153239Y0038052D01*
X0153115Y0037763D01*
X0152999Y0037470D01*
X0152890Y0037176D01*
X0152788Y0036878D01*
X0152694Y0036579D01*
X0152606Y0036276D01*
X0152526Y0035972D01*
X0152454Y0035667D01*
X0152389Y0035359D01*
X0152332Y0035050D01*
X0152282Y0034739D01*
X0152240Y0034428D01*
X0152205Y0034115D01*
X0152179Y0033802D01*
X0152159Y0033488D01*
X0152148Y0033174D01*
X0152144Y0032860D01*
X0152148Y0032546D01*
X0152159Y0032232D01*
X0152179Y0031918D01*
X0152205Y0031605D01*
X0152240Y0031292D01*
X0152282Y0030981D01*
X0152332Y0030670D01*
X0152389Y0030361D01*
X0152454Y0030053D01*
X0152526Y0029748D01*
X0152606Y0029444D01*
X0152694Y0029141D01*
X0152788Y0028842D01*
X0152890Y0028544D01*
X0152999Y0028250D01*
X0153115Y0027957D01*
X0153239Y0027668D01*
X0153369Y0027382D01*
X0153507Y0027100D01*
X0153651Y0026820D01*
X0153802Y0026545D01*
X0153960Y0026273D01*
X0154124Y0026005D01*
X0154295Y0025741D01*
X0154472Y0025481D01*
X0154656Y0025226D01*
X0154846Y0024975D01*
X0155041Y0024730D01*
X0155243Y0024488D01*
X0155451Y0024252D01*
X0155664Y0024021D01*
X0155883Y0023796D01*
X0156107Y0023576D01*
X0156337Y0023361D01*
X0156572Y0023152D01*
X0156812Y0022949D01*
X0157057Y0022752D01*
X0157306Y0022560D01*
X0157560Y0022375D01*
X0157819Y0022197D01*
X0158082Y0022024D01*
X0158349Y0021858D01*
X0158620Y0021699D01*
X0158895Y0021546D01*
X0159173Y0021400D01*
X0159455Y0021261D01*
X0159740Y0021129D01*
X0160029Y0021004D01*
X0160320Y0020886D01*
X0160614Y0020775D01*
X0160911Y0020672D01*
X0161210Y0020575D01*
X0161512Y0020486D01*
X0161815Y0020405D01*
X0162121Y0020331D01*
X0162428Y0020264D01*
X0162737Y0020205D01*
X0163047Y0020153D01*
X0163358Y0020109D01*
X0163670Y0020073D01*
X0163983Y0020044D01*
X0164297Y0020023D01*
X0164611Y0020010D01*
X0164925Y0020004D01*
X0165240Y0020006D01*
X0165554Y0020016D01*
X0165868Y0020033D01*
X0166181Y0020058D01*
X0166494Y0020091D01*
X0166806Y0020131D01*
X0167116Y0020179D01*
X0167426Y0020235D01*
X0167734Y0020298D01*
X0168040Y0020369D01*
X0168344Y0020447D01*
X0168647Y0020532D01*
X0168947Y0020625D01*
X0169245Y0020725D01*
X0169541Y0020833D01*
X0169833Y0020947D01*
X0170123Y0021069D01*
X0170410Y0021198D01*
X0170694Y0021334D01*
X0170974Y0021476D01*
X0171250Y0021626D01*
X0171523Y0021782D01*
X0171792Y0021945D01*
X0172057Y0022114D01*
X0172317Y0022290D01*
X0172574Y0022472D01*
X0172825Y0022660D01*
X0173073Y0022854D01*
X0173315Y0023055D01*
X0173552Y0023261D01*
X0173784Y0023473D01*
X0174011Y0023691D01*
X0174233Y0023914D01*
X0174449Y0024142D01*
X0174659Y0024376D01*
X0174863Y0024614D01*
X0175062Y0024858D01*
X0175255Y0025106D01*
X0175180Y0025163D01*
X0174988Y0024916D01*
X0174791Y0024674D01*
X0174588Y0024437D01*
X0174379Y0024206D01*
X0174165Y0023979D01*
X0173945Y0023757D01*
X0173720Y0023541D01*
X0173489Y0023331D01*
X0173254Y0023126D01*
X0173013Y0022927D01*
X0172768Y0022734D01*
X0172518Y0022548D01*
X0172264Y0022367D01*
X0172005Y0022192D01*
X0171742Y0022024D01*
X0171475Y0021863D01*
X0171204Y0021708D01*
X0170930Y0021559D01*
X0170652Y0021418D01*
X0170370Y0021283D01*
X0170086Y0021155D01*
X0169798Y0021034D01*
X0169507Y0020920D01*
X0169214Y0020814D01*
X0168918Y0020714D01*
X0168620Y0020622D01*
X0168320Y0020537D01*
X0168017Y0020460D01*
X0167713Y0020390D01*
X0167408Y0020327D01*
X0167101Y0020272D01*
X0166792Y0020224D01*
X0166483Y0020184D01*
X0166172Y0020152D01*
X0165861Y0020127D01*
X0165550Y0020110D01*
X0165238Y0020100D01*
X0164926Y0020098D01*
X0164614Y0020104D01*
X0164302Y0020117D01*
X0163991Y0020138D01*
X0163680Y0020166D01*
X0163370Y0020203D01*
X0163061Y0020246D01*
X0162753Y0020297D01*
X0162446Y0020356D01*
X0162142Y0020422D01*
X0161838Y0020496D01*
X0161537Y0020577D01*
X0161238Y0020665D01*
X0160941Y0020761D01*
X0160646Y0020864D01*
X0160354Y0020974D01*
X0160065Y0021091D01*
X0159778Y0021215D01*
X0159495Y0021346D01*
X0159215Y0021484D01*
X0158939Y0021629D01*
X0158666Y0021781D01*
X0158397Y0021939D01*
X0158132Y0022104D01*
X0157871Y0022275D01*
X0157615Y0022452D01*
X0157362Y0022636D01*
X0157115Y0022826D01*
X0156872Y0023021D01*
X0156633Y0023223D01*
X0156400Y0023431D01*
X0156172Y0023644D01*
X0155950Y0023862D01*
X0155732Y0024086D01*
X0155521Y0024315D01*
X0155315Y0024550D01*
X0155114Y0024789D01*
X0154920Y0025033D01*
X0154732Y0025282D01*
X0154549Y0025535D01*
X0154373Y0025793D01*
X0154204Y0026055D01*
X0154041Y0026321D01*
X0153884Y0026591D01*
X0153734Y0026865D01*
X0153591Y0027142D01*
X0153454Y0027422D01*
X0153325Y0027706D01*
X0153202Y0027993D01*
X0153087Y0028283D01*
X0152979Y0028576D01*
X0152877Y0028871D01*
X0152783Y0029169D01*
X0152697Y0029469D01*
X0152618Y0029770D01*
X0152546Y0030074D01*
X0152481Y0030379D01*
X0152424Y0030686D01*
X0152375Y0030994D01*
X0152333Y0031304D01*
X0152299Y0031614D01*
X0152272Y0031925D01*
X0152253Y0032236D01*
X0152242Y0032548D01*
X0152238Y0032860D01*
X0152242Y0033172D01*
X0152253Y0033484D01*
X0152272Y0033795D01*
X0152299Y0034106D01*
X0152333Y0034416D01*
X0152375Y0034726D01*
X0152424Y0035034D01*
X0152481Y0035341D01*
X0152546Y0035646D01*
X0152618Y0035950D01*
X0152697Y0036251D01*
X0152783Y0036551D01*
X0152877Y0036849D01*
X0152979Y0037144D01*
X0153087Y0037437D01*
X0153202Y0037727D01*
X0153325Y0038014D01*
X0153454Y0038298D01*
X0153591Y0038578D01*
X0153734Y0038855D01*
X0153884Y0039129D01*
X0154041Y0039399D01*
X0154204Y0039665D01*
X0154373Y0039927D01*
X0154549Y0040185D01*
X0154732Y0040438D01*
X0154920Y0040687D01*
X0155114Y0040931D01*
X0155315Y0041170D01*
X0155521Y0041405D01*
X0155732Y0041634D01*
X0155950Y0041858D01*
X0156172Y0042076D01*
X0156400Y0042289D01*
X0156633Y0042497D01*
X0156872Y0042699D01*
X0157115Y0042894D01*
X0157362Y0043084D01*
X0157615Y0043268D01*
X0157871Y0043445D01*
X0158132Y0043616D01*
X0158397Y0043781D01*
X0158666Y0043939D01*
X0158939Y0044091D01*
X0159215Y0044236D01*
X0159495Y0044374D01*
X0159778Y0044505D01*
X0160065Y0044629D01*
X0160354Y0044746D01*
X0160646Y0044856D01*
X0160941Y0044959D01*
X0161238Y0045055D01*
X0161537Y0045143D01*
X0161838Y0045224D01*
X0162142Y0045298D01*
X0162446Y0045364D01*
X0162753Y0045423D01*
X0163061Y0045474D01*
X0163370Y0045517D01*
X0163680Y0045554D01*
X0163991Y0045582D01*
X0164302Y0045603D01*
X0164614Y0045616D01*
X0164926Y0045622D01*
X0165238Y0045620D01*
X0165550Y0045610D01*
X0165861Y0045593D01*
X0166172Y0045568D01*
X0166483Y0045536D01*
X0166792Y0045496D01*
X0167101Y0045448D01*
X0167408Y0045393D01*
X0167713Y0045330D01*
X0168017Y0045260D01*
X0168320Y0045183D01*
X0168620Y0045098D01*
X0168918Y0045006D01*
X0169214Y0044906D01*
X0169507Y0044800D01*
X0169798Y0044686D01*
X0170086Y0044565D01*
X0170370Y0044437D01*
X0170652Y0044302D01*
X0170930Y0044161D01*
X0171204Y0044012D01*
X0171475Y0043857D01*
X0171742Y0043696D01*
X0172005Y0043528D01*
X0172264Y0043353D01*
X0172518Y0043172D01*
X0172768Y0042986D01*
X0173013Y0042793D01*
X0173254Y0042594D01*
X0173489Y0042389D01*
X0173720Y0042179D01*
X0173945Y0041963D01*
X0174165Y0041741D01*
X0174379Y0041514D01*
X0174588Y0041283D01*
X0174791Y0041046D01*
X0174988Y0040804D01*
X0175180Y0040557D01*
X0175104Y0040501D01*
X0174914Y0040746D01*
X0174719Y0040986D01*
X0174517Y0041221D01*
X0174310Y0041451D01*
X0174097Y0041676D01*
X0173879Y0041896D01*
X0173655Y0042110D01*
X0173426Y0042319D01*
X0173193Y0042522D01*
X0172954Y0042720D01*
X0172711Y0042911D01*
X0172462Y0043097D01*
X0172210Y0043276D01*
X0171953Y0043449D01*
X0171692Y0043616D01*
X0171427Y0043777D01*
X0171158Y0043930D01*
X0170886Y0044078D01*
X0170610Y0044218D01*
X0170330Y0044352D01*
X0170048Y0044479D01*
X0169762Y0044599D01*
X0169474Y0044712D01*
X0169183Y0044818D01*
X0168889Y0044916D01*
X0168593Y0045008D01*
X0168295Y0045092D01*
X0167995Y0045169D01*
X0167693Y0045238D01*
X0167390Y0045301D01*
X0167085Y0045355D01*
X0166779Y0045403D01*
X0166471Y0045442D01*
X0166163Y0045474D01*
X0165855Y0045499D01*
X0165545Y0045516D01*
X0165236Y0045526D01*
X0164926Y0045528D01*
X0164616Y0045522D01*
X0164307Y0045509D01*
X0163998Y0045488D01*
X0163689Y0045460D01*
X0163382Y0045424D01*
X0163075Y0045381D01*
X0162769Y0045330D01*
X0162465Y0045272D01*
X0162162Y0045206D01*
X0161861Y0045133D01*
X0161562Y0045053D01*
X0161265Y0044965D01*
X0160970Y0044870D01*
X0160678Y0044768D01*
X0160388Y0044659D01*
X0160101Y0044542D01*
X0159817Y0044419D01*
X0159536Y0044289D01*
X0159258Y0044152D01*
X0158984Y0044008D01*
X0158713Y0043858D01*
X0158446Y0043701D01*
X0158183Y0043537D01*
X0157924Y0043367D01*
X0157669Y0043191D01*
X0157418Y0043009D01*
X0157173Y0042820D01*
X0156931Y0042626D01*
X0156695Y0042426D01*
X0156464Y0042220D01*
X0156237Y0042008D01*
X0156016Y0041791D01*
X0155801Y0041569D01*
X0155590Y0041342D01*
X0155386Y0041109D01*
X0155187Y0040871D01*
X0154994Y0040629D01*
X0154807Y0040382D01*
X0154626Y0040131D01*
X0154452Y0039875D01*
X0154283Y0039615D01*
X0154121Y0039351D01*
X0153966Y0039083D01*
X0153817Y0038811D01*
X0153675Y0038536D01*
X0153539Y0038257D01*
X0153411Y0037976D01*
X0153289Y0037691D01*
X0153175Y0037403D01*
X0153067Y0037112D01*
X0152967Y0036819D01*
X0152873Y0036524D01*
X0152787Y0036226D01*
X0152709Y0035927D01*
X0152638Y0035625D01*
X0152574Y0035322D01*
X0152517Y0035018D01*
X0152468Y0034712D01*
X0152427Y0034405D01*
X0152393Y0034097D01*
X0152366Y0033788D01*
X0152347Y0033479D01*
X0152336Y0033170D01*
X0152332Y0032860D01*
X0152336Y0032550D01*
X0152347Y0032241D01*
X0152366Y0031932D01*
X0152393Y0031623D01*
X0152427Y0031315D01*
X0152468Y0031008D01*
X0152517Y0030702D01*
X0152574Y0030398D01*
X0152638Y0030095D01*
X0152709Y0029793D01*
X0152787Y0029494D01*
X0152873Y0029196D01*
X0152967Y0028901D01*
X0153067Y0028608D01*
X0153175Y0028317D01*
X0153289Y0028029D01*
X0153411Y0027744D01*
X0153539Y0027463D01*
X0153675Y0027184D01*
X0153817Y0026909D01*
X0153966Y0026637D01*
X0154121Y0026369D01*
X0154283Y0026105D01*
X0154452Y0025845D01*
X0154626Y0025589D01*
X0154807Y0025338D01*
X0154994Y0025091D01*
X0155187Y0024849D01*
X0155386Y0024611D01*
X0155590Y0024378D01*
X0155801Y0024151D01*
X0156016Y0023929D01*
X0156237Y0023712D01*
X0156464Y0023500D01*
X0156695Y0023294D01*
X0156931Y0023094D01*
X0157173Y0022900D01*
X0157418Y0022711D01*
X0157669Y0022529D01*
X0157924Y0022353D01*
X0158183Y0022183D01*
X0158446Y0022019D01*
X0158713Y0021862D01*
X0158984Y0021712D01*
X0159258Y0021568D01*
X0159536Y0021431D01*
X0159817Y0021301D01*
X0160101Y0021178D01*
X0160388Y0021061D01*
X0160678Y0020952D01*
X0160970Y0020850D01*
X0161265Y0020755D01*
X0161562Y0020667D01*
X0161861Y0020587D01*
X0162162Y0020514D01*
X0162465Y0020448D01*
X0162769Y0020390D01*
X0163075Y0020339D01*
X0163382Y0020296D01*
X0163689Y0020260D01*
X0163998Y0020232D01*
X0164307Y0020211D01*
X0164616Y0020198D01*
X0164926Y0020192D01*
X0165236Y0020194D01*
X0165545Y0020204D01*
X0165855Y0020221D01*
X0166163Y0020246D01*
X0166471Y0020278D01*
X0166779Y0020317D01*
X0167085Y0020365D01*
X0167390Y0020419D01*
X0167693Y0020482D01*
X0167995Y0020551D01*
X0168295Y0020628D01*
X0168593Y0020712D01*
X0168889Y0020804D01*
X0169183Y0020902D01*
X0169474Y0021008D01*
X0169762Y0021121D01*
X0170048Y0021241D01*
X0170330Y0021368D01*
X0170610Y0021502D01*
X0170886Y0021642D01*
X0171158Y0021790D01*
X0171427Y0021943D01*
X0171692Y0022104D01*
X0171953Y0022271D01*
X0172210Y0022444D01*
X0172462Y0022623D01*
X0172711Y0022809D01*
X0172954Y0023000D01*
X0173193Y0023198D01*
X0173426Y0023401D01*
X0173655Y0023610D01*
X0173879Y0023824D01*
X0174097Y0024044D01*
X0174310Y0024269D01*
X0174517Y0024499D01*
X0174719Y0024734D01*
X0174914Y0024974D01*
X0175104Y0025219D01*
X0175029Y0025276D01*
X0174841Y0025033D01*
X0174646Y0024794D01*
X0174446Y0024561D01*
X0174241Y0024333D01*
X0174029Y0024109D01*
X0173813Y0023891D01*
X0173591Y0023678D01*
X0173364Y0023471D01*
X0173132Y0023269D01*
X0172895Y0023073D01*
X0172653Y0022883D01*
X0172407Y0022699D01*
X0172156Y0022521D01*
X0171901Y0022349D01*
X0171642Y0022184D01*
X0171379Y0022024D01*
X0171112Y0021872D01*
X0170842Y0021725D01*
X0170568Y0021586D01*
X0170291Y0021453D01*
X0170010Y0021327D01*
X0169727Y0021208D01*
X0169440Y0021096D01*
X0169151Y0020991D01*
X0168860Y0020893D01*
X0168566Y0020802D01*
X0168270Y0020719D01*
X0167973Y0020642D01*
X0167673Y0020573D01*
X0167372Y0020512D01*
X0167069Y0020457D01*
X0166765Y0020411D01*
X0166460Y0020371D01*
X0166155Y0020339D01*
X0165848Y0020315D01*
X0165541Y0020298D01*
X0165234Y0020288D01*
X0164926Y0020286D01*
X0164619Y0020292D01*
X0164312Y0020305D01*
X0164005Y0020325D01*
X0163699Y0020354D01*
X0163393Y0020389D01*
X0163089Y0020432D01*
X0162786Y0020483D01*
X0162484Y0020540D01*
X0162183Y0020606D01*
X0161884Y0020678D01*
X0161588Y0020758D01*
X0161293Y0020845D01*
X0161000Y0020939D01*
X0160710Y0021041D01*
X0160422Y0021149D01*
X0160137Y0021264D01*
X0159855Y0021387D01*
X0159576Y0021516D01*
X0159300Y0021652D01*
X0159028Y0021795D01*
X0158759Y0021944D01*
X0158494Y0022100D01*
X0158233Y0022262D01*
X0157976Y0022431D01*
X0157723Y0022606D01*
X0157475Y0022787D01*
X0157231Y0022974D01*
X0156991Y0023167D01*
X0156757Y0023365D01*
X0156527Y0023570D01*
X0156302Y0023780D01*
X0156083Y0023995D01*
X0155869Y0024216D01*
X0155660Y0024441D01*
X0155457Y0024672D01*
X0155260Y0024908D01*
X0155068Y0025149D01*
X0154883Y0025394D01*
X0154703Y0025643D01*
X0154530Y0025897D01*
X0154363Y0026155D01*
X0154202Y0026417D01*
X0154048Y0026683D01*
X0153900Y0026953D01*
X0153759Y0027226D01*
X0153624Y0027503D01*
X0153497Y0027782D01*
X0153376Y0028065D01*
X0153262Y0028351D01*
X0153156Y0028639D01*
X0153056Y0028930D01*
X0152963Y0029223D01*
X0152878Y0029519D01*
X0152800Y0029816D01*
X0152729Y0030115D01*
X0152666Y0030416D01*
X0152610Y0030718D01*
X0152561Y0031022D01*
X0152520Y0031327D01*
X0152486Y0031632D01*
X0152460Y0031938D01*
X0152441Y0032245D01*
X0152430Y0032553D01*
X0152426Y0032860D01*
X0152430Y0033167D01*
X0152441Y0033475D01*
X0152460Y0033782D01*
X0152486Y0034088D01*
X0152520Y0034393D01*
X0152561Y0034698D01*
X0152610Y0035002D01*
X0152666Y0035304D01*
X0152729Y0035605D01*
X0152800Y0035904D01*
X0152878Y0036201D01*
X0152963Y0036497D01*
X0153056Y0036790D01*
X0153156Y0037081D01*
X0153262Y0037369D01*
X0153376Y0037655D01*
X0153497Y0037938D01*
X0153624Y0038217D01*
X0153759Y0038494D01*
X0153900Y0038767D01*
X0154048Y0039037D01*
X0154202Y0039303D01*
X0154363Y0039565D01*
X0154530Y0039823D01*
X0154703Y0040077D01*
X0154883Y0040326D01*
X0155068Y0040571D01*
X0155260Y0040812D01*
X0155457Y0041048D01*
X0155660Y0041279D01*
X0155869Y0041504D01*
X0156083Y0041725D01*
X0156302Y0041940D01*
X0156527Y0042150D01*
X0156757Y0042355D01*
X0156991Y0042553D01*
X0157231Y0042746D01*
X0157475Y0042933D01*
X0157723Y0043114D01*
X0157976Y0043289D01*
X0158233Y0043458D01*
X0158494Y0043620D01*
X0158759Y0043776D01*
X0159028Y0043925D01*
X0159300Y0044068D01*
X0159576Y0044204D01*
X0159855Y0044333D01*
X0160137Y0044456D01*
X0160422Y0044571D01*
X0160710Y0044679D01*
X0161000Y0044781D01*
X0161293Y0044875D01*
X0161588Y0044962D01*
X0161884Y0045042D01*
X0162183Y0045114D01*
X0162484Y0045180D01*
X0162786Y0045237D01*
X0163089Y0045288D01*
X0163393Y0045331D01*
X0163699Y0045366D01*
X0164005Y0045395D01*
X0164312Y0045415D01*
X0164619Y0045428D01*
X0164926Y0045434D01*
X0165234Y0045432D01*
X0165541Y0045422D01*
X0165848Y0045405D01*
X0166155Y0045381D01*
X0166460Y0045349D01*
X0166765Y0045309D01*
X0167069Y0045263D01*
X0167372Y0045208D01*
X0167673Y0045147D01*
X0167973Y0045078D01*
X0168270Y0045001D01*
X0168566Y0044918D01*
X0168860Y0044827D01*
X0169151Y0044729D01*
X0169440Y0044624D01*
X0169727Y0044512D01*
X0170010Y0044393D01*
X0170291Y0044267D01*
X0170568Y0044134D01*
X0170842Y0043995D01*
X0171112Y0043848D01*
X0171379Y0043696D01*
X0171642Y0043536D01*
X0171901Y0043371D01*
X0172156Y0043199D01*
X0172407Y0043021D01*
X0172653Y0042837D01*
X0172895Y0042647D01*
X0173132Y0042451D01*
X0173364Y0042249D01*
X0173591Y0042042D01*
X0173813Y0041829D01*
X0174029Y0041611D01*
X0174241Y0041387D01*
X0174446Y0041159D01*
X0174646Y0040926D01*
X0174841Y0040687D01*
X0175029Y0040444D01*
X0174954Y0040388D01*
X0174767Y0040629D01*
X0174574Y0040866D01*
X0174375Y0041097D01*
X0174171Y0041324D01*
X0173962Y0041546D01*
X0173747Y0041762D01*
X0173526Y0041973D01*
X0173301Y0042179D01*
X0173071Y0042379D01*
X0172835Y0042574D01*
X0172596Y0042762D01*
X0172351Y0042945D01*
X0172102Y0043122D01*
X0171849Y0043292D01*
X0171592Y0043457D01*
X0171331Y0043615D01*
X0171066Y0043766D01*
X0170798Y0043911D01*
X0170526Y0044050D01*
X0170251Y0044182D01*
X0169972Y0044307D01*
X0169691Y0044425D01*
X0169407Y0044536D01*
X0169120Y0044640D01*
X0168831Y0044738D01*
X0168539Y0044828D01*
X0168246Y0044911D01*
X0167950Y0044986D01*
X0167653Y0045055D01*
X0167354Y0045116D01*
X0167053Y0045170D01*
X0166752Y0045216D01*
X0166449Y0045256D01*
X0166146Y0045287D01*
X0165841Y0045312D01*
X0165537Y0045328D01*
X0165232Y0045338D01*
X0164927Y0045340D01*
X0164622Y0045334D01*
X0164317Y0045321D01*
X0164012Y0045301D01*
X0163708Y0045273D01*
X0163405Y0045238D01*
X0163103Y0045195D01*
X0162802Y0045145D01*
X0162502Y0045088D01*
X0162204Y0045023D01*
X0161908Y0044951D01*
X0161613Y0044872D01*
X0161320Y0044785D01*
X0161030Y0044692D01*
X0160742Y0044591D01*
X0160456Y0044483D01*
X0160173Y0044369D01*
X0159893Y0044247D01*
X0159616Y0044119D01*
X0159343Y0043984D01*
X0159073Y0043843D01*
X0158806Y0043694D01*
X0158543Y0043540D01*
X0158284Y0043379D01*
X0158028Y0043211D01*
X0157777Y0043038D01*
X0157531Y0042858D01*
X0157289Y0042672D01*
X0157051Y0042481D01*
X0156818Y0042284D01*
X0156590Y0042081D01*
X0156367Y0041872D01*
X0156149Y0041659D01*
X0155937Y0041440D01*
X0155730Y0041216D01*
X0155528Y0040986D01*
X0155332Y0040752D01*
X0155142Y0040514D01*
X0154958Y0040270D01*
X0154780Y0040023D01*
X0154608Y0039771D01*
X0154442Y0039514D01*
X0154283Y0039254D01*
X0154129Y0038990D01*
X0153983Y0038723D01*
X0153843Y0038452D01*
X0153709Y0038177D01*
X0153583Y0037900D01*
X0153463Y0037619D01*
X0153350Y0037335D01*
X0153244Y0037049D01*
X0153145Y0036761D01*
X0153053Y0036470D01*
X0152969Y0036176D01*
X0152891Y0035881D01*
X0152821Y0035584D01*
X0152758Y0035286D01*
X0152702Y0034986D01*
X0152654Y0034684D01*
X0152613Y0034382D01*
X0152580Y0034079D01*
X0152554Y0033775D01*
X0152535Y0033470D01*
X0152524Y0033165D01*
X0152520Y0032860D01*
X0152524Y0032555D01*
X0152535Y0032250D01*
X0152554Y0031945D01*
X0152580Y0031641D01*
X0152613Y0031338D01*
X0152654Y0031036D01*
X0152702Y0030734D01*
X0152758Y0030434D01*
X0152821Y0030136D01*
X0152891Y0029839D01*
X0152969Y0029544D01*
X0153053Y0029250D01*
X0153145Y0028959D01*
X0153244Y0028671D01*
X0153350Y0028385D01*
X0153463Y0028101D01*
X0153583Y0027820D01*
X0153709Y0027543D01*
X0153843Y0027268D01*
X0153983Y0026997D01*
X0154129Y0026730D01*
X0154283Y0026466D01*
X0154442Y0026206D01*
X0154608Y0025949D01*
X0154780Y0025697D01*
X0154958Y0025450D01*
X0155142Y0025206D01*
X0155332Y0024968D01*
X0155528Y0024734D01*
X0155730Y0024504D01*
X0155937Y0024280D01*
X0156149Y0024061D01*
X0156367Y0023848D01*
X0156590Y0023639D01*
X0156818Y0023436D01*
X0157051Y0023239D01*
X0157289Y0023048D01*
X0157531Y0022862D01*
X0157777Y0022682D01*
X0158028Y0022509D01*
X0158284Y0022341D01*
X0158543Y0022180D01*
X0158806Y0022026D01*
X0159073Y0021877D01*
X0159343Y0021736D01*
X0159616Y0021601D01*
X0159893Y0021473D01*
X0160173Y0021351D01*
X0160456Y0021237D01*
X0160742Y0021129D01*
X0161030Y0021028D01*
X0161320Y0020935D01*
X0161613Y0020848D01*
X0161908Y0020769D01*
X0162204Y0020697D01*
X0162502Y0020632D01*
X0162802Y0020575D01*
X0163103Y0020525D01*
X0163405Y0020482D01*
X0163708Y0020447D01*
X0164012Y0020419D01*
X0164317Y0020399D01*
X0164622Y0020386D01*
X0164927Y0020380D01*
X0165232Y0020382D01*
X0165537Y0020392D01*
X0165841Y0020408D01*
X0166146Y0020433D01*
X0166449Y0020464D01*
X0166752Y0020504D01*
X0167053Y0020550D01*
X0167354Y0020604D01*
X0167653Y0020665D01*
X0167950Y0020734D01*
X0168246Y0020809D01*
X0168539Y0020892D01*
X0168831Y0020982D01*
X0169120Y0021080D01*
X0169407Y0021184D01*
X0169691Y0021295D01*
X0169972Y0021413D01*
X0170251Y0021538D01*
X0170526Y0021670D01*
X0170798Y0021809D01*
X0171066Y0021954D01*
X0171331Y0022105D01*
X0171592Y0022263D01*
X0171849Y0022428D01*
X0172102Y0022598D01*
X0172351Y0022775D01*
X0172596Y0022958D01*
X0172835Y0023146D01*
X0173071Y0023341D01*
X0173301Y0023541D01*
X0173526Y0023747D01*
X0173747Y0023958D01*
X0173962Y0024174D01*
X0174171Y0024396D01*
X0174375Y0024623D01*
X0174574Y0024854D01*
X0174767Y0025091D01*
X0174954Y0025332D01*
X0174879Y0025388D01*
X0174693Y0025149D01*
X0174502Y0024914D01*
X0174305Y0024685D01*
X0174102Y0024460D01*
X0173894Y0024239D01*
X0173680Y0024025D01*
X0173462Y0023815D01*
X0173238Y0023611D01*
X0173010Y0023412D01*
X0172776Y0023219D01*
X0172538Y0023032D01*
X0172296Y0022851D01*
X0172049Y0022675D01*
X0171798Y0022506D01*
X0171542Y0022343D01*
X0171283Y0022186D01*
X0171020Y0022036D01*
X0170754Y0021892D01*
X0170484Y0021754D01*
X0170211Y0021623D01*
X0169935Y0021499D01*
X0169655Y0021382D01*
X0169373Y0021272D01*
X0169089Y0021168D01*
X0168802Y0021072D01*
X0168512Y0020982D01*
X0168221Y0020900D01*
X0167928Y0020825D01*
X0167632Y0020757D01*
X0167336Y0020696D01*
X0167038Y0020643D01*
X0166738Y0020597D01*
X0166438Y0020558D01*
X0166137Y0020526D01*
X0165835Y0020502D01*
X0165532Y0020485D01*
X0165230Y0020476D01*
X0164927Y0020474D01*
X0164624Y0020480D01*
X0164322Y0020493D01*
X0164019Y0020513D01*
X0163718Y0020541D01*
X0163417Y0020576D01*
X0163117Y0020618D01*
X0162818Y0020668D01*
X0162521Y0020725D01*
X0162225Y0020789D01*
X0161931Y0020860D01*
X0161638Y0020939D01*
X0161348Y0021025D01*
X0161059Y0021118D01*
X0160774Y0021217D01*
X0160490Y0021324D01*
X0160210Y0021438D01*
X0159932Y0021558D01*
X0159657Y0021686D01*
X0159385Y0021820D01*
X0159117Y0021960D01*
X0158852Y0022107D01*
X0158591Y0022261D01*
X0158334Y0022421D01*
X0158081Y0022587D01*
X0157832Y0022759D01*
X0157587Y0022937D01*
X0157346Y0023122D01*
X0157111Y0023312D01*
X0156880Y0023507D01*
X0156653Y0023709D01*
X0156432Y0023915D01*
X0156216Y0024128D01*
X0156005Y0024345D01*
X0155800Y0024567D01*
X0155600Y0024795D01*
X0155405Y0025027D01*
X0155217Y0025264D01*
X0155034Y0025506D01*
X0154857Y0025751D01*
X0154686Y0026002D01*
X0154522Y0026256D01*
X0154363Y0026514D01*
X0154211Y0026776D01*
X0154066Y0027041D01*
X0153927Y0027310D01*
X0153794Y0027583D01*
X0153669Y0027858D01*
X0153550Y0028137D01*
X0153438Y0028418D01*
X0153333Y0028702D01*
X0153234Y0028989D01*
X0153143Y0029278D01*
X0153059Y0029569D01*
X0152982Y0029862D01*
X0152913Y0030156D01*
X0152850Y0030453D01*
X0152795Y0030750D01*
X0152747Y0031049D01*
X0152706Y0031349D01*
X0152673Y0031651D01*
X0152647Y0031952D01*
X0152629Y0032255D01*
X0152618Y0032557D01*
X0152614Y0032860D01*
X0152618Y0033163D01*
X0152629Y0033465D01*
X0152647Y0033768D01*
X0152673Y0034069D01*
X0152706Y0034371D01*
X0152747Y0034671D01*
X0152795Y0034970D01*
X0152850Y0035267D01*
X0152913Y0035564D01*
X0152982Y0035858D01*
X0153059Y0036151D01*
X0153143Y0036442D01*
X0153234Y0036731D01*
X0153333Y0037018D01*
X0153438Y0037302D01*
X0153550Y0037583D01*
X0153669Y0037862D01*
X0153794Y0038137D01*
X0153927Y0038410D01*
X0154066Y0038679D01*
X0154211Y0038944D01*
X0154363Y0039206D01*
X0154522Y0039464D01*
X0154686Y0039718D01*
X0154857Y0039969D01*
X0155034Y0040214D01*
X0155217Y0040456D01*
X0155405Y0040693D01*
X0155600Y0040925D01*
X0155800Y0041153D01*
X0156005Y0041375D01*
X0156216Y0041592D01*
X0156432Y0041805D01*
X0156653Y0042011D01*
X0156880Y0042213D01*
X0157111Y0042408D01*
X0157346Y0042598D01*
X0157587Y0042783D01*
X0157832Y0042961D01*
X0158081Y0043133D01*
X0158334Y0043299D01*
X0158591Y0043459D01*
X0158852Y0043613D01*
X0159117Y0043760D01*
X0159385Y0043900D01*
X0159657Y0044034D01*
X0159932Y0044162D01*
X0160210Y0044282D01*
X0160490Y0044396D01*
X0160774Y0044503D01*
X0161059Y0044602D01*
X0161348Y0044695D01*
X0161638Y0044781D01*
X0161931Y0044860D01*
X0162225Y0044931D01*
X0162521Y0044995D01*
X0162818Y0045052D01*
X0163117Y0045102D01*
X0163417Y0045144D01*
X0163718Y0045179D01*
X0164019Y0045207D01*
X0164322Y0045227D01*
X0164624Y0045240D01*
X0164927Y0045246D01*
X0165230Y0045244D01*
X0165532Y0045235D01*
X0165835Y0045218D01*
X0166137Y0045194D01*
X0166438Y0045162D01*
X0166738Y0045123D01*
X0167038Y0045077D01*
X0167336Y0045024D01*
X0167632Y0044963D01*
X0167928Y0044895D01*
X0168221Y0044820D01*
X0168512Y0044738D01*
X0168802Y0044648D01*
X0169089Y0044552D01*
X0169373Y0044448D01*
X0169655Y0044338D01*
X0169935Y0044221D01*
X0170211Y0044097D01*
X0170484Y0043966D01*
X0170754Y0043828D01*
X0171020Y0043684D01*
X0171283Y0043534D01*
X0171542Y0043377D01*
X0171798Y0043214D01*
X0172049Y0043045D01*
X0172296Y0042869D01*
X0172538Y0042688D01*
X0172776Y0042501D01*
X0173010Y0042308D01*
X0173238Y0042109D01*
X0173462Y0041905D01*
X0173680Y0041695D01*
X0173894Y0041481D01*
X0174102Y0041260D01*
X0174305Y0041035D01*
X0174502Y0040806D01*
X0174693Y0040571D01*
X0174879Y0040332D01*
X0174804Y0040275D01*
X0174619Y0040513D01*
X0174429Y0040745D01*
X0174234Y0040974D01*
X0174033Y0041197D01*
X0173826Y0041415D01*
X0173614Y0041629D01*
X0173397Y0041837D01*
X0173175Y0042039D01*
X0172948Y0042236D01*
X0172717Y0042428D01*
X0172481Y0042614D01*
X0172240Y0042794D01*
X0171995Y0042968D01*
X0171746Y0043136D01*
X0171492Y0043298D01*
X0171235Y0043453D01*
X0170974Y0043602D01*
X0170710Y0043745D01*
X0170442Y0043882D01*
X0170171Y0044011D01*
X0169897Y0044134D01*
X0169620Y0044251D01*
X0169340Y0044360D01*
X0169057Y0044463D01*
X0168773Y0044559D01*
X0168485Y0044647D01*
X0168196Y0044729D01*
X0167905Y0044804D01*
X0167612Y0044871D01*
X0167318Y0044932D01*
X0167022Y0044985D01*
X0166725Y0045030D01*
X0166427Y0045069D01*
X0166128Y0045100D01*
X0165828Y0045124D01*
X0165528Y0045141D01*
X0165228Y0045150D01*
X0164927Y0045152D01*
X0164627Y0045146D01*
X0164326Y0045134D01*
X0164027Y0045113D01*
X0163727Y0045086D01*
X0163429Y0045051D01*
X0163131Y0045009D01*
X0162835Y0044960D01*
X0162540Y0044903D01*
X0162246Y0044839D01*
X0161954Y0044769D01*
X0161664Y0044691D01*
X0161375Y0044605D01*
X0161089Y0044513D01*
X0160805Y0044414D01*
X0160524Y0044308D01*
X0160246Y0044195D01*
X0159970Y0044076D01*
X0159697Y0043949D01*
X0159428Y0043816D01*
X0159162Y0043677D01*
X0158899Y0043531D01*
X0158640Y0043379D01*
X0158384Y0043220D01*
X0158133Y0043055D01*
X0157886Y0042884D01*
X0157643Y0042707D01*
X0157404Y0042524D01*
X0157170Y0042336D01*
X0156941Y0042142D01*
X0156717Y0041942D01*
X0156497Y0041737D01*
X0156283Y0041526D01*
X0156073Y0041310D01*
X0155869Y0041090D01*
X0155671Y0040864D01*
X0155478Y0040633D01*
X0155291Y0040398D01*
X0155109Y0040159D01*
X0154934Y0039915D01*
X0154764Y0039666D01*
X0154601Y0039414D01*
X0154444Y0039158D01*
X0154293Y0038898D01*
X0154149Y0038634D01*
X0154011Y0038367D01*
X0153879Y0038097D01*
X0153755Y0037824D01*
X0153637Y0037547D01*
X0153526Y0037268D01*
X0153421Y0036986D01*
X0153324Y0036702D01*
X0153233Y0036415D01*
X0153150Y0036126D01*
X0153074Y0035836D01*
X0153004Y0035543D01*
X0152942Y0035249D01*
X0152888Y0034954D01*
X0152840Y0034657D01*
X0152800Y0034359D01*
X0152767Y0034060D01*
X0152741Y0033761D01*
X0152723Y0033461D01*
X0152712Y0033161D01*
X0152708Y0032860D01*
X0152712Y0032559D01*
X0152723Y0032259D01*
X0152741Y0031959D01*
X0152767Y0031660D01*
X0152800Y0031361D01*
X0152840Y0031063D01*
X0152888Y0030766D01*
X0152942Y0030471D01*
X0153004Y0030177D01*
X0153074Y0029884D01*
X0153150Y0029594D01*
X0153233Y0029305D01*
X0153324Y0029018D01*
X0153421Y0028734D01*
X0153526Y0028452D01*
X0153637Y0028173D01*
X0153755Y0027896D01*
X0153879Y0027623D01*
X0154011Y0027353D01*
X0154149Y0027086D01*
X0154293Y0026822D01*
X0154444Y0026562D01*
X0154601Y0026306D01*
X0154764Y0026054D01*
X0154934Y0025805D01*
X0155109Y0025561D01*
X0155291Y0025322D01*
X0155478Y0025087D01*
X0155671Y0024856D01*
X0155869Y0024630D01*
X0156073Y0024410D01*
X0156283Y0024194D01*
X0156497Y0023983D01*
X0156717Y0023778D01*
X0156941Y0023578D01*
X0157170Y0023384D01*
X0157404Y0023196D01*
X0157643Y0023013D01*
X0157886Y0022836D01*
X0158133Y0022665D01*
X0158384Y0022500D01*
X0158640Y0022341D01*
X0158899Y0022189D01*
X0159162Y0022043D01*
X0159428Y0021904D01*
X0159697Y0021771D01*
X0159970Y0021644D01*
X0160246Y0021525D01*
X0160524Y0021412D01*
X0160805Y0021306D01*
X0161089Y0021207D01*
X0161375Y0021115D01*
X0161664Y0021029D01*
X0161954Y0020951D01*
X0162246Y0020881D01*
X0162540Y0020817D01*
X0162835Y0020760D01*
X0163131Y0020711D01*
X0163429Y0020669D01*
X0163727Y0020634D01*
X0164027Y0020607D01*
X0164326Y0020586D01*
X0164627Y0020574D01*
X0164927Y0020568D01*
X0165228Y0020570D01*
X0165528Y0020579D01*
X0165828Y0020596D01*
X0166128Y0020620D01*
X0166427Y0020651D01*
X0166725Y0020690D01*
X0167022Y0020735D01*
X0167318Y0020788D01*
X0167612Y0020849D01*
X0167905Y0020916D01*
X0168196Y0020991D01*
X0168485Y0021073D01*
X0168773Y0021161D01*
X0169057Y0021257D01*
X0169340Y0021360D01*
X0169620Y0021469D01*
X0169897Y0021586D01*
X0170171Y0021709D01*
X0170442Y0021838D01*
X0170710Y0021975D01*
X0170974Y0022118D01*
X0171235Y0022267D01*
X0171492Y0022422D01*
X0171746Y0022584D01*
X0171995Y0022752D01*
X0172240Y0022926D01*
X0172481Y0023106D01*
X0172717Y0023292D01*
X0172948Y0023484D01*
X0173175Y0023681D01*
X0173397Y0023883D01*
X0173614Y0024091D01*
X0173826Y0024305D01*
X0174033Y0024523D01*
X0174234Y0024746D01*
X0174429Y0024975D01*
X0174619Y0025207D01*
X0174804Y0025445D01*
X0174728Y0025501D01*
X0174546Y0025266D01*
X0174357Y0025035D01*
X0174163Y0024808D01*
X0173963Y0024586D01*
X0173758Y0024370D01*
X0173548Y0024158D01*
X0173333Y0023952D01*
X0173113Y0023751D01*
X0172887Y0023555D01*
X0172658Y0023365D01*
X0172423Y0023181D01*
X0172184Y0023002D01*
X0171941Y0022829D01*
X0171694Y0022663D01*
X0171442Y0022502D01*
X0171187Y0022348D01*
X0170928Y0022200D01*
X0170666Y0022058D01*
X0170400Y0021923D01*
X0170131Y0021794D01*
X0169859Y0021672D01*
X0169584Y0021556D01*
X0169306Y0021447D01*
X0169026Y0021346D01*
X0168743Y0021251D01*
X0168458Y0021163D01*
X0168171Y0021082D01*
X0167883Y0021007D01*
X0167592Y0020941D01*
X0167300Y0020881D01*
X0167006Y0020828D01*
X0166711Y0020783D01*
X0166416Y0020744D01*
X0166119Y0020713D01*
X0165822Y0020690D01*
X0165524Y0020673D01*
X0165226Y0020664D01*
X0164928Y0020662D01*
X0164629Y0020668D01*
X0164331Y0020680D01*
X0164034Y0020700D01*
X0163737Y0020728D01*
X0163441Y0020762D01*
X0163145Y0020804D01*
X0162851Y0020853D01*
X0162558Y0020909D01*
X0162267Y0020972D01*
X0161977Y0021043D01*
X0161689Y0021120D01*
X0161403Y0021204D01*
X0161119Y0021296D01*
X0160837Y0021394D01*
X0160558Y0021499D01*
X0160282Y0021611D01*
X0160008Y0021730D01*
X0159738Y0021855D01*
X0159470Y0021987D01*
X0159206Y0022126D01*
X0158945Y0022271D01*
X0158688Y0022422D01*
X0158435Y0022579D01*
X0158186Y0022743D01*
X0157940Y0022913D01*
X0157699Y0023088D01*
X0157462Y0023270D01*
X0157230Y0023457D01*
X0157003Y0023649D01*
X0156780Y0023848D01*
X0156562Y0024051D01*
X0156349Y0024260D01*
X0156141Y0024474D01*
X0155939Y0024694D01*
X0155742Y0024917D01*
X0155551Y0025146D01*
X0155365Y0025380D01*
X0155185Y0025617D01*
X0155011Y0025859D01*
X0154843Y0026106D01*
X0154681Y0026356D01*
X0154525Y0026610D01*
X0154375Y0026868D01*
X0154232Y0027130D01*
X0154095Y0027395D01*
X0153964Y0027663D01*
X0153841Y0027934D01*
X0153724Y0028209D01*
X0153613Y0028486D01*
X0153510Y0028766D01*
X0153413Y0029048D01*
X0153323Y0029332D01*
X0153241Y0029619D01*
X0153165Y0029907D01*
X0153096Y0030197D01*
X0153035Y0030489D01*
X0152980Y0030782D01*
X0152933Y0031077D01*
X0152893Y0031372D01*
X0152860Y0031669D01*
X0152835Y0031966D01*
X0152817Y0032264D01*
X0152806Y0032562D01*
X0152802Y0032860D01*
X0152806Y0033158D01*
X0152817Y0033456D01*
X0152835Y0033754D01*
X0152860Y0034051D01*
X0152893Y0034348D01*
X0152933Y0034643D01*
X0152980Y0034938D01*
X0153035Y0035231D01*
X0153096Y0035523D01*
X0153165Y0035813D01*
X0153241Y0036101D01*
X0153323Y0036388D01*
X0153413Y0036672D01*
X0153510Y0036954D01*
X0153613Y0037234D01*
X0153724Y0037511D01*
X0153841Y0037786D01*
X0153964Y0038057D01*
X0154095Y0038325D01*
X0154232Y0038590D01*
X0154375Y0038852D01*
X0154525Y0039110D01*
X0154681Y0039364D01*
X0154843Y0039614D01*
X0155011Y0039861D01*
X0155185Y0040103D01*
X0155365Y0040340D01*
X0155551Y0040574D01*
X0155742Y0040803D01*
X0155939Y0041026D01*
X0156141Y0041246D01*
X0156349Y0041460D01*
X0156562Y0041669D01*
X0156780Y0041872D01*
X0157003Y0042071D01*
X0157230Y0042263D01*
X0157462Y0042450D01*
X0157699Y0042632D01*
X0157940Y0042807D01*
X0158186Y0042977D01*
X0158435Y0043141D01*
X0158688Y0043298D01*
X0158945Y0043449D01*
X0159206Y0043594D01*
X0159470Y0043733D01*
X0159738Y0043865D01*
X0160008Y0043990D01*
X0160282Y0044109D01*
X0160558Y0044221D01*
X0160837Y0044326D01*
X0161119Y0044424D01*
X0161403Y0044516D01*
X0161689Y0044600D01*
X0161977Y0044677D01*
X0162267Y0044748D01*
X0162558Y0044811D01*
X0162851Y0044867D01*
X0163145Y0044916D01*
X0163441Y0044958D01*
X0163737Y0044992D01*
X0164034Y0045020D01*
X0164331Y0045040D01*
X0164629Y0045052D01*
X0164928Y0045058D01*
X0165226Y0045056D01*
X0165524Y0045047D01*
X0165822Y0045030D01*
X0166119Y0045007D01*
X0166416Y0044976D01*
X0166711Y0044937D01*
X0167006Y0044892D01*
X0167300Y0044839D01*
X0167592Y0044779D01*
X0167883Y0044713D01*
X0168171Y0044638D01*
X0168458Y0044557D01*
X0168743Y0044469D01*
X0169026Y0044374D01*
X0169306Y0044273D01*
X0169584Y0044164D01*
X0169859Y0044048D01*
X0170131Y0043926D01*
X0170400Y0043797D01*
X0170666Y0043662D01*
X0170928Y0043520D01*
X0171187Y0043372D01*
X0171442Y0043218D01*
X0171694Y0043057D01*
X0171941Y0042891D01*
X0172184Y0042718D01*
X0172423Y0042539D01*
X0172658Y0042355D01*
X0172887Y0042165D01*
X0173113Y0041969D01*
X0173333Y0041768D01*
X0173548Y0041562D01*
X0173758Y0041350D01*
X0173963Y0041134D01*
X0174163Y0040912D01*
X0174357Y0040685D01*
X0174546Y0040454D01*
X0174728Y0040219D01*
X0174653Y0040162D01*
X0174472Y0040396D01*
X0174285Y0040625D01*
X0174092Y0040850D01*
X0173894Y0041070D01*
X0173691Y0041285D01*
X0173482Y0041495D01*
X0173268Y0041700D01*
X0173050Y0041899D01*
X0172826Y0042093D01*
X0172598Y0042282D01*
X0172366Y0042465D01*
X0172129Y0042642D01*
X0171887Y0042813D01*
X0171642Y0042979D01*
X0171393Y0043138D01*
X0171139Y0043291D01*
X0170883Y0043438D01*
X0170622Y0043579D01*
X0170358Y0043713D01*
X0170091Y0043841D01*
X0169821Y0043962D01*
X0169549Y0044077D01*
X0169273Y0044185D01*
X0168995Y0044286D01*
X0168714Y0044380D01*
X0168432Y0044467D01*
X0168147Y0044548D01*
X0167860Y0044621D01*
X0167572Y0044688D01*
X0167282Y0044747D01*
X0166990Y0044799D01*
X0166698Y0044844D01*
X0166404Y0044882D01*
X0166110Y0044913D01*
X0165815Y0044937D01*
X0165520Y0044953D01*
X0165224Y0044962D01*
X0164928Y0044964D01*
X0164632Y0044958D01*
X0164336Y0044946D01*
X0164041Y0044926D01*
X0163746Y0044899D01*
X0163452Y0044865D01*
X0163159Y0044823D01*
X0162867Y0044775D01*
X0162577Y0044719D01*
X0162288Y0044656D01*
X0162000Y0044586D01*
X0161714Y0044509D01*
X0161430Y0044426D01*
X0161149Y0044335D01*
X0160869Y0044237D01*
X0160592Y0044133D01*
X0160318Y0044022D01*
X0160047Y0043904D01*
X0159778Y0043780D01*
X0159513Y0043649D01*
X0159251Y0043511D01*
X0158992Y0043368D01*
X0158737Y0043218D01*
X0158485Y0043061D01*
X0158238Y0042899D01*
X0157995Y0042731D01*
X0157755Y0042556D01*
X0157520Y0042376D01*
X0157290Y0042191D01*
X0157064Y0041999D01*
X0156843Y0041803D01*
X0156627Y0041601D01*
X0156416Y0041393D01*
X0156210Y0041181D01*
X0156009Y0040963D01*
X0155813Y0040741D01*
X0155623Y0040514D01*
X0155439Y0040283D01*
X0155261Y0040047D01*
X0155088Y0039807D01*
X0154921Y0039562D01*
X0154760Y0039314D01*
X0154605Y0039061D01*
X0154457Y0038805D01*
X0154315Y0038546D01*
X0154179Y0038283D01*
X0154049Y0038017D01*
X0153927Y0037748D01*
X0153810Y0037475D01*
X0153701Y0037200D01*
X0153598Y0036923D01*
X0153502Y0036643D01*
X0153413Y0036361D01*
X0153331Y0036076D01*
X0153256Y0035790D01*
X0153188Y0035502D01*
X0153127Y0035213D01*
X0153073Y0034922D01*
X0153026Y0034629D01*
X0152986Y0034336D01*
X0152954Y0034042D01*
X0152929Y0033747D01*
X0152910Y0033452D01*
X0152900Y0033156D01*
X0152896Y0032860D01*
X0152900Y0032564D01*
X0152910Y0032268D01*
X0152929Y0031973D01*
X0152954Y0031678D01*
X0152986Y0031384D01*
X0153026Y0031091D01*
X0153073Y0030798D01*
X0153127Y0030507D01*
X0153188Y0030218D01*
X0153256Y0029930D01*
X0153331Y0029644D01*
X0153413Y0029359D01*
X0153502Y0029077D01*
X0153598Y0028797D01*
X0153701Y0028520D01*
X0153810Y0028245D01*
X0153927Y0027972D01*
X0154049Y0027703D01*
X0154179Y0027437D01*
X0154315Y0027174D01*
X0154457Y0026915D01*
X0154605Y0026659D01*
X0154760Y0026406D01*
X0154921Y0026158D01*
X0155088Y0025913D01*
X0155261Y0025673D01*
X0155439Y0025437D01*
X0155623Y0025206D01*
X0155813Y0024979D01*
X0156009Y0024757D01*
X0156210Y0024539D01*
X0156416Y0024327D01*
X0156627Y0024119D01*
X0156843Y0023917D01*
X0157064Y0023721D01*
X0157290Y0023529D01*
X0157520Y0023344D01*
X0157755Y0023164D01*
X0157995Y0022989D01*
X0158238Y0022821D01*
X0158485Y0022659D01*
X0158737Y0022502D01*
X0158992Y0022352D01*
X0159251Y0022209D01*
X0159513Y0022071D01*
X0159778Y0021940D01*
X0160047Y0021816D01*
X0160318Y0021698D01*
X0160592Y0021587D01*
X0160869Y0021483D01*
X0161149Y0021385D01*
X0161430Y0021294D01*
X0161714Y0021211D01*
X0162000Y0021134D01*
X0162288Y0021064D01*
X0162577Y0021001D01*
X0162867Y0020945D01*
X0163159Y0020897D01*
X0163452Y0020855D01*
X0163746Y0020821D01*
X0164041Y0020794D01*
X0164336Y0020774D01*
X0164632Y0020762D01*
X0164928Y0020756D01*
X0165224Y0020758D01*
X0165520Y0020767D01*
X0165815Y0020783D01*
X0166110Y0020807D01*
X0166404Y0020838D01*
X0166698Y0020876D01*
X0166990Y0020921D01*
X0167282Y0020973D01*
X0167572Y0021032D01*
X0167860Y0021099D01*
X0168147Y0021172D01*
X0168432Y0021253D01*
X0168714Y0021340D01*
X0168995Y0021434D01*
X0169273Y0021535D01*
X0169549Y0021643D01*
X0169821Y0021758D01*
X0170091Y0021879D01*
X0170358Y0022007D01*
X0170622Y0022141D01*
X0170883Y0022282D01*
X0171139Y0022429D01*
X0171393Y0022582D01*
X0171642Y0022741D01*
X0171887Y0022907D01*
X0172129Y0023078D01*
X0172366Y0023255D01*
X0172598Y0023438D01*
X0172826Y0023627D01*
X0173050Y0023821D01*
X0173268Y0024020D01*
X0173482Y0024225D01*
X0173691Y0024435D01*
X0173894Y0024650D01*
X0174092Y0024870D01*
X0174285Y0025095D01*
X0174472Y0025324D01*
X0174653Y0025558D01*
X0175329Y0120669D02*
X0174609Y0120129D01*
X0174610Y0120130D02*
X0174429Y0120363D01*
X0174243Y0120591D01*
X0174051Y0120815D01*
X0173854Y0121034D01*
X0173652Y0121248D01*
X0173444Y0121457D01*
X0173231Y0121660D01*
X0173014Y0121859D01*
X0172791Y0122052D01*
X0172564Y0122240D01*
X0172333Y0122422D01*
X0172097Y0122599D01*
X0171856Y0122769D01*
X0171612Y0122934D01*
X0171364Y0123092D01*
X0171112Y0123245D01*
X0170856Y0123391D01*
X0170597Y0123531D01*
X0170334Y0123665D01*
X0170069Y0123792D01*
X0169800Y0123913D01*
X0169528Y0124027D01*
X0169254Y0124134D01*
X0168977Y0124235D01*
X0168698Y0124329D01*
X0168416Y0124416D01*
X0168133Y0124496D01*
X0167847Y0124569D01*
X0167560Y0124635D01*
X0167271Y0124694D01*
X0166981Y0124746D01*
X0166690Y0124791D01*
X0166398Y0124829D01*
X0166105Y0124859D01*
X0165811Y0124883D01*
X0165517Y0124899D01*
X0165223Y0124908D01*
X0164928Y0124910D01*
X0164633Y0124904D01*
X0164339Y0124892D01*
X0164045Y0124872D01*
X0163752Y0124845D01*
X0163459Y0124811D01*
X0163167Y0124770D01*
X0162877Y0124721D01*
X0162587Y0124666D01*
X0162300Y0124604D01*
X0162013Y0124534D01*
X0161729Y0124457D01*
X0161446Y0124374D01*
X0161166Y0124284D01*
X0160888Y0124187D01*
X0160612Y0124083D01*
X0160339Y0123972D01*
X0160069Y0123855D01*
X0159801Y0123731D01*
X0159537Y0123601D01*
X0159276Y0123464D01*
X0159019Y0123321D01*
X0158765Y0123171D01*
X0158514Y0123016D01*
X0158268Y0122854D01*
X0158026Y0122687D01*
X0157788Y0122513D01*
X0157554Y0122334D01*
X0157324Y0122149D01*
X0157100Y0121959D01*
X0156879Y0121763D01*
X0156664Y0121562D01*
X0156454Y0121355D01*
X0156249Y0121144D01*
X0156049Y0120927D01*
X0155854Y0120706D01*
X0155665Y0120480D01*
X0155482Y0120250D01*
X0155304Y0120015D01*
X0155132Y0119775D01*
X0154966Y0119532D01*
X0154806Y0119285D01*
X0154652Y0119034D01*
X0154504Y0118779D01*
X0154362Y0118520D01*
X0154227Y0118259D01*
X0154098Y0117994D01*
X0153976Y0117726D01*
X0153860Y0117455D01*
X0153751Y0117181D01*
X0153649Y0116905D01*
X0153554Y0116626D01*
X0153465Y0116345D01*
X0153383Y0116062D01*
X0153308Y0115777D01*
X0153241Y0115490D01*
X0153180Y0115202D01*
X0153126Y0114912D01*
X0153079Y0114621D01*
X0153040Y0114329D01*
X0153008Y0114037D01*
X0152982Y0113743D01*
X0152964Y0113449D01*
X0152954Y0113155D01*
X0152950Y0112860D01*
X0152954Y0112565D01*
X0152964Y0112271D01*
X0152982Y0111977D01*
X0153008Y0111683D01*
X0153040Y0111391D01*
X0153079Y0111099D01*
X0153126Y0110808D01*
X0153180Y0110518D01*
X0153241Y0110230D01*
X0153308Y0109943D01*
X0153383Y0109658D01*
X0153465Y0109375D01*
X0153554Y0109094D01*
X0153649Y0108815D01*
X0153751Y0108539D01*
X0153860Y0108265D01*
X0153976Y0107994D01*
X0154098Y0107726D01*
X0154227Y0107461D01*
X0154362Y0107200D01*
X0154504Y0106941D01*
X0154652Y0106686D01*
X0154806Y0106435D01*
X0154966Y0106188D01*
X0155132Y0105945D01*
X0155304Y0105705D01*
X0155482Y0105470D01*
X0155665Y0105240D01*
X0155854Y0105014D01*
X0156049Y0104793D01*
X0156249Y0104576D01*
X0156454Y0104365D01*
X0156664Y0104158D01*
X0156879Y0103957D01*
X0157100Y0103761D01*
X0157324Y0103571D01*
X0157554Y0103386D01*
X0157788Y0103207D01*
X0158026Y0103033D01*
X0158268Y0102866D01*
X0158514Y0102704D01*
X0158765Y0102549D01*
X0159019Y0102399D01*
X0159276Y0102256D01*
X0159537Y0102119D01*
X0159801Y0101989D01*
X0160069Y0101865D01*
X0160339Y0101748D01*
X0160612Y0101637D01*
X0160888Y0101533D01*
X0161166Y0101436D01*
X0161446Y0101346D01*
X0161729Y0101263D01*
X0162013Y0101186D01*
X0162300Y0101116D01*
X0162587Y0101054D01*
X0162877Y0100999D01*
X0163167Y0100950D01*
X0163459Y0100909D01*
X0163752Y0100875D01*
X0164045Y0100848D01*
X0164339Y0100828D01*
X0164633Y0100816D01*
X0164928Y0100810D01*
X0165223Y0100812D01*
X0165517Y0100821D01*
X0165811Y0100837D01*
X0166105Y0100861D01*
X0166398Y0100891D01*
X0166690Y0100929D01*
X0166981Y0100974D01*
X0167271Y0101026D01*
X0167560Y0101085D01*
X0167847Y0101151D01*
X0168133Y0101224D01*
X0168416Y0101304D01*
X0168698Y0101391D01*
X0168977Y0101485D01*
X0169254Y0101586D01*
X0169528Y0101693D01*
X0169800Y0101807D01*
X0170069Y0101928D01*
X0170334Y0102055D01*
X0170597Y0102189D01*
X0170856Y0102329D01*
X0171112Y0102475D01*
X0171364Y0102628D01*
X0171612Y0102786D01*
X0171856Y0102951D01*
X0172097Y0103121D01*
X0172333Y0103298D01*
X0172564Y0103480D01*
X0172791Y0103668D01*
X0173014Y0103861D01*
X0173231Y0104060D01*
X0173444Y0104263D01*
X0173652Y0104472D01*
X0173854Y0104686D01*
X0174051Y0104905D01*
X0174243Y0105129D01*
X0174429Y0105357D01*
X0174610Y0105590D01*
X0175329Y0105051D01*
X0175330Y0105050D01*
X0175136Y0104800D01*
X0174936Y0104554D01*
X0174730Y0104314D01*
X0174518Y0104079D01*
X0174300Y0103849D01*
X0174077Y0103624D01*
X0173849Y0103405D01*
X0173615Y0103191D01*
X0173376Y0102983D01*
X0173132Y0102781D01*
X0172883Y0102586D01*
X0172629Y0102396D01*
X0172371Y0102213D01*
X0172109Y0102036D01*
X0171842Y0101865D01*
X0171571Y0101701D01*
X0171296Y0101544D01*
X0171018Y0101393D01*
X0170735Y0101249D01*
X0170450Y0101113D01*
X0170161Y0100983D01*
X0169869Y0100860D01*
X0169574Y0100745D01*
X0169277Y0100637D01*
X0168976Y0100536D01*
X0168674Y0100442D01*
X0168369Y0100356D01*
X0168062Y0100277D01*
X0167754Y0100206D01*
X0167444Y0100143D01*
X0167132Y0100087D01*
X0166819Y0100038D01*
X0166505Y0099998D01*
X0166190Y0099965D01*
X0165874Y0099940D01*
X0165558Y0099922D01*
X0165242Y0099912D01*
X0164925Y0099910D01*
X0164608Y0099916D01*
X0164292Y0099929D01*
X0163976Y0099951D01*
X0163661Y0099979D01*
X0163346Y0100016D01*
X0163033Y0100060D01*
X0162720Y0100112D01*
X0162409Y0100172D01*
X0162100Y0100239D01*
X0161792Y0100314D01*
X0161486Y0100396D01*
X0161183Y0100485D01*
X0160881Y0100582D01*
X0160582Y0100687D01*
X0160286Y0100799D01*
X0159992Y0100917D01*
X0159702Y0101043D01*
X0159415Y0101176D01*
X0159130Y0101317D01*
X0158850Y0101464D01*
X0158573Y0101617D01*
X0158300Y0101778D01*
X0158031Y0101945D01*
X0157766Y0102119D01*
X0157506Y0102299D01*
X0157250Y0102485D01*
X0156999Y0102678D01*
X0156752Y0102876D01*
X0156510Y0103081D01*
X0156274Y0103291D01*
X0156042Y0103508D01*
X0155817Y0103730D01*
X0155596Y0103957D01*
X0155381Y0104189D01*
X0155172Y0104427D01*
X0154969Y0104670D01*
X0154771Y0104918D01*
X0154580Y0105170D01*
X0154395Y0105427D01*
X0154217Y0105689D01*
X0154045Y0105955D01*
X0153879Y0106224D01*
X0153720Y0106498D01*
X0153568Y0106776D01*
X0153423Y0107057D01*
X0153284Y0107342D01*
X0153153Y0107630D01*
X0153029Y0107922D01*
X0152911Y0108216D01*
X0152801Y0108513D01*
X0152699Y0108812D01*
X0152604Y0109114D01*
X0152516Y0109418D01*
X0152435Y0109725D01*
X0152362Y0110033D01*
X0152297Y0110343D01*
X0152239Y0110654D01*
X0152189Y0110967D01*
X0152147Y0111281D01*
X0152112Y0111595D01*
X0152085Y0111911D01*
X0152065Y0112227D01*
X0152054Y0112543D01*
X0152050Y0112860D01*
X0152054Y0113177D01*
X0152065Y0113493D01*
X0152085Y0113809D01*
X0152112Y0114125D01*
X0152147Y0114439D01*
X0152189Y0114753D01*
X0152239Y0115066D01*
X0152297Y0115377D01*
X0152362Y0115687D01*
X0152435Y0115995D01*
X0152516Y0116302D01*
X0152604Y0116606D01*
X0152699Y0116908D01*
X0152801Y0117207D01*
X0152911Y0117504D01*
X0153029Y0117798D01*
X0153153Y0118090D01*
X0153284Y0118378D01*
X0153423Y0118663D01*
X0153568Y0118944D01*
X0153720Y0119222D01*
X0153879Y0119496D01*
X0154045Y0119765D01*
X0154217Y0120031D01*
X0154395Y0120293D01*
X0154580Y0120550D01*
X0154771Y0120802D01*
X0154969Y0121050D01*
X0155172Y0121293D01*
X0155381Y0121531D01*
X0155596Y0121763D01*
X0155817Y0121990D01*
X0156042Y0122212D01*
X0156274Y0122429D01*
X0156510Y0122639D01*
X0156752Y0122844D01*
X0156999Y0123042D01*
X0157250Y0123235D01*
X0157506Y0123421D01*
X0157766Y0123601D01*
X0158031Y0123775D01*
X0158300Y0123942D01*
X0158573Y0124103D01*
X0158850Y0124256D01*
X0159130Y0124403D01*
X0159415Y0124544D01*
X0159702Y0124677D01*
X0159992Y0124803D01*
X0160286Y0124921D01*
X0160582Y0125033D01*
X0160881Y0125138D01*
X0161183Y0125235D01*
X0161486Y0125324D01*
X0161792Y0125406D01*
X0162100Y0125481D01*
X0162409Y0125548D01*
X0162720Y0125608D01*
X0163033Y0125660D01*
X0163346Y0125704D01*
X0163661Y0125741D01*
X0163976Y0125769D01*
X0164292Y0125791D01*
X0164608Y0125804D01*
X0164925Y0125810D01*
X0165242Y0125808D01*
X0165558Y0125798D01*
X0165874Y0125780D01*
X0166190Y0125755D01*
X0166505Y0125722D01*
X0166819Y0125682D01*
X0167132Y0125633D01*
X0167444Y0125577D01*
X0167754Y0125514D01*
X0168062Y0125443D01*
X0168369Y0125364D01*
X0168674Y0125278D01*
X0168976Y0125184D01*
X0169277Y0125083D01*
X0169574Y0124975D01*
X0169869Y0124860D01*
X0170161Y0124737D01*
X0170450Y0124607D01*
X0170735Y0124471D01*
X0171018Y0124327D01*
X0171296Y0124176D01*
X0171571Y0124019D01*
X0171842Y0123855D01*
X0172109Y0123684D01*
X0172371Y0123507D01*
X0172629Y0123324D01*
X0172883Y0123134D01*
X0173132Y0122939D01*
X0173376Y0122737D01*
X0173615Y0122529D01*
X0173849Y0122315D01*
X0174077Y0122096D01*
X0174300Y0121871D01*
X0174518Y0121641D01*
X0174730Y0121406D01*
X0174936Y0121166D01*
X0175136Y0120920D01*
X0175330Y0120670D01*
X0175255Y0120614D01*
X0175062Y0120862D01*
X0174863Y0121106D01*
X0174659Y0121344D01*
X0174449Y0121578D01*
X0174233Y0121806D01*
X0174011Y0122029D01*
X0173784Y0122247D01*
X0173552Y0122459D01*
X0173315Y0122665D01*
X0173073Y0122866D01*
X0172825Y0123060D01*
X0172574Y0123248D01*
X0172317Y0123430D01*
X0172057Y0123606D01*
X0171792Y0123775D01*
X0171523Y0123938D01*
X0171250Y0124094D01*
X0170974Y0124244D01*
X0170694Y0124386D01*
X0170410Y0124522D01*
X0170123Y0124651D01*
X0169833Y0124773D01*
X0169541Y0124887D01*
X0169245Y0124995D01*
X0168947Y0125095D01*
X0168647Y0125188D01*
X0168344Y0125273D01*
X0168040Y0125351D01*
X0167734Y0125422D01*
X0167426Y0125485D01*
X0167116Y0125541D01*
X0166806Y0125589D01*
X0166494Y0125629D01*
X0166181Y0125662D01*
X0165868Y0125687D01*
X0165554Y0125704D01*
X0165240Y0125714D01*
X0164925Y0125716D01*
X0164611Y0125710D01*
X0164297Y0125697D01*
X0163983Y0125676D01*
X0163670Y0125647D01*
X0163358Y0125611D01*
X0163047Y0125567D01*
X0162737Y0125515D01*
X0162428Y0125456D01*
X0162121Y0125389D01*
X0161815Y0125315D01*
X0161512Y0125234D01*
X0161210Y0125145D01*
X0160911Y0125048D01*
X0160614Y0124945D01*
X0160320Y0124834D01*
X0160029Y0124716D01*
X0159740Y0124591D01*
X0159455Y0124459D01*
X0159173Y0124320D01*
X0158895Y0124174D01*
X0158620Y0124021D01*
X0158349Y0123862D01*
X0158082Y0123696D01*
X0157819Y0123523D01*
X0157560Y0123345D01*
X0157306Y0123160D01*
X0157057Y0122968D01*
X0156812Y0122771D01*
X0156572Y0122568D01*
X0156337Y0122359D01*
X0156107Y0122144D01*
X0155883Y0121924D01*
X0155664Y0121699D01*
X0155451Y0121468D01*
X0155243Y0121232D01*
X0155041Y0120990D01*
X0154846Y0120745D01*
X0154656Y0120494D01*
X0154472Y0120239D01*
X0154295Y0119979D01*
X0154124Y0119715D01*
X0153960Y0119447D01*
X0153802Y0119175D01*
X0153651Y0118900D01*
X0153507Y0118620D01*
X0153369Y0118338D01*
X0153239Y0118052D01*
X0153115Y0117763D01*
X0152999Y0117470D01*
X0152890Y0117176D01*
X0152788Y0116878D01*
X0152694Y0116579D01*
X0152606Y0116276D01*
X0152526Y0115972D01*
X0152454Y0115667D01*
X0152389Y0115359D01*
X0152332Y0115050D01*
X0152282Y0114739D01*
X0152240Y0114428D01*
X0152205Y0114115D01*
X0152179Y0113802D01*
X0152159Y0113488D01*
X0152148Y0113174D01*
X0152144Y0112860D01*
X0152148Y0112546D01*
X0152159Y0112232D01*
X0152179Y0111918D01*
X0152205Y0111605D01*
X0152240Y0111292D01*
X0152282Y0110981D01*
X0152332Y0110670D01*
X0152389Y0110361D01*
X0152454Y0110053D01*
X0152526Y0109748D01*
X0152606Y0109444D01*
X0152694Y0109141D01*
X0152788Y0108842D01*
X0152890Y0108544D01*
X0152999Y0108250D01*
X0153115Y0107957D01*
X0153239Y0107668D01*
X0153369Y0107382D01*
X0153507Y0107100D01*
X0153651Y0106820D01*
X0153802Y0106545D01*
X0153960Y0106273D01*
X0154124Y0106005D01*
X0154295Y0105741D01*
X0154472Y0105481D01*
X0154656Y0105226D01*
X0154846Y0104975D01*
X0155041Y0104730D01*
X0155243Y0104488D01*
X0155451Y0104252D01*
X0155664Y0104021D01*
X0155883Y0103796D01*
X0156107Y0103576D01*
X0156337Y0103361D01*
X0156572Y0103152D01*
X0156812Y0102949D01*
X0157057Y0102752D01*
X0157306Y0102560D01*
X0157560Y0102375D01*
X0157819Y0102197D01*
X0158082Y0102024D01*
X0158349Y0101858D01*
X0158620Y0101699D01*
X0158895Y0101546D01*
X0159173Y0101400D01*
X0159455Y0101261D01*
X0159740Y0101129D01*
X0160029Y0101004D01*
X0160320Y0100886D01*
X0160614Y0100775D01*
X0160911Y0100672D01*
X0161210Y0100575D01*
X0161512Y0100486D01*
X0161815Y0100405D01*
X0162121Y0100331D01*
X0162428Y0100264D01*
X0162737Y0100205D01*
X0163047Y0100153D01*
X0163358Y0100109D01*
X0163670Y0100073D01*
X0163983Y0100044D01*
X0164297Y0100023D01*
X0164611Y0100010D01*
X0164925Y0100004D01*
X0165240Y0100006D01*
X0165554Y0100016D01*
X0165868Y0100033D01*
X0166181Y0100058D01*
X0166494Y0100091D01*
X0166806Y0100131D01*
X0167116Y0100179D01*
X0167426Y0100235D01*
X0167734Y0100298D01*
X0168040Y0100369D01*
X0168344Y0100447D01*
X0168647Y0100532D01*
X0168947Y0100625D01*
X0169245Y0100725D01*
X0169541Y0100833D01*
X0169833Y0100947D01*
X0170123Y0101069D01*
X0170410Y0101198D01*
X0170694Y0101334D01*
X0170974Y0101476D01*
X0171250Y0101626D01*
X0171523Y0101782D01*
X0171792Y0101945D01*
X0172057Y0102114D01*
X0172317Y0102290D01*
X0172574Y0102472D01*
X0172825Y0102660D01*
X0173073Y0102854D01*
X0173315Y0103055D01*
X0173552Y0103261D01*
X0173784Y0103473D01*
X0174011Y0103691D01*
X0174233Y0103914D01*
X0174449Y0104142D01*
X0174659Y0104376D01*
X0174863Y0104614D01*
X0175062Y0104858D01*
X0175255Y0105106D01*
X0175180Y0105163D01*
X0174988Y0104916D01*
X0174791Y0104674D01*
X0174588Y0104437D01*
X0174379Y0104206D01*
X0174165Y0103979D01*
X0173945Y0103757D01*
X0173720Y0103541D01*
X0173489Y0103331D01*
X0173254Y0103126D01*
X0173013Y0102927D01*
X0172768Y0102734D01*
X0172518Y0102548D01*
X0172264Y0102367D01*
X0172005Y0102192D01*
X0171742Y0102024D01*
X0171475Y0101863D01*
X0171204Y0101708D01*
X0170930Y0101559D01*
X0170652Y0101418D01*
X0170370Y0101283D01*
X0170086Y0101155D01*
X0169798Y0101034D01*
X0169507Y0100920D01*
X0169214Y0100814D01*
X0168918Y0100714D01*
X0168620Y0100622D01*
X0168320Y0100537D01*
X0168017Y0100460D01*
X0167713Y0100390D01*
X0167408Y0100327D01*
X0167101Y0100272D01*
X0166792Y0100224D01*
X0166483Y0100184D01*
X0166172Y0100152D01*
X0165861Y0100127D01*
X0165550Y0100110D01*
X0165238Y0100100D01*
X0164926Y0100098D01*
X0164614Y0100104D01*
X0164302Y0100117D01*
X0163991Y0100138D01*
X0163680Y0100166D01*
X0163370Y0100203D01*
X0163061Y0100246D01*
X0162753Y0100297D01*
X0162446Y0100356D01*
X0162142Y0100422D01*
X0161838Y0100496D01*
X0161537Y0100577D01*
X0161238Y0100665D01*
X0160941Y0100761D01*
X0160646Y0100864D01*
X0160354Y0100974D01*
X0160065Y0101091D01*
X0159778Y0101215D01*
X0159495Y0101346D01*
X0159215Y0101484D01*
X0158939Y0101629D01*
X0158666Y0101781D01*
X0158397Y0101939D01*
X0158132Y0102104D01*
X0157871Y0102275D01*
X0157615Y0102452D01*
X0157362Y0102636D01*
X0157115Y0102826D01*
X0156872Y0103021D01*
X0156633Y0103223D01*
X0156400Y0103431D01*
X0156172Y0103644D01*
X0155950Y0103862D01*
X0155732Y0104086D01*
X0155521Y0104315D01*
X0155315Y0104550D01*
X0155114Y0104789D01*
X0154920Y0105033D01*
X0154732Y0105282D01*
X0154549Y0105535D01*
X0154373Y0105793D01*
X0154204Y0106055D01*
X0154041Y0106321D01*
X0153884Y0106591D01*
X0153734Y0106865D01*
X0153591Y0107142D01*
X0153454Y0107422D01*
X0153325Y0107706D01*
X0153202Y0107993D01*
X0153087Y0108283D01*
X0152979Y0108576D01*
X0152877Y0108871D01*
X0152783Y0109169D01*
X0152697Y0109469D01*
X0152618Y0109770D01*
X0152546Y0110074D01*
X0152481Y0110379D01*
X0152424Y0110686D01*
X0152375Y0110994D01*
X0152333Y0111304D01*
X0152299Y0111614D01*
X0152272Y0111925D01*
X0152253Y0112236D01*
X0152242Y0112548D01*
X0152238Y0112860D01*
X0152242Y0113172D01*
X0152253Y0113484D01*
X0152272Y0113795D01*
X0152299Y0114106D01*
X0152333Y0114416D01*
X0152375Y0114726D01*
X0152424Y0115034D01*
X0152481Y0115341D01*
X0152546Y0115646D01*
X0152618Y0115950D01*
X0152697Y0116251D01*
X0152783Y0116551D01*
X0152877Y0116849D01*
X0152979Y0117144D01*
X0153087Y0117437D01*
X0153202Y0117727D01*
X0153325Y0118014D01*
X0153454Y0118298D01*
X0153591Y0118578D01*
X0153734Y0118855D01*
X0153884Y0119129D01*
X0154041Y0119399D01*
X0154204Y0119665D01*
X0154373Y0119927D01*
X0154549Y0120185D01*
X0154732Y0120438D01*
X0154920Y0120687D01*
X0155114Y0120931D01*
X0155315Y0121170D01*
X0155521Y0121405D01*
X0155732Y0121634D01*
X0155950Y0121858D01*
X0156172Y0122076D01*
X0156400Y0122289D01*
X0156633Y0122497D01*
X0156872Y0122699D01*
X0157115Y0122894D01*
X0157362Y0123084D01*
X0157615Y0123268D01*
X0157871Y0123445D01*
X0158132Y0123616D01*
X0158397Y0123781D01*
X0158666Y0123939D01*
X0158939Y0124091D01*
X0159215Y0124236D01*
X0159495Y0124374D01*
X0159778Y0124505D01*
X0160065Y0124629D01*
X0160354Y0124746D01*
X0160646Y0124856D01*
X0160941Y0124959D01*
X0161238Y0125055D01*
X0161537Y0125143D01*
X0161838Y0125224D01*
X0162142Y0125298D01*
X0162446Y0125364D01*
X0162753Y0125423D01*
X0163061Y0125474D01*
X0163370Y0125517D01*
X0163680Y0125554D01*
X0163991Y0125582D01*
X0164302Y0125603D01*
X0164614Y0125616D01*
X0164926Y0125622D01*
X0165238Y0125620D01*
X0165550Y0125610D01*
X0165861Y0125593D01*
X0166172Y0125568D01*
X0166483Y0125536D01*
X0166792Y0125496D01*
X0167101Y0125448D01*
X0167408Y0125393D01*
X0167713Y0125330D01*
X0168017Y0125260D01*
X0168320Y0125183D01*
X0168620Y0125098D01*
X0168918Y0125006D01*
X0169214Y0124906D01*
X0169507Y0124800D01*
X0169798Y0124686D01*
X0170086Y0124565D01*
X0170370Y0124437D01*
X0170652Y0124302D01*
X0170930Y0124161D01*
X0171204Y0124012D01*
X0171475Y0123857D01*
X0171742Y0123696D01*
X0172005Y0123528D01*
X0172264Y0123353D01*
X0172518Y0123172D01*
X0172768Y0122986D01*
X0173013Y0122793D01*
X0173254Y0122594D01*
X0173489Y0122389D01*
X0173720Y0122179D01*
X0173945Y0121963D01*
X0174165Y0121741D01*
X0174379Y0121514D01*
X0174588Y0121283D01*
X0174791Y0121046D01*
X0174988Y0120804D01*
X0175180Y0120557D01*
X0175104Y0120501D01*
X0174914Y0120746D01*
X0174719Y0120986D01*
X0174517Y0121221D01*
X0174310Y0121451D01*
X0174097Y0121676D01*
X0173879Y0121896D01*
X0173655Y0122110D01*
X0173426Y0122319D01*
X0173193Y0122522D01*
X0172954Y0122720D01*
X0172711Y0122911D01*
X0172462Y0123097D01*
X0172210Y0123276D01*
X0171953Y0123449D01*
X0171692Y0123616D01*
X0171427Y0123777D01*
X0171158Y0123930D01*
X0170886Y0124078D01*
X0170610Y0124218D01*
X0170330Y0124352D01*
X0170048Y0124479D01*
X0169762Y0124599D01*
X0169474Y0124712D01*
X0169183Y0124818D01*
X0168889Y0124916D01*
X0168593Y0125008D01*
X0168295Y0125092D01*
X0167995Y0125169D01*
X0167693Y0125238D01*
X0167390Y0125301D01*
X0167085Y0125355D01*
X0166779Y0125403D01*
X0166471Y0125442D01*
X0166163Y0125474D01*
X0165855Y0125499D01*
X0165545Y0125516D01*
X0165236Y0125526D01*
X0164926Y0125528D01*
X0164616Y0125522D01*
X0164307Y0125509D01*
X0163998Y0125488D01*
X0163689Y0125460D01*
X0163382Y0125424D01*
X0163075Y0125381D01*
X0162769Y0125330D01*
X0162465Y0125272D01*
X0162162Y0125206D01*
X0161861Y0125133D01*
X0161562Y0125053D01*
X0161265Y0124965D01*
X0160970Y0124870D01*
X0160678Y0124768D01*
X0160388Y0124659D01*
X0160101Y0124542D01*
X0159817Y0124419D01*
X0159536Y0124289D01*
X0159258Y0124152D01*
X0158984Y0124008D01*
X0158713Y0123858D01*
X0158446Y0123701D01*
X0158183Y0123537D01*
X0157924Y0123367D01*
X0157669Y0123191D01*
X0157418Y0123009D01*
X0157173Y0122820D01*
X0156931Y0122626D01*
X0156695Y0122426D01*
X0156464Y0122220D01*
X0156237Y0122008D01*
X0156016Y0121791D01*
X0155801Y0121569D01*
X0155590Y0121342D01*
X0155386Y0121109D01*
X0155187Y0120871D01*
X0154994Y0120629D01*
X0154807Y0120382D01*
X0154626Y0120131D01*
X0154452Y0119875D01*
X0154283Y0119615D01*
X0154121Y0119351D01*
X0153966Y0119083D01*
X0153817Y0118811D01*
X0153675Y0118536D01*
X0153539Y0118257D01*
X0153411Y0117976D01*
X0153289Y0117691D01*
X0153175Y0117403D01*
X0153067Y0117112D01*
X0152967Y0116819D01*
X0152873Y0116524D01*
X0152787Y0116226D01*
X0152709Y0115927D01*
X0152638Y0115625D01*
X0152574Y0115322D01*
X0152517Y0115018D01*
X0152468Y0114712D01*
X0152427Y0114405D01*
X0152393Y0114097D01*
X0152366Y0113788D01*
X0152347Y0113479D01*
X0152336Y0113170D01*
X0152332Y0112860D01*
X0152336Y0112550D01*
X0152347Y0112241D01*
X0152366Y0111932D01*
X0152393Y0111623D01*
X0152427Y0111315D01*
X0152468Y0111008D01*
X0152517Y0110702D01*
X0152574Y0110398D01*
X0152638Y0110095D01*
X0152709Y0109793D01*
X0152787Y0109494D01*
X0152873Y0109196D01*
X0152967Y0108901D01*
X0153067Y0108608D01*
X0153175Y0108317D01*
X0153289Y0108029D01*
X0153411Y0107744D01*
X0153539Y0107463D01*
X0153675Y0107184D01*
X0153817Y0106909D01*
X0153966Y0106637D01*
X0154121Y0106369D01*
X0154283Y0106105D01*
X0154452Y0105845D01*
X0154626Y0105589D01*
X0154807Y0105338D01*
X0154994Y0105091D01*
X0155187Y0104849D01*
X0155386Y0104611D01*
X0155590Y0104378D01*
X0155801Y0104151D01*
X0156016Y0103929D01*
X0156237Y0103712D01*
X0156464Y0103500D01*
X0156695Y0103294D01*
X0156931Y0103094D01*
X0157173Y0102900D01*
X0157418Y0102711D01*
X0157669Y0102529D01*
X0157924Y0102353D01*
X0158183Y0102183D01*
X0158446Y0102019D01*
X0158713Y0101862D01*
X0158984Y0101712D01*
X0159258Y0101568D01*
X0159536Y0101431D01*
X0159817Y0101301D01*
X0160101Y0101178D01*
X0160388Y0101061D01*
X0160678Y0100952D01*
X0160970Y0100850D01*
X0161265Y0100755D01*
X0161562Y0100667D01*
X0161861Y0100587D01*
X0162162Y0100514D01*
X0162465Y0100448D01*
X0162769Y0100390D01*
X0163075Y0100339D01*
X0163382Y0100296D01*
X0163689Y0100260D01*
X0163998Y0100232D01*
X0164307Y0100211D01*
X0164616Y0100198D01*
X0164926Y0100192D01*
X0165236Y0100194D01*
X0165545Y0100204D01*
X0165855Y0100221D01*
X0166163Y0100246D01*
X0166471Y0100278D01*
X0166779Y0100317D01*
X0167085Y0100365D01*
X0167390Y0100419D01*
X0167693Y0100482D01*
X0167995Y0100551D01*
X0168295Y0100628D01*
X0168593Y0100712D01*
X0168889Y0100804D01*
X0169183Y0100902D01*
X0169474Y0101008D01*
X0169762Y0101121D01*
X0170048Y0101241D01*
X0170330Y0101368D01*
X0170610Y0101502D01*
X0170886Y0101642D01*
X0171158Y0101790D01*
X0171427Y0101943D01*
X0171692Y0102104D01*
X0171953Y0102271D01*
X0172210Y0102444D01*
X0172462Y0102623D01*
X0172711Y0102809D01*
X0172954Y0103000D01*
X0173193Y0103198D01*
X0173426Y0103401D01*
X0173655Y0103610D01*
X0173879Y0103824D01*
X0174097Y0104044D01*
X0174310Y0104269D01*
X0174517Y0104499D01*
X0174719Y0104734D01*
X0174914Y0104974D01*
X0175104Y0105219D01*
X0175029Y0105276D01*
X0174841Y0105033D01*
X0174646Y0104794D01*
X0174446Y0104561D01*
X0174241Y0104333D01*
X0174029Y0104109D01*
X0173813Y0103891D01*
X0173591Y0103678D01*
X0173364Y0103471D01*
X0173132Y0103269D01*
X0172895Y0103073D01*
X0172653Y0102883D01*
X0172407Y0102699D01*
X0172156Y0102521D01*
X0171901Y0102349D01*
X0171642Y0102184D01*
X0171379Y0102024D01*
X0171112Y0101872D01*
X0170842Y0101725D01*
X0170568Y0101586D01*
X0170291Y0101453D01*
X0170010Y0101327D01*
X0169727Y0101208D01*
X0169440Y0101096D01*
X0169151Y0100991D01*
X0168860Y0100893D01*
X0168566Y0100802D01*
X0168270Y0100719D01*
X0167973Y0100642D01*
X0167673Y0100573D01*
X0167372Y0100512D01*
X0167069Y0100457D01*
X0166765Y0100411D01*
X0166460Y0100371D01*
X0166155Y0100339D01*
X0165848Y0100315D01*
X0165541Y0100298D01*
X0165234Y0100288D01*
X0164926Y0100286D01*
X0164619Y0100292D01*
X0164312Y0100305D01*
X0164005Y0100325D01*
X0163699Y0100354D01*
X0163393Y0100389D01*
X0163089Y0100432D01*
X0162786Y0100483D01*
X0162484Y0100540D01*
X0162183Y0100606D01*
X0161884Y0100678D01*
X0161588Y0100758D01*
X0161293Y0100845D01*
X0161000Y0100939D01*
X0160710Y0101041D01*
X0160422Y0101149D01*
X0160137Y0101264D01*
X0159855Y0101387D01*
X0159576Y0101516D01*
X0159300Y0101652D01*
X0159028Y0101795D01*
X0158759Y0101944D01*
X0158494Y0102100D01*
X0158233Y0102262D01*
X0157976Y0102431D01*
X0157723Y0102606D01*
X0157475Y0102787D01*
X0157231Y0102974D01*
X0156991Y0103167D01*
X0156757Y0103365D01*
X0156527Y0103570D01*
X0156302Y0103780D01*
X0156083Y0103995D01*
X0155869Y0104216D01*
X0155660Y0104441D01*
X0155457Y0104672D01*
X0155260Y0104908D01*
X0155068Y0105149D01*
X0154883Y0105394D01*
X0154703Y0105643D01*
X0154530Y0105897D01*
X0154363Y0106155D01*
X0154202Y0106417D01*
X0154048Y0106683D01*
X0153900Y0106953D01*
X0153759Y0107226D01*
X0153624Y0107503D01*
X0153497Y0107782D01*
X0153376Y0108065D01*
X0153262Y0108351D01*
X0153156Y0108639D01*
X0153056Y0108930D01*
X0152963Y0109223D01*
X0152878Y0109519D01*
X0152800Y0109816D01*
X0152729Y0110115D01*
X0152666Y0110416D01*
X0152610Y0110718D01*
X0152561Y0111022D01*
X0152520Y0111327D01*
X0152486Y0111632D01*
X0152460Y0111938D01*
X0152441Y0112245D01*
X0152430Y0112553D01*
X0152426Y0112860D01*
X0152430Y0113167D01*
X0152441Y0113475D01*
X0152460Y0113782D01*
X0152486Y0114088D01*
X0152520Y0114393D01*
X0152561Y0114698D01*
X0152610Y0115002D01*
X0152666Y0115304D01*
X0152729Y0115605D01*
X0152800Y0115904D01*
X0152878Y0116201D01*
X0152963Y0116497D01*
X0153056Y0116790D01*
X0153156Y0117081D01*
X0153262Y0117369D01*
X0153376Y0117655D01*
X0153497Y0117938D01*
X0153624Y0118217D01*
X0153759Y0118494D01*
X0153900Y0118767D01*
X0154048Y0119037D01*
X0154202Y0119303D01*
X0154363Y0119565D01*
X0154530Y0119823D01*
X0154703Y0120077D01*
X0154883Y0120326D01*
X0155068Y0120571D01*
X0155260Y0120812D01*
X0155457Y0121048D01*
X0155660Y0121279D01*
X0155869Y0121504D01*
X0156083Y0121725D01*
X0156302Y0121940D01*
X0156527Y0122150D01*
X0156757Y0122355D01*
X0156991Y0122553D01*
X0157231Y0122746D01*
X0157475Y0122933D01*
X0157723Y0123114D01*
X0157976Y0123289D01*
X0158233Y0123458D01*
X0158494Y0123620D01*
X0158759Y0123776D01*
X0159028Y0123925D01*
X0159300Y0124068D01*
X0159576Y0124204D01*
X0159855Y0124333D01*
X0160137Y0124456D01*
X0160422Y0124571D01*
X0160710Y0124679D01*
X0161000Y0124781D01*
X0161293Y0124875D01*
X0161588Y0124962D01*
X0161884Y0125042D01*
X0162183Y0125114D01*
X0162484Y0125180D01*
X0162786Y0125237D01*
X0163089Y0125288D01*
X0163393Y0125331D01*
X0163699Y0125366D01*
X0164005Y0125395D01*
X0164312Y0125415D01*
X0164619Y0125428D01*
X0164926Y0125434D01*
X0165234Y0125432D01*
X0165541Y0125422D01*
X0165848Y0125405D01*
X0166155Y0125381D01*
X0166460Y0125349D01*
X0166765Y0125309D01*
X0167069Y0125263D01*
X0167372Y0125208D01*
X0167673Y0125147D01*
X0167973Y0125078D01*
X0168270Y0125001D01*
X0168566Y0124918D01*
X0168860Y0124827D01*
X0169151Y0124729D01*
X0169440Y0124624D01*
X0169727Y0124512D01*
X0170010Y0124393D01*
X0170291Y0124267D01*
X0170568Y0124134D01*
X0170842Y0123995D01*
X0171112Y0123848D01*
X0171379Y0123696D01*
X0171642Y0123536D01*
X0171901Y0123371D01*
X0172156Y0123199D01*
X0172407Y0123021D01*
X0172653Y0122837D01*
X0172895Y0122647D01*
X0173132Y0122451D01*
X0173364Y0122249D01*
X0173591Y0122042D01*
X0173813Y0121829D01*
X0174029Y0121611D01*
X0174241Y0121387D01*
X0174446Y0121159D01*
X0174646Y0120926D01*
X0174841Y0120687D01*
X0175029Y0120444D01*
X0174954Y0120388D01*
X0174767Y0120629D01*
X0174574Y0120866D01*
X0174375Y0121097D01*
X0174171Y0121324D01*
X0173962Y0121546D01*
X0173747Y0121762D01*
X0173526Y0121973D01*
X0173301Y0122179D01*
X0173071Y0122379D01*
X0172835Y0122574D01*
X0172596Y0122762D01*
X0172351Y0122945D01*
X0172102Y0123122D01*
X0171849Y0123292D01*
X0171592Y0123457D01*
X0171331Y0123615D01*
X0171066Y0123766D01*
X0170798Y0123911D01*
X0170526Y0124050D01*
X0170251Y0124182D01*
X0169972Y0124307D01*
X0169691Y0124425D01*
X0169407Y0124536D01*
X0169120Y0124640D01*
X0168831Y0124738D01*
X0168539Y0124828D01*
X0168246Y0124911D01*
X0167950Y0124986D01*
X0167653Y0125055D01*
X0167354Y0125116D01*
X0167053Y0125170D01*
X0166752Y0125216D01*
X0166449Y0125256D01*
X0166146Y0125287D01*
X0165841Y0125312D01*
X0165537Y0125328D01*
X0165232Y0125338D01*
X0164927Y0125340D01*
X0164622Y0125334D01*
X0164317Y0125321D01*
X0164012Y0125301D01*
X0163708Y0125273D01*
X0163405Y0125238D01*
X0163103Y0125195D01*
X0162802Y0125145D01*
X0162502Y0125088D01*
X0162204Y0125023D01*
X0161908Y0124951D01*
X0161613Y0124872D01*
X0161320Y0124785D01*
X0161030Y0124692D01*
X0160742Y0124591D01*
X0160456Y0124483D01*
X0160173Y0124369D01*
X0159893Y0124247D01*
X0159616Y0124119D01*
X0159343Y0123984D01*
X0159073Y0123843D01*
X0158806Y0123694D01*
X0158543Y0123540D01*
X0158284Y0123379D01*
X0158028Y0123211D01*
X0157777Y0123038D01*
X0157531Y0122858D01*
X0157289Y0122672D01*
X0157051Y0122481D01*
X0156818Y0122284D01*
X0156590Y0122081D01*
X0156367Y0121872D01*
X0156149Y0121659D01*
X0155937Y0121440D01*
X0155730Y0121216D01*
X0155528Y0120986D01*
X0155332Y0120752D01*
X0155142Y0120514D01*
X0154958Y0120270D01*
X0154780Y0120023D01*
X0154608Y0119771D01*
X0154442Y0119514D01*
X0154283Y0119254D01*
X0154129Y0118990D01*
X0153983Y0118723D01*
X0153843Y0118452D01*
X0153709Y0118177D01*
X0153583Y0117900D01*
X0153463Y0117619D01*
X0153350Y0117335D01*
X0153244Y0117049D01*
X0153145Y0116761D01*
X0153053Y0116470D01*
X0152969Y0116176D01*
X0152891Y0115881D01*
X0152821Y0115584D01*
X0152758Y0115286D01*
X0152702Y0114986D01*
X0152654Y0114684D01*
X0152613Y0114382D01*
X0152580Y0114079D01*
X0152554Y0113775D01*
X0152535Y0113470D01*
X0152524Y0113165D01*
X0152520Y0112860D01*
X0152524Y0112555D01*
X0152535Y0112250D01*
X0152554Y0111945D01*
X0152580Y0111641D01*
X0152613Y0111338D01*
X0152654Y0111036D01*
X0152702Y0110734D01*
X0152758Y0110434D01*
X0152821Y0110136D01*
X0152891Y0109839D01*
X0152969Y0109544D01*
X0153053Y0109250D01*
X0153145Y0108959D01*
X0153244Y0108671D01*
X0153350Y0108385D01*
X0153463Y0108101D01*
X0153583Y0107820D01*
X0153709Y0107543D01*
X0153843Y0107268D01*
X0153983Y0106997D01*
X0154129Y0106730D01*
X0154283Y0106466D01*
X0154442Y0106206D01*
X0154608Y0105949D01*
X0154780Y0105697D01*
X0154958Y0105450D01*
X0155142Y0105206D01*
X0155332Y0104968D01*
X0155528Y0104734D01*
X0155730Y0104504D01*
X0155937Y0104280D01*
X0156149Y0104061D01*
X0156367Y0103848D01*
X0156590Y0103639D01*
X0156818Y0103436D01*
X0157051Y0103239D01*
X0157289Y0103048D01*
X0157531Y0102862D01*
X0157777Y0102682D01*
X0158028Y0102509D01*
X0158284Y0102341D01*
X0158543Y0102180D01*
X0158806Y0102026D01*
X0159073Y0101877D01*
X0159343Y0101736D01*
X0159616Y0101601D01*
X0159893Y0101473D01*
X0160173Y0101351D01*
X0160456Y0101237D01*
X0160742Y0101129D01*
X0161030Y0101028D01*
X0161320Y0100935D01*
X0161613Y0100848D01*
X0161908Y0100769D01*
X0162204Y0100697D01*
X0162502Y0100632D01*
X0162802Y0100575D01*
X0163103Y0100525D01*
X0163405Y0100482D01*
X0163708Y0100447D01*
X0164012Y0100419D01*
X0164317Y0100399D01*
X0164622Y0100386D01*
X0164927Y0100380D01*
X0165232Y0100382D01*
X0165537Y0100392D01*
X0165841Y0100408D01*
X0166146Y0100433D01*
X0166449Y0100464D01*
X0166752Y0100504D01*
X0167053Y0100550D01*
X0167354Y0100604D01*
X0167653Y0100665D01*
X0167950Y0100734D01*
X0168246Y0100809D01*
X0168539Y0100892D01*
X0168831Y0100982D01*
X0169120Y0101080D01*
X0169407Y0101184D01*
X0169691Y0101295D01*
X0169972Y0101413D01*
X0170251Y0101538D01*
X0170526Y0101670D01*
X0170798Y0101809D01*
X0171066Y0101954D01*
X0171331Y0102105D01*
X0171592Y0102263D01*
X0171849Y0102428D01*
X0172102Y0102598D01*
X0172351Y0102775D01*
X0172596Y0102958D01*
X0172835Y0103146D01*
X0173071Y0103341D01*
X0173301Y0103541D01*
X0173526Y0103747D01*
X0173747Y0103958D01*
X0173962Y0104174D01*
X0174171Y0104396D01*
X0174375Y0104623D01*
X0174574Y0104854D01*
X0174767Y0105091D01*
X0174954Y0105332D01*
X0174879Y0105388D01*
X0174693Y0105149D01*
X0174502Y0104914D01*
X0174305Y0104685D01*
X0174102Y0104460D01*
X0173894Y0104239D01*
X0173680Y0104025D01*
X0173462Y0103815D01*
X0173238Y0103611D01*
X0173010Y0103412D01*
X0172776Y0103219D01*
X0172538Y0103032D01*
X0172296Y0102851D01*
X0172049Y0102675D01*
X0171798Y0102506D01*
X0171542Y0102343D01*
X0171283Y0102186D01*
X0171020Y0102036D01*
X0170754Y0101892D01*
X0170484Y0101754D01*
X0170211Y0101623D01*
X0169935Y0101499D01*
X0169655Y0101382D01*
X0169373Y0101272D01*
X0169089Y0101168D01*
X0168802Y0101072D01*
X0168512Y0100982D01*
X0168221Y0100900D01*
X0167928Y0100825D01*
X0167632Y0100757D01*
X0167336Y0100696D01*
X0167038Y0100643D01*
X0166738Y0100597D01*
X0166438Y0100558D01*
X0166137Y0100526D01*
X0165835Y0100502D01*
X0165532Y0100485D01*
X0165230Y0100476D01*
X0164927Y0100474D01*
X0164624Y0100480D01*
X0164322Y0100493D01*
X0164019Y0100513D01*
X0163718Y0100541D01*
X0163417Y0100576D01*
X0163117Y0100618D01*
X0162818Y0100668D01*
X0162521Y0100725D01*
X0162225Y0100789D01*
X0161931Y0100860D01*
X0161638Y0100939D01*
X0161348Y0101025D01*
X0161059Y0101118D01*
X0160774Y0101217D01*
X0160490Y0101324D01*
X0160210Y0101438D01*
X0159932Y0101558D01*
X0159657Y0101686D01*
X0159385Y0101820D01*
X0159117Y0101960D01*
X0158852Y0102107D01*
X0158591Y0102261D01*
X0158334Y0102421D01*
X0158081Y0102587D01*
X0157832Y0102759D01*
X0157587Y0102937D01*
X0157346Y0103122D01*
X0157111Y0103312D01*
X0156880Y0103507D01*
X0156653Y0103709D01*
X0156432Y0103915D01*
X0156216Y0104128D01*
X0156005Y0104345D01*
X0155800Y0104567D01*
X0155600Y0104795D01*
X0155405Y0105027D01*
X0155217Y0105264D01*
X0155034Y0105506D01*
X0154857Y0105751D01*
X0154686Y0106002D01*
X0154522Y0106256D01*
X0154363Y0106514D01*
X0154211Y0106776D01*
X0154066Y0107041D01*
X0153927Y0107310D01*
X0153794Y0107583D01*
X0153669Y0107858D01*
X0153550Y0108137D01*
X0153438Y0108418D01*
X0153333Y0108702D01*
X0153234Y0108989D01*
X0153143Y0109278D01*
X0153059Y0109569D01*
X0152982Y0109862D01*
X0152913Y0110156D01*
X0152850Y0110453D01*
X0152795Y0110750D01*
X0152747Y0111049D01*
X0152706Y0111349D01*
X0152673Y0111651D01*
X0152647Y0111952D01*
X0152629Y0112255D01*
X0152618Y0112557D01*
X0152614Y0112860D01*
X0152618Y0113163D01*
X0152629Y0113465D01*
X0152647Y0113768D01*
X0152673Y0114069D01*
X0152706Y0114371D01*
X0152747Y0114671D01*
X0152795Y0114970D01*
X0152850Y0115267D01*
X0152913Y0115564D01*
X0152982Y0115858D01*
X0153059Y0116151D01*
X0153143Y0116442D01*
X0153234Y0116731D01*
X0153333Y0117018D01*
X0153438Y0117302D01*
X0153550Y0117583D01*
X0153669Y0117862D01*
X0153794Y0118137D01*
X0153927Y0118410D01*
X0154066Y0118679D01*
X0154211Y0118944D01*
X0154363Y0119206D01*
X0154522Y0119464D01*
X0154686Y0119718D01*
X0154857Y0119969D01*
X0155034Y0120214D01*
X0155217Y0120456D01*
X0155405Y0120693D01*
X0155600Y0120925D01*
X0155800Y0121153D01*
X0156005Y0121375D01*
X0156216Y0121592D01*
X0156432Y0121805D01*
X0156653Y0122011D01*
X0156880Y0122213D01*
X0157111Y0122408D01*
X0157346Y0122598D01*
X0157587Y0122783D01*
X0157832Y0122961D01*
X0158081Y0123133D01*
X0158334Y0123299D01*
X0158591Y0123459D01*
X0158852Y0123613D01*
X0159117Y0123760D01*
X0159385Y0123900D01*
X0159657Y0124034D01*
X0159932Y0124162D01*
X0160210Y0124282D01*
X0160490Y0124396D01*
X0160774Y0124503D01*
X0161059Y0124602D01*
X0161348Y0124695D01*
X0161638Y0124781D01*
X0161931Y0124860D01*
X0162225Y0124931D01*
X0162521Y0124995D01*
X0162818Y0125052D01*
X0163117Y0125102D01*
X0163417Y0125144D01*
X0163718Y0125179D01*
X0164019Y0125207D01*
X0164322Y0125227D01*
X0164624Y0125240D01*
X0164927Y0125246D01*
X0165230Y0125244D01*
X0165532Y0125235D01*
X0165835Y0125218D01*
X0166137Y0125194D01*
X0166438Y0125162D01*
X0166738Y0125123D01*
X0167038Y0125077D01*
X0167336Y0125024D01*
X0167632Y0124963D01*
X0167928Y0124895D01*
X0168221Y0124820D01*
X0168512Y0124738D01*
X0168802Y0124648D01*
X0169089Y0124552D01*
X0169373Y0124448D01*
X0169655Y0124338D01*
X0169935Y0124221D01*
X0170211Y0124097D01*
X0170484Y0123966D01*
X0170754Y0123828D01*
X0171020Y0123684D01*
X0171283Y0123534D01*
X0171542Y0123377D01*
X0171798Y0123214D01*
X0172049Y0123045D01*
X0172296Y0122869D01*
X0172538Y0122688D01*
X0172776Y0122501D01*
X0173010Y0122308D01*
X0173238Y0122109D01*
X0173462Y0121905D01*
X0173680Y0121695D01*
X0173894Y0121481D01*
X0174102Y0121260D01*
X0174305Y0121035D01*
X0174502Y0120806D01*
X0174693Y0120571D01*
X0174879Y0120332D01*
X0174804Y0120275D01*
X0174619Y0120513D01*
X0174429Y0120745D01*
X0174234Y0120974D01*
X0174033Y0121197D01*
X0173826Y0121415D01*
X0173614Y0121629D01*
X0173397Y0121837D01*
X0173175Y0122039D01*
X0172948Y0122236D01*
X0172717Y0122428D01*
X0172481Y0122614D01*
X0172240Y0122794D01*
X0171995Y0122968D01*
X0171746Y0123136D01*
X0171492Y0123298D01*
X0171235Y0123453D01*
X0170974Y0123602D01*
X0170710Y0123745D01*
X0170442Y0123882D01*
X0170171Y0124011D01*
X0169897Y0124134D01*
X0169620Y0124251D01*
X0169340Y0124360D01*
X0169057Y0124463D01*
X0168773Y0124559D01*
X0168485Y0124647D01*
X0168196Y0124729D01*
X0167905Y0124804D01*
X0167612Y0124871D01*
X0167318Y0124932D01*
X0167022Y0124985D01*
X0166725Y0125030D01*
X0166427Y0125069D01*
X0166128Y0125100D01*
X0165828Y0125124D01*
X0165528Y0125141D01*
X0165228Y0125150D01*
X0164927Y0125152D01*
X0164627Y0125146D01*
X0164326Y0125134D01*
X0164027Y0125113D01*
X0163727Y0125086D01*
X0163429Y0125051D01*
X0163131Y0125009D01*
X0162835Y0124960D01*
X0162540Y0124903D01*
X0162246Y0124839D01*
X0161954Y0124769D01*
X0161664Y0124691D01*
X0161375Y0124605D01*
X0161089Y0124513D01*
X0160805Y0124414D01*
X0160524Y0124308D01*
X0160246Y0124195D01*
X0159970Y0124076D01*
X0159697Y0123949D01*
X0159428Y0123816D01*
X0159162Y0123677D01*
X0158899Y0123531D01*
X0158640Y0123379D01*
X0158384Y0123220D01*
X0158133Y0123055D01*
X0157886Y0122884D01*
X0157643Y0122707D01*
X0157404Y0122524D01*
X0157170Y0122336D01*
X0156941Y0122142D01*
X0156717Y0121942D01*
X0156497Y0121737D01*
X0156283Y0121526D01*
X0156073Y0121310D01*
X0155869Y0121090D01*
X0155671Y0120864D01*
X0155478Y0120633D01*
X0155291Y0120398D01*
X0155109Y0120159D01*
X0154934Y0119915D01*
X0154764Y0119666D01*
X0154601Y0119414D01*
X0154444Y0119158D01*
X0154293Y0118898D01*
X0154149Y0118634D01*
X0154011Y0118367D01*
X0153879Y0118097D01*
X0153755Y0117824D01*
X0153637Y0117547D01*
X0153526Y0117268D01*
X0153421Y0116986D01*
X0153324Y0116702D01*
X0153233Y0116415D01*
X0153150Y0116126D01*
X0153074Y0115836D01*
X0153004Y0115543D01*
X0152942Y0115249D01*
X0152888Y0114954D01*
X0152840Y0114657D01*
X0152800Y0114359D01*
X0152767Y0114060D01*
X0152741Y0113761D01*
X0152723Y0113461D01*
X0152712Y0113161D01*
X0152708Y0112860D01*
X0152712Y0112559D01*
X0152723Y0112259D01*
X0152741Y0111959D01*
X0152767Y0111660D01*
X0152800Y0111361D01*
X0152840Y0111063D01*
X0152888Y0110766D01*
X0152942Y0110471D01*
X0153004Y0110177D01*
X0153074Y0109884D01*
X0153150Y0109594D01*
X0153233Y0109305D01*
X0153324Y0109018D01*
X0153421Y0108734D01*
X0153526Y0108452D01*
X0153637Y0108173D01*
X0153755Y0107896D01*
X0153879Y0107623D01*
X0154011Y0107353D01*
X0154149Y0107086D01*
X0154293Y0106822D01*
X0154444Y0106562D01*
X0154601Y0106306D01*
X0154764Y0106054D01*
X0154934Y0105805D01*
X0155109Y0105561D01*
X0155291Y0105322D01*
X0155478Y0105087D01*
X0155671Y0104856D01*
X0155869Y0104630D01*
X0156073Y0104410D01*
X0156283Y0104194D01*
X0156497Y0103983D01*
X0156717Y0103778D01*
X0156941Y0103578D01*
X0157170Y0103384D01*
X0157404Y0103196D01*
X0157643Y0103013D01*
X0157886Y0102836D01*
X0158133Y0102665D01*
X0158384Y0102500D01*
X0158640Y0102341D01*
X0158899Y0102189D01*
X0159162Y0102043D01*
X0159428Y0101904D01*
X0159697Y0101771D01*
X0159970Y0101644D01*
X0160246Y0101525D01*
X0160524Y0101412D01*
X0160805Y0101306D01*
X0161089Y0101207D01*
X0161375Y0101115D01*
X0161664Y0101029D01*
X0161954Y0100951D01*
X0162246Y0100881D01*
X0162540Y0100817D01*
X0162835Y0100760D01*
X0163131Y0100711D01*
X0163429Y0100669D01*
X0163727Y0100634D01*
X0164027Y0100607D01*
X0164326Y0100586D01*
X0164627Y0100574D01*
X0164927Y0100568D01*
X0165228Y0100570D01*
X0165528Y0100579D01*
X0165828Y0100596D01*
X0166128Y0100620D01*
X0166427Y0100651D01*
X0166725Y0100690D01*
X0167022Y0100735D01*
X0167318Y0100788D01*
X0167612Y0100849D01*
X0167905Y0100916D01*
X0168196Y0100991D01*
X0168485Y0101073D01*
X0168773Y0101161D01*
X0169057Y0101257D01*
X0169340Y0101360D01*
X0169620Y0101469D01*
X0169897Y0101586D01*
X0170171Y0101709D01*
X0170442Y0101838D01*
X0170710Y0101975D01*
X0170974Y0102118D01*
X0171235Y0102267D01*
X0171492Y0102422D01*
X0171746Y0102584D01*
X0171995Y0102752D01*
X0172240Y0102926D01*
X0172481Y0103106D01*
X0172717Y0103292D01*
X0172948Y0103484D01*
X0173175Y0103681D01*
X0173397Y0103883D01*
X0173614Y0104091D01*
X0173826Y0104305D01*
X0174033Y0104523D01*
X0174234Y0104746D01*
X0174429Y0104975D01*
X0174619Y0105207D01*
X0174804Y0105445D01*
X0174728Y0105501D01*
X0174546Y0105266D01*
X0174357Y0105035D01*
X0174163Y0104808D01*
X0173963Y0104586D01*
X0173758Y0104370D01*
X0173548Y0104158D01*
X0173333Y0103952D01*
X0173113Y0103751D01*
X0172887Y0103555D01*
X0172658Y0103365D01*
X0172423Y0103181D01*
X0172184Y0103002D01*
X0171941Y0102829D01*
X0171694Y0102663D01*
X0171442Y0102502D01*
X0171187Y0102348D01*
X0170928Y0102200D01*
X0170666Y0102058D01*
X0170400Y0101923D01*
X0170131Y0101794D01*
X0169859Y0101672D01*
X0169584Y0101556D01*
X0169306Y0101447D01*
X0169026Y0101346D01*
X0168743Y0101251D01*
X0168458Y0101163D01*
X0168171Y0101082D01*
X0167883Y0101007D01*
X0167592Y0100941D01*
X0167300Y0100881D01*
X0167006Y0100828D01*
X0166711Y0100783D01*
X0166416Y0100744D01*
X0166119Y0100713D01*
X0165822Y0100690D01*
X0165524Y0100673D01*
X0165226Y0100664D01*
X0164928Y0100662D01*
X0164629Y0100668D01*
X0164331Y0100680D01*
X0164034Y0100700D01*
X0163737Y0100728D01*
X0163441Y0100762D01*
X0163145Y0100804D01*
X0162851Y0100853D01*
X0162558Y0100909D01*
X0162267Y0100972D01*
X0161977Y0101043D01*
X0161689Y0101120D01*
X0161403Y0101204D01*
X0161119Y0101296D01*
X0160837Y0101394D01*
X0160558Y0101499D01*
X0160282Y0101611D01*
X0160008Y0101730D01*
X0159738Y0101855D01*
X0159470Y0101987D01*
X0159206Y0102126D01*
X0158945Y0102271D01*
X0158688Y0102422D01*
X0158435Y0102579D01*
X0158186Y0102743D01*
X0157940Y0102913D01*
X0157699Y0103088D01*
X0157462Y0103270D01*
X0157230Y0103457D01*
X0157003Y0103649D01*
X0156780Y0103848D01*
X0156562Y0104051D01*
X0156349Y0104260D01*
X0156141Y0104474D01*
X0155939Y0104694D01*
X0155742Y0104917D01*
X0155551Y0105146D01*
X0155365Y0105380D01*
X0155185Y0105617D01*
X0155011Y0105859D01*
X0154843Y0106106D01*
X0154681Y0106356D01*
X0154525Y0106610D01*
X0154375Y0106868D01*
X0154232Y0107130D01*
X0154095Y0107395D01*
X0153964Y0107663D01*
X0153841Y0107934D01*
X0153724Y0108209D01*
X0153613Y0108486D01*
X0153510Y0108766D01*
X0153413Y0109048D01*
X0153323Y0109332D01*
X0153241Y0109619D01*
X0153165Y0109907D01*
X0153096Y0110197D01*
X0153035Y0110489D01*
X0152980Y0110782D01*
X0152933Y0111077D01*
X0152893Y0111372D01*
X0152860Y0111669D01*
X0152835Y0111966D01*
X0152817Y0112264D01*
X0152806Y0112562D01*
X0152802Y0112860D01*
X0152806Y0113158D01*
X0152817Y0113456D01*
X0152835Y0113754D01*
X0152860Y0114051D01*
X0152893Y0114348D01*
X0152933Y0114643D01*
X0152980Y0114938D01*
X0153035Y0115231D01*
X0153096Y0115523D01*
X0153165Y0115813D01*
X0153241Y0116101D01*
X0153323Y0116388D01*
X0153413Y0116672D01*
X0153510Y0116954D01*
X0153613Y0117234D01*
X0153724Y0117511D01*
X0153841Y0117786D01*
X0153964Y0118057D01*
X0154095Y0118325D01*
X0154232Y0118590D01*
X0154375Y0118852D01*
X0154525Y0119110D01*
X0154681Y0119364D01*
X0154843Y0119614D01*
X0155011Y0119861D01*
X0155185Y0120103D01*
X0155365Y0120340D01*
X0155551Y0120574D01*
X0155742Y0120803D01*
X0155939Y0121026D01*
X0156141Y0121246D01*
X0156349Y0121460D01*
X0156562Y0121669D01*
X0156780Y0121872D01*
X0157003Y0122071D01*
X0157230Y0122263D01*
X0157462Y0122450D01*
X0157699Y0122632D01*
X0157940Y0122807D01*
X0158186Y0122977D01*
X0158435Y0123141D01*
X0158688Y0123298D01*
X0158945Y0123449D01*
X0159206Y0123594D01*
X0159470Y0123733D01*
X0159738Y0123865D01*
X0160008Y0123990D01*
X0160282Y0124109D01*
X0160558Y0124221D01*
X0160837Y0124326D01*
X0161119Y0124424D01*
X0161403Y0124516D01*
X0161689Y0124600D01*
X0161977Y0124677D01*
X0162267Y0124748D01*
X0162558Y0124811D01*
X0162851Y0124867D01*
X0163145Y0124916D01*
X0163441Y0124958D01*
X0163737Y0124992D01*
X0164034Y0125020D01*
X0164331Y0125040D01*
X0164629Y0125052D01*
X0164928Y0125058D01*
X0165226Y0125056D01*
X0165524Y0125047D01*
X0165822Y0125030D01*
X0166119Y0125007D01*
X0166416Y0124976D01*
X0166711Y0124937D01*
X0167006Y0124892D01*
X0167300Y0124839D01*
X0167592Y0124779D01*
X0167883Y0124713D01*
X0168171Y0124638D01*
X0168458Y0124557D01*
X0168743Y0124469D01*
X0169026Y0124374D01*
X0169306Y0124273D01*
X0169584Y0124164D01*
X0169859Y0124048D01*
X0170131Y0123926D01*
X0170400Y0123797D01*
X0170666Y0123662D01*
X0170928Y0123520D01*
X0171187Y0123372D01*
X0171442Y0123218D01*
X0171694Y0123057D01*
X0171941Y0122891D01*
X0172184Y0122718D01*
X0172423Y0122539D01*
X0172658Y0122355D01*
X0172887Y0122165D01*
X0173113Y0121969D01*
X0173333Y0121768D01*
X0173548Y0121562D01*
X0173758Y0121350D01*
X0173963Y0121134D01*
X0174163Y0120912D01*
X0174357Y0120685D01*
X0174546Y0120454D01*
X0174728Y0120219D01*
X0174653Y0120162D01*
X0174472Y0120396D01*
X0174285Y0120625D01*
X0174092Y0120850D01*
X0173894Y0121070D01*
X0173691Y0121285D01*
X0173482Y0121495D01*
X0173268Y0121700D01*
X0173050Y0121899D01*
X0172826Y0122093D01*
X0172598Y0122282D01*
X0172366Y0122465D01*
X0172129Y0122642D01*
X0171887Y0122813D01*
X0171642Y0122979D01*
X0171393Y0123138D01*
X0171139Y0123291D01*
X0170883Y0123438D01*
X0170622Y0123579D01*
X0170358Y0123713D01*
X0170091Y0123841D01*
X0169821Y0123962D01*
X0169549Y0124077D01*
X0169273Y0124185D01*
X0168995Y0124286D01*
X0168714Y0124380D01*
X0168432Y0124467D01*
X0168147Y0124548D01*
X0167860Y0124621D01*
X0167572Y0124688D01*
X0167282Y0124747D01*
X0166990Y0124799D01*
X0166698Y0124844D01*
X0166404Y0124882D01*
X0166110Y0124913D01*
X0165815Y0124937D01*
X0165520Y0124953D01*
X0165224Y0124962D01*
X0164928Y0124964D01*
X0164632Y0124958D01*
X0164336Y0124946D01*
X0164041Y0124926D01*
X0163746Y0124899D01*
X0163452Y0124865D01*
X0163159Y0124823D01*
X0162867Y0124775D01*
X0162577Y0124719D01*
X0162288Y0124656D01*
X0162000Y0124586D01*
X0161714Y0124509D01*
X0161430Y0124426D01*
X0161149Y0124335D01*
X0160869Y0124237D01*
X0160592Y0124133D01*
X0160318Y0124022D01*
X0160047Y0123904D01*
X0159778Y0123780D01*
X0159513Y0123649D01*
X0159251Y0123511D01*
X0158992Y0123368D01*
X0158737Y0123218D01*
X0158485Y0123061D01*
X0158238Y0122899D01*
X0157995Y0122731D01*
X0157755Y0122556D01*
X0157520Y0122376D01*
X0157290Y0122191D01*
X0157064Y0121999D01*
X0156843Y0121803D01*
X0156627Y0121601D01*
X0156416Y0121393D01*
X0156210Y0121181D01*
X0156009Y0120963D01*
X0155813Y0120741D01*
X0155623Y0120514D01*
X0155439Y0120283D01*
X0155261Y0120047D01*
X0155088Y0119807D01*
X0154921Y0119562D01*
X0154760Y0119314D01*
X0154605Y0119061D01*
X0154457Y0118805D01*
X0154315Y0118546D01*
X0154179Y0118283D01*
X0154049Y0118017D01*
X0153927Y0117748D01*
X0153810Y0117475D01*
X0153701Y0117200D01*
X0153598Y0116923D01*
X0153502Y0116643D01*
X0153413Y0116361D01*
X0153331Y0116076D01*
X0153256Y0115790D01*
X0153188Y0115502D01*
X0153127Y0115213D01*
X0153073Y0114922D01*
X0153026Y0114629D01*
X0152986Y0114336D01*
X0152954Y0114042D01*
X0152929Y0113747D01*
X0152910Y0113452D01*
X0152900Y0113156D01*
X0152896Y0112860D01*
X0152900Y0112564D01*
X0152910Y0112268D01*
X0152929Y0111973D01*
X0152954Y0111678D01*
X0152986Y0111384D01*
X0153026Y0111091D01*
X0153073Y0110798D01*
X0153127Y0110507D01*
X0153188Y0110218D01*
X0153256Y0109930D01*
X0153331Y0109644D01*
X0153413Y0109359D01*
X0153502Y0109077D01*
X0153598Y0108797D01*
X0153701Y0108520D01*
X0153810Y0108245D01*
X0153927Y0107972D01*
X0154049Y0107703D01*
X0154179Y0107437D01*
X0154315Y0107174D01*
X0154457Y0106915D01*
X0154605Y0106659D01*
X0154760Y0106406D01*
X0154921Y0106158D01*
X0155088Y0105913D01*
X0155261Y0105673D01*
X0155439Y0105437D01*
X0155623Y0105206D01*
X0155813Y0104979D01*
X0156009Y0104757D01*
X0156210Y0104539D01*
X0156416Y0104327D01*
X0156627Y0104119D01*
X0156843Y0103917D01*
X0157064Y0103721D01*
X0157290Y0103529D01*
X0157520Y0103344D01*
X0157755Y0103164D01*
X0157995Y0102989D01*
X0158238Y0102821D01*
X0158485Y0102659D01*
X0158737Y0102502D01*
X0158992Y0102352D01*
X0159251Y0102209D01*
X0159513Y0102071D01*
X0159778Y0101940D01*
X0160047Y0101816D01*
X0160318Y0101698D01*
X0160592Y0101587D01*
X0160869Y0101483D01*
X0161149Y0101385D01*
X0161430Y0101294D01*
X0161714Y0101211D01*
X0162000Y0101134D01*
X0162288Y0101064D01*
X0162577Y0101001D01*
X0162867Y0100945D01*
X0163159Y0100897D01*
X0163452Y0100855D01*
X0163746Y0100821D01*
X0164041Y0100794D01*
X0164336Y0100774D01*
X0164632Y0100762D01*
X0164928Y0100756D01*
X0165224Y0100758D01*
X0165520Y0100767D01*
X0165815Y0100783D01*
X0166110Y0100807D01*
X0166404Y0100838D01*
X0166698Y0100876D01*
X0166990Y0100921D01*
X0167282Y0100973D01*
X0167572Y0101032D01*
X0167860Y0101099D01*
X0168147Y0101172D01*
X0168432Y0101253D01*
X0168714Y0101340D01*
X0168995Y0101434D01*
X0169273Y0101535D01*
X0169549Y0101643D01*
X0169821Y0101758D01*
X0170091Y0101879D01*
X0170358Y0102007D01*
X0170622Y0102141D01*
X0170883Y0102282D01*
X0171139Y0102429D01*
X0171393Y0102582D01*
X0171642Y0102741D01*
X0171887Y0102907D01*
X0172129Y0103078D01*
X0172366Y0103255D01*
X0172598Y0103438D01*
X0172826Y0103627D01*
X0173050Y0103821D01*
X0173268Y0104020D01*
X0173482Y0104225D01*
X0173691Y0104435D01*
X0173894Y0104650D01*
X0174092Y0104870D01*
X0174285Y0105095D01*
X0174472Y0105324D01*
X0174653Y0105558D01*
D14*
X0155000Y0112860D02*
X0155003Y0113105D01*
X0155012Y0113351D01*
X0155027Y0113596D01*
X0155048Y0113840D01*
X0155075Y0114084D01*
X0155108Y0114327D01*
X0155147Y0114570D01*
X0155192Y0114811D01*
X0155243Y0115051D01*
X0155300Y0115290D01*
X0155362Y0115527D01*
X0155431Y0115763D01*
X0155505Y0115997D01*
X0155585Y0116229D01*
X0155670Y0116459D01*
X0155761Y0116687D01*
X0155858Y0116912D01*
X0155960Y0117136D01*
X0156068Y0117356D01*
X0156181Y0117574D01*
X0156299Y0117789D01*
X0156423Y0118001D01*
X0156551Y0118210D01*
X0156685Y0118416D01*
X0156824Y0118618D01*
X0156968Y0118817D01*
X0157117Y0119012D01*
X0157270Y0119204D01*
X0157428Y0119392D01*
X0157590Y0119576D01*
X0157758Y0119755D01*
X0157929Y0119931D01*
X0158105Y0120102D01*
X0158284Y0120270D01*
X0158468Y0120432D01*
X0158656Y0120590D01*
X0158848Y0120743D01*
X0159043Y0120892D01*
X0159242Y0121036D01*
X0159444Y0121175D01*
X0159650Y0121309D01*
X0159859Y0121437D01*
X0160071Y0121561D01*
X0160286Y0121679D01*
X0160504Y0121792D01*
X0160724Y0121900D01*
X0160948Y0122002D01*
X0161173Y0122099D01*
X0161401Y0122190D01*
X0161631Y0122275D01*
X0161863Y0122355D01*
X0162097Y0122429D01*
X0162333Y0122498D01*
X0162570Y0122560D01*
X0162809Y0122617D01*
X0163049Y0122668D01*
X0163290Y0122713D01*
X0163533Y0122752D01*
X0163776Y0122785D01*
X0164020Y0122812D01*
X0164264Y0122833D01*
X0164509Y0122848D01*
X0164755Y0122857D01*
X0165000Y0122860D01*
X0165245Y0122857D01*
X0165491Y0122848D01*
X0165736Y0122833D01*
X0165980Y0122812D01*
X0166224Y0122785D01*
X0166467Y0122752D01*
X0166710Y0122713D01*
X0166951Y0122668D01*
X0167191Y0122617D01*
X0167430Y0122560D01*
X0167667Y0122498D01*
X0167903Y0122429D01*
X0168137Y0122355D01*
X0168369Y0122275D01*
X0168599Y0122190D01*
X0168827Y0122099D01*
X0169052Y0122002D01*
X0169276Y0121900D01*
X0169496Y0121792D01*
X0169714Y0121679D01*
X0169929Y0121561D01*
X0170141Y0121437D01*
X0170350Y0121309D01*
X0170556Y0121175D01*
X0170758Y0121036D01*
X0170957Y0120892D01*
X0171152Y0120743D01*
X0171344Y0120590D01*
X0171532Y0120432D01*
X0171716Y0120270D01*
X0171895Y0120102D01*
X0172071Y0119931D01*
X0172242Y0119755D01*
X0172410Y0119576D01*
X0172572Y0119392D01*
X0172730Y0119204D01*
X0172883Y0119012D01*
X0173032Y0118817D01*
X0173176Y0118618D01*
X0173315Y0118416D01*
X0173449Y0118210D01*
X0173577Y0118001D01*
X0173701Y0117789D01*
X0173819Y0117574D01*
X0173932Y0117356D01*
X0174040Y0117136D01*
X0174142Y0116912D01*
X0174239Y0116687D01*
X0174330Y0116459D01*
X0174415Y0116229D01*
X0174495Y0115997D01*
X0174569Y0115763D01*
X0174638Y0115527D01*
X0174700Y0115290D01*
X0174757Y0115051D01*
X0174808Y0114811D01*
X0174853Y0114570D01*
X0174892Y0114327D01*
X0174925Y0114084D01*
X0174952Y0113840D01*
X0174973Y0113596D01*
X0174988Y0113351D01*
X0174997Y0113105D01*
X0175000Y0112860D01*
X0174997Y0112615D01*
X0174988Y0112369D01*
X0174973Y0112124D01*
X0174952Y0111880D01*
X0174925Y0111636D01*
X0174892Y0111393D01*
X0174853Y0111150D01*
X0174808Y0110909D01*
X0174757Y0110669D01*
X0174700Y0110430D01*
X0174638Y0110193D01*
X0174569Y0109957D01*
X0174495Y0109723D01*
X0174415Y0109491D01*
X0174330Y0109261D01*
X0174239Y0109033D01*
X0174142Y0108808D01*
X0174040Y0108584D01*
X0173932Y0108364D01*
X0173819Y0108146D01*
X0173701Y0107931D01*
X0173577Y0107719D01*
X0173449Y0107510D01*
X0173315Y0107304D01*
X0173176Y0107102D01*
X0173032Y0106903D01*
X0172883Y0106708D01*
X0172730Y0106516D01*
X0172572Y0106328D01*
X0172410Y0106144D01*
X0172242Y0105965D01*
X0172071Y0105789D01*
X0171895Y0105618D01*
X0171716Y0105450D01*
X0171532Y0105288D01*
X0171344Y0105130D01*
X0171152Y0104977D01*
X0170957Y0104828D01*
X0170758Y0104684D01*
X0170556Y0104545D01*
X0170350Y0104411D01*
X0170141Y0104283D01*
X0169929Y0104159D01*
X0169714Y0104041D01*
X0169496Y0103928D01*
X0169276Y0103820D01*
X0169052Y0103718D01*
X0168827Y0103621D01*
X0168599Y0103530D01*
X0168369Y0103445D01*
X0168137Y0103365D01*
X0167903Y0103291D01*
X0167667Y0103222D01*
X0167430Y0103160D01*
X0167191Y0103103D01*
X0166951Y0103052D01*
X0166710Y0103007D01*
X0166467Y0102968D01*
X0166224Y0102935D01*
X0165980Y0102908D01*
X0165736Y0102887D01*
X0165491Y0102872D01*
X0165245Y0102863D01*
X0165000Y0102860D01*
X0164755Y0102863D01*
X0164509Y0102872D01*
X0164264Y0102887D01*
X0164020Y0102908D01*
X0163776Y0102935D01*
X0163533Y0102968D01*
X0163290Y0103007D01*
X0163049Y0103052D01*
X0162809Y0103103D01*
X0162570Y0103160D01*
X0162333Y0103222D01*
X0162097Y0103291D01*
X0161863Y0103365D01*
X0161631Y0103445D01*
X0161401Y0103530D01*
X0161173Y0103621D01*
X0160948Y0103718D01*
X0160724Y0103820D01*
X0160504Y0103928D01*
X0160286Y0104041D01*
X0160071Y0104159D01*
X0159859Y0104283D01*
X0159650Y0104411D01*
X0159444Y0104545D01*
X0159242Y0104684D01*
X0159043Y0104828D01*
X0158848Y0104977D01*
X0158656Y0105130D01*
X0158468Y0105288D01*
X0158284Y0105450D01*
X0158105Y0105618D01*
X0157929Y0105789D01*
X0157758Y0105965D01*
X0157590Y0106144D01*
X0157428Y0106328D01*
X0157270Y0106516D01*
X0157117Y0106708D01*
X0156968Y0106903D01*
X0156824Y0107102D01*
X0156685Y0107304D01*
X0156551Y0107510D01*
X0156423Y0107719D01*
X0156299Y0107931D01*
X0156181Y0108146D01*
X0156068Y0108364D01*
X0155960Y0108584D01*
X0155858Y0108808D01*
X0155761Y0109033D01*
X0155670Y0109261D01*
X0155585Y0109491D01*
X0155505Y0109723D01*
X0155431Y0109957D01*
X0155362Y0110193D01*
X0155300Y0110430D01*
X0155243Y0110669D01*
X0155192Y0110909D01*
X0155147Y0111150D01*
X0155108Y0111393D01*
X0155075Y0111636D01*
X0155048Y0111880D01*
X0155027Y0112124D01*
X0155012Y0112369D01*
X0155003Y0112615D01*
X0155000Y0112860D01*
X0155000Y0072860D02*
X0155003Y0073105D01*
X0155012Y0073351D01*
X0155027Y0073596D01*
X0155048Y0073840D01*
X0155075Y0074084D01*
X0155108Y0074327D01*
X0155147Y0074570D01*
X0155192Y0074811D01*
X0155243Y0075051D01*
X0155300Y0075290D01*
X0155362Y0075527D01*
X0155431Y0075763D01*
X0155505Y0075997D01*
X0155585Y0076229D01*
X0155670Y0076459D01*
X0155761Y0076687D01*
X0155858Y0076912D01*
X0155960Y0077136D01*
X0156068Y0077356D01*
X0156181Y0077574D01*
X0156299Y0077789D01*
X0156423Y0078001D01*
X0156551Y0078210D01*
X0156685Y0078416D01*
X0156824Y0078618D01*
X0156968Y0078817D01*
X0157117Y0079012D01*
X0157270Y0079204D01*
X0157428Y0079392D01*
X0157590Y0079576D01*
X0157758Y0079755D01*
X0157929Y0079931D01*
X0158105Y0080102D01*
X0158284Y0080270D01*
X0158468Y0080432D01*
X0158656Y0080590D01*
X0158848Y0080743D01*
X0159043Y0080892D01*
X0159242Y0081036D01*
X0159444Y0081175D01*
X0159650Y0081309D01*
X0159859Y0081437D01*
X0160071Y0081561D01*
X0160286Y0081679D01*
X0160504Y0081792D01*
X0160724Y0081900D01*
X0160948Y0082002D01*
X0161173Y0082099D01*
X0161401Y0082190D01*
X0161631Y0082275D01*
X0161863Y0082355D01*
X0162097Y0082429D01*
X0162333Y0082498D01*
X0162570Y0082560D01*
X0162809Y0082617D01*
X0163049Y0082668D01*
X0163290Y0082713D01*
X0163533Y0082752D01*
X0163776Y0082785D01*
X0164020Y0082812D01*
X0164264Y0082833D01*
X0164509Y0082848D01*
X0164755Y0082857D01*
X0165000Y0082860D01*
X0165245Y0082857D01*
X0165491Y0082848D01*
X0165736Y0082833D01*
X0165980Y0082812D01*
X0166224Y0082785D01*
X0166467Y0082752D01*
X0166710Y0082713D01*
X0166951Y0082668D01*
X0167191Y0082617D01*
X0167430Y0082560D01*
X0167667Y0082498D01*
X0167903Y0082429D01*
X0168137Y0082355D01*
X0168369Y0082275D01*
X0168599Y0082190D01*
X0168827Y0082099D01*
X0169052Y0082002D01*
X0169276Y0081900D01*
X0169496Y0081792D01*
X0169714Y0081679D01*
X0169929Y0081561D01*
X0170141Y0081437D01*
X0170350Y0081309D01*
X0170556Y0081175D01*
X0170758Y0081036D01*
X0170957Y0080892D01*
X0171152Y0080743D01*
X0171344Y0080590D01*
X0171532Y0080432D01*
X0171716Y0080270D01*
X0171895Y0080102D01*
X0172071Y0079931D01*
X0172242Y0079755D01*
X0172410Y0079576D01*
X0172572Y0079392D01*
X0172730Y0079204D01*
X0172883Y0079012D01*
X0173032Y0078817D01*
X0173176Y0078618D01*
X0173315Y0078416D01*
X0173449Y0078210D01*
X0173577Y0078001D01*
X0173701Y0077789D01*
X0173819Y0077574D01*
X0173932Y0077356D01*
X0174040Y0077136D01*
X0174142Y0076912D01*
X0174239Y0076687D01*
X0174330Y0076459D01*
X0174415Y0076229D01*
X0174495Y0075997D01*
X0174569Y0075763D01*
X0174638Y0075527D01*
X0174700Y0075290D01*
X0174757Y0075051D01*
X0174808Y0074811D01*
X0174853Y0074570D01*
X0174892Y0074327D01*
X0174925Y0074084D01*
X0174952Y0073840D01*
X0174973Y0073596D01*
X0174988Y0073351D01*
X0174997Y0073105D01*
X0175000Y0072860D01*
X0174997Y0072615D01*
X0174988Y0072369D01*
X0174973Y0072124D01*
X0174952Y0071880D01*
X0174925Y0071636D01*
X0174892Y0071393D01*
X0174853Y0071150D01*
X0174808Y0070909D01*
X0174757Y0070669D01*
X0174700Y0070430D01*
X0174638Y0070193D01*
X0174569Y0069957D01*
X0174495Y0069723D01*
X0174415Y0069491D01*
X0174330Y0069261D01*
X0174239Y0069033D01*
X0174142Y0068808D01*
X0174040Y0068584D01*
X0173932Y0068364D01*
X0173819Y0068146D01*
X0173701Y0067931D01*
X0173577Y0067719D01*
X0173449Y0067510D01*
X0173315Y0067304D01*
X0173176Y0067102D01*
X0173032Y0066903D01*
X0172883Y0066708D01*
X0172730Y0066516D01*
X0172572Y0066328D01*
X0172410Y0066144D01*
X0172242Y0065965D01*
X0172071Y0065789D01*
X0171895Y0065618D01*
X0171716Y0065450D01*
X0171532Y0065288D01*
X0171344Y0065130D01*
X0171152Y0064977D01*
X0170957Y0064828D01*
X0170758Y0064684D01*
X0170556Y0064545D01*
X0170350Y0064411D01*
X0170141Y0064283D01*
X0169929Y0064159D01*
X0169714Y0064041D01*
X0169496Y0063928D01*
X0169276Y0063820D01*
X0169052Y0063718D01*
X0168827Y0063621D01*
X0168599Y0063530D01*
X0168369Y0063445D01*
X0168137Y0063365D01*
X0167903Y0063291D01*
X0167667Y0063222D01*
X0167430Y0063160D01*
X0167191Y0063103D01*
X0166951Y0063052D01*
X0166710Y0063007D01*
X0166467Y0062968D01*
X0166224Y0062935D01*
X0165980Y0062908D01*
X0165736Y0062887D01*
X0165491Y0062872D01*
X0165245Y0062863D01*
X0165000Y0062860D01*
X0164755Y0062863D01*
X0164509Y0062872D01*
X0164264Y0062887D01*
X0164020Y0062908D01*
X0163776Y0062935D01*
X0163533Y0062968D01*
X0163290Y0063007D01*
X0163049Y0063052D01*
X0162809Y0063103D01*
X0162570Y0063160D01*
X0162333Y0063222D01*
X0162097Y0063291D01*
X0161863Y0063365D01*
X0161631Y0063445D01*
X0161401Y0063530D01*
X0161173Y0063621D01*
X0160948Y0063718D01*
X0160724Y0063820D01*
X0160504Y0063928D01*
X0160286Y0064041D01*
X0160071Y0064159D01*
X0159859Y0064283D01*
X0159650Y0064411D01*
X0159444Y0064545D01*
X0159242Y0064684D01*
X0159043Y0064828D01*
X0158848Y0064977D01*
X0158656Y0065130D01*
X0158468Y0065288D01*
X0158284Y0065450D01*
X0158105Y0065618D01*
X0157929Y0065789D01*
X0157758Y0065965D01*
X0157590Y0066144D01*
X0157428Y0066328D01*
X0157270Y0066516D01*
X0157117Y0066708D01*
X0156968Y0066903D01*
X0156824Y0067102D01*
X0156685Y0067304D01*
X0156551Y0067510D01*
X0156423Y0067719D01*
X0156299Y0067931D01*
X0156181Y0068146D01*
X0156068Y0068364D01*
X0155960Y0068584D01*
X0155858Y0068808D01*
X0155761Y0069033D01*
X0155670Y0069261D01*
X0155585Y0069491D01*
X0155505Y0069723D01*
X0155431Y0069957D01*
X0155362Y0070193D01*
X0155300Y0070430D01*
X0155243Y0070669D01*
X0155192Y0070909D01*
X0155147Y0071150D01*
X0155108Y0071393D01*
X0155075Y0071636D01*
X0155048Y0071880D01*
X0155027Y0072124D01*
X0155012Y0072369D01*
X0155003Y0072615D01*
X0155000Y0072860D01*
X0155000Y0032860D02*
X0155003Y0033105D01*
X0155012Y0033351D01*
X0155027Y0033596D01*
X0155048Y0033840D01*
X0155075Y0034084D01*
X0155108Y0034327D01*
X0155147Y0034570D01*
X0155192Y0034811D01*
X0155243Y0035051D01*
X0155300Y0035290D01*
X0155362Y0035527D01*
X0155431Y0035763D01*
X0155505Y0035997D01*
X0155585Y0036229D01*
X0155670Y0036459D01*
X0155761Y0036687D01*
X0155858Y0036912D01*
X0155960Y0037136D01*
X0156068Y0037356D01*
X0156181Y0037574D01*
X0156299Y0037789D01*
X0156423Y0038001D01*
X0156551Y0038210D01*
X0156685Y0038416D01*
X0156824Y0038618D01*
X0156968Y0038817D01*
X0157117Y0039012D01*
X0157270Y0039204D01*
X0157428Y0039392D01*
X0157590Y0039576D01*
X0157758Y0039755D01*
X0157929Y0039931D01*
X0158105Y0040102D01*
X0158284Y0040270D01*
X0158468Y0040432D01*
X0158656Y0040590D01*
X0158848Y0040743D01*
X0159043Y0040892D01*
X0159242Y0041036D01*
X0159444Y0041175D01*
X0159650Y0041309D01*
X0159859Y0041437D01*
X0160071Y0041561D01*
X0160286Y0041679D01*
X0160504Y0041792D01*
X0160724Y0041900D01*
X0160948Y0042002D01*
X0161173Y0042099D01*
X0161401Y0042190D01*
X0161631Y0042275D01*
X0161863Y0042355D01*
X0162097Y0042429D01*
X0162333Y0042498D01*
X0162570Y0042560D01*
X0162809Y0042617D01*
X0163049Y0042668D01*
X0163290Y0042713D01*
X0163533Y0042752D01*
X0163776Y0042785D01*
X0164020Y0042812D01*
X0164264Y0042833D01*
X0164509Y0042848D01*
X0164755Y0042857D01*
X0165000Y0042860D01*
X0165245Y0042857D01*
X0165491Y0042848D01*
X0165736Y0042833D01*
X0165980Y0042812D01*
X0166224Y0042785D01*
X0166467Y0042752D01*
X0166710Y0042713D01*
X0166951Y0042668D01*
X0167191Y0042617D01*
X0167430Y0042560D01*
X0167667Y0042498D01*
X0167903Y0042429D01*
X0168137Y0042355D01*
X0168369Y0042275D01*
X0168599Y0042190D01*
X0168827Y0042099D01*
X0169052Y0042002D01*
X0169276Y0041900D01*
X0169496Y0041792D01*
X0169714Y0041679D01*
X0169929Y0041561D01*
X0170141Y0041437D01*
X0170350Y0041309D01*
X0170556Y0041175D01*
X0170758Y0041036D01*
X0170957Y0040892D01*
X0171152Y0040743D01*
X0171344Y0040590D01*
X0171532Y0040432D01*
X0171716Y0040270D01*
X0171895Y0040102D01*
X0172071Y0039931D01*
X0172242Y0039755D01*
X0172410Y0039576D01*
X0172572Y0039392D01*
X0172730Y0039204D01*
X0172883Y0039012D01*
X0173032Y0038817D01*
X0173176Y0038618D01*
X0173315Y0038416D01*
X0173449Y0038210D01*
X0173577Y0038001D01*
X0173701Y0037789D01*
X0173819Y0037574D01*
X0173932Y0037356D01*
X0174040Y0037136D01*
X0174142Y0036912D01*
X0174239Y0036687D01*
X0174330Y0036459D01*
X0174415Y0036229D01*
X0174495Y0035997D01*
X0174569Y0035763D01*
X0174638Y0035527D01*
X0174700Y0035290D01*
X0174757Y0035051D01*
X0174808Y0034811D01*
X0174853Y0034570D01*
X0174892Y0034327D01*
X0174925Y0034084D01*
X0174952Y0033840D01*
X0174973Y0033596D01*
X0174988Y0033351D01*
X0174997Y0033105D01*
X0175000Y0032860D01*
X0174997Y0032615D01*
X0174988Y0032369D01*
X0174973Y0032124D01*
X0174952Y0031880D01*
X0174925Y0031636D01*
X0174892Y0031393D01*
X0174853Y0031150D01*
X0174808Y0030909D01*
X0174757Y0030669D01*
X0174700Y0030430D01*
X0174638Y0030193D01*
X0174569Y0029957D01*
X0174495Y0029723D01*
X0174415Y0029491D01*
X0174330Y0029261D01*
X0174239Y0029033D01*
X0174142Y0028808D01*
X0174040Y0028584D01*
X0173932Y0028364D01*
X0173819Y0028146D01*
X0173701Y0027931D01*
X0173577Y0027719D01*
X0173449Y0027510D01*
X0173315Y0027304D01*
X0173176Y0027102D01*
X0173032Y0026903D01*
X0172883Y0026708D01*
X0172730Y0026516D01*
X0172572Y0026328D01*
X0172410Y0026144D01*
X0172242Y0025965D01*
X0172071Y0025789D01*
X0171895Y0025618D01*
X0171716Y0025450D01*
X0171532Y0025288D01*
X0171344Y0025130D01*
X0171152Y0024977D01*
X0170957Y0024828D01*
X0170758Y0024684D01*
X0170556Y0024545D01*
X0170350Y0024411D01*
X0170141Y0024283D01*
X0169929Y0024159D01*
X0169714Y0024041D01*
X0169496Y0023928D01*
X0169276Y0023820D01*
X0169052Y0023718D01*
X0168827Y0023621D01*
X0168599Y0023530D01*
X0168369Y0023445D01*
X0168137Y0023365D01*
X0167903Y0023291D01*
X0167667Y0023222D01*
X0167430Y0023160D01*
X0167191Y0023103D01*
X0166951Y0023052D01*
X0166710Y0023007D01*
X0166467Y0022968D01*
X0166224Y0022935D01*
X0165980Y0022908D01*
X0165736Y0022887D01*
X0165491Y0022872D01*
X0165245Y0022863D01*
X0165000Y0022860D01*
X0164755Y0022863D01*
X0164509Y0022872D01*
X0164264Y0022887D01*
X0164020Y0022908D01*
X0163776Y0022935D01*
X0163533Y0022968D01*
X0163290Y0023007D01*
X0163049Y0023052D01*
X0162809Y0023103D01*
X0162570Y0023160D01*
X0162333Y0023222D01*
X0162097Y0023291D01*
X0161863Y0023365D01*
X0161631Y0023445D01*
X0161401Y0023530D01*
X0161173Y0023621D01*
X0160948Y0023718D01*
X0160724Y0023820D01*
X0160504Y0023928D01*
X0160286Y0024041D01*
X0160071Y0024159D01*
X0159859Y0024283D01*
X0159650Y0024411D01*
X0159444Y0024545D01*
X0159242Y0024684D01*
X0159043Y0024828D01*
X0158848Y0024977D01*
X0158656Y0025130D01*
X0158468Y0025288D01*
X0158284Y0025450D01*
X0158105Y0025618D01*
X0157929Y0025789D01*
X0157758Y0025965D01*
X0157590Y0026144D01*
X0157428Y0026328D01*
X0157270Y0026516D01*
X0157117Y0026708D01*
X0156968Y0026903D01*
X0156824Y0027102D01*
X0156685Y0027304D01*
X0156551Y0027510D01*
X0156423Y0027719D01*
X0156299Y0027931D01*
X0156181Y0028146D01*
X0156068Y0028364D01*
X0155960Y0028584D01*
X0155858Y0028808D01*
X0155761Y0029033D01*
X0155670Y0029261D01*
X0155585Y0029491D01*
X0155505Y0029723D01*
X0155431Y0029957D01*
X0155362Y0030193D01*
X0155300Y0030430D01*
X0155243Y0030669D01*
X0155192Y0030909D01*
X0155147Y0031150D01*
X0155108Y0031393D01*
X0155075Y0031636D01*
X0155048Y0031880D01*
X0155027Y0032124D01*
X0155012Y0032369D01*
X0155003Y0032615D01*
X0155000Y0032860D01*
D15*
X0160861Y0051410D02*
X0160410Y0051860D01*
X0160861Y0051410D02*
X0161762Y0051410D01*
X0162212Y0051860D01*
X0162212Y0052311D01*
X0161762Y0052761D01*
X0161311Y0052761D01*
X0161762Y0052761D02*
X0162212Y0053212D01*
X0162212Y0053662D01*
X0161762Y0054112D01*
X0160861Y0054112D01*
X0160410Y0053662D01*
X0163357Y0053662D02*
X0163807Y0054112D01*
X0164708Y0054112D01*
X0165159Y0053662D01*
X0165159Y0053212D01*
X0164708Y0052761D01*
X0165159Y0052311D01*
X0165159Y0051860D01*
X0164708Y0051410D01*
X0163807Y0051410D01*
X0163357Y0051860D01*
X0164258Y0052761D02*
X0164708Y0052761D01*
X0166303Y0051860D02*
X0168105Y0053662D01*
X0168105Y0051860D01*
X0167655Y0051410D01*
X0166754Y0051410D01*
X0166303Y0051860D01*
X0166303Y0053662D01*
X0166754Y0054112D01*
X0167655Y0054112D01*
X0168105Y0053662D01*
X0167655Y0091410D02*
X0166754Y0091410D01*
X0166303Y0091860D01*
X0168105Y0093662D01*
X0168105Y0091860D01*
X0167655Y0091410D01*
X0166303Y0091860D02*
X0166303Y0093662D01*
X0166754Y0094112D01*
X0167655Y0094112D01*
X0168105Y0093662D01*
X0165159Y0093662D02*
X0165159Y0093212D01*
X0164708Y0092761D01*
X0165159Y0092311D01*
X0165159Y0091860D01*
X0164708Y0091410D01*
X0163807Y0091410D01*
X0163357Y0091860D01*
X0162212Y0091860D02*
X0162212Y0092311D01*
X0161762Y0092761D01*
X0161311Y0092761D01*
X0161762Y0092761D02*
X0162212Y0093212D01*
X0162212Y0093662D01*
X0161762Y0094112D01*
X0160861Y0094112D01*
X0160410Y0093662D01*
X0160410Y0091860D02*
X0160861Y0091410D01*
X0161762Y0091410D01*
X0162212Y0091860D01*
X0163357Y0093662D02*
X0163807Y0094112D01*
X0164708Y0094112D01*
X0165159Y0093662D01*
X0164708Y0092761D02*
X0164258Y0092761D01*
X0163807Y0014112D02*
X0164708Y0014112D01*
X0165159Y0013662D01*
X0165159Y0013212D01*
X0164708Y0012761D01*
X0165159Y0012311D01*
X0165159Y0011860D01*
X0164708Y0011410D01*
X0163807Y0011410D01*
X0163357Y0011860D01*
X0162212Y0011860D02*
X0161762Y0011410D01*
X0160861Y0011410D01*
X0160410Y0011860D01*
X0161311Y0012761D02*
X0161762Y0012761D01*
X0162212Y0012311D01*
X0162212Y0011860D01*
X0161762Y0012761D02*
X0162212Y0013212D01*
X0162212Y0013662D01*
X0161762Y0014112D01*
X0160861Y0014112D01*
X0160410Y0013662D01*
X0163357Y0013662D02*
X0163807Y0014112D01*
X0164258Y0012761D02*
X0164708Y0012761D01*
X0166303Y0011860D02*
X0168105Y0013662D01*
X0168105Y0011860D01*
X0167655Y0011410D01*
X0166754Y0011410D01*
X0166303Y0011860D01*
X0166303Y0013662D01*
X0166754Y0014112D01*
X0167655Y0014112D01*
X0168105Y0013662D01*
X0040998Y0156610D02*
X0039647Y0157961D01*
X0039197Y0157511D02*
X0040998Y0159312D01*
X0039197Y0159312D02*
X0039197Y0156610D01*
X0038052Y0156610D02*
X0036250Y0156610D01*
X0037151Y0156610D02*
X0037151Y0159312D01*
X0036250Y0158412D01*
M02*
