<?xml version="1.0" encoding="UTF-8" standalone="no"?>
<!-- Generator: Adobe Illustrator 21.0.0, SVG Export Plug-In . SVG Version: 6.00 Build 0)  -->

<svg
   xmlns:dc="http://purl.org/dc/elements/1.1/"
   xmlns:cc="http://creativecommons.org/ns#"
   xmlns:rdf="http://www.w3.org/1999/02/22-rdf-syntax-ns#"
   xmlns:svg="http://www.w3.org/2000/svg"
   xmlns="http://www.w3.org/2000/svg"
   xmlns:sodipodi="http://sodipodi.sourceforge.net/DTD/sodipodi-0.dtd"
   xmlns:inkscape="http://www.inkscape.org/namespaces/inkscape"
   version="1.1"
   id="Layer_1"
   x="0px"
   y="0px"
   viewBox="0 0 234.9 202.8"
   style="enable-background:new 0 0 234.9 202.8;"
   xml:space="preserve"
   inkscape:version="0.91 r13725"
   sodipodi:docname="Percy.svg"><metadata
     id="metadata18"><rdf:RDF><cc:Work
         rdf:about=""><dc:format>image/svg+xml</dc:format><dc:type
           rdf:resource="http://purl.org/dc/dcmitype/StillImage" /><dc:title>Xervo_Asset 6</dc:title></cc:Work></rdf:RDF></metadata><defs
     id="defs16" /><sodipodi:namedview
     pagecolor="#ffffff"
     bordercolor="#666666"
     borderopacity="1"
     objecttolerance="10"
     gridtolerance="10"
     guidetolerance="10"
     inkscape:pageopacity="0"
     inkscape:pageshadow="2"
     inkscape:window-width="2527"
     inkscape:window-height="1103"
     id="namedview14"
     showgrid="false"
     inkscape:zoom="4.3548138"
     inkscape:cx="117.45"
     inkscape:cy="101.4"
     inkscape:window-x="302"
     inkscape:window-y="208"
     inkscape:window-maximized="0"
     inkscape:current-layer="Layer_1" /><title
     id="title3">Xervo_Asset 6</title><g
     id="Layer_2"><g
       id="Layer_1-2"><g
         id="Percy_Teal"><path
           d="M179.7,174.3c1.3-1.3,2.3-2.3,3.3-3.1c-0.9,2.5-1.5,5.2-1.7,7.9c-0.6,7.5,1.7,14.8,9.4,20.2c-8.5,0-11.6-3-16.4-7.2     c-0.8-0.7-1.5-1.6-2.2-2.5c0-0.2-0.1-0.4-0.1-0.6C171.5,183.4,175.8,178.2,179.7,174.3z"
           id="path8" /><path
           d="M99.5,177.9l3.6-0.2c-4.2,4.4-5.1,11.3-2.1,19.2l5.6,2.5H98c0,0-2.3-2.1-5.7-5.8c-1.2-1.4-2.6-2.6-3.9-3.8l0.1-1.3     C88.9,182.7,93.7,178.1,99.5,177.9z"
           id="path10" /><path
           d="M224.1,139.3c-2.7-3.5-4.9-7.4-6.6-11.4l-0.2-0.4c-0.4-1.3-0.9-2.7-1.2-4.2s-0.6-3-0.9-4.5s-0.4-3.1-0.4-4.7     s0-3.1,0.1-4.6s0.3-3,0.6-4.4c0.2-1.3,0.5-2.6,0.9-3.9c0.3-1.1,0.6-2.2,1-3.3c0.3-0.9,0.6-1.7,1-2.5l0.9-2.2l-1.6,1.7     c-0.6,0.7-1.2,1.4-1.8,2.1c-0.8,0.9-1.5,1.9-2.2,2.9c-0.8,1.2-1.6,2.4-2.3,3.6c-0.8,1.3-1.5,2.8-2.3,4.3s-1.4,3.2-2,4.9     c-0.5,1.4-0.9,2.8-1.3,4.3c0,0.1-0.1,0.2-0.1,0.4c-0.4-0.5-0.9-1.1-1.3-1.7s-0.7-1-1-1.5c-0.5-0.7-0.9-1.5-1.3-2.2     c-0.5-0.8-0.9-1.6-1.3-2.4c-0.4-0.9-0.8-1.7-1.2-2.6s-0.7-1.9-1-2.8c-0.6-2-1.2-4-1.7-6.1s-0.9-4.3-1.2-6.4s-0.6-4.3-0.8-6.4     c-0.5-4.2-0.7-8.2-0.9-11.6l-0.6-11.4L191,73.4c-0.7,3.4-1.5,7.3-2.2,11.6c-0.4,2.2-0.6,4.4-1,6.7s-0.5,4.7-0.5,7.1     c0,0.4,0,0.7,0,1.1c0,0,0,0.1,0,0.1l-0.3-0.4l-1-1.4c-4.1-6-9.3-14.3-14.2-22.8c-1.2-2.1-2.4-4.3-3.6-6.4s-2.3-4.2-3.3-6.3     s-2.1-4-3-6s-1.8-3.7-2.6-5.4l-2.1-4.6l-1.5-3.6l-1.3-3.2l0.5,3.4l0.6,3.9c0.3,1.5,0.6,3.2,0.9,5s0.7,3.8,1.2,5.9     s0.9,4.3,1.5,6.6s1.1,4.7,1.8,7c0.5,1.9,1,3.8,1.5,5.6c0.1,0.5,0.3,1.1,0.4,1.6c0.4,1.5,0.9,3,1.3,4.5l-1.1-1l-0.6-1.1     c-1.1-1.9-2.2-4.2-3.6-6.5l-0.5-0.9c-1.2-2.1-2.6-4.3-4-6.6c-1.6-2.6-3.4-5.3-5.2-8.1s-3.8-5.6-5.8-8.5s-4.1-5.7-6.2-8.6     s-4.2-5.7-6.4-8.4s-4.3-5.4-6.4-8s-4.2-5-6.1-7.3s-3.9-4.4-5.7-6.4s-3.5-3.7-4.9-5.2s-2.8-2.9-3.9-4L100.4,0l2.8,3.9     c0.9,1.2,2,2.8,3.1,4.5s2.5,3.8,3.9,6s2.9,4.6,4.4,7.2s3.2,5.2,4.7,8.1s3.2,5.8,4.8,8.8s3.2,6.1,4.8,9.2c1.6,3.1,3.1,6.2,4.5,9.3     c0.6,1.2,1.1,2.3,1.6,3.5c0.7,1.6,1.5,3.2,2.2,4.8c-1.4-0.7-2.9-1.3-4.3-1.9c-0.6-0.4-1.2-0.8-1.8-1.2c-2.1-1.4-4.4-2.8-7-4.4     l-2.3-1.3c-1.9-1.1-4-2.3-6.1-3.4l-4.6-2.4l-4.9-2.4c-3.3-1.6-6.8-3.1-10.4-4.7s-7.2-3-10.9-4.3s-7.4-2.6-11-3.8     s-7.3-2.2-10.8-3.3s-6.9-1.9-10.2-2.6s-6.3-1.5-9.1-2l-7.8-1.4c-2.3-0.4-4.4-0.7-6-0.9l-5.2-0.8l5,1.6c1.6,0.5,3.6,1.1,5.7,1.8     l7.4,2.6c2.7,1,5.5,2.2,8.6,3.4s6.2,2.7,9.4,4.1c3.3,1.4,6.5,3.1,9.8,4.8s6.7,3.4,9.9,5.3s6.5,3.8,9.7,5.7     c2.5,1.6,4.9,3.1,7.3,4.7c0.6,0.4,1.2,0.8,1.8,1.2l1.9,1.3l-0.5,0.2l-0.5-0.1l-3.9-1L95,59.9L91.4,59c-1.9-0.4-3.9-0.9-6.1-1.2     s-4.5-0.7-6.9-1.1s-4.9-0.5-7.5-0.6S65.8,56,63.2,56c-2.6,0.2-5.2,0.3-7.7,0.7c-1.2,0.2-2.5,0.3-3.7,0.5L48.3,58     c-2.3,0.5-4.5,1.2-6.6,1.8l-5.7,2l-4.6,2c-1.4,0.6-2.5,1.2-3.5,1.8l-3,1.6l3.3-0.8c1-0.2,2.3-0.6,3.7-0.8l4.9-0.8l5.8-0.5     c2,0,4.2-0.2,6.4-0.1l3.3,0.2c1.1,0,2.3,0.2,3.4,0.3c2.3,0.2,4.5,0.7,6.8,1.1c2.2,0.6,4.5,1,6.6,1.7s4.2,1.4,6.2,2.1     c1.4,0.6,2.8,1.1,4.1,1.7c0.6,0.2,1.1,0.5,1.7,0.7s1.2,0.5,1.7,0.8l-0.2,0.2l-0.7-0.2c-1.1-0.1-2.2-0.3-3.5-0.5l-0.5-0.1     c-1.4-0.1-3-0.2-4.6-0.2s-3.3,0-5,0.1s-3.4,0.2-5.2,0.5s-3.5,0.5-5.2,0.8s-3.5,0.7-5.1,1.2s-3.3,0.9-4.8,1.4s-3,1.1-4.4,1.6     s-2.7,1.2-3.8,1.7s-2.2,1.1-3.1,1.6s-1.7,0.9-2.3,1.3l-2,1.2l2.3-0.4c0.9-0.2,1.8-0.3,2.6-0.4c1-0.1,2.1-0.3,3.3-0.4     s2.5-0.2,4-0.2s2.8,0,4.4,0.1s3,0.2,4.6,0.3s3.1,0.4,4.7,0.7s3.1,0.6,4.6,1s2.9,0.8,4.3,1.2l1.7,0.6c0.8,0.3,1.5,0.5,2.2,0.8     c0.3,0.1,0.6,0.2,0.9,0.4l-1.3,0.1c-0.9,0.1-1.8,0.2-2.7,0.4c-1,0.2-2,0.3-3.1,0.5c-2.1,0.4-4.3,0.9-6.6,1.6s-4.6,1.5-7,2.3     c-2.4,1-4.8,1.9-7.2,3.1s-4.7,2.4-7,3.7c-2.3,1.4-4.5,2.7-6.6,4.2c-1.1,0.7-2.1,1.4-3.1,2.2l-3,2.3c-2,1.4-3.7,3.1-5.4,4.5     s-3.1,3-4.5,4.3s-2.5,2.7-3.6,3.8s-1.9,2.2-2.7,3l-2.2,2.7l2.8-2c0.9-0.6,1.9-1.5,3.2-2.3l4.3-2.8c1.6-0.9,3.4-2,5.2-3     s3.9-2,6-2.9l3.2-1.4c1.1-0.4,2.2-0.8,3.3-1.3c2.2-0.9,4.6-1.5,6.8-2.3s4.6-1.3,6.9-1.7s4.5-0.8,6.7-1.1c2-0.2,4-0.4,5.9-0.4h0.4     c1.2-0.1,2.3-0.1,3.4,0l-0.1,0.3c-0.9,0.1-1.7,0.3-2.6,0.5l-1.4,0.4c-0.8,0.2-1.6,0.5-2.4,0.8c-1.3,0.5-2.6,1.1-3.9,1.7     c-1.2,0.7-2.5,1.3-3.7,2.1s-2.4,1.6-3.5,2.4s-2.2,1.8-3.3,2.6s-2.1,1.8-3,2.7c-1.7,1.6-3.3,3.3-4.8,5.1c-0.7,0.8-1.2,1.5-1.7,2.2     s-0.9,1.2-1.2,1.7l-1,1.5l1.6-0.9c0.5-0.3,1.1-0.6,1.8-1s1.5-0.8,2.4-1.1c2-0.9,4-1.7,6-2.4c1.1-0.4,2.3-0.7,3.5-1     s2.4-0.6,3.6-0.7s2.4-0.4,3.6-0.5c0.6-0.1,1.2-0.1,1.8-0.1h1.5h1.5l-0.8,0.3c-0.9,0.3-1.7,0.7-2.5,1.2l-0.6,0.3     c-1.1,0.5-2.2,1.2-3.4,1.8s-2.3,1.4-3.5,2.3s-2.3,1.7-3.4,2.6s-2.2,1.9-3.2,2.9c-3.7,3.6-7.1,7.5-10,11.8c-1.2,1.7-2,3.2-2.6,4.2     l-0.9,1.6l1.5-1.1c1-0.7,2.4-1.6,4.1-2.6c4.1-2.4,8.5-4.3,13-5.8c1.2-0.4,2.4-0.7,3.6-1s2.3-0.5,3.5-0.7s2.2-0.3,3.1-0.4h0.4     c-0.3,5-0.1,10.1,0.4,15.1l-0.3,0.3c-0.9,0.8-1.9,1.6-2.9,2.4c-0.4,0.3-0.8,0.6-1.3,1c-0.8,0.6-1.7,1.2-2.6,1.7l-1.4,0.8     l-1.5,0.7c-1,0.5-2,0.9-3,1.3s-2.1,0.7-3.1,1.1s-2,0.5-3,0.8c-0.9,0.2-1.9,0.4-2.8,0.5c-0.9,0.1-1.7,0.3-2.4,0.3l-1.9,0.1     l-1.7,0.1l1.5,0.7l1.8,0.9c0.7,0.3,1.5,0.6,2.4,0.9c1,0.4,1.9,0.7,2.9,1c1.1,0.3,2.2,0.7,3.4,0.9s2.5,0.5,3.8,0.6l1.7,0.2     l-0.8,0.2c-2.2,0.8-4.4,1.3-6.6,1.9s-4.4,0.9-6.6,1.3l-1.6,0.3l-1.6,0.2l-3.1,0.3c-1.9,0.2-3.8,0.3-5.7,0.2c-1.8,0-3.4,0.1-4.9,0     l-3.8-0.3l-3.3-0.3l3.1,1.1l3.6,1.2c1.4,0.5,3.1,0.8,4.8,1.3c1.9,0.5,3.8,0.9,5.8,1.1l3.2,0.5l1.7,0.3l1.7,0.1     c1.8,0.1,3.6,0.3,5.5,0.4l-0.6,0.4l-2.8,1.9c-1.9,1.4-3.9,2.4-5.9,3.6s-4,2-6,3l-1.5,0.7l-1.5,0.6l-2.9,1.1     c-1.8,0.7-3.6,1.3-5.4,1.8c-1.7,0.5-3.3,1-4.7,1.3l-3.7,0.7L0,195.4l3.3,0.2l3.8,0.2c1.5,0.1,3.2-0.1,5-0.1c2,0,4-0.1,6-0.4     l3.3-0.4l1.7-0.2l1.7-0.3c2.3-0.5,4.7-0.8,7.1-1.6s4.8-1.3,7.2-2.2l3.6-1.3l3.5-1.5c2.3-0.9,4.5-2.1,6.7-3.2s4.2-2.3,6.1-3.5     l1.7-1.1c1-0.7,2-1.3,3-2c3.1,7,7.4,13.4,12.5,19.1c2.7,2.9,4.7,4.9,5.6,5.7H91l-3.4-1.5l-3.4-1.6l0.8-11.5     c0.6-7.6,6.8-13.5,14.3-13.8l33-2c7.4,0,14.2,4.1,17.8,10.5c2.9,5.2,5.5,8.4,8.7,10.8c5.6,4.1,10.8,7.2,16.8,8.4     c-4.5-4.1-6.9-8.4-7.3-12.7c-0.6-7.3,4.3-13.2,8.7-17.6c5.9-5.9,8.3-7.2,15.6-4.9l16.6,3.5c-2.5-6.4-1.5-15.1-1.5-15.1     c2.2,7.8,9.6,12.6,12.9,14.3c2.3-0.9,4.4-1.9,6.5-3.3c4-2.7,8.1-5.9,7.7-8.7C233.9,150.5,228.2,144.9,224.1,139.3z M82.5,98.5     c1.8-0.3,3.7-0.5,5.6-0.6c1.2-0.1,2.5-0.1,3.7-0.1c1.3,0,2.7,0,4.2,0.1s2.9,0.2,4.4,0.4s3,0.4,4.6,0.7s3,0.6,4.5,1     s2.9,0.8,4.3,1.2s2.7,0.9,3.9,1.3s2.4,0.9,3.5,1.4c2.4,1,4.7,2.2,6.8,3.6l-7.4-1.7c-2.2-0.5-4.8-1.1-7.6-1.7l-4.3-0.9     c-1.4-0.3-2.9-0.6-4.4-0.8c-2.9-0.6-5.9-1-8.7-1.5l-4-0.6c-1.3-0.2-2.5-0.3-3.6-0.5L85,99.5c-0.9-0.1-1.7-0.2-2.4-0.3     c-1.3-0.2-2.1-0.3-2.1-0.3S81.2,98.7,82.5,98.5z M93.2,130.3l-3,0.9c-2,0.5-3.8,1.2-5.5,1.8s-3.3,1-4.7,1.6l-3.6,1.4     c-2,0.7-3.2,1.1-3.2,1.1s1-0.7,2.8-1.8l3.3-2c1.3-0.8,2.8-1.4,4.5-2.2c1.8-0.9,3.6-1.7,5.4-2.4c2-0.7,4-1.6,6.2-2.2l3.4-1     c1.1-0.4,2.3-0.7,3.5-0.9c2.4-0.5,4.8-1.1,7.2-1.5s4.9-0.7,7.3-0.9s4.8-0.3,7.1-0.4s4.5,0,6.6,0s4.1,0.2,5.9,0.4     c4.1,0.4,8.1,1.1,12,2.3c0,0-4.9-0.4-12.1-0.3c-1.8,0-3.8,0.1-5.8,0.2s-4.2,0.2-6.5,0.4s-4.6,0.4-6.9,0.7s-4.7,0.6-7.1,1     s-4.7,0.9-7,1.3s-4.5,1.1-6.7,1.6C95.3,129.7,94.3,130,93.2,130.3L93.2,130.3z M169.8,145.3c-1,0-2.3,0-3.8,0s-3.1,0.1-4.8,0.2     s-3.7,0.2-5.7,0.4s-4.1,0.4-6.3,0.7s-4.4,0.7-6.7,1s-4.6,0.8-6.9,1.3l-6.9,1.5c-2.2,0.6-4.5,1.1-6.6,1.7s-4.2,1.2-6.1,1.8     s-3.8,1.2-5.5,1.7s-3.3,1-4.6,1.5l-3.6,1.2c-2,0.7-3.1,1-3.1,1s1-0.6,2.8-1.6l3.3-1.8c1.3-0.7,2.8-1.4,4.4-2.1s3.4-1.6,5.3-2.3     s4-1.5,6.1-2.3s4.4-1.4,6.7-2l7-1.7c2.4-0.4,4.8-0.9,7.1-1.2s4.7-0.6,6.9-0.7s4.4-0.2,6.5-0.2s4,0.1,5.8,0.2     c2.9,0.2,5.8,0.6,8.6,1.1c2.1,0.4,3.2,0.8,3.2,0.8S171.9,145.3,169.8,145.3L169.8,145.3z M171.5,110.2c-1.8-1.1-4.3-2.7-7.4-4.5     l-5-2.9c-1.8-1-3.7-2-5.7-3.1s-4.1-2.1-6.1-3.2s-4.2-2.1-6.4-3.2l-6.4-3.1c-2.2-0.9-4.2-2-6.3-2.9s-4-1.8-5.9-2.6l-5.3-2.3     c-3.3-1.5-6.1-2.6-8-3.5s-3-1.4-3-1.4s1.2,0.2,3.2,0.7s5,1.1,8.5,2.2c1.7,0.5,3.6,1.1,5.6,1.8s4,1.4,6.2,2.2     c2.1,0.8,4.3,1.7,6.5,2.7l6.6,3c2.1,1.1,4.3,2.2,6.4,3.3s4.1,2.3,6,3.5s3.8,2.4,5.5,3.6s3.3,2.3,4.8,3.4s2.8,2.1,3.9,3.1     s2.1,1.8,2.9,2.5s1.4,1.3,1.8,1.7l0.6,0.6L171.5,110.2z M208.6,143.6c-2.4,1-5.2-0.2-6.1-2.6c-1-2.4,0.2-5.2,2.6-6.1     c2.4-1,5.2,0.2,6.1,2.6c0.1,0.2,0.1,0.3,0.2,0.5C212.1,140.2,210.9,142.7,208.6,143.6L208.6,143.6z"
           id="path12" /></g></g></g></svg>